<?xml version="1.0" encoding="UTF-8"?>
<svg xmlns="http://www.w3.org/2000/svg" xmlns:xlink="http://www.w3.org/1999/xlink" width="396pt" height="468pt" viewBox="0 0 396 468" version="1.1">
<defs>
<g>
<symbol overflow="visible" id="glyph0-0">
<path style="stroke:none;" d="M 1.269531 4.417969 L 1.269531 -17.625 L 13.769531 -17.625 L 13.769531 4.417969 Z M 2.671875 3.027344 L 12.378906 3.027344 L 12.378906 -16.222656 L 2.671875 -16.222656 Z M 2.671875 3.027344 "/>
</symbol>
<symbol overflow="visible" id="glyph0-1">
<path style="stroke:none;" d="M 4.503906 -8.703125 L 4.503906 -2.027344 L 7.421875 -2.027344 C 8.855469 -2.027344 9.875 -2.277344 10.484375 -2.777344 C 11.09375 -3.277344 11.402344 -4.101562 11.402344 -5.25 C 11.402344 -6.4375 11.078125 -7.308594 10.4375 -7.867188 C 9.792969 -8.425781 8.789062 -8.703125 7.421875 -8.703125 Z M 4.503906 -16.199219 L 4.503906 -10.707031 L 7.375 -10.707031 C 8.5625 -10.707031 9.421875 -10.933594 9.953125 -11.390625 C 10.488281 -11.84375 10.753906 -12.582031 10.753906 -13.597656 C 10.753906 -14.519531 10.492188 -15.179688 9.96875 -15.589844 C 9.441406 -15.996094 8.578125 -16.199219 7.375 -16.199219 Z M 2.027344 -18.226562 L 7.421875 -18.226562 C 9.285156 -18.226562 10.722656 -17.820312 11.730469 -17.015625 C 12.738281 -16.210938 13.246094 -15.070312 13.246094 -13.597656 C 13.246094 -12.484375 12.976562 -11.605469 12.445312 -10.960938 C 11.914062 -10.320312 11.113281 -9.917969 10.046875 -9.753906 C 11.242188 -9.574219 12.179688 -9.0625 12.859375 -8.222656 C 13.539062 -7.378906 13.878906 -6.308594 13.878906 -5.003906 C 13.878906 -3.351562 13.339844 -2.105469 12.257812 -1.261719 C 11.175781 -0.421875 9.5625 0 7.421875 0 L 2.027344 0 Z M 2.027344 -18.226562 "/>
</symbol>
<symbol overflow="visible" id="glyph0-2">
<path style="stroke:none;" d="M 3.125 -13.671875 L 8.875 -13.671875 L 8.875 -1.746094 L 13.328125 -1.746094 L 13.328125 0 L 2.171875 0 L 2.171875 -1.746094 L 6.628906 -1.746094 L 6.628906 -11.925781 L 3.125 -11.925781 Z M 6.628906 -18.992188 L 8.875 -18.992188 L 8.875 -16.148438 L 6.628906 -16.148438 Z M 6.628906 -18.992188 "/>
</symbol>
<symbol overflow="visible" id="glyph0-3">
<path style="stroke:none;" d="M 7.496094 -17.554688 L 7.496094 -13.671875 L 12.597656 -13.671875 L 12.597656 -11.925781 L 7.496094 -11.925781 L 7.496094 -4.503906 C 7.496094 -3.496094 7.6875 -2.792969 8.070312 -2.390625 C 8.453125 -1.992188 9.117188 -1.792969 10.070312 -1.792969 L 12.597656 -1.792969 L 12.597656 0 L 9.851562 0 C 8.167969 0 6.976562 -0.335938 6.285156 -1.011719 C 5.59375 -1.6875 5.25 -2.851562 5.25 -4.503906 L 5.25 -11.925781 L 1.597656 -11.925781 L 1.597656 -13.671875 L 5.25 -13.671875 L 5.25 -17.554688 Z M 7.496094 -17.554688 "/>
</symbol>
<symbol overflow="visible" id="glyph0-4">
<path style="stroke:none;" d="M 11.878906 -13.195312 L 11.878906 -11 C 11.234375 -11.375 10.585938 -11.652344 9.9375 -11.839844 C 9.285156 -12.027344 8.621094 -12.121094 7.945312 -12.121094 C 6.929688 -12.121094 6.171875 -11.957031 5.671875 -11.628906 C 5.171875 -11.296875 4.917969 -10.796875 4.917969 -10.121094 C 4.917969 -9.507812 5.105469 -9.054688 5.480469 -8.753906 C 5.855469 -8.453125 6.789062 -8.160156 8.277344 -7.875 L 9.179688 -7.703125 C 10.292969 -7.492188 11.140625 -7.066406 11.710938 -6.433594 C 12.285156 -5.796875 12.574219 -4.972656 12.574219 -3.953125 C 12.574219 -2.601562 12.09375 -1.546875 11.132812 -0.789062 C 10.171875 -0.0273438 8.835938 0.355469 7.128906 0.355469 C 6.453125 0.355469 5.746094 0.28125 5.003906 0.140625 C 4.265625 0 3.460938 -0.214844 2.601562 -0.5 L 2.601562 -2.820312 C 3.4375 -2.390625 4.238281 -2.066406 5.003906 -1.847656 C 5.769531 -1.632812 6.492188 -1.527344 7.179688 -1.527344 C 8.171875 -1.527344 8.941406 -1.726562 9.484375 -2.128906 C 10.03125 -2.53125 10.304688 -3.097656 10.304688 -3.820312 C 10.304688 -4.863281 9.304688 -5.582031 7.3125 -5.980469 L 7.214844 -6.007812 L 6.371094 -6.175781 C 5.078125 -6.429688 4.132812 -6.855469 3.539062 -7.453125 C 2.945312 -8.050781 2.648438 -8.867188 2.648438 -9.898438 C 2.648438 -11.210938 3.09375 -12.222656 3.980469 -12.933594 C 4.867188 -13.644531 6.132812 -14 7.777344 -14 C 8.507812 -14 9.210938 -13.933594 9.886719 -13.800781 C 10.5625 -13.664062 11.226562 -13.464844 11.878906 -13.195312 Z M 11.878906 -13.195312 "/>
</symbol>
<symbol overflow="visible" id="glyph0-5">
<path style="stroke:none;" d="M 14.097656 -10.851562 C 13.617188 -11.226562 13.128906 -11.5 12.632812 -11.671875 C 12.136719 -11.839844 11.59375 -11.925781 11 -11.925781 C 9.597656 -11.925781 8.527344 -11.488281 7.789062 -10.609375 C 7.046875 -9.730469 6.675781 -8.460938 6.675781 -6.800781 L 6.675781 0 L 4.417969 0 L 4.417969 -13.671875 L 6.675781 -13.671875 L 6.675781 -11 C 7.050781 -11.96875 7.628906 -12.710938 8.40625 -13.226562 C 9.183594 -13.742188 10.101562 -14 11.167969 -14 C 11.722656 -14 12.238281 -13.933594 12.71875 -13.792969 C 13.199219 -13.65625 13.660156 -13.441406 14.097656 -13.148438 Z M 14.097656 -10.851562 "/>
</symbol>
<symbol overflow="visible" id="glyph0-6">
<path style="stroke:none;" d="M 13.574219 -7.398438 L 13.574219 -6.296875 L 3.84375 -6.296875 L 3.84375 -6.226562 C 3.84375 -4.738281 4.234375 -3.585938 5.011719 -2.769531 C 5.789062 -1.957031 6.882812 -1.550781 8.300781 -1.550781 C 9.015625 -1.550781 9.765625 -1.664062 10.546875 -1.890625 C 11.328125 -2.121094 12.164062 -2.464844 13.050781 -2.929688 L 13.050781 -0.695312 C 12.195312 -0.34375 11.371094 -0.0820312 10.578125 0.0898438 C 9.785156 0.265625 9.015625 0.355469 8.277344 0.355469 C 6.152344 0.355469 4.492188 -0.28125 3.296875 -1.554688 C 2.101562 -2.828125 1.5 -4.585938 1.5 -6.824219 C 1.5 -9.003906 2.085938 -10.746094 3.257812 -12.046875 C 4.429688 -13.351562 5.992188 -14 7.945312 -14 C 9.6875 -14 11.0625 -13.410156 12.066406 -12.230469 C 13.070312 -11.050781 13.574219 -9.441406 13.574219 -7.398438 Z M 11.328125 -8.054688 C 11.296875 -9.375 10.984375 -10.378906 10.394531 -11.066406 C 9.804688 -11.753906 8.957031 -12.097656 7.847656 -12.097656 C 6.765625 -12.097656 5.875 -11.738281 5.175781 -11.023438 C 4.476562 -10.308594 4.0625 -9.3125 3.929688 -8.042969 Z M 11.328125 -8.054688 "/>
</symbol>
<symbol overflow="visible" id="glyph0-7">
<path style="stroke:none;" d="M 8.570312 -6.871094 L 7.824219 -6.871094 C 6.515625 -6.871094 5.527344 -6.644531 4.863281 -6.183594 C 4.199219 -5.722656 3.871094 -5.039062 3.871094 -4.125 C 3.871094 -3.304688 4.117188 -2.664062 4.613281 -2.210938 C 5.109375 -1.753906 5.796875 -1.527344 6.675781 -1.527344 C 7.914062 -1.527344 8.886719 -1.957031 9.59375 -2.8125 C 10.300781 -3.671875 10.660156 -4.859375 10.667969 -6.371094 L 10.667969 -6.871094 Z M 12.925781 -7.800781 L 12.925781 0 L 10.667969 0 L 10.667969 -2.027344 C 10.1875 -1.210938 9.585938 -0.613281 8.855469 -0.226562 C 8.128906 0.160156 7.242188 0.355469 6.203125 0.355469 C 4.808594 0.355469 3.699219 -0.0390625 2.867188 -0.824219 C 2.039062 -1.609375 1.625 -2.660156 1.625 -3.980469 C 1.625 -5.5 2.132812 -6.65625 3.15625 -7.445312 C 4.175781 -8.234375 5.675781 -8.628906 7.652344 -8.628906 L 10.667969 -8.628906 L 10.667969 -8.984375 C 10.660156 -10.074219 10.382812 -10.867188 9.839844 -11.359375 C 9.292969 -11.851562 8.421875 -12.097656 7.226562 -12.097656 C 6.460938 -12.097656 5.6875 -11.988281 4.90625 -11.765625 C 4.125 -11.546875 3.363281 -11.226562 2.625 -10.804688 L 2.625 -13.050781 C 3.453125 -13.367188 4.25 -13.605469 5.011719 -13.761719 C 5.773438 -13.921875 6.511719 -14 7.226562 -14 C 8.359375 -14 9.324219 -13.835938 10.125 -13.5 C 10.925781 -13.167969 11.578125 -12.667969 12.074219 -12 C 12.382812 -11.59375 12.601562 -11.089844 12.730469 -10.492188 C 12.863281 -9.894531 12.925781 -8.996094 12.925781 -7.800781 Z M 12.925781 -7.800781 "/>
</symbol>
<symbol overflow="visible" id="glyph0-8">
<path style="stroke:none;" d="M 8.25 -12.28125 C 8.527344 -12.867188 8.878906 -13.300781 9.308594 -13.582031 C 9.734375 -13.863281 10.25 -14 10.851562 -14 C 11.949219 -14 12.726562 -13.578125 13.175781 -12.726562 C 13.628906 -11.875 13.855469 -10.273438 13.855469 -7.921875 L 13.855469 0 L 11.804688 0 L 11.804688 -7.824219 C 11.804688 -9.753906 11.695312 -10.953125 11.480469 -11.417969 C 11.265625 -11.886719 10.871094 -12.121094 10.304688 -12.121094 C 9.652344 -12.121094 9.207031 -11.871094 8.964844 -11.371094 C 8.726562 -10.871094 8.605469 -9.6875 8.605469 -7.824219 L 8.605469 0 L 6.554688 0 L 6.554688 -7.824219 C 6.554688 -9.777344 6.4375 -10.980469 6.207031 -11.4375 C 5.976562 -11.894531 5.558594 -12.121094 4.957031 -12.121094 C 4.363281 -12.121094 3.949219 -11.871094 3.71875 -11.371094 C 3.484375 -10.871094 3.367188 -9.6875 3.367188 -7.824219 L 3.367188 0 L 1.332031 0 L 1.332031 -13.671875 L 3.367188 -13.671875 L 3.367188 -12.5 C 3.636719 -12.988281 3.972656 -13.359375 4.375 -13.617188 C 4.777344 -13.875 5.238281 -14 5.75 -14 C 6.367188 -14 6.882812 -13.859375 7.292969 -13.574219 C 7.703125 -13.289062 8.023438 -12.859375 8.25 -12.28125 Z M 8.25 -12.28125 "/>
</symbol>
<symbol overflow="visible" id="glyph0-9">
<path style="stroke:none;" d="M 7.519531 -2.074219 L 11.804688 -18.226562 L 14.355469 -18.226562 L 9.019531 0 L 6.03125 0 L 0.695312 -18.226562 L 3.246094 -18.226562 Z M 7.519531 -2.074219 "/>
</symbol>
<symbol overflow="visible" id="glyph0-10">
<path style="stroke:none;" d="M 12.351562 -17.601562 L 12.351562 -15.101562 C 11.605469 -15.582031 10.855469 -15.941406 10.101562 -16.1875 C 9.347656 -16.429688 8.589844 -16.554688 7.824219 -16.554688 C 6.660156 -16.554688 5.742188 -16.28125 5.066406 -15.742188 C 4.390625 -15.199219 4.054688 -14.46875 4.054688 -13.550781 C 4.054688 -12.746094 4.273438 -12.128906 4.71875 -11.707031 C 5.160156 -11.285156 5.988281 -10.929688 7.203125 -10.644531 L 8.496094 -10.351562 C 10.203125 -9.953125 11.449219 -9.328125 12.230469 -8.472656 C 13.011719 -7.617188 13.402344 -6.453125 13.402344 -4.980469 C 13.402344 -3.246094 12.867188 -1.925781 11.792969 -1.011719 C 10.71875 -0.101562 9.15625 0.355469 7.105469 0.355469 C 6.25 0.355469 5.390625 0.261719 4.527344 0.078125 C 3.664062 -0.105469 2.800781 -0.378906 1.929688 -0.746094 L 1.929688 -3.367188 C 2.863281 -2.773438 3.75 -2.339844 4.582031 -2.0625 C 5.417969 -1.785156 6.257812 -1.648438 7.105469 -1.648438 C 8.351562 -1.648438 9.316406 -1.925781 10.007812 -2.484375 C 10.699219 -3.042969 11.046875 -3.820312 11.046875 -4.820312 C 11.046875 -5.734375 10.808594 -6.429688 10.332031 -6.910156 C 9.855469 -7.390625 9.027344 -7.757812 7.847656 -8.019531 L 6.53125 -8.324219 C 4.839844 -8.707031 3.609375 -9.285156 2.84375 -10.058594 C 2.078125 -10.832031 1.695312 -11.871094 1.695312 -13.171875 C 1.695312 -14.800781 2.242188 -16.101562 3.339844 -17.082031 C 4.433594 -18.0625 5.886719 -18.554688 7.703125 -18.554688 C 8.402344 -18.554688 9.140625 -18.476562 9.914062 -18.316406 C 10.6875 -18.15625 11.5 -17.921875 12.351562 -17.601562 Z M 12.351562 -17.601562 "/>
</symbol>
<symbol overflow="visible" id="glyph0-11">
<path style="stroke:none;" d="M 12.828125 -8.472656 L 12.828125 0 L 10.570312 0 L 10.570312 -8.472656 C 10.570312 -9.699219 10.355469 -10.605469 9.925781 -11.179688 C 9.492188 -11.757812 8.816406 -12.046875 7.898438 -12.046875 C 6.847656 -12.046875 6.039062 -11.675781 5.476562 -10.929688 C 4.910156 -10.1875 4.625 -9.117188 4.625 -7.726562 L 4.625 0 L 2.378906 0 L 2.378906 -13.671875 L 4.625 -13.671875 L 4.625 -11.621094 C 5.023438 -12.402344 5.566406 -12.996094 6.25 -13.398438 C 6.933594 -13.800781 7.742188 -14 8.679688 -14 C 10.070312 -14 11.109375 -13.542969 11.796875 -12.628906 C 12.484375 -11.710938 12.828125 -10.328125 12.828125 -8.472656 Z M 12.828125 -8.472656 "/>
</symbol>
<symbol overflow="visible" id="glyph0-12">
<g>
</g>
</symbol>
<symbol overflow="visible" id="glyph0-13">
<path style="stroke:none;" d="M 1.050781 -18.226562 L 4.34375 -18.226562 L 7.496094 -8.949219 L 10.667969 -18.226562 L 13.976562 -18.226562 L 13.976562 0 L 11.695312 0 L 11.695312 -16.101562 L 8.445312 -6.492188 L 6.578125 -6.492188 L 3.320312 -16.101562 L 3.320312 0 L 1.050781 0 Z M 1.050781 -18.226562 "/>
</symbol>
<symbol overflow="visible" id="glyph0-14">
<path style="stroke:none;" d="M 7.519531 -12.097656 C 6.378906 -12.097656 5.515625 -11.652344 4.929688 -10.765625 C 4.34375 -9.878906 4.054688 -8.566406 4.054688 -6.824219 C 4.054688 -5.089844 4.34375 -3.777344 4.929688 -2.886719 C 5.515625 -1.996094 6.378906 -1.550781 7.519531 -1.550781 C 8.667969 -1.550781 9.535156 -1.996094 10.121094 -2.886719 C 10.707031 -3.777344 11 -5.089844 11 -6.824219 C 11 -8.566406 10.707031 -9.878906 10.121094 -10.765625 C 9.535156 -11.652344 8.667969 -12.097656 7.519531 -12.097656 Z M 7.519531 -14 C 9.414062 -14 10.867188 -13.386719 11.871094 -12.15625 C 12.875 -10.929688 13.378906 -9.152344 13.378906 -6.824219 C 13.378906 -4.488281 12.878906 -2.707031 11.878906 -1.484375 C 10.875 -0.257812 9.421875 0.355469 7.519531 0.355469 C 5.625 0.355469 4.175781 -0.257812 3.171875 -1.484375 C 2.171875 -2.707031 1.671875 -4.488281 1.671875 -6.824219 C 1.671875 -9.152344 2.171875 -10.929688 3.171875 -12.15625 C 4.175781 -13.386719 5.625 -14 7.519531 -14 Z M 7.519531 -14 "/>
</symbol>
<symbol overflow="visible" id="glyph1-0">
<path style="stroke:none;" d="M 1.574219 5.480469 L 1.574219 -21.859375 L 17.074219 -21.859375 L 17.074219 5.480469 Z M 3.316406 3.753906 L 15.347656 3.753906 L 15.347656 -20.117188 L 3.316406 -20.117188 Z M 3.316406 3.753906 "/>
</symbol>
<symbol overflow="visible" id="glyph1-1">
<path style="stroke:none;" d="M 9.324219 -19.90625 L 6.101562 -8.339844 L 12.546875 -8.339844 Z M 7.476562 -22.597656 L 11.1875 -22.597656 L 18.101562 0 L 14.941406 0 L 13.273438 -5.886719 L 5.359375 -5.886719 L 3.722656 0 L 0.558594 0 Z M 7.476562 -22.597656 "/>
</symbol>
<symbol overflow="visible" id="glyph1-2">
<path style="stroke:none;" d="M 10.625 -8.523438 L 9.703125 -8.523438 C 8.078125 -8.523438 6.855469 -8.238281 6.03125 -7.667969 C 5.210938 -7.097656 4.796875 -6.246094 4.796875 -5.117188 C 4.796875 -4.097656 5.105469 -3.304688 5.722656 -2.738281 C 6.335938 -2.175781 7.191406 -1.890625 8.28125 -1.890625 C 9.8125 -1.890625 11.019531 -2.425781 11.898438 -3.488281 C 12.777344 -4.554688 13.21875 -6.023438 13.230469 -7.902344 L 13.230469 -8.523438 Z M 16.03125 -9.671875 L 16.03125 0 L 13.230469 0 L 13.230469 -2.511719 C 12.632812 -1.503906 11.886719 -0.757812 10.980469 -0.28125 C 10.078125 0.199219 8.980469 0.4375 7.6875 0.4375 C 5.964844 0.4375 4.585938 -0.046875 3.558594 -1.023438 C 2.527344 -1.996094 2.011719 -3.300781 2.011719 -4.933594 C 2.011719 -6.820312 2.644531 -8.253906 3.914062 -9.234375 C 5.179688 -10.210938 7.039062 -10.703125 9.492188 -10.703125 L 13.230469 -10.703125 L 13.230469 -11.140625 C 13.21875 -12.492188 12.875 -13.472656 12.199219 -14.085938 C 11.523438 -14.695312 10.445312 -15 8.960938 -15 C 8.011719 -15 7.054688 -14.863281 6.085938 -14.59375 C 5.117188 -14.320312 4.171875 -13.921875 3.253906 -13.394531 L 3.253906 -16.179688 C 4.285156 -16.574219 5.269531 -16.871094 6.214844 -17.066406 C 7.15625 -17.261719 8.074219 -17.363281 8.960938 -17.363281 C 10.363281 -17.363281 11.5625 -17.15625 12.554688 -16.742188 C 13.550781 -16.328125 14.355469 -15.707031 14.96875 -14.878906 C 15.351562 -14.375 15.625 -13.75 15.789062 -13.011719 C 15.949219 -12.269531 16.03125 -11.15625 16.03125 -9.671875 Z M 16.03125 -9.671875 "/>
</symbol>
<symbol overflow="visible" id="glyph1-3">
<g>
</g>
</symbol>
<symbol overflow="visible" id="glyph1-4">
<path style="stroke:none;" d="M 2.980469 -22.597656 L 16.394531 -22.597656 L 16.394531 -20.027344 L 6.039062 -20.027344 L 6.039062 -13.335938 L 15.9375 -13.335938 L 15.9375 -10.761719 L 6.039062 -10.761719 L 6.039062 -2.574219 L 16.679688 -2.574219 L 16.679688 0 L 2.980469 0 Z M 2.980469 -22.597656 "/>
</symbol>
<symbol overflow="visible" id="glyph1-5">
<path style="stroke:none;" d="M 16.832031 -9.171875 L 16.832031 -7.8125 L 4.769531 -7.8125 L 4.769531 -7.71875 C 4.769531 -5.871094 5.25 -4.445312 6.214844 -3.4375 C 7.179688 -2.425781 8.539062 -1.921875 10.292969 -1.921875 C 11.179688 -1.921875 12.109375 -2.0625 13.078125 -2.347656 C 14.046875 -2.628906 15.082031 -3.058594 16.179688 -3.632812 L 16.179688 -0.863281 C 15.121094 -0.429688 14.101562 -0.101562 13.117188 0.113281 C 12.132812 0.332031 11.179688 0.4375 10.261719 0.4375 C 7.628906 0.4375 5.570312 -0.351562 4.085938 -1.929688 C 2.601562 -3.507812 1.863281 -5.6875 1.863281 -8.460938 C 1.863281 -11.164062 2.589844 -13.324219 4.042969 -14.941406 C 5.496094 -16.554688 7.433594 -17.363281 9.855469 -17.363281 C 12.015625 -17.363281 13.714844 -16.628906 14.960938 -15.167969 C 16.207031 -13.703125 16.832031 -11.707031 16.832031 -9.171875 Z M 14.046875 -9.992188 C 14.007812 -11.625 13.621094 -12.867188 12.890625 -13.722656 C 12.15625 -14.574219 11.105469 -15 9.734375 -15 C 8.390625 -15 7.285156 -14.554688 6.417969 -13.667969 C 5.550781 -12.78125 5.035156 -11.550781 4.875 -9.976562 Z M 14.046875 -9.992188 "/>
</symbol>
<symbol overflow="visible" id="glyph1-6">
<path style="stroke:none;" d="M 16.710938 -1.863281 C 15.894531 -1.105469 14.972656 -0.53125 13.949219 -0.144531 C 12.925781 0.246094 11.816406 0.4375 10.625 0.4375 C 7.757812 0.4375 5.53125 -0.585938 3.9375 -2.640625 C 2.34375 -4.695312 1.542969 -7.574219 1.542969 -11.277344 C 1.542969 -14.96875 2.351562 -17.847656 3.964844 -19.914062 C 5.578125 -21.976562 7.824219 -23.007812 10.703125 -23.007812 C 11.652344 -23.007812 12.558594 -22.875 13.425781 -22.605469 C 14.292969 -22.339844 15.132812 -21.933594 15.9375 -21.386719 L 15.9375 -18.253906 C 15.121094 -19.03125 14.285156 -19.605469 13.425781 -19.972656 C 12.570312 -20.339844 11.660156 -20.523438 10.703125 -20.523438 C 8.714844 -20.523438 7.222656 -19.757812 6.230469 -18.21875 C 5.234375 -16.679688 4.738281 -14.363281 4.738281 -11.277344 C 4.738281 -8.140625 5.21875 -5.816406 6.183594 -4.304688 C 7.148438 -2.796875 8.628906 -2.042969 10.625 -2.042969 C 11.300781 -2.042969 11.894531 -2.121094 12.40625 -2.277344 C 12.914062 -2.433594 13.375 -2.679688 13.789062 -3.011719 L 13.789062 -9.082031 L 10.503906 -9.082031 L 10.503906 -11.59375 L 16.710938 -11.59375 Z M 16.710938 -1.863281 "/>
</symbol>
<symbol overflow="visible" id="glyph1-7">
<path style="stroke:none;" d="M 12.988281 -8.613281 C 12.988281 -10.703125 12.648438 -12.289062 11.964844 -13.375 C 11.285156 -14.457031 10.292969 -15 8.992188 -15 C 7.628906 -15 6.589844 -14.457031 5.875 -13.375 C 5.15625 -12.289062 4.796875 -10.703125 4.796875 -8.613281 C 4.796875 -6.523438 5.160156 -4.933594 5.878906 -3.835938 C 6.601562 -2.742188 7.648438 -2.195312 9.023438 -2.195312 C 10.304688 -2.195312 11.285156 -2.746094 11.964844 -3.84375 C 12.648438 -4.945312 12.988281 -6.535156 12.988281 -8.613281 Z M 15.773438 -1.089844 C 15.773438 1.453125 15.171875 3.378906 13.972656 4.691406 C 12.769531 6.003906 11.003906 6.660156 8.671875 6.660156 C 7.90625 6.660156 7.105469 6.589844 6.265625 6.449219 C 5.429688 6.308594 4.589844 6.101562 3.753906 5.828125 L 3.753906 3.074219 C 4.742188 3.539062 5.640625 3.878906 6.449219 4.101562 C 7.257812 4.324219 7.996094 4.433594 8.671875 4.433594 C 10.175781 4.433594 11.273438 4.027344 11.957031 3.210938 C 12.644531 2.390625 12.988281 1.09375 12.988281 -0.679688 L 12.988281 -2.695312 C 12.542969 -1.746094 11.9375 -1.039062 11.171875 -0.574219 C 10.40625 -0.109375 9.46875 0.121094 8.371094 0.121094 C 6.394531 0.121094 4.8125 -0.671875 3.632812 -2.253906 C 2.453125 -3.839844 1.863281 -5.957031 1.863281 -8.613281 C 1.863281 -11.277344 2.453125 -13.402344 3.632812 -14.984375 C 4.8125 -16.570312 6.394531 -17.363281 8.371094 -17.363281 C 9.460938 -17.363281 10.382812 -17.144531 11.140625 -16.710938 C 11.898438 -16.277344 12.511719 -15.605469 12.988281 -14.699219 L 12.988281 -16.890625 L 15.773438 -16.890625 Z M 15.773438 -1.089844 "/>
</symbol>
<symbol overflow="visible" id="glyph1-8">
<path style="stroke:none;" d="M 3.042969 -22.597656 L 15.589844 -22.597656 L 15.589844 -20.027344 L 10.851562 -20.027344 L 10.851562 -2.574219 L 15.589844 -2.574219 L 15.589844 0 L 3.042969 0 L 3.042969 -2.574219 L 7.78125 -2.574219 L 7.78125 -20.027344 L 3.042969 -20.027344 Z M 3.042969 -22.597656 "/>
</symbol>
<symbol overflow="visible" id="glyph1-9">
<path style="stroke:none;" d="M 3.875 -16.953125 L 11.003906 -16.953125 L 11.003906 -2.164062 L 16.53125 -2.164062 L 16.53125 0 L 2.695312 0 L 2.695312 -2.164062 L 8.21875 -2.164062 L 8.21875 -14.789062 L 3.875 -14.789062 Z M 8.21875 -23.554688 L 11.003906 -23.554688 L 11.003906 -20.027344 L 8.21875 -20.027344 Z M 8.21875 -23.554688 "/>
</symbol>
<symbol overflow="visible" id="glyph1-10">
<path style="stroke:none;" d="M 3.253906 -22.597656 L 6.328125 -22.597656 L 6.328125 -2.574219 L 17.242188 -2.574219 L 17.242188 0 L 3.253906 0 Z M 3.253906 -22.597656 "/>
</symbol>
<symbol overflow="visible" id="glyph1-11">
<path style="stroke:none;" d="M 9.671875 -6.144531 C 9.671875 -4.894531 9.902344 -3.949219 10.359375 -3.316406 C 10.820312 -2.679688 11.5 -2.359375 12.398438 -2.359375 L 15.652344 -2.359375 L 15.652344 0 L 12.125 0 C 10.460938 0 9.171875 -0.535156 8.257812 -1.605469 C 7.34375 -2.675781 6.886719 -4.1875 6.886719 -6.144531 L 6.886719 -21.539062 L 2.421875 -21.539062 L 2.421875 -23.71875 L 9.671875 -23.71875 Z M 9.671875 -6.144531 "/>
</symbol>
<symbol overflow="visible" id="glyph1-12">
<path style="stroke:none;" d="M 1.300781 -22.597656 L 5.390625 -22.597656 L 9.292969 -11.09375 L 13.230469 -22.597656 L 17.332031 -22.597656 L 17.332031 0 L 14.5 0 L 14.5 -19.964844 L 10.476562 -8.054688 L 8.160156 -8.054688 L 4.117188 -19.964844 L 4.117188 0 L 1.300781 0 Z M 1.300781 -22.597656 "/>
</symbol>
<symbol overflow="visible" id="glyph1-13">
<path style="stroke:none;" d="M 10.234375 -15.226562 C 10.578125 -15.953125 11.011719 -16.492188 11.542969 -16.839844 C 12.070312 -17.1875 12.710938 -17.363281 13.457031 -17.363281 C 14.820312 -17.363281 15.78125 -16.835938 16.339844 -15.78125 C 16.898438 -14.726562 17.179688 -12.738281 17.179688 -9.824219 L 17.179688 0 L 14.636719 0 L 14.636719 -9.703125 C 14.636719 -12.09375 14.503906 -13.582031 14.234375 -14.160156 C 13.96875 -14.742188 13.480469 -15.03125 12.773438 -15.03125 C 11.96875 -15.03125 11.414062 -14.71875 11.117188 -14.101562 C 10.820312 -13.480469 10.671875 -12.011719 10.671875 -9.703125 L 10.671875 0 L 8.128906 0 L 8.128906 -9.703125 C 8.128906 -12.125 7.984375 -13.617188 7.695312 -14.183594 C 7.410156 -14.75 6.890625 -15.03125 6.144531 -15.03125 C 5.410156 -15.03125 4.898438 -14.71875 4.609375 -14.101562 C 4.320312 -13.480469 4.179688 -12.011719 4.179688 -9.703125 L 4.179688 0 L 1.648438 0 L 1.648438 -16.953125 L 4.179688 -16.953125 L 4.179688 -15.5 C 4.511719 -16.105469 4.925781 -16.566406 5.425781 -16.886719 C 5.925781 -17.203125 6.492188 -17.363281 7.128906 -17.363281 C 7.894531 -17.363281 8.535156 -17.183594 9.042969 -16.832031 C 9.554688 -16.480469 9.949219 -15.945312 10.234375 -15.226562 Z M 10.234375 -15.226562 "/>
</symbol>
<symbol overflow="visible" id="glyph1-14">
<path style="stroke:none;" d="M 6.039062 -20.085938 L 6.039062 -11.59375 L 9.582031 -11.59375 C 10.996094 -11.59375 12.097656 -11.96875 12.890625 -12.714844 C 13.679688 -13.460938 14.078125 -14.507812 14.078125 -15.847656 C 14.078125 -17.191406 13.683594 -18.230469 12.898438 -18.972656 C 12.109375 -19.714844 11.003906 -20.085938 9.582031 -20.085938 Z M 2.980469 -22.597656 L 9.582031 -22.597656 C 12.105469 -22.597656 14.015625 -22.027344 15.320312 -20.882812 C 16.621094 -19.734375 17.269531 -18.058594 17.269531 -15.847656 C 17.269531 -13.617188 16.621094 -11.933594 15.324219 -10.792969 C 14.027344 -9.652344 12.113281 -9.082031 9.582031 -9.082031 L 6.039062 -9.082031 L 6.039062 0 L 2.980469 0 Z M 2.980469 -22.597656 "/>
</symbol>
<symbol overflow="visible" id="glyph1-15">
<path style="stroke:none;" d="M 5.675781 -2.132812 L 5.675781 6.449219 L 2.875 6.449219 L 2.875 -16.953125 L 5.675781 -16.953125 L 5.675781 -14.789062 C 6.140625 -15.625 6.757812 -16.265625 7.53125 -16.703125 C 8.304688 -17.140625 9.191406 -17.363281 10.203125 -17.363281 C 12.25 -17.363281 13.859375 -16.570312 15.023438 -14.984375 C 16.1875 -13.402344 16.773438 -11.207031 16.773438 -8.402344 C 16.773438 -5.648438 16.1875 -3.484375 15.015625 -1.914062 C 13.84375 -0.34375 12.242188 0.4375 10.203125 0.4375 C 9.171875 0.4375 8.273438 0.21875 7.5 -0.21875 C 6.726562 -0.65625 6.121094 -1.296875 5.675781 -2.132812 Z M 13.851562 -8.460938 C 13.851562 -10.621094 13.507812 -12.25 12.828125 -13.351562 C 12.148438 -14.449219 11.136719 -15 9.792969 -15 C 8.441406 -15 7.417969 -14.449219 6.71875 -13.34375 C 6.023438 -12.238281 5.675781 -10.609375 5.675781 -8.460938 C 5.675781 -6.320312 6.023438 -4.699219 6.71875 -3.585938 C 7.417969 -2.476562 8.441406 -1.921875 9.792969 -1.921875 C 11.136719 -1.921875 12.148438 -2.472656 12.828125 -3.570312 C 13.507812 -4.671875 13.851562 -6.300781 13.851562 -8.460938 Z M 13.851562 -8.460938 "/>
</symbol>
<symbol overflow="visible" id="glyph1-16">
<path style="stroke:none;" d="M 11.503906 -10.671875 C 12.289062 -10.46875 12.960938 -10.089844 13.515625 -9.527344 C 14.070312 -8.96875 14.761719 -7.851562 15.589844 -6.175781 L 18.664062 0 L 15.378906 0 L 12.683594 -5.707031 C 11.90625 -7.332031 11.207031 -8.378906 10.589844 -8.847656 C 9.96875 -9.316406 9.15625 -9.550781 8.160156 -9.550781 L 5.238281 -9.550781 L 5.238281 0 L 2.164062 0 L 2.164062 -22.597656 L 8.460938 -22.597656 C 10.945312 -22.597656 12.847656 -22.039062 14.167969 -20.917969 C 15.488281 -19.796875 16.152344 -18.179688 16.152344 -16.058594 C 16.152344 -14.566406 15.746094 -13.347656 14.933594 -12.40625 C 14.121094 -11.460938 12.976562 -10.882812 11.503906 -10.671875 Z M 5.238281 -20.085938 L 5.238281 -12.0625 L 8.582031 -12.0625 C 10.046875 -12.0625 11.136719 -12.390625 11.851562 -13.046875 C 12.570312 -13.703125 12.925781 -14.707031 12.925781 -16.058594 C 12.925781 -17.359375 12.546875 -18.359375 11.785156 -19.050781 C 11.023438 -19.742188 9.914062 -20.085938 8.460938 -20.085938 Z M 5.238281 -20.085938 "/>
</symbol>
<symbol overflow="visible" id="glyph1-17">
<path style="stroke:none;" d="M 17.484375 -13.457031 C 16.886719 -13.921875 16.28125 -14.257812 15.667969 -14.46875 C 15.050781 -14.683594 14.375 -14.789062 13.636719 -14.789062 C 11.902344 -14.789062 10.574219 -14.242188 9.65625 -13.152344 C 8.738281 -12.0625 8.28125 -10.488281 8.28125 -8.429688 L 8.28125 0 L 5.480469 0 L 5.480469 -16.953125 L 8.28125 -16.953125 L 8.28125 -13.636719 C 8.746094 -14.839844 9.457031 -15.761719 10.421875 -16.402344 C 11.386719 -17.042969 12.527344 -17.363281 13.851562 -17.363281 C 14.535156 -17.363281 15.175781 -17.277344 15.773438 -17.105469 C 16.367188 -16.933594 16.9375 -16.664062 17.484375 -16.300781 Z M 17.484375 -13.457031 "/>
</symbol>
<symbol overflow="visible" id="glyph1-18">
<path style="stroke:none;" d="M 15.320312 -21.828125 L 15.320312 -18.722656 C 14.390625 -19.320312 13.460938 -19.769531 12.527344 -20.070312 C 11.59375 -20.375 10.652344 -20.523438 9.703125 -20.523438 C 8.257812 -20.523438 7.121094 -20.191406 6.28125 -19.519531 C 5.445312 -18.847656 5.023438 -17.941406 5.023438 -16.800781 C 5.023438 -15.800781 5.300781 -15.039062 5.851562 -14.515625 C 6.402344 -13.992188 7.425781 -13.550781 8.929688 -13.199219 L 10.535156 -12.835938 C 12.65625 -12.339844 14.199219 -11.5625 15.167969 -10.503906 C 16.136719 -9.445312 16.621094 -8.003906 16.621094 -6.175781 C 16.621094 -4.027344 15.953125 -2.386719 14.621094 -1.257812 C 13.289062 -0.125 11.351562 0.4375 8.808594 0.4375 C 7.75 0.4375 6.683594 0.324219 5.617188 0.0976562 C 4.546875 -0.128906 3.472656 -0.46875 2.390625 -0.921875 L 2.390625 -4.179688 C 3.550781 -3.441406 4.648438 -2.902344 5.683594 -2.558594 C 6.71875 -2.214844 7.761719 -2.042969 8.808594 -2.042969 C 10.351562 -2.042969 11.554688 -2.390625 12.414062 -3.082031 C 13.269531 -3.773438 13.699219 -4.738281 13.699219 -5.980469 C 13.699219 -7.109375 13.402344 -7.972656 12.8125 -8.566406 C 12.222656 -9.164062 11.195312 -9.621094 9.734375 -9.945312 L 8.097656 -10.324219 C 6 -10.796875 4.476562 -11.515625 3.527344 -12.472656 C 2.578125 -13.429688 2.105469 -14.71875 2.105469 -16.332031 C 2.105469 -18.351562 2.78125 -19.96875 4.140625 -21.183594 C 5.496094 -22.398438 7.300781 -23.007812 9.550781 -23.007812 C 10.417969 -23.007812 11.332031 -22.910156 12.289062 -22.710938 C 13.25 -22.515625 14.257812 -22.21875 15.320312 -21.828125 Z M 15.320312 -21.828125 "/>
</symbol>
<symbol overflow="visible" id="glyph1-19">
<path style="stroke:none;" d="M 14.726562 -16.363281 L 14.726562 -13.636719 C 13.929688 -14.101562 13.128906 -14.449219 12.320312 -14.683594 C 11.515625 -14.914062 10.691406 -15.03125 9.855469 -15.03125 C 8.59375 -15.03125 7.652344 -14.828125 7.03125 -14.417969 C 6.410156 -14.007812 6.101562 -13.386719 6.101562 -12.546875 C 6.101562 -11.789062 6.332031 -11.226562 6.796875 -10.851562 C 7.261719 -10.480469 8.414062 -10.117188 10.261719 -9.761719 L 11.382812 -9.550781 C 12.765625 -9.289062 13.8125 -8.765625 14.523438 -7.976562 C 15.234375 -7.191406 15.589844 -6.164062 15.589844 -4.90625 C 15.589844 -3.230469 14.996094 -1.917969 13.804688 -0.976562 C 12.613281 -0.03125 10.960938 0.4375 8.839844 0.4375 C 8.003906 0.4375 7.125 0.351562 6.207031 0.175781 C 5.289062 0 4.292969 -0.265625 3.222656 -0.621094 L 3.222656 -3.496094 C 4.261719 -2.960938 5.257812 -2.5625 6.207031 -2.292969 C 7.15625 -2.027344 8.054688 -1.890625 8.898438 -1.890625 C 10.132812 -1.890625 11.085938 -2.140625 11.761719 -2.640625 C 12.4375 -3.140625 12.773438 -3.839844 12.773438 -4.738281 C 12.773438 -6.03125 11.539062 -6.921875 9.066406 -7.417969 L 8.945312 -7.445312 L 7.902344 -7.660156 C 6.296875 -7.972656 5.125 -8.5 4.390625 -9.242188 C 3.652344 -9.984375 3.285156 -10.996094 3.285156 -12.277344 C 3.285156 -13.902344 3.835938 -15.15625 4.933594 -16.039062 C 6.035156 -16.921875 7.605469 -17.363281 9.640625 -17.363281 C 10.550781 -17.363281 11.421875 -17.277344 12.261719 -17.113281 C 13.097656 -16.945312 13.921875 -16.695312 14.726562 -16.363281 Z M 14.726562 -16.363281 "/>
</symbol>
<symbol overflow="visible" id="glyph1-20">
<path style="stroke:none;" d="M 0.710938 -22.597656 L 17.953125 -22.597656 L 17.953125 -20.027344 L 10.882812 -20.027344 L 10.882812 0 L 7.8125 0 L 7.8125 -20.027344 L 0.710938 -20.027344 Z M 0.710938 -22.597656 "/>
</symbol>
<symbol overflow="visible" id="glyph1-21">
<path style="stroke:none;" d="M 9.292969 -21.765625 L 9.292969 -16.953125 L 15.621094 -16.953125 L 15.621094 -14.789062 L 9.292969 -14.789062 L 9.292969 -5.585938 C 9.292969 -4.335938 9.53125 -3.460938 10.003906 -2.96875 C 10.480469 -2.472656 11.308594 -2.226562 12.488281 -2.226562 L 15.621094 -2.226562 L 15.621094 0 L 12.214844 0 C 10.125 0 8.652344 -0.417969 7.796875 -1.257812 C 6.9375 -2.09375 6.507812 -3.535156 6.507812 -5.585938 L 6.507812 -14.789062 L 1.984375 -14.789062 L 1.984375 -16.953125 L 6.507812 -16.953125 L 6.507812 -21.765625 Z M 9.292969 -21.765625 "/>
</symbol>
<symbol overflow="visible" id="glyph1-22">
<path style="stroke:none;" d="M 0 -22.597656 L 2.980469 -22.597656 L 5.148438 -4.253906 L 7.71875 -16.394531 L 10.914062 -16.394531 L 13.515625 -4.222656 L 15.679688 -22.597656 L 18.664062 -22.597656 L 15.289062 0 L 12.398438 0 L 9.324219 -13.425781 L 6.265625 0 L 3.375 0 Z M 0 -22.597656 "/>
</symbol>
<symbol overflow="visible" id="glyph1-23">
<path style="stroke:none;" d="M 0 -16.953125 L 2.753906 -16.953125 L 5.707031 -3.253906 L 8.128906 -12.003906 L 10.503906 -12.003906 L 12.957031 -3.253906 L 15.910156 -16.953125 L 18.664062 -16.953125 L 14.699219 0 L 12.035156 0 L 9.324219 -9.292969 L 6.628906 0 L 3.964844 0 Z M 0 -16.953125 "/>
</symbol>
<symbol overflow="visible" id="glyph1-24">
<path style="stroke:none;" d="M 0.558594 -22.597656 L 3.8125 -22.597656 L 9.324219 -12.625 L 14.820312 -22.597656 L 18.101562 -22.597656 L 10.851562 -10.140625 L 10.851562 0 L 7.78125 0 L 7.78125 -10.140625 Z M 0.558594 -22.597656 "/>
</symbol>
<symbol overflow="visible" id="glyph1-25">
<path style="stroke:none;" d="M 12.988281 -5.449219 C 12.523438 -4.269531 11.933594 -2.714844 11.214844 -0.789062 C 10.21875 1.875 9.546875 3.5 9.203125 4.085938 C 8.738281 4.875 8.160156 5.464844 7.460938 5.859375 C 6.765625 6.25 5.953125 6.449219 5.023438 6.449219 L 2.785156 6.449219 L 2.785156 4.117188 L 4.433594 4.117188 C 5.25 4.117188 5.894531 3.878906 6.359375 3.40625 C 6.820312 2.929688 7.410156 1.707031 8.128906 -0.273438 L 1.574219 -16.953125 L 4.527344 -16.953125 L 9.550781 -3.695312 L 14.5 -16.953125 L 17.453125 -16.953125 Z M 12.988281 -5.449219 "/>
</symbol>
<symbol overflow="visible" id="glyph2-0">
<path style="stroke:none;" d="M 8.886719 30.933594 L 8.886719 -123.390625 L 96.386719 -123.390625 L 96.386719 30.933594 Z M 18.714844 21.191406 L 86.644531 21.191406 L 86.644531 -113.5625 L 18.714844 -113.5625 Z M 18.714844 21.191406 "/>
</symbol>
<symbol overflow="visible" id="glyph2-1">
<path style="stroke:none;" d="M 59.984375 -48.109375 L 54.773438 -48.109375 C 45.601562 -48.109375 38.695312 -46.5 34.050781 -43.28125 C 29.410156 -40.0625 27.085938 -35.261719 27.085938 -28.882812 C 27.085938 -23.128906 28.824219 -18.65625 32.300781 -15.464844 C 35.773438 -12.277344 40.589844 -10.679688 46.742188 -10.679688 C 55.398438 -10.679688 62.207031 -13.6875 67.164062 -19.695312 C 72.121094 -25.707031 74.625 -34.007812 74.683594 -44.605469 L 74.683594 -48.109375 Z M 90.492188 -54.601562 L 90.492188 0 L 74.683594 0 L 74.683594 -14.183594 C 71.320312 -8.488281 67.09375 -4.285156 61.992188 -1.582031 C 56.894531 1.125 50.699219 2.476562 43.40625 2.476562 C 33.667969 2.476562 25.890625 -0.269531 20.082031 -5.769531 C 14.269531 -11.265625 11.363281 -18.628906 11.363281 -27.855469 C 11.363281 -38.507812 14.9375 -46.597656 22.089844 -52.125 C 29.238281 -57.648438 39.734375 -60.414062 53.578125 -60.414062 L 74.683594 -60.414062 L 74.683594 -62.890625 C 74.625 -70.523438 72.6875 -76.0625 68.871094 -79.511719 C 65.054688 -82.957031 58.960938 -84.679688 50.585938 -84.679688 C 45.230469 -84.679688 39.820312 -83.910156 34.351562 -82.375 C 28.882812 -80.835938 23.554688 -78.585938 18.371094 -75.621094 L 18.371094 -91.34375 C 24.183594 -93.566406 29.75 -95.234375 35.078125 -96.34375 C 40.402344 -97.453125 45.574219 -98.011719 50.585938 -98.011719 C 58.503906 -98.011719 65.269531 -96.84375 70.878906 -94.507812 C 76.492188 -92.171875 81.035156 -88.667969 84.507812 -83.996094 C 86.671875 -81.148438 88.210938 -77.628906 89.125 -73.445312 C 90.035156 -69.257812 90.492188 -62.976562 90.492188 -54.601562 Z M 90.492188 -54.601562 "/>
</symbol>
<symbol overflow="visible" id="glyph3-0">
<path style="stroke:none;" d="M 2.792969 9.722656 L 2.792969 -38.78125 L 30.292969 -38.78125 L 30.292969 9.722656 Z M 5.882812 6.660156 L 27.230469 6.660156 L 27.230469 -35.691406 L 5.882812 -35.691406 Z M 5.882812 6.660156 "/>
</symbol>
<symbol overflow="visible" id="glyph3-1">
<path style="stroke:none;" d="M 3.679688 -40.09375 L 9.132812 -40.09375 L 9.132812 -23.660156 L 23.980469 -23.660156 L 23.980469 -40.09375 L 29.433594 -40.09375 L 29.433594 0 L 23.980469 0 L 23.980469 -19.09375 L 9.132812 -19.09375 L 9.132812 0 L 3.679688 0 Z M 3.679688 -40.09375 "/>
</symbol>
<symbol overflow="visible" id="glyph3-2">
<path style="stroke:none;" d="M 18.851562 -15.121094 L 17.214844 -15.121094 C 14.332031 -15.121094 12.160156 -14.613281 10.703125 -13.601562 C 9.242188 -12.589844 8.511719 -11.082031 8.511719 -9.078125 C 8.511719 -7.269531 9.058594 -5.863281 10.152344 -4.859375 C 11.242188 -3.859375 12.757812 -3.355469 14.691406 -3.355469 C 17.410156 -3.355469 19.550781 -4.300781 21.109375 -6.191406 C 22.667969 -8.078125 23.453125 -10.6875 23.472656 -14.019531 L 23.472656 -15.121094 Z M 28.441406 -17.160156 L 28.441406 0 L 23.472656 0 L 23.472656 -4.457031 C 22.414062 -2.667969 21.085938 -1.347656 19.484375 -0.496094 C 17.882812 0.355469 15.933594 0.777344 13.640625 0.777344 C 10.582031 0.777344 8.136719 -0.0859375 6.3125 -1.8125 C 4.484375 -3.539062 3.570312 -5.855469 3.570312 -8.753906 C 3.570312 -12.101562 4.695312 -14.644531 6.941406 -16.382812 C 9.1875 -18.117188 12.488281 -18.988281 16.839844 -18.988281 L 23.472656 -18.988281 L 23.472656 -19.765625 C 23.453125 -22.164062 22.84375 -23.90625 21.644531 -24.988281 C 20.445312 -26.070312 18.53125 -26.613281 15.898438 -26.613281 C 14.214844 -26.613281 12.515625 -26.371094 10.796875 -25.890625 C 9.078125 -25.40625 7.402344 -24.699219 5.773438 -23.765625 L 5.773438 -28.707031 C 7.601562 -29.40625 9.351562 -29.929688 11.023438 -30.28125 C 12.699219 -30.628906 14.324219 -30.804688 15.898438 -30.804688 C 18.386719 -30.804688 20.511719 -30.4375 22.277344 -29.703125 C 24.039062 -28.96875 25.46875 -27.867188 26.558594 -26.398438 C 27.238281 -25.503906 27.722656 -24.398438 28.011719 -23.082031 C 28.296875 -21.765625 28.441406 -19.792969 28.441406 -17.160156 Z M 28.441406 -17.160156 "/>
</symbol>
<symbol overflow="visible" id="glyph3-3">
<path style="stroke:none;" d="M 28.226562 -18.636719 L 28.226562 0 L 23.257812 0 L 23.257812 -18.636719 C 23.257812 -21.339844 22.78125 -23.328125 21.832031 -24.601562 C 20.882812 -25.871094 19.398438 -26.507812 17.375 -26.507812 C 15.066406 -26.507812 13.289062 -25.6875 12.042969 -24.050781 C 10.800781 -22.410156 10.179688 -20.0625 10.179688 -17 L 10.179688 0 L 5.238281 0 L 5.238281 -30.078125 L 10.179688 -30.078125 L 10.179688 -25.566406 C 11.054688 -27.285156 12.246094 -28.585938 13.75 -29.472656 C 15.253906 -30.359375 17.035156 -30.804688 19.09375 -30.804688 C 22.15625 -30.804688 24.441406 -29.796875 25.957031 -27.78125 C 27.46875 -25.765625 28.226562 -22.71875 28.226562 -18.636719 Z M 28.226562 -18.636719 "/>
</symbol>
<symbol overflow="visible" id="glyph3-4">
<path style="stroke:none;" d="M 23.042969 -26.238281 L 23.042969 -41.789062 L 27.984375 -41.789062 L 27.984375 0 L 23.042969 0 L 23.042969 -3.785156 C 22.21875 -2.300781 21.121094 -1.167969 19.753906 -0.390625 C 18.382812 0.390625 16.800781 0.777344 15.011719 0.777344 C 11.378906 0.777344 8.519531 -0.632812 6.433594 -3.449219 C 4.347656 -6.269531 3.304688 -10.160156 3.304688 -15.121094 C 3.304688 -20.007812 4.351562 -23.84375 6.445312 -26.628906 C 8.539062 -29.410156 11.394531 -30.804688 15.011719 -30.804688 C 16.820312 -30.804688 18.414062 -30.414062 19.792969 -29.636719 C 21.171875 -28.855469 22.253906 -27.722656 23.042969 -26.238281 Z M 8.511719 -15.011719 C 8.511719 -11.179688 9.121094 -8.289062 10.339844 -6.335938 C 11.558594 -4.386719 13.355469 -3.410156 15.738281 -3.410156 C 18.117188 -3.410156 19.929688 -4.394531 21.175781 -6.363281 C 22.421875 -8.332031 23.042969 -11.214844 23.042969 -15.011719 C 23.042969 -18.824219 22.417969 -21.710938 21.175781 -23.671875 C 19.929688 -25.632812 18.117188 -26.613281 15.738281 -26.613281 C 13.355469 -26.613281 11.558594 -25.636719 10.339844 -23.6875 C 9.121094 -21.734375 8.511719 -18.84375 8.511719 -15.011719 Z M 8.511719 -15.011719 "/>
</symbol>
<symbol overflow="visible" id="glyph3-5">
<path style="stroke:none;" d="M 23.042969 -15.28125 C 23.042969 -18.988281 22.4375 -21.800781 21.230469 -23.726562 C 20.019531 -25.652344 18.261719 -26.613281 15.953125 -26.613281 C 13.535156 -26.613281 11.691406 -25.652344 10.421875 -23.726562 C 9.148438 -21.800781 8.511719 -18.988281 8.511719 -15.28125 C 8.511719 -11.574219 9.152344 -8.75 10.433594 -6.808594 C 11.714844 -4.867188 13.570312 -3.894531 16.007812 -3.894531 C 18.28125 -3.894531 20.019531 -4.871094 21.230469 -6.820312 C 22.4375 -8.773438 23.042969 -11.59375 23.042969 -15.28125 Z M 27.984375 -1.933594 C 27.984375 2.578125 26.917969 5.996094 24.789062 8.324219 C 22.65625 10.652344 19.523438 11.816406 15.386719 11.816406 C 14.027344 11.816406 12.605469 11.691406 11.117188 11.441406 C 9.632812 11.191406 8.144531 10.824219 6.660156 10.339844 L 6.660156 5.453125 C 8.414062 6.277344 10.007812 6.882812 11.441406 7.277344 C 12.875 7.671875 14.1875 7.867188 15.386719 7.867188 C 18.054688 7.867188 20 7.144531 21.214844 5.695312 C 22.433594 4.242188 23.042969 1.941406 23.042969 -1.207031 L 23.042969 -4.78125 C 22.253906 -3.097656 21.179688 -1.84375 19.820312 -1.019531 C 18.460938 -0.195312 16.800781 0.214844 14.851562 0.214844 C 11.34375 0.214844 8.539062 -1.191406 6.445312 -4 C 4.351562 -6.8125 3.304688 -10.570312 3.304688 -15.28125 C 3.304688 -20.007812 4.351562 -23.777344 6.445312 -26.585938 C 8.539062 -29.398438 11.34375 -30.804688 14.851562 -30.804688 C 16.785156 -30.804688 18.421875 -30.417969 19.765625 -29.648438 C 21.109375 -28.878906 22.199219 -27.6875 23.042969 -26.078125 L 23.042969 -29.96875 L 27.984375 -29.96875 Z M 27.984375 -1.933594 "/>
</symbol>
<symbol overflow="visible" id="glyph3-6">
<path style="stroke:none;" d="M 17.160156 -10.902344 C 17.160156 -8.683594 17.566406 -7.007812 18.382812 -5.882812 C 19.195312 -4.753906 20.402344 -4.1875 21.996094 -4.1875 L 27.769531 -4.1875 L 27.769531 0 L 21.511719 0 C 18.558594 0 16.269531 -0.949219 14.648438 -2.847656 C 13.027344 -4.746094 12.21875 -7.429688 12.21875 -10.902344 L 12.21875 -38.214844 L 4.296875 -38.214844 L 4.296875 -42.082031 L 17.160156 -42.082031 Z M 17.160156 -10.902344 "/>
</symbol>
<symbol overflow="visible" id="glyph3-7">
<path style="stroke:none;" d="M 16.542969 -26.613281 C 14.035156 -26.613281 12.140625 -25.636719 10.851562 -23.6875 C 9.5625 -21.734375 8.914062 -18.84375 8.914062 -15.011719 C 8.914062 -11.199219 9.5625 -8.3125 10.851562 -6.351562 C 12.140625 -4.390625 14.035156 -3.410156 16.542969 -3.410156 C 19.066406 -3.410156 20.972656 -4.390625 22.261719 -6.351562 C 23.550781 -8.3125 24.195312 -11.199219 24.195312 -15.011719 C 24.195312 -18.84375 23.550781 -21.734375 22.261719 -23.6875 C 20.972656 -25.636719 19.066406 -26.613281 16.542969 -26.613281 Z M 16.542969 -30.804688 C 20.714844 -30.804688 23.90625 -29.453125 26.117188 -26.75 C 28.328125 -24.046875 29.433594 -20.132812 29.433594 -15.011719 C 29.433594 -9.875 28.332031 -5.957031 26.128906 -3.261719 C 23.929688 -0.566406 20.734375 0.777344 16.542969 0.777344 C 12.371094 0.777344 9.183594 -0.570312 6.984375 -3.261719 C 4.78125 -5.957031 3.679688 -9.875 3.679688 -15.011719 C 3.679688 -20.132812 4.78125 -24.042969 6.984375 -26.75 C 9.183594 -29.453125 12.371094 -30.804688 16.542969 -30.804688 Z M 16.542969 -30.804688 "/>
</symbol>
<symbol overflow="visible" id="glyph3-8">
<path style="stroke:none;" d="M 2.6875 -30.078125 L 7.816406 -30.078125 L 16.542969 -4.835938 L 25.296875 -30.078125 L 30.425781 -30.078125 L 19.738281 0 L 13.375 0 Z M 2.6875 -30.078125 "/>
</symbol>
<symbol overflow="visible" id="glyph3-9">
<path style="stroke:none;" d="M 29.863281 -16.273438 L 29.863281 -13.859375 L 8.460938 -13.859375 L 8.460938 -13.695312 C 8.460938 -10.417969 9.3125 -7.886719 11.023438 -6.097656 C 12.734375 -4.304688 15.148438 -3.410156 18.261719 -3.410156 C 19.835938 -3.410156 21.484375 -3.660156 23.203125 -4.164062 C 24.921875 -4.664062 26.757812 -5.425781 28.707031 -6.445312 L 28.707031 -1.53125 C 26.828125 -0.761719 25.015625 -0.183594 23.269531 0.203125 C 21.523438 0.585938 19.835938 0.777344 18.207031 0.777344 C 13.535156 0.777344 9.882812 -0.621094 7.25 -3.425781 C 4.617188 -6.226562 3.304688 -10.089844 3.304688 -15.011719 C 3.304688 -19.808594 4.59375 -23.640625 7.171875 -26.507812 C 9.75 -29.371094 13.1875 -30.804688 17.484375 -30.804688 C 21.316406 -30.804688 24.335938 -29.503906 26.546875 -26.910156 C 28.757812 -24.3125 29.863281 -20.769531 29.863281 -16.273438 Z M 24.921875 -17.726562 C 24.851562 -20.625 24.164062 -22.832031 22.867188 -24.34375 C 21.570312 -25.855469 19.703125 -26.613281 17.269531 -26.613281 C 14.886719 -26.613281 12.925781 -25.824219 11.386719 -24.25 C 9.847656 -22.675781 8.933594 -20.492188 8.648438 -17.699219 Z M 24.921875 -17.726562 "/>
</symbol>
<symbol overflow="visible" id="glyph3-10">
<path style="stroke:none;" d="M 26.128906 -29.03125 L 26.128906 -24.195312 C 24.714844 -25.019531 23.292969 -25.636719 21.859375 -26.050781 C 20.429688 -26.460938 18.96875 -26.667969 17.484375 -26.667969 C 15.246094 -26.667969 13.574219 -26.304688 12.472656 -25.578125 C 11.371094 -24.855469 10.824219 -23.75 10.824219 -22.261719 C 10.824219 -20.921875 11.234375 -19.917969 12.058594 -19.253906 C 12.882812 -18.59375 14.929688 -17.949219 18.207031 -17.320312 L 20.195312 -16.945312 C 22.648438 -16.480469 24.503906 -15.550781 25.769531 -14.152344 C 27.03125 -12.757812 27.660156 -10.9375 27.660156 -8.703125 C 27.660156 -5.730469 26.605469 -3.40625 24.492188 -1.730469 C 22.378906 -0.0585938 19.445312 0.777344 15.683594 0.777344 C 14.199219 0.777344 12.640625 0.621094 11.011719 0.308594 C 9.382812 -0.00390625 7.617188 -0.472656 5.71875 -1.101562 L 5.71875 -6.203125 C 7.5625 -5.253906 9.328125 -4.542969 11.011719 -4.070312 C 12.695312 -3.59375 14.289062 -3.355469 15.789062 -3.355469 C 17.976562 -3.355469 19.667969 -3.800781 20.867188 -4.6875 C 22.066406 -5.574219 22.664062 -6.8125 22.664062 -8.40625 C 22.664062 -10.699219 20.472656 -12.28125 16.085938 -13.160156 L 15.871094 -13.210938 L 14.019531 -13.589844 C 11.171875 -14.144531 9.09375 -15.078125 7.789062 -16.394531 C 6.480469 -17.710938 5.828125 -19.507812 5.828125 -21.78125 C 5.828125 -24.664062 6.804688 -26.886719 8.753906 -28.453125 C 10.707031 -30.019531 13.492188 -30.804688 17.105469 -30.804688 C 18.71875 -30.804688 20.265625 -30.65625 21.753906 -30.359375 C 23.238281 -30.0625 24.699219 -29.621094 26.128906 -29.03125 Z M 26.128906 -29.03125 "/>
</symbol>
<symbol overflow="visible" id="glyph4-0">
<path style="stroke:none;" d="M 1.21875 4.242188 L 1.21875 -16.921875 L 13.21875 -16.921875 L 13.21875 4.242188 Z M 2.566406 2.90625 L 11.882812 2.90625 L 11.882812 -15.574219 L 2.566406 -15.574219 Z M 2.566406 2.90625 "/>
</symbol>
<symbol overflow="visible" id="glyph4-1">
<path style="stroke:none;" d="M 8.226562 -6.597656 L 7.511719 -6.597656 C 6.253906 -6.597656 5.304688 -6.375 4.671875 -5.9375 C 4.035156 -5.496094 3.714844 -4.835938 3.714844 -3.960938 C 3.714844 -3.171875 3.953125 -2.558594 4.429688 -2.121094 C 4.90625 -1.683594 5.566406 -1.464844 6.410156 -1.464844 C 7.597656 -1.464844 8.53125 -1.875 9.210938 -2.703125 C 9.890625 -3.527344 10.234375 -4.664062 10.242188 -6.117188 L 10.242188 -6.597656 Z M 12.410156 -7.488281 L 12.410156 0 L 10.242188 0 L 10.242188 -1.945312 C 9.78125 -1.164062 9.203125 -0.585938 8.5 -0.21875 C 7.800781 0.152344 6.953125 0.339844 5.953125 0.339844 C 4.617188 0.339844 3.550781 -0.0390625 2.753906 -0.789062 C 1.957031 -1.542969 1.558594 -2.554688 1.558594 -3.820312 C 1.558594 -5.28125 2.046875 -6.390625 3.03125 -7.148438 C 4.011719 -7.90625 5.449219 -8.285156 7.347656 -8.285156 L 10.242188 -8.285156 L 10.242188 -8.625 C 10.234375 -9.671875 9.96875 -10.429688 9.445312 -10.90625 C 8.921875 -11.378906 8.085938 -11.613281 6.9375 -11.613281 C 6.203125 -11.613281 5.460938 -11.507812 4.710938 -11.296875 C 3.960938 -11.085938 3.230469 -10.777344 2.519531 -10.371094 L 2.519531 -12.527344 C 3.316406 -12.832031 4.078125 -13.0625 4.8125 -13.210938 C 5.542969 -13.363281 6.25 -13.441406 6.9375 -13.441406 C 8.023438 -13.441406 8.953125 -13.28125 9.71875 -12.960938 C 10.488281 -12.640625 11.113281 -12.160156 11.589844 -11.519531 C 11.886719 -11.128906 12.097656 -10.648438 12.222656 -10.070312 C 12.347656 -9.496094 12.410156 -8.636719 12.410156 -7.488281 Z M 12.410156 -7.488281 "/>
</symbol>
<symbol overflow="visible" id="glyph4-2">
<g>
</g>
</symbol>
<symbol overflow="visible" id="glyph4-3">
<path style="stroke:none;" d="M 10.757812 -6.550781 C 10.757812 -8.222656 10.492188 -9.484375 9.960938 -10.335938 C 9.429688 -11.1875 8.644531 -11.613281 7.605469 -11.613281 C 6.558594 -11.613281 5.765625 -11.1875 5.226562 -10.328125 C 4.6875 -9.472656 4.417969 -8.214844 4.417969 -6.550781 C 4.417969 -4.894531 4.6875 -3.636719 5.226562 -2.777344 C 5.765625 -1.917969 6.558594 -1.488281 7.605469 -1.488281 C 8.644531 -1.488281 9.429688 -1.914062 9.960938 -2.765625 C 10.492188 -3.617188 10.757812 -4.878906 10.757812 -6.550781 Z M 4.417969 -11.449219 C 4.761719 -12.089844 5.234375 -12.582031 5.84375 -12.925781 C 6.449219 -13.269531 7.148438 -13.441406 7.945312 -13.441406 C 9.523438 -13.441406 10.765625 -12.835938 11.671875 -11.617188 C 12.578125 -10.402344 13.03125 -8.730469 13.03125 -6.597656 C 13.03125 -4.433594 12.578125 -2.734375 11.664062 -1.507812 C 10.753906 -0.277344 9.507812 0.339844 7.921875 0.339844 C 7.140625 0.339844 6.453125 0.171875 5.851562 -0.171875 C 5.253906 -0.511719 4.777344 -1.003906 4.417969 -1.652344 L 4.417969 0 L 2.261719 0 L 2.261719 -18.234375 L 4.417969 -18.234375 Z M 4.417969 -11.449219 "/>
</symbol>
<symbol overflow="visible" id="glyph4-4">
<path style="stroke:none;" d="M 12.433594 -0.667969 C 11.855469 -0.332031 11.257812 -0.078125 10.648438 0.0859375 C 10.035156 0.253906 9.40625 0.339844 8.765625 0.339844 C 6.734375 0.339844 5.148438 -0.269531 4 -1.488281 C 2.855469 -2.707031 2.285156 -4.394531 2.285156 -6.550781 C 2.285156 -8.707031 2.859375 -10.394531 4 -11.613281 C 5.144531 -12.832031 6.734375 -13.441406 8.765625 -13.441406 C 9.398438 -13.441406 10.015625 -13.359375 10.617188 -13.195312 C 11.21875 -13.03125 11.824219 -12.777344 12.433594 -12.433594 L 12.433594 -10.171875 C 11.863281 -10.679688 11.289062 -11.046875 10.71875 -11.273438 C 10.144531 -11.5 9.492188 -11.613281 8.765625 -11.613281 C 7.414062 -11.613281 6.375 -11.175781 5.648438 -10.300781 C 4.921875 -9.425781 4.558594 -8.175781 4.558594 -6.550781 C 4.558594 -4.933594 4.921875 -3.6875 5.65625 -2.804688 C 6.386719 -1.925781 7.421875 -1.488281 8.765625 -1.488281 C 9.515625 -1.488281 10.1875 -1.601562 10.78125 -1.835938 C 11.375 -2.066406 11.925781 -2.421875 12.433594 -2.90625 Z M 12.433594 -0.667969 "/>
</symbol>
<symbol overflow="visible" id="glyph4-5">
<path style="stroke:none;" d="M 10.054688 -11.449219 L 10.054688 -18.234375 L 12.210938 -18.234375 L 12.210938 0 L 10.054688 0 L 10.054688 -1.652344 C 9.695312 -1.003906 9.21875 -0.507812 8.617188 -0.171875 C 8.019531 0.167969 7.332031 0.339844 6.550781 0.339844 C 4.964844 0.339844 3.71875 -0.273438 2.804688 -1.507812 C 1.894531 -2.738281 1.441406 -4.433594 1.441406 -6.597656 C 1.441406 -8.730469 1.898438 -10.40625 2.8125 -11.617188 C 3.726562 -12.832031 4.972656 -13.441406 6.550781 -13.441406 C 7.339844 -13.441406 8.035156 -13.273438 8.636719 -12.929688 C 9.238281 -12.589844 9.710938 -12.097656 10.054688 -11.449219 Z M 3.714844 -6.550781 C 3.714844 -4.878906 3.980469 -3.617188 4.511719 -2.765625 C 5.042969 -1.914062 5.828125 -1.488281 6.867188 -1.488281 C 7.90625 -1.488281 8.695312 -1.917969 9.242188 -2.777344 C 9.785156 -3.636719 10.054688 -4.894531 10.054688 -6.550781 C 10.054688 -8.214844 9.78125 -9.476562 9.242188 -10.328125 C 8.699219 -11.183594 7.90625 -11.613281 6.867188 -11.613281 C 5.828125 -11.613281 5.042969 -11.1875 4.511719 -10.335938 C 3.980469 -9.484375 3.714844 -8.222656 3.714844 -6.550781 Z M 3.714844 -6.550781 "/>
</symbol>
<symbol overflow="visible" id="glyph4-6">
<path style="stroke:none;" d="M 13.03125 -7.101562 L 13.03125 -6.046875 L 3.691406 -6.046875 L 3.691406 -5.976562 C 3.691406 -4.546875 4.0625 -3.441406 4.8125 -2.660156 C 5.558594 -1.878906 6.609375 -1.488281 7.96875 -1.488281 C 8.65625 -1.488281 9.375 -1.597656 10.125 -1.816406 C 10.875 -2.035156 11.675781 -2.367188 12.527344 -2.8125 L 12.527344 -0.667969 C 11.707031 -0.332031 10.914062 -0.078125 10.15625 0.0859375 C 9.394531 0.253906 8.65625 0.339844 7.945312 0.339844 C 5.90625 0.339844 4.3125 -0.273438 3.164062 -1.492188 C 2.015625 -2.714844 1.441406 -4.402344 1.441406 -6.550781 C 1.441406 -8.644531 2.003906 -10.316406 3.128906 -11.566406 C 4.253906 -12.816406 5.753906 -13.441406 7.628906 -13.441406 C 9.300781 -13.441406 10.617188 -12.875 11.585938 -11.742188 C 12.550781 -10.609375 13.03125 -9.0625 13.03125 -7.101562 Z M 10.875 -7.734375 C 10.84375 -9 10.546875 -9.960938 9.976562 -10.625 C 9.410156 -11.285156 8.597656 -11.613281 7.535156 -11.613281 C 6.496094 -11.613281 5.640625 -11.269531 4.96875 -10.582031 C 4.296875 -9.894531 3.898438 -8.941406 3.773438 -7.722656 Z M 10.875 -7.734375 "/>
</symbol>
<symbol overflow="visible" id="glyph4-7">
<path style="stroke:none;" d="M 12.457031 -18.234375 L 12.457031 -16.441406 L 10.007812 -16.441406 C 9.234375 -16.441406 8.695312 -16.28125 8.398438 -15.96875 C 8.097656 -15.652344 7.945312 -15.089844 7.945312 -14.285156 L 7.945312 -13.125 L 12.457031 -13.125 L 12.457031 -11.449219 L 7.945312 -11.449219 L 7.945312 0 L 5.789062 0 L 5.789062 -11.449219 L 2.285156 -11.449219 L 2.285156 -13.125 L 5.789062 -13.125 L 5.789062 -14.039062 C 5.789062 -15.476562 6.117188 -16.535156 6.78125 -17.214844 C 7.441406 -17.894531 8.46875 -18.234375 9.867188 -18.234375 Z M 12.457031 -18.234375 "/>
</symbol>
<symbol overflow="visible" id="glyph4-8">
<path style="stroke:none;" d="M 10.054688 -6.667969 C 10.054688 -8.285156 9.789062 -9.515625 9.265625 -10.351562 C 8.738281 -11.191406 7.96875 -11.613281 6.960938 -11.613281 C 5.90625 -11.613281 5.101562 -11.195312 4.546875 -10.351562 C 3.992188 -9.511719 3.714844 -8.285156 3.714844 -6.667969 C 3.714844 -5.050781 3.992188 -3.820312 4.554688 -2.96875 C 5.113281 -2.121094 5.921875 -1.699219 6.984375 -1.699219 C 7.976562 -1.699219 8.734375 -2.125 9.265625 -2.976562 C 9.792969 -3.828125 10.054688 -5.058594 10.054688 -6.667969 Z M 12.210938 -0.84375 C 12.210938 1.125 11.746094 2.617188 10.816406 3.632812 C 9.886719 4.648438 8.519531 5.15625 6.714844 5.15625 C 6.121094 5.15625 5.5 5.101562 4.851562 4.992188 C 4.203125 4.882812 3.554688 4.722656 2.90625 4.511719 L 2.90625 2.378906 C 3.671875 2.738281 4.367188 3.003906 4.992188 3.175781 C 5.617188 3.347656 6.191406 3.433594 6.714844 3.433594 C 7.878906 3.433594 8.726562 3.117188 9.257812 2.484375 C 9.789062 1.851562 10.054688 0.847656 10.054688 -0.527344 L 10.054688 -2.085938 C 9.710938 -1.351562 9.242188 -0.804688 8.648438 -0.445312 C 8.054688 -0.0859375 7.332031 0.09375 6.480469 0.09375 C 4.949219 0.09375 3.726562 -0.519531 2.8125 -1.746094 C 1.898438 -2.972656 1.441406 -4.613281 1.441406 -6.667969 C 1.441406 -8.730469 1.898438 -10.375 2.8125 -11.601562 C 3.726562 -12.828125 4.949219 -13.441406 6.480469 -13.441406 C 7.324219 -13.441406 8.039062 -13.273438 8.625 -12.9375 C 9.210938 -12.601562 9.6875 -12.082031 10.054688 -11.378906 L 10.054688 -13.078125 L 12.210938 -13.078125 Z M 12.210938 -0.84375 "/>
</symbol>
<symbol overflow="visible" id="glyph4-9">
<path style="stroke:none;" d="M 12.316406 -8.132812 L 12.316406 0 L 10.148438 0 L 10.148438 -8.132812 C 10.148438 -9.3125 9.941406 -10.179688 9.527344 -10.734375 C 9.113281 -11.289062 8.464844 -11.566406 7.582031 -11.566406 C 6.574219 -11.566406 5.796875 -11.210938 5.257812 -10.492188 C 4.714844 -9.777344 4.441406 -8.753906 4.441406 -7.417969 L 4.441406 0 L 2.285156 0 L 2.285156 -18.234375 L 4.441406 -18.234375 L 4.441406 -11.15625 C 4.824219 -11.90625 5.34375 -12.476562 6 -12.859375 C 6.65625 -13.246094 7.433594 -13.441406 8.332031 -13.441406 C 9.667969 -13.441406 10.664062 -13 11.328125 -12.125 C 11.988281 -11.246094 12.316406 -9.914062 12.316406 -8.132812 Z M 12.316406 -8.132812 "/>
</symbol>
<symbol overflow="visible" id="glyph4-10">
<path style="stroke:none;" d="M 3 -13.125 L 8.519531 -13.125 L 8.519531 -1.675781 L 12.796875 -1.675781 L 12.796875 0 L 2.085938 0 L 2.085938 -1.675781 L 6.363281 -1.675781 L 6.363281 -11.449219 L 3 -11.449219 Z M 6.363281 -18.234375 L 8.519531 -18.234375 L 8.519531 -15.503906 L 6.363281 -15.503906 Z M 6.363281 -18.234375 "/>
</symbol>
<symbol overflow="visible" id="glyph4-11">
<path style="stroke:none;" d="M 7.03125 0.234375 L 7.03125 -11.449219 L 3.316406 -11.449219 L 3.316406 -13.125 L 9.1875 -13.125 L 9.1875 0.234375 C 9.1875 1.757812 8.835938 2.929688 8.140625 3.757812 C 7.441406 4.582031 6.445312 4.992188 5.15625 4.992188 L 2.179688 4.992188 L 2.179688 3.164062 L 4.921875 3.164062 C 5.625 3.164062 6.152344 2.921875 6.503906 2.429688 C 6.855469 1.941406 7.03125 1.210938 7.03125 0.234375 Z M 7.03125 -18.234375 L 9.1875 -18.234375 L 9.1875 -15.503906 L 7.03125 -15.503906 Z M 7.03125 -18.234375 "/>
</symbol>
<symbol overflow="visible" id="glyph4-12">
<path style="stroke:none;" d="M 2.765625 -18.234375 L 4.992188 -18.234375 L 4.992188 -7.675781 L 10.652344 -13.125 L 13.277344 -13.125 L 8.109375 -8.179688 L 14.085938 0 L 11.449219 0 L 6.597656 -6.773438 L 4.992188 -5.261719 L 4.992188 0 L 2.765625 0 Z M 2.765625 -18.234375 "/>
</symbol>
<symbol overflow="visible" id="glyph4-13">
<path style="stroke:none;" d="M 7.488281 -4.757812 C 7.488281 -3.789062 7.664062 -3.058594 8.023438 -2.566406 C 8.378906 -2.074219 8.902344 -1.828125 9.597656 -1.828125 L 12.117188 -1.828125 L 12.117188 0 L 9.386719 0 C 8.097656 0 7.101562 -0.414062 6.390625 -1.242188 C 5.683594 -2.070312 5.332031 -3.242188 5.332031 -4.757812 L 5.332031 -16.675781 L 1.875 -16.675781 L 1.875 -18.363281 L 7.488281 -18.363281 Z M 7.488281 -4.757812 "/>
</symbol>
<symbol overflow="visible" id="glyph4-14">
<path style="stroke:none;" d="M 7.921875 -11.789062 C 8.1875 -12.351562 8.523438 -12.765625 8.9375 -13.039062 C 9.347656 -13.308594 9.839844 -13.441406 10.417969 -13.441406 C 11.472656 -13.441406 12.21875 -13.03125 12.648438 -12.21875 C 13.082031 -11.402344 13.300781 -9.863281 13.300781 -7.605469 L 13.300781 0 L 11.332031 0 L 11.332031 -7.511719 C 11.332031 -9.363281 11.226562 -10.515625 11.023438 -10.960938 C 10.816406 -11.410156 10.4375 -11.636719 9.890625 -11.636719 C 9.265625 -11.636719 8.835938 -11.398438 8.609375 -10.914062 C 8.378906 -10.433594 8.261719 -9.300781 8.261719 -7.511719 L 8.261719 0 L 6.292969 0 L 6.292969 -7.511719 C 6.292969 -9.386719 6.179688 -10.542969 5.960938 -10.980469 C 5.738281 -11.417969 5.335938 -11.636719 4.757812 -11.636719 C 4.1875 -11.636719 3.789062 -11.398438 3.570312 -10.914062 C 3.347656 -10.433594 3.234375 -9.300781 3.234375 -7.511719 L 3.234375 0 L 1.277344 0 L 1.277344 -13.125 L 3.234375 -13.125 L 3.234375 -12 C 3.492188 -12.46875 3.8125 -12.828125 4.203125 -13.070312 C 4.589844 -13.316406 5.027344 -13.441406 5.519531 -13.441406 C 6.113281 -13.441406 6.609375 -13.304688 7 -13.03125 C 7.394531 -12.757812 7.703125 -12.34375 7.921875 -11.789062 Z M 7.921875 -11.789062 "/>
</symbol>
<symbol overflow="visible" id="glyph4-15">
<path style="stroke:none;" d="M 12.316406 -8.132812 L 12.316406 0 L 10.148438 0 L 10.148438 -8.132812 C 10.148438 -9.3125 9.941406 -10.179688 9.527344 -10.734375 C 9.113281 -11.289062 8.464844 -11.566406 7.582031 -11.566406 C 6.574219 -11.566406 5.796875 -11.210938 5.257812 -10.492188 C 4.714844 -9.777344 4.441406 -8.753906 4.441406 -7.417969 L 4.441406 0 L 2.285156 0 L 2.285156 -13.125 L 4.441406 -13.125 L 4.441406 -11.15625 C 4.824219 -11.90625 5.34375 -12.476562 6 -12.859375 C 6.65625 -13.246094 7.433594 -13.441406 8.332031 -13.441406 C 9.667969 -13.441406 10.664062 -13 11.328125 -12.125 C 11.988281 -11.246094 12.316406 -9.914062 12.316406 -8.132812 Z M 12.316406 -8.132812 "/>
</symbol>
<symbol overflow="visible" id="glyph4-16">
<path style="stroke:none;" d="M 7.21875 -11.613281 C 6.125 -11.613281 5.296875 -11.1875 4.734375 -10.335938 C 4.171875 -9.484375 3.890625 -8.222656 3.890625 -6.550781 C 3.890625 -4.886719 4.171875 -3.625 4.734375 -2.773438 C 5.296875 -1.917969 6.125 -1.488281 7.21875 -1.488281 C 8.320312 -1.488281 9.152344 -1.914062 9.714844 -2.773438 C 10.277344 -3.628906 10.558594 -4.886719 10.558594 -6.550781 C 10.558594 -8.222656 10.277344 -9.484375 9.714844 -10.335938 C 9.152344 -11.1875 8.320312 -11.613281 7.21875 -11.613281 Z M 7.21875 -13.441406 C 9.039062 -13.441406 10.429688 -12.851562 11.398438 -11.671875 C 12.363281 -10.492188 12.84375 -8.785156 12.84375 -6.550781 C 12.84375 -4.308594 12.363281 -2.601562 11.402344 -1.421875 C 10.441406 -0.246094 9.046875 0.339844 7.21875 0.339844 C 5.398438 0.339844 4.007812 -0.25 3.046875 -1.421875 C 2.085938 -2.597656 1.605469 -4.308594 1.605469 -6.550781 C 1.605469 -8.785156 2.085938 -10.492188 3.046875 -11.671875 C 4.007812 -12.851562 5.398438 -13.441406 7.21875 -13.441406 Z M 7.21875 -13.441406 "/>
</symbol>
<symbol overflow="visible" id="glyph4-17">
<path style="stroke:none;" d="M 4.394531 -1.652344 L 4.394531 4.992188 L 2.226562 4.992188 L 2.226562 -13.125 L 4.394531 -13.125 L 4.394531 -11.449219 C 4.753906 -12.097656 5.234375 -12.59375 5.828125 -12.929688 C 6.425781 -13.269531 7.117188 -13.441406 7.898438 -13.441406 C 9.484375 -13.441406 10.726562 -12.828125 11.632812 -11.601562 C 12.535156 -10.375 12.984375 -8.675781 12.984375 -6.503906 C 12.984375 -4.371094 12.53125 -2.695312 11.625 -1.484375 C 10.71875 -0.269531 9.476562 0.339844 7.898438 0.339844 C 7.101562 0.339844 6.40625 0.171875 5.804688 -0.171875 C 5.207031 -0.511719 4.738281 -1.003906 4.394531 -1.652344 Z M 10.722656 -6.550781 C 10.722656 -8.222656 10.460938 -9.484375 9.929688 -10.335938 C 9.402344 -11.1875 8.621094 -11.613281 7.582031 -11.613281 C 6.535156 -11.613281 5.742188 -11.1875 5.203125 -10.328125 C 4.664062 -9.472656 4.394531 -8.214844 4.394531 -6.550781 C 4.394531 -4.894531 4.664062 -3.636719 5.203125 -2.777344 C 5.742188 -1.917969 6.535156 -1.488281 7.582031 -1.488281 C 8.621094 -1.488281 9.40625 -1.914062 9.929688 -2.765625 C 10.457031 -3.617188 10.722656 -4.878906 10.722656 -6.550781 Z M 10.722656 -6.550781 "/>
</symbol>
<symbol overflow="visible" id="glyph4-18">
<path style="stroke:none;" d="M 3.890625 -6.503906 C 3.890625 -4.832031 4.15625 -3.570312 4.679688 -2.71875 C 5.207031 -1.867188 5.992188 -1.441406 7.03125 -1.441406 C 8.070312 -1.441406 8.859375 -1.867188 9.390625 -2.726562 C 9.925781 -3.582031 10.195312 -4.839844 10.195312 -6.503906 C 10.195312 -8.167969 9.929688 -9.429688 9.390625 -10.28125 C 8.855469 -11.136719 8.070312 -11.566406 7.03125 -11.566406 C 5.992188 -11.566406 5.210938 -11.140625 4.679688 -10.289062 C 4.152344 -9.4375 3.890625 -8.175781 3.890625 -6.503906 Z M 10.195312 -1.628906 C 9.84375 -0.980469 9.367188 -0.484375 8.773438 -0.132812 C 8.175781 0.214844 7.480469 0.386719 6.691406 0.386719 C 5.121094 0.386719 3.882812 -0.21875 2.96875 -1.4375 C 2.058594 -2.652344 1.605469 -4.324219 1.605469 -6.457031 C 1.605469 -8.628906 2.058594 -10.328125 2.964844 -11.554688 C 3.871094 -12.78125 5.113281 -13.394531 6.691406 -13.394531 C 7.472656 -13.394531 8.164062 -13.226562 8.757812 -12.882812 C 9.355469 -12.542969 9.835938 -12.050781 10.195312 -11.402344 L 10.195312 -13.078125 L 12.363281 -13.078125 L 12.363281 5.039062 L 10.195312 5.039062 Z M 10.195312 -1.628906 "/>
</symbol>
<symbol overflow="visible" id="glyph4-19">
<path style="stroke:none;" d="M 13.535156 -10.417969 C 13.074219 -10.777344 12.605469 -11.039062 12.128906 -11.203125 C 11.652344 -11.367188 11.128906 -11.449219 10.558594 -11.449219 C 9.214844 -11.449219 8.1875 -11.027344 7.476562 -10.183594 C 6.765625 -9.339844 6.410156 -8.121094 6.410156 -6.527344 L 6.410156 0 L 4.242188 0 L 4.242188 -13.125 L 6.410156 -13.125 L 6.410156 -10.558594 C 6.769531 -11.488281 7.320312 -12.203125 8.070312 -12.695312 C 8.816406 -13.191406 9.699219 -13.441406 10.722656 -13.441406 C 11.253906 -13.441406 11.75 -13.375 12.210938 -13.242188 C 12.671875 -13.109375 13.113281 -12.902344 13.535156 -12.621094 Z M 13.535156 -10.417969 "/>
</symbol>
<symbol overflow="visible" id="glyph4-20">
<path style="stroke:none;" d="M 11.402344 -12.667969 L 11.402344 -10.558594 C 10.785156 -10.917969 10.164062 -11.1875 9.539062 -11.367188 C 8.914062 -11.546875 8.277344 -11.636719 7.628906 -11.636719 C 6.652344 -11.636719 5.921875 -11.476562 5.445312 -11.164062 C 4.964844 -10.847656 4.722656 -10.363281 4.722656 -9.714844 C 4.722656 -9.128906 4.902344 -8.691406 5.261719 -8.402344 C 5.621094 -8.113281 6.515625 -7.832031 7.945312 -7.558594 L 8.8125 -7.394531 C 9.882812 -7.191406 10.695312 -6.785156 11.242188 -6.175781 C 11.792969 -5.566406 12.070312 -4.773438 12.070312 -3.796875 C 12.070312 -2.5 11.609375 -1.484375 10.6875 -0.757812 C 9.765625 -0.0273438 8.484375 0.339844 6.84375 0.339844 C 6.195312 0.339844 5.515625 0.273438 4.804688 0.132812 C 4.09375 -0.00390625 3.324219 -0.207031 2.496094 -0.480469 L 2.496094 -2.707031 C 3.300781 -2.292969 4.070312 -1.984375 4.804688 -1.773438 C 5.539062 -1.566406 6.234375 -1.464844 6.890625 -1.464844 C 7.84375 -1.464844 8.582031 -1.65625 9.105469 -2.046875 C 9.628906 -2.433594 9.890625 -2.972656 9.890625 -3.667969 C 9.890625 -4.667969 8.933594 -5.359375 7.019531 -5.742188 L 6.925781 -5.765625 L 6.117188 -5.929688 C 4.875 -6.171875 3.96875 -6.578125 3.398438 -7.15625 C 2.828125 -7.730469 2.542969 -8.511719 2.542969 -9.503906 C 2.542969 -10.761719 2.96875 -11.734375 3.820312 -12.414062 C 4.671875 -13.097656 5.886719 -13.441406 7.464844 -13.441406 C 8.167969 -13.441406 8.84375 -13.375 9.492188 -13.25 C 10.140625 -13.121094 10.777344 -12.925781 11.402344 -12.667969 Z M 11.402344 -12.667969 "/>
</symbol>
<symbol overflow="visible" id="glyph4-21">
<path style="stroke:none;" d="M 7.195312 -16.851562 L 7.195312 -13.125 L 12.09375 -13.125 L 12.09375 -11.449219 L 7.195312 -11.449219 L 7.195312 -4.324219 C 7.195312 -3.355469 7.378906 -2.679688 7.746094 -2.296875 C 8.113281 -1.914062 8.753906 -1.722656 9.667969 -1.722656 L 12.09375 -1.722656 L 12.09375 0 L 9.457031 0 C 7.839844 0 6.699219 -0.324219 6.035156 -0.972656 C 5.371094 -1.621094 5.039062 -2.738281 5.039062 -4.324219 L 5.039062 -11.449219 L 1.535156 -11.449219 L 1.535156 -13.125 L 5.039062 -13.125 L 5.039062 -16.851562 Z M 7.195312 -16.851562 "/>
</symbol>
<symbol overflow="visible" id="glyph4-22">
<path style="stroke:none;" d="M 2.285156 -4.96875 L 2.285156 -13.101562 L 4.441406 -13.101562 L 4.441406 -4.96875 C 4.441406 -3.789062 4.648438 -2.921875 5.070312 -2.367188 C 5.488281 -1.8125 6.132812 -1.535156 7.007812 -1.535156 C 8.023438 -1.535156 8.800781 -1.890625 9.339844 -2.609375 C 9.878906 -3.324219 10.148438 -4.347656 10.148438 -5.683594 L 10.148438 -13.101562 L 12.316406 -13.101562 L 12.316406 0 L 10.148438 0 L 10.148438 -1.96875 C 9.765625 -1.210938 9.242188 -0.636719 8.585938 -0.246094 C 7.925781 0.144531 7.152344 0.339844 6.269531 0.339844 C 4.925781 0.339844 3.925781 -0.101562 3.269531 -0.976562 C 2.613281 -1.855469 2.285156 -3.1875 2.285156 -4.96875 Z M 2.285156 -4.96875 "/>
</symbol>
<symbol overflow="visible" id="glyph4-23">
<path style="stroke:none;" d="M 1.171875 -13.125 L 3.410156 -13.125 L 7.21875 -2.109375 L 11.039062 -13.125 L 13.277344 -13.125 L 8.613281 0 L 5.835938 0 Z M 1.171875 -13.125 "/>
</symbol>
<symbol overflow="visible" id="glyph4-24">
<path style="stroke:none;" d="M 0 -13.125 L 2.132812 -13.125 L 4.417969 -2.519531 L 6.292969 -9.292969 L 8.132812 -9.292969 L 10.03125 -2.519531 L 12.316406 -13.125 L 14.449219 -13.125 L 11.378906 0 L 9.316406 0 L 7.21875 -7.195312 L 5.132812 0 L 3.070312 0 Z M 0 -13.125 "/>
</symbol>
<symbol overflow="visible" id="glyph4-25">
<path style="stroke:none;" d="M 13.101562 -13.125 L 8.402344 -6.84375 L 13.558594 0 L 11.0625 0 L 7.21875 -5.261719 L 3.386719 0 L 0.890625 0 L 6.046875 -6.84375 L 1.347656 -13.125 L 3.738281 -13.125 L 7.21875 -8.378906 L 10.675781 -13.125 Z M 13.101562 -13.125 "/>
</symbol>
<symbol overflow="visible" id="glyph4-26">
<path style="stroke:none;" d="M 10.054688 -4.21875 C 9.695312 -3.304688 9.238281 -2.101562 8.683594 -0.609375 C 7.910156 1.453125 7.390625 2.710938 7.125 3.164062 C 6.765625 3.773438 6.316406 4.230469 5.777344 4.535156 C 5.238281 4.839844 4.609375 4.992188 3.890625 4.992188 L 2.15625 4.992188 L 2.15625 3.1875 L 3.433594 3.1875 C 4.066406 3.1875 4.5625 3.003906 4.921875 2.636719 C 5.28125 2.269531 5.738281 1.320312 6.292969 -0.210938 L 1.21875 -13.125 L 3.503906 -13.125 L 7.394531 -2.859375 L 11.226562 -13.125 L 13.511719 -13.125 Z M 10.054688 -4.21875 "/>
</symbol>
<symbol overflow="visible" id="glyph4-27">
<path style="stroke:none;" d="M 2.660156 -13.148438 L 12.1875 -13.148438 L 12.1875 -11.179688 L 4.652344 -1.757812 L 12.1875 -1.757812 L 12.1875 0 L 2.378906 0 L 2.378906 -1.992188 L 9.914062 -11.425781 L 2.660156 -11.425781 Z M 2.660156 -13.148438 "/>
</symbol>
<symbol overflow="visible" id="glyph4-28">
<path style="stroke:none;" d="M 5.660156 -8.789062 C 5.660156 -9.21875 5.8125 -9.589844 6.109375 -9.902344 C 6.410156 -10.214844 6.773438 -10.371094 7.195312 -10.371094 C 7.632812 -10.371094 8.007812 -10.214844 8.320312 -9.902344 C 8.632812 -9.589844 8.789062 -9.21875 8.789062 -8.789062 C 8.789062 -8.351562 8.632812 -7.980469 8.328125 -7.675781 C 8.019531 -7.371094 7.640625 -7.21875 7.195312 -7.21875 C 6.757812 -7.21875 6.390625 -7.367188 6.101562 -7.664062 C 5.808594 -7.960938 5.660156 -8.335938 5.660156 -8.789062 Z M 7.21875 -15.9375 C 6.117188 -15.9375 5.296875 -15.34375 4.75 -14.15625 C 4.207031 -12.96875 3.9375 -11.160156 3.9375 -8.730469 C 3.9375 -6.308594 4.210938 -4.503906 4.75 -3.316406 C 5.292969 -2.128906 6.117188 -1.535156 7.21875 -1.535156 C 8.328125 -1.535156 9.15625 -2.128906 9.695312 -3.316406 C 10.238281 -4.503906 10.511719 -6.308594 10.511719 -8.730469 C 10.511719 -11.160156 10.242188 -12.96875 9.695312 -14.15625 C 9.152344 -15.34375 8.328125 -15.9375 7.21875 -15.9375 Z M 7.21875 -17.8125 C 9.085938 -17.8125 10.5 -17.046875 11.453125 -15.515625 C 12.410156 -13.984375 12.890625 -11.722656 12.890625 -8.730469 C 12.890625 -5.746094 12.414062 -3.488281 11.453125 -1.957031 C 10.496094 -0.425781 9.085938 0.339844 7.21875 0.339844 C 5.351562 0.339844 3.941406 -0.425781 2.988281 -1.957031 C 2.035156 -3.488281 1.558594 -5.746094 1.558594 -8.730469 C 1.558594 -11.722656 2.035156 -13.984375 2.988281 -15.515625 C 3.941406 -17.046875 5.351562 -17.8125 7.21875 -17.8125 Z M 7.21875 -17.8125 "/>
</symbol>
<symbol overflow="visible" id="glyph4-29">
<path style="stroke:none;" d="M 3.164062 -1.992188 L 6.84375 -1.992188 L 6.84375 -15.363281 L 2.882812 -14.472656 L 2.882812 -16.628906 L 6.820312 -17.496094 L 9.1875 -17.496094 L 9.1875 -1.992188 L 12.820312 -1.992188 L 12.820312 0 L 3.164062 0 Z M 3.164062 -1.992188 "/>
</symbol>
<symbol overflow="visible" id="glyph4-30">
<path style="stroke:none;" d="M 4.371094 -1.992188 L 12.410156 -1.992188 L 12.410156 0 L 1.78125 0 L 1.78125 -1.992188 C 3.242188 -3.53125 4.519531 -4.890625 5.613281 -6.070312 C 6.707031 -7.25 7.460938 -8.082031 7.875 -8.566406 C 8.65625 -9.519531 9.183594 -10.289062 9.457031 -10.882812 C 9.730469 -11.472656 9.867188 -12.074219 9.867188 -12.691406 C 9.867188 -13.667969 9.578125 -14.433594 9.007812 -14.988281 C 8.433594 -15.542969 7.644531 -15.820312 6.644531 -15.820312 C 5.933594 -15.820312 5.1875 -15.691406 4.40625 -15.433594 C 3.625 -15.175781 2.796875 -14.785156 1.921875 -14.261719 L 1.921875 -16.652344 C 2.726562 -17.035156 3.515625 -17.324219 4.296875 -17.519531 C 5.074219 -17.714844 5.839844 -17.8125 6.597656 -17.8125 C 8.308594 -17.8125 9.6875 -17.359375 10.726562 -16.445312 C 11.769531 -15.535156 12.292969 -14.34375 12.292969 -12.867188 C 12.292969 -12.117188 12.117188 -11.367188 11.773438 -10.617188 C 11.425781 -9.867188 10.859375 -9.039062 10.078125 -8.132812 C 9.640625 -7.625 9.007812 -6.921875 8.171875 -6.023438 C 7.339844 -5.125 6.074219 -3.78125 4.371094 -1.992188 Z M 4.371094 -1.992188 "/>
</symbol>
<symbol overflow="visible" id="glyph4-31">
<path style="stroke:none;" d="M 9.09375 -9.363281 C 10.242188 -9.058594 11.121094 -8.515625 11.730469 -7.742188 C 12.339844 -6.964844 12.644531 -5.992188 12.644531 -4.828125 C 12.644531 -3.21875 12.101562 -1.953125 11.023438 -1.039062 C 9.941406 -0.121094 8.441406 0.339844 6.527344 0.339844 C 5.722656 0.339844 4.902344 0.265625 4.066406 0.117188 C 3.230469 -0.03125 2.410156 -0.246094 1.605469 -0.527344 L 1.605469 -2.882812 C 2.402344 -2.46875 3.1875 -2.160156 3.960938 -1.957031 C 4.734375 -1.753906 5.503906 -1.652344 6.269531 -1.652344 C 7.566406 -1.652344 8.5625 -1.945312 9.257812 -2.53125 C 9.953125 -3.117188 10.300781 -3.960938 10.300781 -5.0625 C 10.300781 -6.078125 9.953125 -6.882812 9.257812 -7.484375 C 8.5625 -8.082031 7.621094 -8.378906 6.433594 -8.378906 L 4.628906 -8.378906 L 4.628906 -10.324219 L 6.433594 -10.324219 C 7.519531 -10.324219 8.367188 -10.5625 8.976562 -11.039062 C 9.585938 -11.515625 9.890625 -12.179688 9.890625 -13.03125 C 9.890625 -13.929688 9.609375 -14.617188 9.039062 -15.101562 C 8.472656 -15.582031 7.667969 -15.820312 6.621094 -15.820312 C 5.925781 -15.820312 5.207031 -15.742188 4.464844 -15.585938 C 3.722656 -15.429688 2.945312 -15.195312 2.132812 -14.882812 L 2.132812 -17.0625 C 3.078125 -17.3125 3.921875 -17.5 4.65625 -17.625 C 5.394531 -17.75 6.050781 -17.8125 6.621094 -17.8125 C 8.324219 -17.8125 9.6875 -17.382812 10.703125 -16.53125 C 11.722656 -15.675781 12.234375 -14.539062 12.234375 -13.125 C 12.234375 -12.164062 11.96875 -11.363281 11.429688 -10.722656 C 10.894531 -10.082031 10.117188 -9.628906 9.09375 -9.363281 Z M 9.09375 -9.363281 "/>
</symbol>
<symbol overflow="visible" id="glyph4-32">
<path style="stroke:none;" d="M 8.613281 -15.339844 L 3.09375 -6.09375 L 8.613281 -6.09375 Z M 8.226562 -17.496094 L 10.96875 -17.496094 L 10.96875 -6.09375 L 13.300781 -6.09375 L 13.300781 -4.171875 L 10.96875 -4.171875 L 10.96875 0 L 8.613281 0 L 8.613281 -4.171875 L 1.195312 -4.171875 L 1.195312 -6.410156 Z M 8.226562 -17.496094 "/>
</symbol>
<symbol overflow="visible" id="glyph4-33">
<path style="stroke:none;" d="M 2.425781 -17.496094 L 11.285156 -17.496094 L 11.285156 -15.503906 L 4.582031 -15.503906 L 4.582031 -11.203125 C 4.917969 -11.328125 5.257812 -11.421875 5.59375 -11.476562 C 5.933594 -11.535156 6.277344 -11.566406 6.621094 -11.566406 C 8.433594 -11.566406 9.871094 -11.03125 10.933594 -9.960938 C 11.996094 -8.890625 12.527344 -7.441406 12.527344 -5.613281 C 12.527344 -3.769531 11.96875 -2.316406 10.859375 -1.253906 C 9.746094 -0.191406 8.222656 0.339844 6.292969 0.339844 C 5.363281 0.339844 4.515625 0.277344 3.742188 0.152344 C 2.972656 0.0273438 2.285156 -0.160156 1.675781 -0.410156 L 1.675781 -2.8125 C 2.394531 -2.421875 3.117188 -2.132812 3.84375 -1.9375 C 4.570312 -1.746094 5.3125 -1.652344 6.070312 -1.652344 C 7.375 -1.652344 8.382812 -1.996094 9.085938 -2.683594 C 9.792969 -3.371094 10.148438 -4.347656 10.148438 -5.613281 C 10.148438 -6.863281 9.78125 -7.835938 9.054688 -8.53125 C 8.324219 -9.226562 7.304688 -9.574219 6 -9.574219 C 5.367188 -9.574219 4.75 -9.5 4.148438 -9.359375 C 3.546875 -9.214844 2.972656 -8.996094 2.425781 -8.707031 Z M 2.425781 -17.496094 "/>
</symbol>
<symbol overflow="visible" id="glyph4-34">
<path style="stroke:none;" d="M 11.613281 -17.109375 L 11.613281 -14.929688 C 11.121094 -15.21875 10.597656 -15.4375 10.042969 -15.59375 C 9.488281 -15.746094 8.910156 -15.820312 8.308594 -15.820312 C 6.808594 -15.820312 5.671875 -15.257812 4.898438 -14.125 C 4.125 -12.996094 3.738281 -11.335938 3.738281 -9.140625 C 4.113281 -9.921875 4.632812 -10.523438 5.296875 -10.9375 C 5.960938 -11.355469 6.722656 -11.566406 7.582031 -11.566406 C 9.269531 -11.566406 10.578125 -11.046875 11.5 -10.015625 C 12.425781 -8.980469 12.890625 -7.511719 12.890625 -5.613281 C 12.890625 -3.722656 12.414062 -2.257812 11.460938 -1.21875 C 10.507812 -0.179688 9.167969 0.339844 7.441406 0.339844 C 5.410156 0.339844 3.921875 -0.390625 2.976562 -1.84375 C 2.03125 -3.300781 1.558594 -5.597656 1.558594 -8.730469 C 1.558594 -11.683594 2.125 -13.9375 3.265625 -15.484375 C 4.402344 -17.035156 6.046875 -17.8125 8.203125 -17.8125 C 8.78125 -17.8125 9.359375 -17.75 9.9375 -17.632812 C 10.515625 -17.511719 11.074219 -17.335938 11.613281 -17.109375 Z M 7.394531 -9.714844 C 6.386719 -9.714844 5.59375 -9.351562 5.015625 -8.625 C 4.4375 -7.898438 4.148438 -6.894531 4.148438 -5.613281 C 4.148438 -4.332031 4.4375 -3.328125 5.015625 -2.601562 C 5.59375 -1.875 6.386719 -1.511719 7.394531 -1.511719 C 8.441406 -1.511719 9.230469 -1.859375 9.761719 -2.546875 C 10.292969 -3.238281 10.558594 -4.261719 10.558594 -5.613281 C 10.558594 -6.972656 10.292969 -7.996094 9.761719 -8.683594 C 9.230469 -9.371094 8.441406 -9.714844 7.394531 -9.714844 Z M 7.394531 -9.714844 "/>
</symbol>
<symbol overflow="visible" id="glyph4-35">
<path style="stroke:none;" d="M 1.628906 -17.496094 L 12.644531 -17.496094 L 12.644531 -16.488281 L 6.386719 0 L 3.914062 0 L 10.007812 -15.503906 L 1.628906 -15.503906 Z M 1.628906 -17.496094 "/>
</symbol>
<symbol overflow="visible" id="glyph4-36">
<path style="stroke:none;" d="M 7.21875 -8.308594 C 6.164062 -8.308594 5.351562 -8.015625 4.773438 -7.421875 C 4.199219 -6.832031 3.914062 -6 3.914062 -4.921875 C 3.914062 -3.84375 4.203125 -3.007812 4.789062 -2.40625 C 5.371094 -1.808594 6.179688 -1.511719 7.21875 -1.511719 C 8.28125 -1.511719 9.101562 -1.804688 9.671875 -2.398438 C 10.246094 -2.988281 10.535156 -3.828125 10.535156 -4.921875 C 10.535156 -5.992188 10.242188 -6.824219 9.664062 -7.417969 C 9.082031 -8.011719 8.265625 -8.308594 7.21875 -8.308594 Z M 5.15625 -9.292969 C 4.148438 -9.550781 3.359375 -10.03125 2.796875 -10.734375 C 2.230469 -11.4375 1.945312 -12.285156 1.945312 -13.277344 C 1.945312 -14.667969 2.417969 -15.773438 3.363281 -16.585938 C 4.308594 -17.402344 5.59375 -17.8125 7.21875 -17.8125 C 8.851562 -17.8125 10.140625 -17.40625 11.085938 -16.585938 C 12.03125 -15.769531 12.503906 -14.667969 12.503906 -13.277344 C 12.503906 -12.285156 12.21875 -11.4375 11.65625 -10.734375 C 11.089844 -10.03125 10.300781 -9.550781 9.292969 -9.292969 C 10.464844 -9.035156 11.359375 -8.515625 11.984375 -7.734375 C 12.605469 -6.953125 12.914062 -5.941406 12.914062 -4.699219 C 12.914062 -3.121094 12.410156 -1.886719 11.402344 -0.996094 C 10.394531 -0.105469 9 0.339844 7.21875 0.339844 C 5.4375 0.339844 4.046875 -0.101562 3.039062 -0.992188 C 2.035156 -1.878906 1.535156 -3.105469 1.535156 -4.675781 C 1.535156 -5.925781 1.84375 -6.945312 2.46875 -7.726562 C 3.089844 -8.511719 3.984375 -9.035156 5.15625 -9.292969 Z M 4.300781 -13.054688 C 4.300781 -12.117188 4.550781 -11.402344 5.050781 -10.910156 C 5.550781 -10.417969 6.273438 -10.171875 7.21875 -10.171875 C 8.171875 -10.171875 8.898438 -10.417969 9.398438 -10.910156 C 9.898438 -11.402344 10.148438 -12.117188 10.148438 -13.054688 C 10.148438 -14.007812 9.898438 -14.734375 9.40625 -15.234375 C 8.910156 -15.734375 8.179688 -15.984375 7.21875 -15.984375 C 6.273438 -15.984375 5.550781 -15.734375 5.050781 -15.226562 C 4.550781 -14.722656 4.300781 -14 4.300781 -13.054688 Z M 4.300781 -13.054688 "/>
</symbol>
<symbol overflow="visible" id="glyph4-37">
<path style="stroke:none;" d="M 6.984375 -7.757812 C 7.992188 -7.757812 8.78125 -8.121094 9.359375 -8.847656 C 9.933594 -9.574219 10.21875 -10.578125 10.21875 -11.859375 C 10.21875 -13.140625 9.929688 -14.144531 9.359375 -14.871094 C 8.785156 -15.597656 7.992188 -15.960938 6.984375 -15.960938 C 5.9375 -15.960938 5.148438 -15.617188 4.617188 -14.921875 C 4.085938 -14.230469 3.820312 -13.210938 3.820312 -11.859375 C 3.820312 -10.5 4.085938 -9.476562 4.609375 -8.789062 C 5.136719 -8.101562 5.929688 -7.757812 6.984375 -7.757812 Z M 2.765625 -0.363281 L 2.765625 -2.542969 C 3.257812 -2.253906 3.78125 -2.03125 4.335938 -1.882812 C 4.890625 -1.730469 5.46875 -1.652344 6.070312 -1.652344 C 7.570312 -1.652344 8.703125 -2.21875 9.476562 -3.34375 C 10.246094 -4.472656 10.628906 -6.136719 10.628906 -8.332031 C 10.261719 -7.550781 9.746094 -6.953125 9.082031 -6.53125 C 8.417969 -6.113281 7.65625 -5.90625 6.796875 -5.90625 C 5.109375 -5.90625 3.804688 -6.425781 2.875 -7.464844 C 1.949219 -8.503906 1.488281 -9.976562 1.488281 -11.882812 C 1.488281 -13.765625 1.960938 -15.226562 2.914062 -16.257812 C 3.863281 -17.292969 5.203125 -17.8125 6.9375 -17.8125 C 8.96875 -17.8125 10.457031 -17.082031 11.402344 -15.621094 C 12.347656 -14.160156 12.820312 -11.863281 12.820312 -8.730469 C 12.820312 -5.785156 12.25 -3.539062 11.117188 -1.984375 C 9.980469 -0.433594 8.328125 0.339844 6.164062 0.339844 C 5.59375 0.339844 5.019531 0.28125 4.441406 0.15625 C 3.863281 0.0351562 3.304688 -0.136719 2.765625 -0.363281 Z M 2.765625 -0.363281 "/>
</symbol>
</g>
<clipPath id="clip1">
  <path d="M 0 2 L 396 2 L 396 312 L 0 312 Z M 0 2 "/>
</clipPath>
<clipPath id="clip2">
  <path d="M 198 465.5 L 30 465.5 C 13.429688 465.5 0 452.070312 0 435.5 L 0 32.5 C 0 15.929688 13.429688 2.5 30 2.5 L 366 2.5 C 382.570312 2.5 396 15.929688 396 32.5 L 396 435.5 C 396 452.070312 382.570312 465.5 366 465.5 Z M 198 465.5 "/>
</clipPath>
<clipPath id="clip3">
  <path d="M 0 311 L 396 311 L 396 466 L 0 466 Z M 0 311 "/>
</clipPath>
<clipPath id="clip4">
  <path d="M 198 465.5 L 30 465.5 C 13.429688 465.5 0 452.070312 0 435.5 L 0 32.5 C 0 15.929688 13.429688 2.5 30 2.5 L 366 2.5 C 382.570312 2.5 396 15.929688 396 32.5 L 396 435.5 C 396 452.070312 382.570312 465.5 366 465.5 Z M 198 465.5 "/>
</clipPath>
<clipPath id="clip5">
  <path d="M 41 14 L 370 14 L 370 34 L 41 34 Z M 41 14 "/>
</clipPath>
<clipPath id="clip6">
  <path d="M 198 465.5 L 30 465.5 C 13.429688 465.5 0 452.070312 0 435.5 L 0 32.5 C 0 15.929688 13.429688 2.5 30 2.5 L 366 2.5 C 382.570312 2.5 396 15.929688 396 32.5 L 396 435.5 C 396 452.070312 382.570312 465.5 366 465.5 Z M 198 465.5 "/>
</clipPath>
<clipPath id="clip7">
  <path d="M 38 103 L 242 103 L 242 134 L 38 134 Z M 38 103 "/>
</clipPath>
<clipPath id="clip8">
  <path d="M 198 465.5 L 30 465.5 C 13.429688 465.5 0 452.070312 0 435.5 L 0 32.5 C 0 15.929688 13.429688 2.5 30 2.5 L 366 2.5 C 382.570312 2.5 396 15.929688 396 32.5 L 396 435.5 C 396 452.070312 382.570312 465.5 366 465.5 Z M 198 465.5 "/>
</clipPath>
<clipPath id="clip9">
  <path d="M 41 143 L 243 143 L 243 174 L 41 174 Z M 41 143 "/>
</clipPath>
<clipPath id="clip10">
  <path d="M 198 465.5 L 30 465.5 C 13.429688 465.5 0 452.070312 0 435.5 L 0 32.5 C 0 15.929688 13.429688 2.5 30 2.5 L 366 2.5 C 382.570312 2.5 396 15.929688 396 32.5 L 396 435.5 C 396 452.070312 382.570312 465.5 366 465.5 Z M 198 465.5 "/>
</clipPath>
<clipPath id="clip11">
  <path d="M 40 183 L 243 183 L 243 214 L 40 214 Z M 40 183 "/>
</clipPath>
<clipPath id="clip12">
  <path d="M 198 465.5 L 30 465.5 C 13.429688 465.5 0 452.070312 0 435.5 L 0 32.5 C 0 15.929688 13.429688 2.5 30 2.5 L 366 2.5 C 382.570312 2.5 396 15.929688 396 32.5 L 396 435.5 C 396 452.070312 382.570312 465.5 366 465.5 Z M 198 465.5 "/>
</clipPath>
<clipPath id="clip13">
  <path d="M 274 104 L 354 104 L 354 206 L 274 206 Z M 274 104 "/>
</clipPath>
<clipPath id="clip14">
  <path d="M 198 465.5 L 30 465.5 C 13.429688 465.5 0 452.070312 0 435.5 L 0 32.5 C 0 15.929688 13.429688 2.5 30 2.5 L 366 2.5 C 382.570312 2.5 396 15.929688 396 32.5 L 396 435.5 C 396 452.070312 382.570312 465.5 366 465.5 Z M 198 465.5 "/>
</clipPath>
<clipPath id="clip15">
  <path d="M 64 242 L 386 242 L 386 297 L 64 297 Z M 64 242 "/>
</clipPath>
<clipPath id="clip16">
  <path d="M 198 465.5 L 30 465.5 C 13.429688 465.5 0 452.070312 0 435.5 L 0 32.5 C 0 15.929688 13.429688 2.5 30 2.5 L 366 2.5 C 382.570312 2.5 396 15.929688 396 32.5 L 396 435.5 C 396 452.070312 382.570312 465.5 366 465.5 Z M 198 465.5 "/>
</clipPath>
<clipPath id="clip17">
  <path d="M 18 340 L 378 340 L 378 364 L 18 364 Z M 18 340 "/>
</clipPath>
<clipPath id="clip18">
  <path d="M 198 465.5 L 30 465.5 C 13.429688 465.5 0 452.070312 0 435.5 L 0 32.5 C 0 15.929688 13.429688 2.5 30 2.5 L 366 2.5 C 382.570312 2.5 396 15.929688 396 32.5 L 396 435.5 C 396 452.070312 382.570312 465.5 366 465.5 Z M 198 465.5 "/>
</clipPath>
<clipPath id="clip19">
  <path d="M 19 386 L 377 386 L 377 409 L 19 409 Z M 19 386 "/>
</clipPath>
<clipPath id="clip20">
  <path d="M 198 465.5 L 30 465.5 C 13.429688 465.5 0 452.070312 0 435.5 L 0 32.5 C 0 15.929688 13.429688 2.5 30 2.5 L 366 2.5 C 382.570312 2.5 396 15.929688 396 32.5 L 396 435.5 C 396 452.070312 382.570312 465.5 366 465.5 Z M 198 465.5 "/>
</clipPath>
<clipPath id="clip21">
  <path d="M 62 425 L 334 425 L 334 444 L 62 444 Z M 62 425 "/>
</clipPath>
<clipPath id="clip22">
  <path d="M 198 465.5 L 30 465.5 C 13.429688 465.5 0 452.070312 0 435.5 L 0 32.5 C 0 15.929688 13.429688 2.5 30 2.5 L 366 2.5 C 382.570312 2.5 396 15.929688 396 32.5 L 396 435.5 C 396 452.070312 382.570312 465.5 366 465.5 Z M 198 465.5 "/>
</clipPath>
</defs>
<g id="surface1316">
<g clip-path="url(#clip1)" clip-rule="nonzero">
<g clip-path="url(#clip2)" clip-rule="nonzero">
<path style=" stroke:none;fill-rule:nonzero;fill:rgb(28%,65.8%,70%);fill-opacity:1;" d="M 0 311.21875 L 0 2.339844 L 396 2.339844 L 396 311.21875 Z M 0 311.21875 "/>
</g>
</g>
<g clip-path="url(#clip3)" clip-rule="nonzero">
<g clip-path="url(#clip4)" clip-rule="nonzero">
<path style=" stroke:none;fill-rule:nonzero;fill:rgb(70%,38.5%,35%);fill-opacity:1;" d="M 0 465.660156 L 0 311.21875 L 396 311.21875 L 396 465.660156 Z M 0 465.660156 "/>
</g>
</g>
<g clip-path="url(#clip5)" clip-rule="nonzero">
<g clip-path="url(#clip6)" clip-rule="nonzero">
<g style="fill:rgb(0%,0%,0%);fill-opacity:1;">
  <use xlink:href="#glyph0-1" x="39.6" y="33"/>
  <use xlink:href="#glyph0-2" x="54.65127" y="33"/>
  <use xlink:href="#glyph0-3" x="69.702539" y="33"/>
  <use xlink:href="#glyph0-4" x="84.753809" y="33"/>
  <use xlink:href="#glyph0-3" x="99.805078" y="33"/>
  <use xlink:href="#glyph0-5" x="114.856348" y="33"/>
  <use xlink:href="#glyph0-6" x="129.907617" y="33"/>
  <use xlink:href="#glyph0-7" x="144.958887" y="33"/>
  <use xlink:href="#glyph0-8" x="160.010156" y="33"/>
  <use xlink:href="#glyph0-9" x="175.061426" y="33"/>
  <use xlink:href="#glyph0-6" x="190.112695" y="33"/>
  <use xlink:href="#glyph0-5" x="205.163965" y="33"/>
  <use xlink:href="#glyph0-7" x="220.215234" y="33"/>
  <use xlink:href="#glyph0-10" x="235.266504" y="33"/>
  <use xlink:href="#glyph0-7" x="250.317773" y="33"/>
  <use xlink:href="#glyph0-11" x="265.369043" y="33"/>
  <use xlink:href="#glyph0-4" x="280.420313" y="33"/>
  <use xlink:href="#glyph0-12" x="295.471582" y="33"/>
  <use xlink:href="#glyph0-13" x="310.522852" y="33"/>
  <use xlink:href="#glyph0-14" x="325.574121" y="33"/>
  <use xlink:href="#glyph0-11" x="340.625391" y="33"/>
  <use xlink:href="#glyph0-14" x="355.67666" y="33"/>
</g>
</g>
</g>
<g clip-path="url(#clip7)" clip-rule="nonzero">
<g clip-path="url(#clip8)" clip-rule="nonzero">
<g style="fill:rgb(100%,100%,100%);fill-opacity:1;">
  <use xlink:href="#glyph1-1" x="38" y="126.78"/>
  <use xlink:href="#glyph1-2" x="56.663574" y="126.78"/>
  <use xlink:href="#glyph1-3" x="75.327148" y="126.78"/>
  <use xlink:href="#glyph1-4" x="93.990723" y="126.78"/>
  <use xlink:href="#glyph1-5" x="112.654297" y="126.78"/>
  <use xlink:href="#glyph1-3" x="131.317871" y="126.78"/>
  <use xlink:href="#glyph1-6" x="149.981445" y="126.78"/>
  <use xlink:href="#glyph1-7" x="168.64502" y="126.78"/>
  <use xlink:href="#glyph1-3" x="187.308594" y="126.78"/>
  <use xlink:href="#glyph1-8" x="205.972168" y="126.78"/>
  <use xlink:href="#glyph1-9" x="224.635742" y="126.78"/>
</g>
</g>
</g>
<g clip-path="url(#clip9)" clip-rule="nonzero">
<g clip-path="url(#clip10)" clip-rule="nonzero">
<g style="fill:rgb(100%,100%,100%);fill-opacity:1;">
  <use xlink:href="#glyph1-10" x="38" y="166.78"/>
  <use xlink:href="#glyph1-11" x="56.663574" y="166.78"/>
  <use xlink:href="#glyph1-3" x="75.327148" y="166.78"/>
  <use xlink:href="#glyph1-12" x="93.990723" y="166.78"/>
  <use xlink:href="#glyph1-13" x="112.654297" y="166.78"/>
  <use xlink:href="#glyph1-3" x="131.317871" y="166.78"/>
  <use xlink:href="#glyph1-14" x="149.981445" y="166.78"/>
  <use xlink:href="#glyph1-15" x="168.64502" y="166.78"/>
  <use xlink:href="#glyph1-3" x="187.308594" y="166.78"/>
  <use xlink:href="#glyph1-16" x="205.972168" y="166.78"/>
  <use xlink:href="#glyph1-17" x="224.635742" y="166.78"/>
</g>
</g>
</g>
<g clip-path="url(#clip11)" clip-rule="nonzero">
<g clip-path="url(#clip12)" clip-rule="nonzero">
<g style="fill:rgb(100%,100%,100%);fill-opacity:1;">
  <use xlink:href="#glyph1-18" x="38" y="206.78"/>
  <use xlink:href="#glyph1-19" x="56.663574" y="206.78"/>
  <use xlink:href="#glyph1-3" x="75.327148" y="206.78"/>
  <use xlink:href="#glyph1-20" x="93.990723" y="206.78"/>
  <use xlink:href="#glyph1-21" x="112.654297" y="206.78"/>
  <use xlink:href="#glyph1-3" x="131.317871" y="206.78"/>
  <use xlink:href="#glyph1-22" x="149.981445" y="206.78"/>
  <use xlink:href="#glyph1-23" x="168.64502" y="206.78"/>
  <use xlink:href="#glyph1-3" x="187.308594" y="206.78"/>
  <use xlink:href="#glyph1-24" x="205.972168" y="206.78"/>
  <use xlink:href="#glyph1-25" x="224.635742" y="206.78"/>
</g>
</g>
</g>
<g clip-path="url(#clip13)" clip-rule="nonzero">
<g clip-path="url(#clip14)" clip-rule="nonzero">
<g style="fill:rgb(0%,0%,0%);fill-opacity:1;">
  <use xlink:href="#glyph2-1" x="263.320557" y="203.005127"/>
</g>
</g>
</g>
<g clip-path="url(#clip15)" clip-rule="nonzero">
<g clip-path="url(#clip16)" clip-rule="nonzero">
<g style="fill:rgb(0%,0%,0%);fill-opacity:1;">
  <use xlink:href="#glyph3-1" x="60.32373" y="285.04126"/>
  <use xlink:href="#glyph3-2" x="93.436523" y="285.04126"/>
  <use xlink:href="#glyph3-3" x="126.549316" y="285.04126"/>
  <use xlink:href="#glyph3-4" x="159.662109" y="285.04126"/>
  <use xlink:href="#glyph3-5" x="192.774902" y="285.04126"/>
  <use xlink:href="#glyph3-6" x="225.887695" y="285.04126"/>
  <use xlink:href="#glyph3-7" x="259.000488" y="285.04126"/>
  <use xlink:href="#glyph3-8" x="292.113281" y="285.04126"/>
  <use xlink:href="#glyph3-9" x="325.226074" y="285.04126"/>
  <use xlink:href="#glyph3-10" x="358.338867" y="285.04126"/>
</g>
</g>
</g>
<g clip-path="url(#clip17)" clip-rule="nonzero">
<g clip-path="url(#clip18)" clip-rule="nonzero">
<g style="fill:rgb(0%,0%,0%);fill-opacity:1;">
  <use xlink:href="#glyph4-1" x="17.384766" y="358.44"/>
  <use xlink:href="#glyph4-2" x="31.833984" y="358.44"/>
  <use xlink:href="#glyph4-3" x="46.283203" y="358.44"/>
  <use xlink:href="#glyph4-2" x="60.732422" y="358.44"/>
  <use xlink:href="#glyph4-4" x="75.181641" y="358.44"/>
  <use xlink:href="#glyph4-2" x="89.630859" y="358.44"/>
  <use xlink:href="#glyph4-5" x="104.080078" y="358.44"/>
  <use xlink:href="#glyph4-2" x="118.529297" y="358.44"/>
  <use xlink:href="#glyph4-6" x="132.978516" y="358.44"/>
  <use xlink:href="#glyph4-2" x="147.427734" y="358.44"/>
  <use xlink:href="#glyph4-7" x="161.876953" y="358.44"/>
  <use xlink:href="#glyph4-2" x="176.326172" y="358.44"/>
  <use xlink:href="#glyph4-8" x="190.775391" y="358.44"/>
  <use xlink:href="#glyph4-2" x="205.224609" y="358.44"/>
  <use xlink:href="#glyph4-9" x="219.673828" y="358.44"/>
  <use xlink:href="#glyph4-2" x="234.123047" y="358.44"/>
  <use xlink:href="#glyph4-10" x="248.572266" y="358.44"/>
  <use xlink:href="#glyph4-2" x="263.021484" y="358.44"/>
  <use xlink:href="#glyph4-11" x="277.470703" y="358.44"/>
  <use xlink:href="#glyph4-2" x="291.919922" y="358.44"/>
  <use xlink:href="#glyph4-12" x="306.369141" y="358.44"/>
  <use xlink:href="#glyph4-2" x="320.818359" y="358.44"/>
  <use xlink:href="#glyph4-13" x="335.267578" y="358.44"/>
  <use xlink:href="#glyph4-2" x="349.716797" y="358.44"/>
  <use xlink:href="#glyph4-14" x="364.166016" y="358.44"/>
</g>
</g>
</g>
<g clip-path="url(#clip19)" clip-rule="nonzero">
<g clip-path="url(#clip20)" clip-rule="nonzero">
<g style="fill:rgb(0%,0%,0%);fill-opacity:1;">
  <use xlink:href="#glyph4-15" x="17.384766" y="403.44"/>
  <use xlink:href="#glyph4-2" x="31.833984" y="403.44"/>
  <use xlink:href="#glyph4-16" x="46.283203" y="403.44"/>
  <use xlink:href="#glyph4-2" x="60.732422" y="403.44"/>
  <use xlink:href="#glyph4-17" x="75.181641" y="403.44"/>
  <use xlink:href="#glyph4-2" x="89.630859" y="403.44"/>
  <use xlink:href="#glyph4-18" x="104.080078" y="403.44"/>
  <use xlink:href="#glyph4-2" x="118.529297" y="403.44"/>
  <use xlink:href="#glyph4-19" x="132.978516" y="403.44"/>
  <use xlink:href="#glyph4-2" x="147.427734" y="403.44"/>
  <use xlink:href="#glyph4-20" x="161.876953" y="403.44"/>
  <use xlink:href="#glyph4-2" x="176.326172" y="403.44"/>
  <use xlink:href="#glyph4-21" x="190.775391" y="403.44"/>
  <use xlink:href="#glyph4-2" x="205.224609" y="403.44"/>
  <use xlink:href="#glyph4-22" x="219.673828" y="403.44"/>
  <use xlink:href="#glyph4-2" x="234.123047" y="403.44"/>
  <use xlink:href="#glyph4-23" x="248.572266" y="403.44"/>
  <use xlink:href="#glyph4-2" x="263.021484" y="403.44"/>
  <use xlink:href="#glyph4-24" x="277.470703" y="403.44"/>
  <use xlink:href="#glyph4-2" x="291.919922" y="403.44"/>
  <use xlink:href="#glyph4-25" x="306.369141" y="403.44"/>
  <use xlink:href="#glyph4-2" x="320.818359" y="403.44"/>
  <use xlink:href="#glyph4-26" x="335.267578" y="403.44"/>
  <use xlink:href="#glyph4-2" x="349.716797" y="403.44"/>
  <use xlink:href="#glyph4-27" x="364.166016" y="403.44"/>
</g>
</g>
</g>
<g clip-path="url(#clip21)" clip-rule="nonzero">
<g clip-path="url(#clip22)" clip-rule="nonzero">
<g style="fill:rgb(89.803922%,89.803922%,89.803922%);fill-opacity:1;">
  <use xlink:href="#glyph4-28" x="60.732422" y="443.44"/>
  <use xlink:href="#glyph4-2" x="75.181641" y="443.44"/>
  <use xlink:href="#glyph4-29" x="89.630859" y="443.44"/>
  <use xlink:href="#glyph4-2" x="104.080078" y="443.44"/>
  <use xlink:href="#glyph4-30" x="118.529297" y="443.44"/>
  <use xlink:href="#glyph4-2" x="132.978516" y="443.44"/>
  <use xlink:href="#glyph4-31" x="147.427734" y="443.44"/>
  <use xlink:href="#glyph4-2" x="161.876953" y="443.44"/>
  <use xlink:href="#glyph4-32" x="176.326172" y="443.44"/>
  <use xlink:href="#glyph4-2" x="190.775391" y="443.44"/>
  <use xlink:href="#glyph4-33" x="205.224609" y="443.44"/>
  <use xlink:href="#glyph4-2" x="219.673828" y="443.44"/>
  <use xlink:href="#glyph4-34" x="234.123047" y="443.44"/>
  <use xlink:href="#glyph4-2" x="248.572266" y="443.44"/>
  <use xlink:href="#glyph4-35" x="263.021484" y="443.44"/>
  <use xlink:href="#glyph4-2" x="277.470703" y="443.44"/>
  <use xlink:href="#glyph4-36" x="291.919922" y="443.44"/>
  <use xlink:href="#glyph4-2" x="306.369141" y="443.44"/>
  <use xlink:href="#glyph4-37" x="320.818359" y="443.44"/>
</g>
</g>
</g>
</g>
</svg>
