<?xml version="1.0" encoding="UTF-8" standalone="no"?>
<!-- Created with Inkscape (http://www.inkscape.org/) -->

<svg
   xmlns:dc="http://purl.org/dc/elements/1.1/"
   xmlns:cc="http://creativecommons.org/ns#"
   xmlns:rdf="http://www.w3.org/1999/02/22-rdf-syntax-ns#"
   xmlns:svg="http://www.w3.org/2000/svg"
   xmlns="http://www.w3.org/2000/svg"
   xmlns:xlink="http://www.w3.org/1999/xlink"
   xmlns:sodipodi="http://sodipodi.sourceforge.net/DTD/sodipodi-0.dtd"
   xmlns:inkscape="http://www.inkscape.org/namespaces/inkscape"
   version="1.2"
   width="396"
   height="468"
   viewBox="0 0 396 468"
   id="Layer_1"
   xml:space="preserve"
   style="overflow:visible"
   inkscape:version="0.92.2 5c3e80d, 2017-08-06"
   sodipodi:docname="Iosevka_sample.svg"><sodipodi:namedview
     pagecolor="#ffffff"
     bordercolor="#666666"
     borderopacity="1"
     objecttolerance="10"
     gridtolerance="10"
     guidetolerance="10"
     inkscape:pageopacity="0"
     inkscape:pageshadow="2"
     inkscape:window-width="1525"
     inkscape:window-height="1007"
     id="namedview80"
     showgrid="false"
     inkscape:zoom="1.5"
     inkscape:cx="205.36798"
     inkscape:cy="234"
     inkscape:window-x="68"
     inkscape:window-y="0"
     inkscape:window-maximized="0"
     inkscape:current-layer="Layer_1" /><metadata
     id="metadata179"><rdf:RDF><cc:Work
         rdf:about=""><dc:format>image/svg+xml</dc:format><dc:type
           rdf:resource="http://purl.org/dc/dcmitype/StillImage" /><dc:title /></cc:Work></rdf:RDF></metadata><defs
     id="defs177"><defs
       id="defs7"><rect
         width="396"
         height="468"
         x="0"
         y="0"
         id="XMLID_1_" /></defs><clipPath
       id="XMLID_3_"><use
         id="use11"
         x="0"
         y="0"
         width="396"
         height="468"
         xlink:href="#XMLID_1_" /></clipPath></defs><rect
     width="396"
     height="468"
     x="0"
     y="0"
     clip-path="url(#XMLID_3_)"
     id="rect13"
     style="fill:#ffffff;fill-rule:evenodd" /><flowRoot
     id="flowRoot4016"
     xml:space="preserve"
     style="font-style:normal;font-weight:normal;line-height:0.01%;font-family:'Open Sans';-inkscape-font-specification:'Open Sans';letter-spacing:0px;word-spacing:0px;fill:#000000;fill-opacity:1;stroke:none"><flowRegion
       id="flowRegion4018"><rect
         width="344.66666"
         height="44.666668"
         x="18.666666"
         y="322.66666"
         id="rect4020"
         style="font-family:'Open Sans';-inkscape-font-specification:'Open Sans'" /></flowRegion><flowPara
       id="flowPara4022"
       style="font-size:40px;line-height:1.25">ab</flowPara></flowRoot><g
     id="g5234"><rect
       style="fill:#87a9c6;fill-opacity:1;fill-rule:evenodd"
       id="rect17"
       y="311.6828"
       x="0"
       height="156"
       width="396" /><path
       style="fill:#e7e5d1;fill-opacity:1;fill-rule:evenodd"
       id="path15"
       clip-path="url(#XMLID_3_)"
       d="M 0,0 H 396 V 312 H 0 Z m 0,0"
       inkscape:connector-curvature="0" /></g><g
     id="g4810"><g
       id="text4079"
       style="font-style:normal;font-variant:normal;font-weight:300;font-stretch:normal;font-size:45.33333206px;line-height:1.25;font-family:'Iosevka Term';-inkscape-font-specification:'Iosevka Term, Light';font-variant-ligatures:normal;font-variant-caps:normal;font-variant-numeric:normal;font-feature-settings:normal;text-align:start;letter-spacing:0px;word-spacing:0px;writing-mode:lr-tb;text-anchor:start;fill:#000000;fill-opacity:1;stroke:none"
       aria-label="abcdefghijklm"><path
         id="path4652"
         style=""
         d="m 60.277334,359.69601 q -2.312,0 -3.898666,-0.90667 -1.405334,-0.816 -2.266667,-2.26666 -0.906666,-1.58667 -0.906666,-3.76267 0,-1.99467 0.816,-3.49067 0.951999,-1.54133 2.674666,-2.53866 2.402667,-1.40534 6.165333,-1.40534 h 4.76 v -2.35733 q 0,-1.72267 -0.725333,-2.94667 -0.634667,-1.088 -1.768,-1.768 -1.36,-0.77066 -3.264,-0.77066 -1.949333,0 -3.354667,0.816 -1.088,0.63466 -1.722666,1.72266 -0.498667,0.86134 -0.589334,1.81334 l -2.719999,-0.63467 q 0.136,-1.26933 0.816,-2.49333 0.997333,-1.632 2.583999,-2.584 2.04,-1.17867 4.986667,-1.17867 2.856,0 4.896,1.17867 1.677333,0.952 2.629333,2.584 1.042667,1.81333 1.042667,4.26133 v 16.36533 h -2.810667 v -3.62666 q -1.042667,1.81333 -2.856,2.856 -1.450666,0.86133 -3.264,1.04266 -0.589333,0.0907 -1.224,0.0907 z m 0.725334,-2.53867 q 2.04,0 3.581333,-0.86133 1.314667,-0.816 2.130666,-2.176 0.906667,-1.54133 0.906667,-3.76267 v -2.49333 h -4.76 q -2.765333,0 -4.533333,0.99733 -1.178667,0.68 -1.768,1.72267 -0.544,0.90667 -0.544,2.13067 0,1.36 0.589333,2.26666 0.498667,0.952 1.496,1.496 1.133334,0.68 2.901334,0.68 z" /><path
         id="path4654"
         style=""
         d="m 85.437334,359.69601 q -1.994667,0 -3.490667,-0.86133 -1.586667,-0.952 -2.674667,-2.76534 -0.136,-0.22666 -0.226666,-0.408 v 3.672 h -2.810667 v -33.32 h 2.810667 v 12.96534 q 0.09067,-0.18134 0.226666,-0.408 1.088,-1.81334 2.674667,-2.76534 1.496,-0.86133 3.490667,-0.86133 2.130666,0 3.717333,0.90667 1.722666,0.99733 2.810666,2.856 1.496,2.62933 1.496,6.57333 v 4.08 q 0,3.944 -1.496,6.57333 -1.088,1.85867 -2.810666,2.856 -1.586667,0.90667 -3.717333,0.90667 z M 84.712,357.15734 q 1.541334,0 2.72,-0.68 1.224,-0.72533 2.085334,-2.13066 1.133333,-1.99467 1.133333,-4.98667 v -4.08 q 0,-2.992 -1.133333,-4.98667 -0.861334,-1.40533 -2.085334,-2.13066 -1.178666,-0.68 -2.72,-0.68 -1.450666,0 -2.538666,0.63466 -1.178667,0.68 -1.949334,2.04 -1.178666,1.99467 -1.178666,5.12267 v 4.08 q 0,3.128 1.178666,5.12267 0.770667,1.36 1.949334,2.04 1.088,0.63466 2.538666,0.63466 z" /><path
         id="path4656"
         style=""
         d="m 107.37867,359.69601 q -2.53867,0 -4.39734,-1.04267 -1.85866,-1.088 -2.991997,-3.08266 -1.450666,-2.53867 -1.450666,-6.21067 v -4.08 q 0,-3.672 1.450666,-6.21067 1.133337,-1.99466 2.991997,-3.03733 1.85867,-1.088 4.39734,-1.088 2.53866,0 4.44266,1.088 1.81334,1.04267 2.992,3.03733 0.86134,1.496 1.17867,3.264 l -2.67467,0.816 q -0.272,-1.58666 -0.99733,-2.81066 -0.77067,-1.40534 -2.08533,-2.176 -1.224,-0.68 -2.856,-0.68 -1.58667,0 -2.856,0.72533 -1.224,0.72533 -2.04,2.13067 -1.13334,1.94933 -1.13334,4.94133 v 4.08 q 0,2.992 1.13334,4.94133 0.816,1.40534 2.04,2.13067 1.26933,0.72533 2.856,0.72533 1.632,0 2.856,-0.68 1.31466,-0.77066 2.08533,-2.176 0.72533,-1.224 0.99733,-2.81066 l 2.67467,0.816 q -0.31733,1.768 -1.17867,3.264 -1.17866,1.99466 -2.992,3.03733 -1.904,1.088 -4.44266,1.088 z" /><path
         id="path4658"
         style=""
         d="m 129.22933,359.69601 q -2.13066,0 -3.71733,-0.90667 -1.72267,-0.99733 -2.81067,-2.856 -1.496,-2.62933 -1.496,-6.57333 v -4.08 q 0,-3.944 1.496,-6.57333 1.088,-1.85867 2.81067,-2.856 1.58667,-0.90667 3.71733,-0.90667 1.99467,0 3.49067,0.86133 1.58667,0.952 2.67467,2.76534 0.136,0.22666 0.22666,0.408 v -12.96534 h 2.81067 v 33.32 h -2.81067 v -3.672 q -0.0907,0.18134 -0.22666,0.408 -1.088,1.81334 -2.67467,2.76534 -1.496,0.86133 -3.49067,0.86133 z m 0.72534,-2.53867 q 1.45066,0 2.53866,-0.63466 1.17867,-0.68 1.94934,-2.04 1.17866,-1.99467 1.17866,-5.12267 v -4.08 q 0,-3.128 -1.17866,-5.12267 -0.77067,-1.36 -1.94934,-2.04 -1.088,-0.63466 -2.53866,-0.63466 -1.54134,0 -2.72,0.68 -1.224,0.72533 -2.08534,2.13066 -1.13333,1.99467 -1.13333,4.98667 v 4.08 q 0,2.992 1.13333,4.98667 0.86134,1.40533 2.08534,2.13066 1.17866,0.68 2.72,0.68 z" /><path
         id="path4660"
         style=""
         d="m 152.984,359.69601 q -2.67467,0 -4.624,-1.13333 -1.904,-1.088 -3.03733,-3.08267 -1.45067,-2.49333 -1.45067,-6.12 v -4.08 q 0,-3.71733 1.45067,-6.256 1.13333,-1.94933 2.992,-2.992 1.85866,-1.088 4.352,-1.088 2.49333,0 4.35199,1.088 1.85867,1.04267 2.992,2.992 1.45067,2.53867 1.45067,6.256 v 3.30933 h -14.77866 v 0.77067 q 0,2.90133 1.13333,4.85067 0.816,1.45066 2.13067,2.22133 1.31466,0.72533 3.03733,0.72533 1.72267,0 3.03733,-0.77066 1.31467,-0.77067 2.176,-2.22134 0.49867,-0.86133 0.72533,-1.768 l 2.584,1.04267 q -0.36266,1.13333 -0.90666,2.04 -1.13334,1.99467 -3.08267,3.128 -1.904,1.088 -4.53333,1.088 z m -6.30133,-13.64533 h 11.96799 v -0.77067 q 0,-2.992 -1.13333,-4.98667 -0.86133,-1.40533 -2.08533,-2.13066 -1.17867,-0.68 -2.76533,-0.68 -1.58667,0 -2.76534,0.68 -1.224,0.72533 -2.08533,2.13066 -1.13333,1.99467 -1.13333,4.98667 z" /><path
         id="path4662"
         style=""
         d="m 172.11466,359.33334 v -19.94666 h -5.21333 v -2.53867 h 5.21333 v -4.488 q -0.0453,-2.62933 1.04267,-4.488 0.816,-1.40533 2.13067,-2.176 1.36,-0.77067 3.17333,-0.77067 1.81333,0 3.128,0.77067 1.31467,0.77067 2.176,2.176 0.68,1.224 0.90667,2.67467 l -2.72,0.72533 q -0.136,-1.224 -0.68,-2.13067 -0.45334,-0.816 -1.224,-1.26933 -0.72534,-0.408 -1.58667,-0.408 -0.90667,0 -1.58667,0.408 -0.72533,0.408 -1.224,1.26933 -0.72533,1.26934 -0.72533,3.21867 v 4.488 h 7.97867 v 2.53867 h -7.97867 v 19.94666 z" /><path
         id="path4664"
         style=""
         d="m 198,368.98934 q -3.4,0 -5.75733,-1.31466 -1.72267,-0.99734 -2.584,-2.584 -0.86134,-1.496 -0.90667,-3.536 0.0453,-1.85867 0.77067,-3.17334 0.77066,-1.36 2.22133,-2.22133 -0.58933,-0.49867 -0.99733,-1.17867 -0.58934,-0.952 -0.544,-2.08533 -0.0453,-1.13333 0.58933,-2.176 0.544,-0.952 1.54133,-1.632 -1.36,-0.90667 -2.13066,-2.26667 -0.99734,-1.72266 -0.99734,-4.08 0,-2.40266 0.99734,-4.08 0.90666,-1.632 2.584,-2.584 1.94933,-1.13333 4.76,-1.13333 1.496,0 2.72,0.31733 l 0.22666,0.0453 H 207.52 v 2.53866 l -3.21867,-0.136 q 0.36267,0.45334 0.63467,0.952 0.99733,1.67734 0.99733,4.08 0,2.35734 -0.99733,4.08 -0.952,1.58667 -2.584,2.53867 -1.94933,1.13333 -4.80533,1.13333 -1.632,0 -2.992,-0.36266 -0.68,0.22666 -1.17867,0.72533 -0.68,0.68 -0.68,1.58667 0,0.86133 0.63467,1.54133 0.90666,0.90667 3.30933,0.952 0.136,0 0.272,0 h 2.176 q 3.08267,0 5.12267,1.224 1.496,0.816 2.26666,2.22133 0.816,1.36 0.816,3.264 0,1.904 -0.90666,3.44534 -0.86134,1.58666 -2.584,2.53866 -2.312,1.36 -5.80267,1.36 z m 0,-2.53866 q 2.53867,0 4.17067,-0.952 1.13333,-0.68 1.768,-1.67734 0.544,-0.99733 0.544,-2.176 0,-1.17866 -0.49867,-1.99466 -0.45333,-0.816 -1.40533,-1.36 -1.40534,-0.816 -3.49067,-0.816 h -2.448 q -1.81333,0 -3.128,0.77066 -0.952,0.544 -1.45067,1.36 -0.49866,0.86134 -0.45333,1.94934 -0.0453,1.26933 0.544,2.26666 0.58933,1.04267 1.768,1.67734 1.58667,0.952 4.08,0.952 z m -0.45333,-18.496 q 1.85866,0 3.17333,-0.72534 1.088,-0.63466 1.72267,-1.72266 0.63466,-1.13334 0.68,-2.76534 -0.0453,-1.632 -0.68,-2.81066 -0.63467,-1.04267 -1.72267,-1.67734 -1.088,-0.63466 -2.53867,-0.72533 l -0.63466,-0.0453 q -1.81334,0 -3.128,0.72533 -1.088,0.68 -1.72267,1.72267 -0.68,1.17866 -0.68,2.81066 0,1.632 0.68,2.76534 0.63467,1.088 1.72267,1.72266 1.31466,0.72534 3.128,0.72534 z" /><path
         id="path4666"
         style=""
         d="m 212.23466,359.33334 v -33.32 h 2.81066 v 12.96534 q 0.0907,-0.18134 0.22667,-0.408 1.088,-1.81334 2.67467,-2.76534 1.496,-0.86133 3.49066,-0.86133 1.94934,0 3.44534,0.86133 1.632,0.952 2.67466,2.76534 1.54134,2.62933 1.54134,6.70933 v 14.05333 h -2.81067 v -14.05333 q 0,-3.128 -1.17867,-5.12267 -0.77066,-1.36 -1.94933,-2.04 -1.088,-0.63466 -2.49333,-0.63466 -1.40534,0 -2.49334,0.63466 -1.17866,0.68 -1.94933,2.04 -1.17867,1.99467 -1.17867,5.12267 v 14.05333 z" /><path
         id="path4668"
         style=""
         d="m 243.33333,330.54668 q -1.04267,0 -1.632,-0.63467 -0.63467,-0.58933 -0.63467,-1.632 0,-1.04267 0.63467,-1.632 0.58933,-0.63467 1.632,-0.63467 1.04267,0 1.632,0.63467 0.63467,0.58933 0.63467,1.632 0,1.04267 -0.63467,1.632 -0.58933,0.63467 -1.632,0.63467 z M 235.4,359.33334 v -2.53866 h 6.84533 v -18.94934 h -6.21067 v -2.53866 h 9.02134 v 21.488 h 6.21066 v 2.53866 z" /><path
         id="path4670"
         style=""
         d="m 268.40267,330.54668 q -1.04267,0 -1.67734,-0.58934 -0.58933,-0.63466 -0.58933,-1.67733 0,-1.04267 0.58933,-1.632 0.63467,-0.63467 1.67734,-0.63467 1.04266,0 1.632,0.63467 0.63466,0.58933 0.63466,1.632 0,1.04267 -0.63466,1.67733 -0.58934,0.58934 -1.632,0.58934 z m -5.576,38.44266 q -1.99467,0 -3.536,-0.90666 -1.54134,-0.86134 -2.53867,-2.584 -0.77067,-1.36 -1.088,-2.992 l 2.62933,-0.86134 q 0.272,1.496 0.90667,2.584 0.63467,1.13334 1.632,1.72267 0.86133,0.49867 1.99467,0.49867 1.13333,0 1.99466,-0.49867 0.952,-0.544 1.632,-1.67733 0.99734,-1.768 0.99734,-4.488 v -21.94134 h -6.528 v -2.53866 h 9.33866 v 24.48 q 0,3.4 -1.31466,5.712 -0.99734,1.72266 -2.53867,2.584 -1.54133,0.90666 -3.58133,0.90666 z" /><path
         id="path4672"
         style=""
         d="m 280.23466,359.33334 v -33.32 h 2.81066 v 20.89867 q 8.25067,-5.984 10.51734,-9.97333 0.544,-0.952 0.58933,-1.632 h 2.94667 q 0,0.816 -0.72534,2.08533 -1.768,3.03733 -6.21066,7.02667 2.04,3.128 3.62666,5.848 3.672,6.392 3.672,9.06666 h -2.81066 q 0,-2.26666 -2.992,-7.43466 -1.496,-2.584 -3.58134,-5.66667 -2.26666,1.85867 -5.032,3.89867 v 9.20266 z" /><path
         id="path4674"
         style=""
         d="m 303.4,359.33334 v -2.53866 h 6.84533 v -28.24267 h -6.21067 v -2.53867 h 9.02134 v 30.78134 h 6.21066 v 2.53866 z" /><path
         id="path4676"
         style=""
         d="m 325.20533,359.33334 v -24.02666 h 2.81067 v 1.58666 q 0.58933,-1.04266 1.45067,-1.54133 0.72533,-0.408 1.58666,-0.408 0.952,0 1.67734,0.408 0.90666,0.544 1.54133,1.632 0.31733,0.544 0.544,1.224 0.22667,-0.72533 0.58933,-1.31467 0.58934,-1.04266 1.45067,-1.54133 0.72533,-0.408 1.58667,-0.408 0.952,0 1.67733,0.408 0.90667,0.544 1.54133,1.632 1.13334,1.99467 1.13334,5.304 v 17.04533 H 339.984 v -17.04533 q 0,-3.17333 -1.17867,-4.352 -0.49866,-0.45333 -1.13333,-0.45333 -0.63467,0 -1.088,0.45333 -1.17867,1.17867 -1.17867,4.352 v 17.04533 h -2.81066 v -17.04533 q 0,-3.17333 -1.17867,-4.352 -0.45333,-0.45333 -1.088,-0.45333 -0.63467,0 -1.13333,0.45333 -1.17867,1.17867 -1.17867,4.352 v 17.04533 z" /></g><g
       id="text4083"
       style="font-style:normal;font-variant:normal;font-weight:300;font-stretch:normal;font-size:45.33333206px;line-height:1.25;font-family:'Iosevka Term';-inkscape-font-specification:'Iosevka Term, Light';font-variant-ligatures:normal;font-variant-caps:normal;font-variant-numeric:normal;font-feature-settings:normal;text-align:start;letter-spacing:0px;word-spacing:0px;writing-mode:lr-tb;text-anchor:start;fill:#000000;fill-opacity:1;stroke:none"
       aria-label="nopqrstuvwxyz"><path
         id="path4625"
         style=""
         d="m 53.930668,407 v -24.02667 h 2.810667 v 3.672 q 0.09067,-0.18133 0.226667,-0.408 1.087999,-1.81333 2.674666,-2.76533 1.496,-0.86133 3.490667,-0.86133 1.949333,0 3.445333,0.86133 1.632,0.952 2.674667,2.76533 1.541333,2.62934 1.541333,6.70934 V 407 h -2.810667 v -14.05333 q 0,-3.128 -1.178666,-5.12267 -0.770667,-1.36 -1.949334,-2.04 -1.088,-0.63467 -2.493333,-0.63467 -1.405333,0 -2.493333,0.63467 -1.178667,0.68 -1.949334,2.04 -1.178666,1.99467 -1.178666,5.12267 V 407 Z" /><path
         id="path4627"
         style=""
         d="m 85.029334,407.36267 q -2.493333,0 -4.352,-1.04267 -1.858666,-1.088 -2.992,-3.03733 -1.450666,-2.53867 -1.450666,-6.256 v -4.08 q 0,-3.71734 1.450666,-6.256 1.133334,-1.94934 2.992,-2.992 1.858667,-1.088 4.352,-1.088 2.493333,0 4.352,1.088 1.858667,1.04266 2.992,2.992 1.450666,2.53866 1.450666,6.256 v 4.08 q 0,3.71733 -1.450666,6.256 -1.133333,1.94933 -2.992,3.03733 -1.858667,1.04267 -4.352,1.04267 z m 0,-2.53867 q 1.586667,0 2.765333,-0.68 1.224,-0.72533 2.085334,-2.13067 1.133333,-1.99466 1.133333,-4.98666 v -4.08 q 0,-2.992 -1.133333,-4.98667 -0.861334,-1.40533 -2.085334,-2.13067 -1.178666,-0.68 -2.765333,-0.68 -1.586667,0 -2.765333,0.68 -1.224,0.72534 -2.085333,2.13067 -1.133334,1.99467 -1.133334,4.98667 v 4.08 q 0,2.992 1.133334,4.98666 0.861333,1.40534 2.085333,2.13067 1.178666,0.68 2.765333,0.68 z" /><path
         id="path4629"
         style=""
         d="m 99.264,416.29333 v -33.32 h 2.81067 v 3.672 q 0.0907,-0.18133 0.22666,-0.408 1.088,-1.81333 2.67467,-2.76533 1.496,-0.86133 3.49067,-0.86133 2.13066,0 3.71733,0.90666 1.72267,0.99734 2.81067,2.856 1.496,2.62934 1.496,6.57334 v 4.08 q 0,3.944 -1.496,6.57333 -1.088,1.85867 -2.81067,2.856 -1.58667,0.90667 -3.71733,0.90667 -1.99467,0 -3.49067,-0.86134 -1.58667,-0.952 -2.67467,-2.76533 -0.136,-0.22667 -0.22666,-0.408 v 12.96533 z m 8.47733,-11.46933 q 1.54134,0 2.72,-0.68 1.224,-0.72533 2.08534,-2.13067 1.13333,-1.99466 1.13333,-4.98666 v -4.08 q 0,-2.992 -1.13333,-4.98667 -0.86134,-1.40533 -2.08534,-2.13067 -1.17866,-0.68 -2.72,-0.68 -1.45066,0 -2.53866,0.63467 -1.17867,0.68 -1.94934,2.04 -1.17866,1.99467 -1.17866,5.12267 v 4.08 q 0,3.128 1.17866,5.12266 0.77067,1.36 1.94934,2.04 1.088,0.63467 2.53866,0.63467 z" /><path
         id="path4631"
         style=""
         d="M 135.984,416.29333 V 403.328 q -0.0907,0.18133 -0.22667,0.408 -1.088,1.81333 -2.67466,2.76533 -1.496,0.86134 -3.49067,0.86134 -2.13067,0 -3.71733,-0.90667 -1.72267,-0.99733 -2.81067,-2.856 -1.496,-2.62933 -1.496,-6.57333 v -4.08 q 0,-3.944 1.496,-6.57334 1.088,-1.85866 2.81067,-2.856 1.58666,-0.90666 3.71733,-0.90666 1.99467,0 3.49067,0.86133 1.58666,0.952 2.67466,2.76533 0.136,0.22667 0.22667,0.408 v -3.672 h 2.81067 v 33.32 z M 130.31733,404.824 q 1.45067,0 2.53867,-0.63467 1.17867,-0.68 1.94933,-2.04 1.17867,-1.99466 1.17867,-5.12266 v -4.08 q 0,-3.128 -1.17867,-5.12267 -0.77066,-1.36 -1.94933,-2.04 -1.088,-0.63467 -2.53867,-0.63467 -1.54133,0 -2.72,0.68 -1.224,0.72534 -2.08533,2.13067 -1.13333,1.99467 -1.13333,4.98667 v 4.08 q 0,2.992 1.13333,4.98666 0.86133,1.40534 2.08533,2.13067 1.17867,0.68 2.72,0.68 z" /><path
         id="path4633"
         style=""
         d="m 147.31733,407 v -24.02667 h 2.81067 v 4.76 q 0.36267,-0.952 0.816,-1.81333 1.04267,-1.768 2.49333,-2.62933 1.224,-0.68 2.76534,-0.68 1.67733,0 3.08266,0.816 1.45067,0.816 2.26667,2.26666 0.36267,0.63467 0.58933,1.36 L 159.512,388.232 q -0.18133,-0.63467 -0.49867,-1.224 -0.58933,-0.952 -1.40533,-1.45067 -0.72533,-0.408 -1.58667,-0.408 -1.36,0 -2.40266,0.58934 -1.224,0.72533 -2.08534,2.176 -1.40533,2.40266 -1.40533,6.34666 V 407 Z" /><path
         id="path4635"
         style=""
         d="m 175.60533,407.36267 q -1.04267,0 -1.94933,-0.136 -1.85867,-0.272 -3.21867,-1.04267 -1.67733,-0.952 -2.67467,-2.67467 -0.408,-0.72533 -0.63466,-1.496 l 2.67466,-0.816 q 0.18134,0.544 0.45334,0.99734 0.63466,1.13333 1.768,1.81333 1.45066,0.816 3.58133,0.816 2.35733,0 3.85333,-0.86133 0.952,-0.58934 1.45067,-1.40534 0.45333,-0.77066 0.45333,-1.768 0,-0.99733 -0.49866,-1.85866 -0.544,-0.952 -1.58667,-1.54134 -1.13333,-0.68 -3.808,-0.99733 -3.264,-0.45333 -4.85067,-1.36 -1.632,-0.952 -2.53866,-2.448 -0.86134,-1.54133 -0.86134,-3.4 0,-1.768 0.77067,-3.03733 0.77067,-1.36 2.312,-2.26667 2.176,-1.26933 5.48533,-1.26933 3.128,0 5.168,1.17866 1.67734,0.952 2.67467,2.67467 0.408,0.72533 0.63467,1.496 l -2.67467,0.816 q -0.31733,-1.13333 -1.224,-2.04 -0.45333,-0.45333 -0.99733,-0.77067 -1.45067,-0.816 -3.58134,-0.816 -2.35733,0 -3.85333,0.86134 -0.952,0.58933 -1.45067,1.40533 -0.45333,0.77067 -0.45333,1.768 0,0.99733 0.49867,1.85867 0.544,0.952 1.58666,1.54133 1.13334,0.68 3.808,0.99733 3.264,0.45334 4.85067,1.36 1.632,0.952 2.49333,2.49334 0.90667,1.496 0.90667,3.35466 0,1.768 -0.77067,3.03734 -0.77066,1.36 -2.312,2.26666 -2.176,1.26934 -5.48533,1.26934 z" /><path
         id="path4637"
         style=""
         d="m 201.944,407.36267 q -2.04,0 -3.49067,-0.86134 -1.54133,-0.86133 -2.49333,-2.53866 -1.26933,-2.22134 -1.26933,-5.48534 V 385.512 h -5.304 v -2.53867 h 5.304 V 373.68 h 2.81066 v 9.29333 h 7.752 v 2.53867 h -7.752 v 12.96533 q 0,2.584 0.952,4.26134 0.63467,1.04266 1.54134,1.58666 0.86133,0.49867 1.94933,0.49867 1.088,0 1.904,-0.49867 0.90667,-0.49866 1.58667,-1.632 0.77066,-1.36 0.90666,-3.21866 l 2.76534,0.49866 q -0.18134,2.26667 -1.224,3.98934 -0.90667,1.632 -2.448,2.53866 -0.77067,0.45334 -1.632,0.63467 -0.86134,0.22667 -1.85867,0.22667 z" /><path
         id="path4639"
         style=""
         d="m 220.25866,407.36267 q -1.94934,0 -3.44534,-0.86134 -1.632,-0.952 -2.67466,-2.76533 -1.54134,-2.62933 -1.54134,-6.70933 v -14.05334 h 2.81067 v 14.05334 q 0,3.128 1.17867,5.12266 0.77066,1.36 1.94933,2.04 1.088,0.63467 2.49333,0.63467 1.40534,0 2.49334,-0.63467 1.17866,-0.68 1.94933,-2.04 1.17867,-1.99466 1.17867,-5.12266 v -14.05334 h 2.81066 V 407 h -2.81066 v -3.672 q -0.0907,0.18133 -0.22667,0.408 -1.088,1.81333 -2.67467,2.76533 -1.496,0.86134 -3.49066,0.86134 z" /><path
         id="path4641"
         style=""
         d="M 242.29066,407 Q 235.264,391.904 235.264,385.376 v -2.40267 h 2.81066 v 2.40267 q 0,5.80267 5.62134,18.632 5.62133,-12.82933 5.62133,-18.632 v -2.40267 h 2.81067 v 2.40267 q 0,6.528 -7.02667,21.624 z" /><path
         id="path4643"
         style=""
         d="m 261.33067,407 q -3.4,-12.512 -3.4,-18.04267 v -5.984 h 2.81066 v 5.984 q 0,4.57867 1.632,14.008 l 2.90134,-10.38133 h 2.176 l 2.90133,10.38133 q 1.632,-9.42933 1.632,-14.008 v -5.984 h 2.81067 v 5.984 q 0,5.53067 -3.4,18.04267 H 269.264 L 266.36267,396.528 263.46133,407 Z" /><path
         id="path4645"
         style=""
         d="m 280.59732,407 v -0.22667 q 0,-1.36 1.58667,-4.08 0.77067,-1.31466 1.496,-2.35733 l 3.672,-5.34933 -3.672,-5.34934 q -0.72533,-1.04266 -1.496,-2.35733 -1.58667,-2.72 -1.58667,-4.08 v -0.22667 h 2.81067 V 383.2 q 0,1.31467 2.584,4.98667 l 3.03733,4.39733 3.03734,-4.39733 q 2.584,-3.672 2.584,-4.98667 v -0.22667 h 2.81066 V 383.2 q 0,1.36 -1.58666,4.08 -0.77067,1.31467 -1.496,2.35733 l -3.672,5.34934 3.672,5.34933 q 0.72533,1.04267 1.496,2.35733 1.58666,2.72 1.58666,4.08 V 407 h -2.81066 v -0.22667 q 0,-1.31466 -2.584,-4.98666 l -3.03734,-4.39734 -3.03733,4.39734 q -2.584,3.672 -2.584,4.98666 V 407 Z" /><path
         id="path4647"
         style=""
         d="M 308.024,416.29333 V 415.976 q 0,-2.62933 0.544,-4.216 l 1.67733,-4.76 -5.39467,-15.232 q -1.58666,-4.352 -1.58666,-7.11733 v -1.67734 h 2.81066 v 1.67734 q 0,2.22133 1.40534,6.256 l 4.17066,12.05866 4.26134,-12.05866 q 1.40533,-3.98934 1.40533,-6.256 v -1.67734 h 2.81067 v 1.67734 q 0,2.67466 -1.58667,7.11733 l -7.29867,20.85333 q -0.408,1.04267 -0.408,3.35467 v 0.31733 z" /><path
         id="path4649"
         style=""
         d="m 325.93067,407 v -2.53867 l 13.464,-18.94933 h -13.464 v -2.53867 h 16.864 v 2.53867 l -13.464,18.94933 h 13.464 V 407 Z" /></g><g
       id="text4087"
       style="font-style:normal;font-variant:normal;font-weight:300;font-stretch:normal;font-size:42.66666794px;line-height:1.25;font-family:'Iosevka Term';-inkscape-font-specification:'Iosevka Term, Light';font-variant-ligatures:normal;font-variant-caps:normal;font-variant-numeric:normal;font-feature-settings:normal;text-align:start;letter-spacing:0px;word-spacing:0px;writing-mode:lr-tb;text-anchor:start;fill:#ffffff;fill-opacity:1;stroke:none"
       aria-label="0123456789"><path
         id="path4604"
         style=""
         d="m 142.51733,455.00799 q -2.34667,0 -4.096,-0.98133 -1.74933,-1.024 -2.816,-2.85867 -1.36533,-2.38933 -1.36533,-5.888 v -12.58667 q 0,-3.49866 1.36533,-5.888 1.06667,-1.83466 2.816,-2.816 1.74933,-1.024 4.096,-1.024 2.34667,0 4.096,1.024 1.74933,0.98134 2.816,2.816 1.36533,2.38934 1.36533,5.888 v 12.58667 q 0,3.49867 -1.36533,5.888 -1.06667,1.83467 -2.816,2.85867 -1.74933,0.98133 -4.096,0.98133 z m 0,-2.38933 q 1.49333,0 2.60267,-0.64 1.152,-0.68267 1.96266,-2.00534 1.06667,-1.87733 1.06667,-4.69333 v -11.34933 l -11.008,13.824 q 0.256,1.23733 0.81067,2.21866 0.81066,1.32267 1.96266,2.00534 1.10934,0.64 2.60267,0.64 z m -5.632,-8.576 11.008,-13.824 q -0.256,-1.23734 -0.81067,-2.21867 -0.81066,-1.32267 -1.96266,-2.00533 -1.10934,-0.64 -2.60267,-0.64 -1.49333,0 -2.60267,0.64 -1.152,0.68266 -1.96266,2.00533 -1.06667,1.87733 -1.06667,4.69333 z" /><path
         id="path4606"
         style=""
         d="m 163.808,454.66666 v -28.45867 l -6.31467,4.05333 -1.408,-2.00533 7.72267,-4.94933 h 2.64533 v 31.36 z" /><path
         id="path4608"
         style=""
         d="m 177.248,454.66666 v -0.0427 q 0,-5.67467 1.792,-8.832 1.536,-2.60267 5.632,-5.84533 3.66933,-2.944 4.82133,-4.992 1.152,-1.92 1.152,-3.92534 0,-1.792 -0.81067,-3.15733 -0.64,-1.152 -1.792,-1.792 -1.23733,-0.72533 -2.90133,-0.72533 -1.70667,0 -2.90133,0.68266 -1.10934,0.68267 -1.83467,1.83467 -0.59733,1.10933 -0.768,2.47467 l -2.60267,-0.42667 q 0.17067,-1.74933 1.024,-3.24267 0.98134,-1.70666 2.64534,-2.64533 1.83466,-1.06667 4.43733,-1.06667 2.56,0 4.39467,1.06667 1.664,0.93867 2.64533,2.64533 1.10933,1.96267 1.10933,4.30934 0,2.56 -1.408,4.94933 -1.28,2.26133 -5.20533,5.504 -3.79733,3.15733 -5.16267,5.46133 -1.19466,2.09067 -1.49333,5.376 H 193.12 v 2.38934 z" /><path
         id="path4610"
         style=""
         d="m 206.51733,455.00799 q -2.688,0 -4.608,-1.10933 -1.792,-1.024 -2.816,-2.816 -0.81067,-1.408 -1.06667,-3.02934 l 2.56,-0.55466 q 0.21334,1.32266 0.85334,2.34666 0.72533,1.28 1.96266,2.00534 1.32267,0.768 3.11467,0.768 1.792,0 3.072,-0.768 1.23733,-0.68267 2.00533,-2.00534 0.896,-1.57866 0.896,-3.54133 0,-1.87733 -0.896,-3.456 -0.896,-1.536 -2.38933,-2.38933 -1.83467,-1.06667 -5.46133,-1.06667 v -2.38933 q 3.41333,0 5.12,-0.98134 1.36533,-0.81066 2.13333,-2.13333 0.81067,-1.36533 0.81067,-3.02933 0,-1.70667 -0.81067,-3.072 -0.64,-1.152 -1.70667,-1.74934 -1.152,-0.68266 -2.73066,-0.68266 -1.57867,0 -2.688,0.64 -1.10934,0.64 -1.74934,1.792 -0.64,1.10933 -0.81066,2.51733 l -2.60267,-0.384 q 0.17067,-1.83467 1.06667,-3.37067 0.93866,-1.62133 2.56,-2.56 1.74933,-1.024 4.26666,-1.024 2.432,0 4.18134,1.024 1.62133,0.93867 2.56,2.56 1.10933,1.96267 1.10933,4.26667 0,2.13333 -1.024,3.88267 -0.98133,1.74933 -2.77333,2.77333 -0.72534,0.42667 -1.70667,0.72533 1.19467,0.29867 2.048,0.81067 1.92,1.10933 3.02933,3.02933 1.10934,1.96267 1.10934,4.30934 0,2.56 -1.23734,4.736 -1.024,1.792 -2.816,2.816 -1.92,1.10933 -4.56533,1.10933 z" /><path
         id="path4612"
         style=""
         d="m 230.368,454.66666 v -10.15467 h -10.79467 v -2.38933 l 10.19734,-18.816 h 3.24266 v 18.816 h 2.77334 v 2.38933 h -2.77334 v 10.15467 z m -8.14934,-12.544 h 8.14934 v -14.976 z" /><path
         id="path4614"
         style=""
         d="m 249.09867,455.00799 q -0.256,0 -0.512,0 -2.00534,-0.128 -3.54134,-0.98133 -1.74933,-1.024 -2.85866,-2.944 -0.81067,-1.36534 -1.152,-3.02934 l 2.47466,-0.896 q 0.256,1.49334 0.98134,2.688 0.768,1.408 2.00533,2.13334 1.152,0.64 2.60267,0.64 1.408,0 2.51733,-0.64 1.19467,-0.68267 2.00533,-2.09067 1.19467,-2.048 1.19467,-5.29067 0,-3.24266 -1.19467,-5.33333 -0.81066,-1.36533 -1.96266,-2.00533 -1.06667,-0.59734 -2.432,-0.59734 -1.36534,0 -2.432,0.59734 -1.19467,0.68266 -2.00534,2.048 -0.512,0.896 -0.768,1.92 l -2.38933,-1.06667 v -16.85333 h 14.67733 v 2.38933 H 244.32 v 10.24 q 0.46933,-0.384 1.024,-0.72533 1.70667,-0.93867 3.88267,-0.93867 2.26133,0 3.88266,0.93867 1.74934,0.98133 2.85867,2.90133 1.49333,2.60267 1.49333,6.48533 0,3.88267 -1.49333,6.48534 -1.10933,1.92 -2.85867,2.944 -1.74933,0.98133 -4.01066,0.98133 z" /><path
         id="path4616"
         style=""
         d="m 270.51733,455.00799 q -2.34667,0 -4.096,-0.98133 -1.70667,-1.024 -2.816,-2.85867 -1.36533,-2.432 -1.36533,-5.888 0,-8.87467 3.11466,-14.29333 2.304,-4.01067 6.22934,-6.272 1.49333,-0.85334 3.15733,-1.408 l 0.81067,2.26133 q -1.28,0.46933 -2.38934,1.10933 -3.41333,1.96267 -5.46133,5.46134 -1.408,2.47466 -2.13333,5.80266 0.85333,-1.06666 1.92,-1.664 1.28,-0.768 3.11466,-0.768 2.26134,0 3.968,1.024 1.74934,0.98134 2.85867,2.816 1.36533,2.432 1.36533,5.93067 0,3.456 -1.36533,5.888 -1.10933,1.83467 -2.85867,2.85867 -1.70666,0.98133 -4.05333,0.98133 z m 0,-2.38933 q 1.49333,0 2.60267,-0.64 1.19466,-0.68267 1.92,-2.00534 1.10933,-1.83466 1.10933,-4.69333 0,-2.90133 -1.10933,-4.736 -0.72534,-1.32267 -1.92,-2.00533 -1.10934,-0.64 -2.56,-0.64 -1.49334,0 -2.64534,0.64 -1.19466,0.72533 -1.92,2.00533 -1.10933,1.87733 -1.10933,4.736 0,2.85867 1.10933,4.69333 0.72534,1.32267 1.92,2.00534 1.10934,0.64 2.60267,0.64 z" /><path
         id="path4618"
         style=""
         d="m 286.94401,454.66666 10.02666,-28.97067 h -13.056 v -2.38933 h 15.872 v 2.38933 l -10.02666,28.97067 z" /><path
         id="path4620"
         style=""
         d="m 313.184,455.00799 q -2.77333,0 -4.69333,-1.10933 -1.664,-0.98134 -2.56,-2.56 -1.024,-1.74934 -1.024,-3.92534 0,-2.176 1.19466,-4.224 1.23734,-2.13333 4.864,-4.56533 -3.072,-2.176 -4.224,-4.13867 -1.152,-2.048 -1.19466,-4.26666 0.0427,-2.176 1.024,-3.84 0.85333,-1.49334 2.38933,-2.38934 1.74933,-1.024 4.224,-1.024 2.47467,0 4.224,1.024 1.536,0.896 2.38933,2.38934 0.98134,1.664 1.024,3.84 -0.0427,2.21866 -1.19466,4.26666 -1.152,1.96267 -4.224,4.13867 3.62666,2.432 4.864,4.56533 1.19466,2.048 1.19466,4.224 0,2.176 -1.024,3.92534 -0.896,1.57866 -2.56,2.56 -1.92,1.10933 -4.69333,1.10933 z m 0,-2.38933 q 1.87733,0 3.2,-0.768 1.10933,-0.64 1.74933,-1.70667 0.68267,-1.19467 0.68267,-2.688 0,-1.62133 -0.896,-3.15733 -1.152,-2.00534 -4.736,-4.224 -3.584,2.21866 -4.736,4.224 -0.896,1.536 -0.896,3.15733 0,1.49333 0.68267,2.688 0.64,1.06667 1.74933,1.70667 1.32267,0.768 3.2,0.768 z m 0,-15.44534 q 3.02933,-2.00533 4.05333,-3.79733 0.93867,-1.536 0.896,-3.15733 0.0427,-1.45067 -0.64,-2.60267 -0.59733,-1.024 -1.62133,-1.62133 -1.10933,-0.64 -2.688,-0.64 -1.57867,0 -2.688,0.64 -1.024,0.59733 -1.62133,1.62133 -0.68267,1.152 -0.64,2.60267 -0.0427,1.62133 0.896,3.15733 1.024,1.792 4.05333,3.79733 z" /><path
         id="path4622"
         style=""
         d="m 334.34666,455.00799 q -2.21866,0 -3.84,-0.93867 -1.792,-1.06666 -2.944,-3.072 -0.768,-1.32266 -1.19466,-2.944 l 2.38933,-1.06666 q 0.34133,1.57866 1.06667,2.816 0.81066,1.49333 2.09066,2.21866 1.024,0.59734 2.432,0.59734 1.32267,0 2.38934,-0.59734 1.19466,-0.72533 2.048,-2.13333 1.36533,-2.38933 1.36533,-6.18667 v -4.352 q -0.0427,0.128 -0.128,0.21334 -0.98133,1.70666 -2.432,2.56 -1.32267,0.768 -3.15733,0.768 -2.26134,0 -4.01067,-0.98134 -1.74933,-1.024 -2.816,-2.90133 -1.36533,-2.38933 -1.36533,-5.84533 v -0.46934 q 0,-3.49866 1.36533,-5.888 1.06667,-1.83466 2.816,-2.816 1.74933,-1.024 4.096,-1.024 2.304,0 4.01067,1.024 1.74933,0.98134 2.85866,2.85867 1.408,2.432 1.408,6.05867 v 10.79466 q 0,4.39467 -1.664,7.296 -1.152,2.00534 -2.944,3.072 -0.81066,0.46934 -1.792,0.68267 -0.98133,0.256 -2.048,0.256 z m 0.128,-14.50667 q 1.49334,0 2.64534,-0.68266 1.19466,-0.68267 1.96266,-2.00534 1.06667,-1.83466 1.06667,-4.65066 v -0.256 q 0,-2.944 -1.10933,-4.90667 -0.81067,-1.32267 -1.96267,-2.00533 -1.10933,-0.64 -2.56,-0.64 -1.49333,0 -2.60267,0.64 -1.152,0.68266 -1.96266,2.00533 -1.06667,1.87733 -1.06667,4.69333 v 0.46934 q 0,2.816 1.06667,4.69333 0.81066,1.32267 1.96266,2.00533 1.10934,0.64 2.56,0.64 z" /></g></g><g
     id="g4845"><g
       transform="translate(-11.19999)"
       id="g4769"><g
         aria-label="Monoid"
         style="font-style:normal;font-variant:normal;font-weight:300;font-stretch:normal;font-size:56px;line-height:1.25;font-family:'Iosevka Term';-inkscape-font-specification:'Iosevka Term, Light';font-variant-ligatures:normal;font-variant-caps:normal;font-variant-numeric:normal;font-feature-settings:normal;text-align:start;letter-spacing:0px;word-spacing:0px;writing-mode:lr-tb;text-anchor:start;fill:#87a9c6;fill-opacity:1;stroke:none"
         id="text4091"><path
           inkscape:connector-curvature="0"
           d="m 193.16266,276.66666 v -41.16 h 4.648 l 5.768,22.456 5.768,-22.456 h 4.648 v 41.16 h -3.472 v -8.232 q 0,-0.448 0,-0.952 0,-1.568 0,-3.192 v -0.56 q 0,-2.016 0.056,-4.2 0,-2.128 0.056,-4.368 v -0.56 q 0.056,-6.888 0.112,-12.04 l -5.544,21.728 h -3.248 l -5.544,-21.784 q 0,1.12 0,2.688 v 0.56 q 0.056,0.84 0.056,1.4 v 0.504 0.28 0.84 q 0,0.28 0,0.56 0.168,12.432 0.168,17.976 v 0.336 q 0,0.392 0,0.784 v 8.232 z"
           id="path4723" /><path
           inkscape:connector-curvature="0"
           d="m 231.57866,277.11466 q -3.08,0 -5.376,-1.288 -2.296,-1.344 -3.696,-3.752 -1.792,-3.136 -1.792,-7.728 v -5.04 q 0,-4.592 1.792,-7.728 1.4,-2.408 3.696,-3.696 2.296,-1.344 5.376,-1.344 3.08,0 5.376,1.344 2.296,1.288 3.696,3.696 1.792,3.136 1.792,7.728 v 5.04 q 0,4.592 -1.792,7.728 -1.4,2.408 -3.696,3.752 -2.296,1.288 -5.376,1.288 z m 0,-3.136 q 1.96,0 3.416,-0.84 1.512,-0.896 2.576,-2.632 1.4,-2.464 1.4,-6.16 v -5.04 q 0,-3.696 -1.4,-6.16 -1.064,-1.736 -2.576,-2.632 -1.456,-0.84 -3.416,-0.84 -1.96,0 -3.416,0.84 -1.512,0.896 -2.576,2.632 -1.4,2.464 -1.4,6.16 v 5.04 q 0,3.696 1.4,6.16 1.064,1.736 2.576,2.632 1.456,0.84 3.416,0.84 z"
           id="path4725" /><path
           inkscape:connector-curvature="0"
           d="m 249.16266,276.66666 v -29.68 h 3.472 v 4.536 q 0.112,-0.224 0.28,-0.504 1.344,-2.24 3.304,-3.416 1.848,-1.064 4.312,-1.064 2.408,0 4.256,1.064 2.016,1.176 3.304,3.416 1.904,3.248 1.904,8.288 v 17.36 h -3.472 v -17.36 q 0,-3.864 -1.456,-6.328 -0.952,-1.68 -2.408,-2.52 -1.344,-0.784 -3.08,-0.784 -1.736,0 -3.08,0.784 -1.456,0.84 -2.408,2.52 -1.456,2.464 -1.456,6.328 v 17.36 z"
           id="path4727" /><path
           inkscape:connector-curvature="0"
           d="m 287.57866,277.11466 q -3.08,0 -5.376,-1.288 -2.296,-1.344 -3.696,-3.752 -1.792,-3.136 -1.792,-7.728 v -5.04 q 0,-4.592 1.792,-7.728 1.4,-2.408 3.696,-3.696 2.296,-1.344 5.376,-1.344 3.08,0 5.376,1.344 2.296,1.288 3.696,3.696 1.792,3.136 1.792,7.728 v 5.04 q 0,4.592 -1.792,7.728 -1.4,2.408 -3.696,3.752 -2.296,1.288 -5.376,1.288 z m 0,-3.136 q 1.96,0 3.416,-0.84 1.512,-0.896 2.576,-2.632 1.4,-2.464 1.4,-6.16 v -5.04 q 0,-3.696 -1.4,-6.16 -1.064,-1.736 -2.576,-2.632 -1.456,-0.84 -3.416,-0.84 -1.96,0 -3.416,0.84 -1.512,0.896 -2.576,2.632 -1.4,2.464 -1.4,6.16 v 5.04 q 0,3.696 1.4,6.16 1.064,1.736 2.576,2.632 1.456,0.84 3.416,0.84 z"
           id="path4729" /><path
           inkscape:connector-curvature="0"
           d="m 315.57866,241.10666 q -1.288,0 -2.016,-0.784 -0.784,-0.728 -0.784,-2.016 0,-1.288 0.784,-2.016 0.728,-0.784 2.016,-0.784 1.288,0 2.016,0.784 0.784,0.728 0.784,2.016 0,1.288 -0.784,2.016 -0.728,0.784 -2.016,0.784 z m -9.8,35.56 v -3.136 h 8.456 v -23.408 h -7.672 v -3.136 h 11.144 v 26.544 h 7.672 v 3.136 z"
           id="path4731" /><path
           inkscape:connector-curvature="0"
           d="m 342.62666,277.11466 q -2.632,0 -4.592,-1.12 -2.128,-1.232 -3.472,-3.528 -1.848,-3.248 -1.848,-8.12 v -5.04 q 0,-4.872 1.848,-8.12 1.344,-2.296 3.472,-3.528 1.96,-1.12 4.592,-1.12 2.464,0 4.312,1.064 1.96,1.176 3.304,3.416 0.168,0.28 0.28,0.504 v -16.016 h 3.472 v 41.16 h -3.472 v -4.536 q -0.112,0.224 -0.28,0.504 -1.344,2.24 -3.304,3.416 -1.848,1.064 -4.312,1.064 z m 0.896,-3.136 q 1.792,0 3.136,-0.784 1.456,-0.84 2.408,-2.52 1.456,-2.464 1.456,-6.328 v -5.04 q 0,-3.864 -1.456,-6.328 -0.952,-1.68 -2.408,-2.52 -1.344,-0.784 -3.136,-0.784 -1.904,0 -3.36,0.84 -1.512,0.896 -2.576,2.632 -1.4,2.464 -1.4,6.16 v 5.04 q 0,3.696 1.4,6.16 1.064,1.736 2.576,2.632 1.456,0.84 3.36,0.84 z"
           id="path4733" /></g><g
         aria-label="a"
         style="font-style:normal;font-variant:normal;font-weight:300;font-stretch:normal;font-size:229.33332825px;line-height:1.25;font-family:'Iosevka Term';-inkscape-font-specification:'Iosevka Term, Light';font-variant-ligatures:normal;font-variant-caps:normal;font-variant-numeric:normal;font-feature-settings:normal;text-align:start;letter-spacing:0px;word-spacing:0px;writing-mode:lr-tb;text-anchor:start;fill:#ffffff;fill-opacity:1;stroke:none"
         id="text4129"><path
           inkscape:connector-curvature="0"
           d="m 302.62399,204.50134 q -11.696,0 -19.72267,-4.58667 -7.10933,-4.128 -11.46666,-11.46666 -4.58667,-8.02667 -4.58667,-19.03467 0,-10.09067 4.128,-17.65867 4.816,-7.79733 13.53067,-12.84266 12.15466,-7.10934 31.18933,-7.10934 h 24.08 v -11.92533 q 0,-8.71467 -3.66933,-14.90667 -3.21067,-5.503996 -8.944,-8.943996 -6.88,-3.898666 -16.512,-3.898666 -9.86134,0 -16.97067,4.127999 -5.504,3.210667 -8.71467,8.714663 -2.52266,4.35734 -2.98133,9.17334 l -13.76,-3.21067 q 0.688,-6.42133 4.128,-12.613333 5.04533,-8.255999 13.072,-13.071999 10.32,-5.962667 25.22667,-5.962667 14.448,0 24.768,5.962667 8.48533,4.816 13.30133,13.071999 5.27467,9.173333 5.27467,21.557333 v 82.78933 h -14.21867 v -18.34666 q -5.27467,9.17333 -14.448,14.448 -7.33867,4.35733 -16.512,5.27466 -2.98133,0.45867 -6.192,0.45867 z m 3.66933,-12.84267 q 10.32,0 18.11734,-4.35733 6.65066,-4.128 10.77866,-11.008 4.58667,-7.79733 4.58667,-19.03467 v -12.61333 h -24.08 q -13.98933,0 -22.93333,5.04533 -5.96267,3.44 -8.944,8.71467 -2.752,4.58667 -2.752,10.77867 0,6.88 2.98133,11.46666 2.52267,4.816 7.568,7.568 5.73333,3.44 14.67733,3.44 z"
           id="path4720" /></g></g><g
       transform="translate(11.199991)"
       id="g4758"><g
         aria-label="Iosevka"
         style="font-style:normal;font-variant:normal;font-weight:300;font-stretch:normal;font-size:53.33333206px;line-height:1.25;font-family:'Iosevka Term';-inkscape-font-specification:'Iosevka Term, Light';font-variant-ligatures:normal;font-variant-caps:normal;font-variant-numeric:normal;font-feature-settings:normal;text-align:start;letter-spacing:0px;word-spacing:0px;writing-mode:lr-tb;text-anchor:start;fill:#000000;fill-opacity:1;stroke:none"
         id="text4133"><path
           inkscape:connector-curvature="0"
           d="m 42.005346,65.333328 v -2.986666 h 5.813333 V 29.119996 h -5.813333 v -2.986667 h 14.933333 v 2.986667 h -5.813333 v 33.226666 h 5.813333 v 2.986666 z"
           id="path4705" /><path
           inkscape:connector-curvature="0"
           d="m 76.138679,65.759995 q -2.933334,0 -5.12,-1.226667 -2.186667,-1.28 -3.52,-3.573333 -1.706667,-2.986667 -1.706667,-7.36 v -4.8 q 0,-4.373333 1.706667,-7.36 1.333333,-2.293333 3.52,-3.519999 2.186666,-1.28 5.12,-1.28 2.933333,0 5.119999,1.28 2.186667,1.226666 3.52,3.519999 1.706667,2.986667 1.706667,7.36 v 4.8 q 0,4.373333 -1.706667,7.36 -1.333333,2.293333 -3.52,3.573333 -2.186666,1.226667 -5.119999,1.226667 z m 0,-2.986667 q 1.866666,0 3.253333,-0.8 1.44,-0.853333 2.453333,-2.506666 1.333333,-2.346667 1.333333,-5.866667 v -4.8 q 0,-3.52 -1.333333,-5.866666 -1.013333,-1.653334 -2.453333,-2.506667 -1.386667,-0.8 -3.253333,-0.8 -1.866667,0 -3.253334,0.8 -1.44,0.853333 -2.453333,2.506667 -1.333333,2.346666 -1.333333,5.866666 v 4.8 q 0,3.52 1.333333,5.866667 1.013333,1.653333 2.453333,2.506666 1.386667,0.8 3.253334,0.8 z"
           id="path4707" /><path
           inkscape:connector-curvature="0"
           d="m 102.69868,65.759995 q -1.22667,0 -2.29334,-0.16 -2.186662,-0.32 -3.786662,-1.226667 -1.973333,-1.12 -3.146667,-3.146666 -0.48,-0.853334 -0.746666,-1.76 l 3.146666,-0.96 q 0.213334,0.64 0.533334,1.173333 0.746666,1.333333 2.08,2.133333 1.706665,0.96 4.213335,0.96 2.77333,0 4.53333,-1.013333 1.12,-0.693333 1.70667,-1.653333 0.53333,-0.906667 0.53333,-2.08 0,-1.173334 -0.58667,-2.186667 -0.64,-1.12 -1.86666,-1.813333 -1.33334,-0.8 -4.48,-1.173333 -3.840002,-0.533334 -5.706669,-1.6 -1.92,-1.12 -2.986666,-2.88 -1.013334,-1.813334 -1.013334,-4 0,-2.08 0.906667,-3.573334 0.906667,-1.599999 2.72,-2.666666 2.56,-1.493333 6.453332,-1.493333 3.68,0 6.08,1.386666 1.97333,1.12 3.14667,3.146667 0.48,0.853333 0.74666,1.76 l -3.14666,0.96 q -0.37334,-1.333334 -1.44,-2.4 -0.53334,-0.533334 -1.17334,-0.906667 -1.70666,-0.96 -4.21333,-0.96 -2.77333,0 -4.533332,1.013334 -1.12,0.693333 -1.706667,1.653333 -0.533333,0.906666 -0.533333,2.08 0,1.173333 0.586667,2.186666 0.64,1.12 1.866666,1.813334 1.333334,0.8 4.479999,1.173333 3.84,0.533333 5.70667,1.6 1.92,1.12 2.93333,2.933333 1.06667,1.76 1.06667,3.946667 0,2.08 -0.90667,3.573333 -0.90667,1.6 -2.72,2.666667 -2.56,1.493333 -6.45333,1.493333 z"
           id="path4709" /><path
           inkscape:connector-curvature="0"
           d="m 129.84535,65.759995 q -3.14667,0 -5.44,-1.333333 -2.24,-1.28 -3.57334,-3.626667 -1.70666,-2.933333 -1.70666,-7.2 v -4.8 q 0,-4.373333 1.70666,-7.36 1.33334,-2.293333 3.52,-3.519999 2.18667,-1.28 5.12,-1.28 2.93334,0 5.12,1.28 2.18667,1.226666 3.52,3.519999 1.70667,2.986667 1.70667,7.36 v 3.893334 h -17.38667 v 0.906666 q 0,3.413333 1.33334,5.706667 0.96,1.706666 2.50666,2.613333 1.54667,0.853333 3.57334,0.853333 2.02666,0 3.57333,-0.906666 1.54667,-0.906667 2.56,-2.613334 0.58667,-1.013333 0.85333,-2.08 l 3.04,1.226667 q -0.42666,1.333333 -1.06666,2.4 -1.33334,2.346667 -3.62667,3.68 -2.24,1.28 -5.33333,1.28 z m -7.41334,-16.053333 h 14.08 v -0.906667 q 0,-3.52 -1.33333,-5.866666 -1.01333,-1.653334 -2.45333,-2.506667 -1.38667,-0.8 -3.25334,-0.8 -1.86666,0 -3.25333,0.8 -1.44,0.853333 -2.45333,2.506667 -1.33334,2.346666 -1.33334,5.866666 z"
           id="path4711" /><path
           inkscape:connector-curvature="0"
           d="m 154.48534,65.333328 q -8.26666,-17.759999 -8.26666,-25.439999 v -2.826667 h 3.30666 v 2.826667 q 0,6.826666 6.61334,21.919999 6.61333,-15.093333 6.61333,-21.919999 v -2.826667 h 3.30667 v 2.826667 q 0,7.68 -8.26667,25.439999 z"
           id="path4713" /><path
           inkscape:connector-curvature="0"
           d="M 172.88534,65.333328 V 26.133329 h 3.30667 v 24.586666 q 9.70666,-7.04 12.37333,-11.733333 0.64,-1.12 0.69333,-1.92 h 3.46667 q 0,0.96 -0.85333,2.453334 -2.08,3.573333 -7.30667,8.266666 2.4,3.68 4.26667,6.88 4.32,7.52 4.32,10.666666 h -3.30667 q 0,-2.666666 -3.52,-8.746666 -1.76,-3.04 -4.21333,-6.666667 -2.66667,2.186667 -5.92,4.586667 v 10.826666 z"
           id="path4715" /><path
           inkscape:connector-curvature="0"
           d="m 207.44535,65.759995 q -2.72,0 -4.58667,-1.066667 -1.65333,-0.96 -2.66667,-2.666666 -1.06666,-1.866667 -1.06666,-4.426667 0,-2.346667 0.96,-4.106666 1.12,-1.813334 3.14666,-2.986667 2.82667,-1.653333 7.25334,-1.653333 h 5.6 v -2.773334 q 0,-2.026666 -0.85334,-3.466666 -0.74666,-1.28 -2.08,-2.08 -1.6,-0.906667 -3.84,-0.906667 -2.29333,0 -3.94666,0.96 -1.28,0.746667 -2.02667,2.026667 -0.58667,1.013333 -0.69333,2.133333 l -3.2,-0.746667 q 0.16,-1.493333 0.96,-2.933333 1.17333,-1.92 3.04,-3.04 2.4,-1.386666 5.86666,-1.386666 3.36,0 5.76,1.386666 1.97334,1.12 3.09334,3.04 1.22666,2.133333 1.22666,5.013333 v 19.253333 h -3.30666 v -4.266666 q -1.22667,2.133333 -3.36,3.36 -1.70667,1.013333 -3.84,1.226666 -0.69334,0.106667 -1.44,0.106667 z m 0.85333,-2.986667 q 2.4,0 4.21333,-1.013333 1.54667,-0.96 2.50667,-2.56 1.06667,-1.813333 1.06667,-4.426667 v -2.933333 h -5.6 q -3.25334,0 -5.33334,1.173334 -1.38666,0.8 -2.08,2.026666 -0.64,1.066667 -0.64,2.506667 0,1.6 0.69334,2.666666 0.58666,1.12 1.76,1.76 1.33333,0.8 3.41333,0.8 z"
           id="path4717" /></g><g
         aria-label="Aa Ee Rr"
         style="font-style:normal;font-variant:normal;font-weight:300;font-stretch:normal;font-size:42.66666794px;line-height:1.25;font-family:'Iosevka Term';-inkscape-font-specification:'Iosevka Term, Light';font-variant-ligatures:normal;font-variant-caps:normal;font-variant-numeric:normal;font-feature-settings:normal;text-align:start;letter-spacing:0px;word-spacing:0px;writing-mode:lr-tb;text-anchor:start;fill:#000000;fill-opacity:1;stroke:none"
         id="text4137"><path
           inkscape:connector-curvature="0"
           d="m 42.005348,135 v -3.15733 q 0,-8.49067 6.613333,-28.20267 h 2.645334 q 6.613333,19.712 6.613333,28.20267 V 135 h -2.645333 v -3.15733 q 0,-2.38934 -0.554667,-5.76 h -9.472 q -0.554667,3.37066 -0.554667,5.76 V 135 Z m 12.288,-11.30667 q -1.322667,-6.69866 -4.352,-16.42666 -3.029333,9.728 -4.352,16.42666 z"
           id="path4692" /><path
           inkscape:connector-curvature="0"
           d="m 69.653349,135.34133 q -2.176,0 -3.669334,-0.85333 -1.322666,-0.768 -2.133333,-2.13333 -0.853334,-1.49334 -0.853334,-3.54134 0,-1.87733 0.768,-3.28533 0.896001,-1.45067 2.517334,-2.38933 2.261333,-1.32267 5.802667,-1.32267 h 4.48 v -2.21867 q 0,-1.62133 -0.682667,-2.77333 -0.597333,-1.024 -1.664,-1.664 -1.28,-0.72533 -3.072,-0.72533 -1.834667,0 -3.157333,0.768 -1.024,0.59733 -1.621334,1.62133 -0.469333,0.81067 -0.554666,1.70667 l -2.560001,-0.59734 q 0.128,-1.19466 0.768,-2.34666 0.938667,-1.536 2.432001,-2.432 1.92,-1.10934 4.693333,-1.10934 2.688,0 4.608,1.10934 1.578667,0.896 2.474667,2.432 0.981333,1.70666 0.981333,4.01066 V 135 h -2.645333 v -3.41333 q -0.981333,1.70666 -2.688,2.688 -1.365334,0.81066 -3.072,0.98133 -0.554667,0.0853 -1.152,0.0853 z m 0.682666,-2.38933 q 1.92,0 3.370667,-0.81067 1.237333,-0.768 2.005334,-2.048 0.853333,-1.45066 0.853333,-3.54133 v -2.34667 h -4.48 q -2.602667,0 -4.266667,0.93867 -1.109333,0.64 -1.664,1.62133 -0.512,0.85334 -0.512,2.00534 0,1.28 0.554667,2.13333 0.469333,0.896 1.408,1.408 1.066666,0.64 2.730666,0.64 z"
           id="path4694" /><path
           inkscape:connector-curvature="0"
           d="m 107.37068,135 v -31.36 h 14.50667 v 2.38933 h -11.86134 v 10.83734 h 9.472 v 2.38933 h -9.472 v 13.35467 h 11.86134 V 135 Z"
           id="path4696" /><path
           inkscape:connector-curvature="0"
           d="m 135.57335,135.34133 q -2.51733,0 -4.352,-1.06666 -1.792,-1.024 -2.85867,-2.90134 -1.36533,-2.34666 -1.36533,-5.76 v -3.84 q 0,-3.49866 1.36533,-5.888 1.06667,-1.83466 2.816,-2.816 1.74934,-1.024 4.096,-1.024 2.34667,0 4.096,1.024 1.74934,0.98134 2.816,2.816 1.36534,2.38934 1.36534,5.888 v 3.11467 h -13.90934 v 0.72533 q 0,2.73067 1.06667,4.56534 0.768,1.36533 2.00533,2.09066 1.23734,0.68267 2.85867,0.68267 1.62133,0 2.85867,-0.72533 1.23733,-0.72534 2.048,-2.09067 0.46933,-0.81067 0.68266,-1.664 l 2.432,0.98133 q -0.34133,1.06667 -0.85333,1.92 -1.06667,1.87734 -2.90133,2.944 -1.792,1.024 -4.26667,1.024 z m -5.93067,-12.84266 h 11.264 v -0.72534 q 0,-2.816 -1.06666,-4.69333 -0.81067,-1.32267 -1.96267,-2.00533 -1.10933,-0.64 -2.60267,-0.64 -1.49333,0 -2.60266,0.64 -1.152,0.68266 -1.96267,2.00533 -1.06667,1.87733 -1.06667,4.69333 z"
           id="path4698" /><path
           inkscape:connector-curvature="0"
           d="m 170.00535,135 v -31.36 h 7.85066 q 2.56,0 4.43734,1.06667 1.70666,0.98133 2.73066,2.77333 1.19467,2.09067 1.19467,5.07733 0,2.944 -1.19467,5.03467 -1.024,1.792 -2.73066,2.73067 -0.93867,0.55466 -2.048,0.81066 1.62133,2.26134 2.816,4.352 3.15733,5.41867 3.15733,9.51467 h -2.64533 q 0,-3.62667 -2.77334,-8.36267 -1.408,-2.432 -3.54133,-5.20533 h -4.608 V 135 Z m 2.64533,-15.95733 h 5.20533 q 1.664,0 2.90134,-0.72534 1.152,-0.64 1.92,-1.92 0.896,-1.57866 0.896,-3.84 0,-2.304 -0.896,-3.88266 -0.768,-1.28 -1.92,-1.92 -1.23734,-0.72534 -2.90134,-0.72534 h -5.20533 z"
           id="path4700" /><path
           inkscape:connector-curvature="0"
           d="m 193.89869,135 v -22.61333 h 2.64533 v 4.48 q 0.34134,-0.896 0.768,-1.70667 0.98134,-1.664 2.34667,-2.47467 1.152,-0.64 2.60267,-0.64 1.57867,0 2.90133,0.768 1.36534,0.768 2.13334,2.13334 0.34133,0.59733 0.55466,1.28 l -2.47466,1.10933 q -0.17067,-0.59733 -0.46934,-1.152 -0.55466,-0.896 -1.32266,-1.36533 -0.68267,-0.384 -1.49334,-0.384 -1.28,0 -2.26133,0.55466 -1.152,0.68267 -1.96267,2.048 -1.32267,2.26134 -1.32267,5.97334 V 135 Z"
           id="path4702" /></g><g
         aria-label="Aa Ee Rr"
         style="font-style:oblique;font-variant:normal;font-weight:300;font-stretch:normal;font-size:42.66666794px;line-height:1.25;font-family:'Iosevka Term';-inkscape-font-specification:'Iosevka Term, Light Oblique';font-variant-ligatures:normal;font-variant-caps:normal;font-variant-numeric:normal;font-feature-settings:normal;text-align:start;letter-spacing:0px;word-spacing:0px;writing-mode:lr-tb;text-anchor:start;fill:#000000;fill-opacity:1;stroke:none"
         id="text4141"><path
           inkscape:connector-curvature="0"
           d="m 42.005344,204.66666 0.554667,-3.15734 q 1.493333,-8.49066 11.562667,-28.20266 h 2.688 q 3.114667,19.712 1.621334,28.20266 l -0.554667,3.15734 h -2.688 l 0.554666,-3.15734 q 0.426667,-2.38933 0.512,-5.76 h -9.472 q -1.109333,3.37067 -1.536,5.76 l -0.554667,3.15734 z m 14.250667,-11.30667 q -0.128,-6.656 -1.365333,-16.34133 -2.261333,4.56533 -4.138667,8.78933 -1.877333,4.18133 -3.114666,7.552 z"
           id="path4679" /><path
           inkscape:connector-curvature="0"
           d="m 70.165345,205.00799 q -2.346667,0 -3.84,-0.93867 -1.28,-0.85333 -1.877333,-2.304 -0.64,-1.62133 -0.298667,-3.79733 0.341333,-1.74933 1.194667,-2.90133 1.024,-1.32267 2.730667,-2.21867 2.602666,-1.36533 6.314666,-1.36533 h 4.437334 l 0.341333,-1.83467 q 0.298667,-1.792 -0.213333,-3.072 -0.426667,-1.10933 -1.450667,-1.74933 -1.109333,-0.72534 -2.858667,-0.72534 -1.578666,0 -2.816,0.64 -1.237333,0.64 -2.090666,1.792 -0.597334,0.81067 -0.981334,1.74934 l -2.517333,-0.68267 q 0.469333,-1.28 1.322666,-2.38933 1.194667,-1.62134 2.944001,-2.51734 1.834666,-0.98133 4.138666,-0.98133 2.816,0 4.608001,1.152 1.536,0.98133 2.218666,2.688 0.768,1.87733 0.298667,4.52267 l -2.56,14.592 h -2.688 l 0.64,-3.54134 q -0.128,0.17067 -0.256,0.34134 -1.322667,1.74933 -3.072,2.64533 -1.664,0.896 -3.669334,0.896 z m 0.341334,-2.38933 q 1.792,0 3.285333,-0.768 1.493333,-0.81067 2.56,-2.21867 1.365333,-1.792 1.834667,-4.39467 l 0.256,-1.36533 h -4.053334 q -2.944,0 -4.906666,1.024 -1.237334,0.64 -1.920001,1.57867 -0.597333,0.768 -0.768,1.87733 -0.256,1.28 0.170667,2.26133 0.341333,0.896 1.152,1.408 0.896,0.59734 2.389334,0.59734 z"
           id="path4681" /><path
           inkscape:connector-curvature="0"
           d="m 107.37068,204.66666 5.504,-31.36 h 14.50667 l -0.42667,2.38933 h -11.81867 l -1.87733,10.83733 h 9.42933 l -0.42667,2.38934 h -9.42933 l -2.34667,13.35466 h 11.81867 l -0.42667,2.38934 z"
           id="path4683" /><path
           inkscape:connector-curvature="0"
           d="m 136.68268,205.00799 q -2.944,0 -4.864,-1.23733 -1.792,-1.152 -2.64533,-3.24267 -1.024,-2.51733 -0.384,-6.144 l 0.68266,-3.84 q 0.55467,-3.072 2.13334,-5.248 1.32266,-1.70667 3.11466,-2.64533 1.792,-0.93867 4.13867,-0.93867 2.38933,0 4.01067,1.06667 1.664,1.06666 2.47466,3.02933 1.06667,2.60267 0.384,6.528 l -0.42666,2.21867 h -13.86667 l -0.0427,0.256 q -0.46933,2.816 0.29867,4.736 0.59733,1.45066 1.83467,2.26133 1.23733,0.81067 3.15733,0.81067 1.70667,0 3.11467,-0.72534 1.45066,-0.768 2.51733,-2.21866 0.256,-0.29867 0.42667,-0.64 l 2.38933,1.06666 q -0.256,0.384 -0.55467,0.81067 -1.10933,1.49333 -2.51733,2.47467 -0.46933,0.34133 -0.98133,0.59733 -1.664,0.85333 -3.62667,0.98133 -0.384,0.0427 -0.768,0.0427 z m -4.82133,-12.84267 h 11.17866 l 0.0427,-0.256 q 0.55467,-3.11466 -0.256,-5.12 -0.512,-1.36533 -1.62133,-2.048 -0.93867,-0.64 -2.38934,-0.64 -1.536,0 -2.73066,0.64 -1.28,0.68267 -2.26134,1.96267 -1.28,1.70667 -1.74933,4.26667 z"
           id="path4685" /><path
           inkscape:connector-curvature="0"
           d="m 170.00534,204.66666 5.504,-31.36 h 7.38134 q 2.64533,0 4.352,1.10933 1.664,1.06667 2.38933,2.98667 0.98134,2.34666 0.384,5.632 -0.46933,2.688 -1.83467,4.48 -1.19466,1.62133 -2.944,2.51733 -1.19466,0.64 -2.60266,0.896 1.28,2.304 2.13333,4.43733 2.13333,5.29067 1.45067,9.30134 h -2.688 q 0.64,-3.712 -1.32267,-8.66134 -0.98133,-2.38933 -2.47467,-4.90666 h -4.65066 l -2.38934,13.568 z m 5.504,-15.95734 h 5.248 q 1.70667,0 3.072,-0.72533 1.28,-0.68267 2.13334,-1.83467 1.06666,-1.408 1.45066,-3.49866 0.42667,-2.51734 -0.256,-4.26667 -0.55466,-1.32267 -1.62133,-2.00533 -1.06667,-0.68267 -2.64533,-0.68267 h -5.12 z"
           id="path4687" /><path
           inkscape:connector-curvature="0"
           d="m 193.89869,204.66666 3.968,-22.61334 h 2.688 l -0.72534,4.096 q 0.384,-0.64 0.81067,-1.19466 1.28,-1.70667 2.85867,-2.51734 1.36533,-0.72533 2.98667,-0.72533 1.57866,0 2.77333,0.768 1.10933,0.72533 1.57867,1.96267 0.29866,0.68266 0.29866,1.45066 l -2.47466,1.10934 q 0,-0.46934 -0.21334,-0.93867 -0.34133,-0.85333 -1.152,-1.36533 -0.896,-0.59734 -2.09067,-0.59734 -1.152,0 -2.176,0.512 -1.152,0.59734 -2.09066,1.87734 -1.49334,2.00533 -2.09067,5.16266 l -2.26133,13.01334 z"
           id="path4689" /></g></g></g></svg>