<svg xmlns="http://www.w3.org/2000/svg" height="1024" preserveAspectRatio="none" style="display: block;" version="1.1" viewBox="0 0 2048 2048" width="1024">
<path d="M 0 0 L 2048 0 L 2048 2048 L 0 2048 L 0 0 z" fill="#000000" transform="translate(0,0)"></path>
<path d="M 1120.77 329.453 C 1149.03 328.552 1176.86 330.46 1204.95 333.168 C 1305.16 342.826 1395.47 371.715 1477.29 431.641 C 1481.5 434.723 1486.66 438.384 1487.44 443.563 C 1482.91 450.466 1477.14 447.521 1469.99 450.522 C 1458.92 455.171 1446.63 462.653 1437.42 470.284 C 1363.45 531.616 1332.26 601.407 1320.66 694.811 C 1335.21 706.961 1350.45 717.492 1364.01 730.991 C 1382.75 749.805 1403.96 775.809 1414.33 800.395 C 1427.21 830.971 1438.04 857.985 1459.99 883.507 C 1462.6 886.54 1464.51 891.125 1463.71 895.262 C 1459.73 898.951 1432.19 897.165 1424.26 897.457 C 1417.78 897.635 1411.31 898.242 1404.9 899.274 C 1407.16 909.942 1415.41 947.099 1412.38 954.384 C 1398.67 987.395 1402.74 986.266 1416.17 1021.22 C 1420.6 1033.02 1424.64 1044.96 1428.29 1057.03 C 1445.32 1113.41 1452.07 1161.77 1455.06 1220.45 C 1455.31 1225.31 1456.28 1235.62 1452.21 1238.63 C 1441.19 1246.77 1410.38 1242.33 1397.67 1240.87 C 1397.28 1241.5 1396.88 1242.14 1396.49 1242.78 C 1393.3 1249.3 1386.85 1251.89 1381.96 1257.23 C 1372.75 1267.3 1386.91 1271.64 1386.41 1281.69 C 1385.97 1288.43 1379.47 1293.84 1374.66 1297.78 C 1388.98 1317.72 1379.88 1320.94 1364.2 1331.94 C 1338 1352.51 1356.42 1371.62 1371.18 1389.35 C 1391.69 1413.99 1378.97 1452.26 1354.46 1467.84 C 1313.55 1493.85 1246.99 1492.63 1201.46 1484.67 C 1172.43 1514.21 1155.73 1559.19 1162.03 1600.43 C 1164.6 1617.24 1170.23 1632.56 1175.12 1648.74 C 1179.78 1664.03 1183.71 1679.53 1186.9 1695.19 C 1188.43 1702.47 1192.54 1714.13 1183.15 1717.05 C 1179.26 1715.39 1177.6 1711.57 1176.68 1707.58 C 1173.67 1694.46 1172.35 1681.19 1169.11 1668.07 C 1162.99 1643.32 1151.89 1619.48 1149.26 1593.99 C 1145.97 1553.72 1162.14 1512.84 1187.78 1482.39 C 1170.78 1478.27 1153.03 1473.88 1136.91 1466.98 C 1130.75 1464.34 1123.37 1460.24 1125.81 1452.42 C 1127.73 1451.34 1128.98 1450.79 1131.28 1451.77 C 1149.71 1459.66 1167.4 1466.88 1187.32 1470.85 C 1237.21 1480.79 1300.38 1486.38 1346.28 1460.05 C 1356.69 1454.08 1367.05 1440.15 1368.81 1428.57 C 1372.61 1403.55 1360.32 1394.57 1346.85 1376.88 C 1341.05 1369.26 1337.83 1356.21 1340.07 1346.74 C 1344.3 1328.87 1355.43 1322.4 1369.28 1313.36 C 1370.23 1295.36 1338.15 1310.14 1336.38 1295.99 C 1342.68 1288.98 1362.68 1292.85 1371.51 1285.97 C 1379.53 1279.71 1365.9 1269.49 1368.29 1258.63 C 1370.57 1248.32 1377.36 1244.49 1385.46 1238.86 C 1370.86 1236.39 1366.27 1237.87 1351.65 1240.65 C 1329.38 1231.8 1329.89 1201.16 1347.55 1197.03 C 1351.44 1197.86 1350.1 1196.83 1352.09 1199.64 C 1352.22 1207.96 1343.49 1216.02 1348.19 1224.14 C 1356.58 1230.97 1366.73 1223.59 1375.48 1224.92 C 1398.98 1228.49 1419.35 1231.54 1443.21 1230.96 C 1447.49 1172.34 1429.82 1098.14 1412.83 1042.14 C 1404.77 1015.61 1387.94 995.7 1395.09 966.965 C 1387.51 967.186 1378.88 968.043 1371.24 968.622 C 1330.87 971.41 1293.86 979.474 1259.44 1002.02 C 1255.66 1004.5 1250.49 1006.89 1245.93 1006.69 L 1244.81 1005.34 C 1249.21 985.97 1313 964.75 1329.97 960.967 C 1343.18 958.115 1356.55 956.132 1370.02 955.03 C 1377.4 954.452 1394.55 954.803 1399.98 951.203 C 1403.11 943.687 1395.32 909.013 1392.79 899.909 C 1323.95 908.448 1265.35 919.734 1198.91 940.94 C 1166.73 951.21 1129.58 965.869 1097.58 973.391 C 1091.42 996.08 1086.32 1022.24 1080.37 1045.62 C 1059.36 1126.53 1039.56 1207.76 1020.99 1289.27 C 1012.45 1328.38 1003.63 1367.44 994.543 1406.43 C 981.373 1463.12 968.542 1512.48 942.712 1565.1 C 919.7 1611.97 893.94 1655.89 841.349 1674.18 C 798.013 1689.26 740.729 1686.61 704.05 1656.63 C 690.475 1645.24 682.384 1632.83 666.13 1623.57 C 649.86 1614.29 637.128 1625.94 624.43 1619.84 C 620.833 1614.23 625.897 1610.66 630.058 1607.15 L 631.202 1606.2 C 634.552 1567.47 648.753 1574.86 663.769 1547.89 C 670.507 1535.8 644.312 1522.66 651.038 1500.89 C 661.397 1467.36 689.87 1473.9 705.629 1447.47 C 715.779 1429.4 693.27 1407.46 701.6 1387.38 C 701.171 1375.31 734.127 1357.46 732.731 1349.84 C 726.814 1317.55 709.401 1319.78 719.836 1279.07 C 719.123 1279.1 718.41 1279.13 717.697 1279.15 C 656.96 1280.81 626.651 1212.9 670.611 1166.93 C 659.161 1149.38 647.698 1136.99 635.622 1117.04 C 589.524 1040.62 563.222 953.913 559.099 864.766 C 555.373 763.009 576.921 668.673 628.009 580.195 C 727.844 407.296 931.23 336.141 1120.77 329.453 z" fill="#cdc4ba" transform="translate(0,0)"></path>
<path d="M 1066.97 616.444 C 1117.77 614.76 1176.84 634.768 1218.92 663.069 C 1099.59 682.139 1050.43 757.79 1057.14 874.567 C 1048.16 868.09 1041.21 863.778 1031.29 859.054 C 1023.27 866.012 1017.53 875.439 1011.63 884.257 C 1005.49 886.399 999.758 889.336 994.089 892.538 C 954.674 914.798 913.41 936.844 879.727 967.408 C 874.689 971.978 869.759 976.639 864.722 981.202 L 812.102 1028.71 C 796.123 1042.6 780.223 1056.58 764.405 1070.66 C 753.502 1080.49 740.343 1093.29 729.105 1102.26 C 723.084 1076.81 717.132 1032.81 715.942 1006.98 C 710.546 906.714 745.405 808.44 812.778 733.983 C 876.681 664.483 972.72 620.454 1066.97 616.444 z" fill="#000000" transform="translate(0,0)"></path>
<path d="M 1073.32 957.605 C 1077.65 962.291 1082.16 966.947 1086.03 972.011 C 1083 992.442 1074.01 1024.15 1068.92 1045 L 1032.04 1195.22 C 1024.23 1226.7 1016.77 1258.26 1009.66 1289.9 C 986.615 1395.16 965.331 1516.72 905.662 1608.69 C 870.528 1662.83 806.517 1683.27 744.62 1664.55 C 749.132 1662.37 753.145 1661.12 757.864 1659.51 C 789.227 1651.78 821.788 1628.47 820.786 1596.3 C 819.035 1540.08 838.249 1555.58 869.692 1524.9 C 883.463 1511.46 875.448 1485.28 871.538 1467.68 C 866.433 1444.71 908.909 1444.21 917.354 1426.89 C 938.005 1395.84 919.102 1373.94 915.311 1344.49 C 910.737 1308.97 938.376 1297.61 955.233 1277.58 C 977.329 1251.32 962.919 1226.39 958.339 1199.43 C 954.302 1168.99 984.413 1166.48 998.762 1148.8 C 1014.41 1129.52 1009.28 1110.17 1005.11 1088.83 C 1001.25 1069.07 1025.37 1057.71 1035.8 1045.51 C 1050.76 1028.02 1047.75 1002.1 1045.66 980.79 C 1056.92 974.905 1068.85 969.926 1073.32 957.605 z" fill="#000000" transform="translate(0,0)"></path>
<path d="M 1016.84 998.994 C 1019.78 1001.88 1020.81 1007.97 1020.97 1011.99 C 1022.14 1040.7 989.165 1042.31 982.473 1068.12 C 977.347 1087.9 987.175 1103.44 984.455 1122.77 C 982.63 1135 968.324 1142.93 958.38 1149.21 C 910.803 1179.26 952.755 1230.02 939.051 1256.18 C 926.538 1280.06 895.974 1287.59 890.355 1329.57 C 885.196 1352.84 905.834 1379.81 900.827 1401.46 C 894.509 1428.77 847.159 1422.33 845.659 1456.63 C 844.883 1474.38 855.975 1487.7 851.717 1505.02 C 848.969 1515.59 833.684 1521.3 825.345 1525.87 C 792.939 1543.63 799.29 1572.21 794.097 1602.36 C 789.804 1627.27 761.033 1632.04 741.307 1639.07 C 733.228 1641.95 724.943 1646.17 716.682 1650.66 C 710.865 1646.25 706.346 1642.06 700.95 1637.13 C 699.685 1635.76 696.616 1632.78 697.219 1631.12 C 704.389 1614.99 730.753 1599.6 743.862 1588.65 C 775.309 1562.39 764.283 1544.27 761.913 1510.06 C 761.76 1493.91 779.955 1485.04 789.635 1477.51 C 817.706 1455.69 793.517 1429.2 794.207 1408.51 C 794.975 1385.47 828.182 1388.43 839.968 1359.63 C 855.975 1320.51 828.382 1310.46 834.531 1275.22 C 838.149 1260.57 874.229 1243.11 869.812 1219.02 C 869.965 1194.06 852.211 1173.11 851.497 1152.05 C 851.091 1140.1 895.88 1120.59 907.654 1111.1 C 935.336 1088.81 931.489 1070.6 935.497 1039.92 C 950.32 1027.33 996.244 1008.42 1016.84 998.994 z" fill="#000000" transform="translate(0,0)"></path>
<path d="M 1231.93 677.407 C 1246.79 675.457 1280.07 678.194 1292.36 687.294 C 1332.27 716.826 1366.16 743.612 1392.28 786.74 C 1326.86 788.11 1253.08 802.419 1189.75 819.568 C 1168.92 825.486 1151.07 830.881 1130.96 839.084 C 1110.97 847.236 1091.34 856.504 1071.05 863.653 C 1070.68 861.445 1070.39 859.224 1070.19 856.995 C 1066.97 818.92 1082.18 769.127 1107.27 740.225 C 1142.2 699.984 1179.98 682.514 1231.93 677.407 z" fill="#000000" transform="translate(0,0)"></path>
<path d="M 825.136 1158.84 L 826.49 1159.64 C 831.907 1175.94 839.668 1195.61 844.099 1211.56 C 849.696 1231.71 826.706 1241.83 817.02 1255.42 C 798.888 1280.86 813.346 1303.61 819.546 1329.41 C 825.908 1363.34 793.615 1361.47 781.013 1379.9 C 764.857 1403.53 770.074 1417.09 776.39 1441.72 C 778.065 1467.08 753.729 1463.03 741.526 1490.7 C 731.772 1512.82 745.509 1552.33 736.521 1561.87 C 716.324 1583.29 698.107 1586.84 679.436 1612.92 C 673.38 1610.2 670.204 1609.17 663.841 1607.25 C 660.746 1606.79 659.082 1606.62 656.062 1605.6 L 655.391 1603.67 C 657.645 1592.04 666.118 1584.93 673.929 1576.84 C 711.467 1537.96 673.298 1522.38 675.539 1504.49 C 677.151 1491.61 706.593 1483.79 715.851 1474.48 C 721.295 1469.01 725.099 1462.29 728.219 1455.29 C 740.802 1427.08 722.893 1416.79 723.747 1398.31 C 724.246 1387.51 741.625 1379.08 748.557 1371.97 C 774.545 1345.34 740.811 1320.9 740.606 1301.36 C 740.43 1284.65 764.037 1262.2 770.715 1244.99 C 776.278 1230.65 777 1217.13 776.789 1201.96 C 798.313 1180.54 797.962 1175.93 825.136 1158.84 z" fill="#000000" transform="translate(0,0)"></path>
<path d="M 1060.74 581.433 C 1067.96 581.015 1075.2 580.924 1082.43 581.161 C 1147.07 582.973 1209.75 603.76 1262.66 640.931 C 1273.59 648.613 1284.76 656.543 1293.89 666.298 C 1300.34 654.181 1308.25 642.895 1317.44 632.691 C 1315.43 648.95 1312.17 667.242 1309.31 683.433 C 1280.19 665.529 1268.07 667.22 1235.14 661.46 C 1130.1 573.025 980.174 598.216 872.583 667.174 C 811.933 706.83 764.159 763.307 735.109 829.694 C 727.513 847.087 722.488 863.615 716.761 881.671 C 719.063 848.866 732.689 807.597 747.174 777.809 C 802.893 663.221 936.429 588.671 1060.74 581.433 z" fill="#000000" transform="translate(0,0)"></path>
<path d="M 1152.91 343.35 C 1192.18 343.394 1243.01 351.42 1281.49 358.67 C 1278.35 382.879 1278.89 404.999 1292.21 426.092 C 1305.35 446.903 1306.72 452.912 1278.8 460.582 C 1263.23 464.859 1250.97 467.557 1239.44 480.651 L 1238.55 481.685 C 1235.01 487.258 1233.98 489.986 1231.97 496.17 C 1206.08 490.742 1183.9 489.961 1160.09 485.311 C 1174.46 462.299 1195.38 470.988 1207.62 438.649 C 1220.79 403.832 1148.07 360.56 1152.91 343.35 z" fill="#000000" transform="translate(0,0)"></path>
<path d="M 1095.32 343.411 C 1104.57 342.184 1126.85 342.904 1136.67 343.041 C 1150.86 386.471 1177.49 388.152 1194.18 424.106 C 1203.65 444.5 1168.96 456.741 1158.56 466.892 C 1152.26 473.042 1150.98 476.003 1146.89 484.183 C 1129.49 483.68 1114.16 482.956 1096.75 484.155 C 1087.65 484.881 1078.27 486.1 1069.17 487.154 C 1070.49 481.323 1071.18 477.492 1074.02 472.027 C 1083.04 454.728 1112.83 444.563 1114.88 423.123 C 1117.36 397.234 1079.56 382.458 1062.82 369.569 C 1053.11 362.092 1049.97 358.859 1042.41 349.468 C 1060.46 346.119 1077.06 344.877 1095.32 343.411 z" fill="#000000" transform="translate(0,0)"></path>
<path d="M 1297.17 361.56 C 1322.76 368.313 1347.85 376.873 1372.23 387.175 C 1350.78 447.116 1390.72 455.358 1384.97 483.164 C 1381.14 501.704 1352.89 500.493 1338.66 504.21 C 1330.85 506.251 1324.3 509.367 1317.45 513.588 L 1314.46 515.932 C 1309.66 516.831 1255.87 500.817 1246.48 498.293 L 1246.8 497.516 L 1247.35 496.231 C 1258.88 468.866 1286.56 478.781 1304.35 466.056 C 1334.66 444.379 1300.93 415.659 1296.09 391.481 C 1293.72 379.626 1294.69 372.554 1297.17 361.56 z" fill="#000000" transform="translate(0,0)"></path>
<path d="M 1027.64 351.42 L 1028.61 351.256 C 1032.27 353.79 1038.75 368.46 1045.5 375.104 C 1067.41 396.67 1132.68 410.089 1080.77 444.46 C 1063.67 455.79 1058.17 469.302 1055.49 488.701 C 1030 491.595 1017.75 494.482 993.269 500.82 C 990.84 461.461 1021.95 455.318 1015.76 422.119 C 1011.46 399.054 961.158 384.395 939.595 371.082 C 966.386 362.887 999.818 354.818 1027.64 351.42 z" fill="#000000" transform="translate(0,0)"></path>
<path d="M 827.896 412.763 C 850.723 427.635 874.556 428.586 899.745 439.914 C 945.495 460.489 894.242 486.605 910.294 527.792 L 910.821 529.112 C 892.582 538.452 879.54 546.374 862.164 557.431 C 858.788 550.171 858.357 548.83 856.7 541.236 C 857.093 524.818 865.645 505.697 854.388 489.577 C 840.048 469.043 804.98 473.013 782.456 471.189 C 768.56 470.064 760.093 469.609 745.899 466.871 C 766.122 448.276 803.625 427.266 827.896 412.763 z" fill="#000000" transform="translate(0,0)"></path>
<path d="M 923.962 376.147 C 926.711 376.321 933.909 384.017 939.009 387.052 C 957.112 397.83 974.285 400.043 991.912 413.273 C 1016.87 432.008 994.449 446.744 985.543 466.409 C 979.44 479.886 978.049 489.704 980.248 504.22 C 961.133 509.448 941.741 518.017 924.192 522.629 C 921.756 521.242 922.375 521.14 921.028 517.896 C 920.821 511.851 920.925 506.596 922.349 500.842 C 926.079 485.77 939.304 465.064 931.176 449.676 C 916.544 421.973 870.744 416.241 845.98 407.02 L 844.666 406.523 C 864.013 395.648 902.435 382.029 923.962 376.147 z" fill="#000000" transform="translate(0,0)"></path>
<path d="M 733.85 477.085 C 739.487 479.128 750.377 483.366 755.84 484.175 C 777.295 487.354 802.425 484.293 823.681 488.031 C 862.905 494.929 837.999 525.509 843.612 550.2 C 845.127 556.864 847.442 559.857 851.158 565.348 C 834.445 577.625 823.049 588.94 807.445 601.816 C 803.666 597.86 803.229 597.028 800.733 592.124 C 797.076 574.741 808.776 555.24 799.886 541.351 C 774.592 501.828 722.657 539.893 682.835 527.229 C 698.121 506.007 713.723 493.052 733.85 477.085 z" fill="#000000" transform="translate(0,0)"></path>
<path d="M 754.015 537.379 C 804.418 532.275 783.165 562.567 786.678 593.563 C 787.326 599.274 794.834 608.916 798.399 613.93 C 788.731 624.472 779.685 634.385 771.137 645.881 C 768.508 649.418 764.577 654.25 760.092 654.706 C 746.684 645.693 770.967 604.299 730.857 585.096 L 729.517 584.464 C 703.746 578.304 662.676 598.364 632.46 602.569 C 643.278 579.903 657.834 560.103 672.198 539.603 C 702.245 550.604 722.529 541.279 754.015 537.379 z" fill="#000000" transform="translate(0,0)"></path>
<path d="M 710.274 1163.38 C 738.71 1161.65 763.164 1183.3 764.887 1211.74 C 766.609 1240.18 744.947 1264.62 716.51 1266.34 C 688.087 1268.05 663.655 1246.4 661.934 1217.98 C 660.212 1189.55 681.852 1165.12 710.274 1163.38 z" fill="#000000" transform="translate(0,0)"></path>
<path d="M 708.265 1189.5 C 721.656 1187.2 734.417 1196.07 736.923 1209.42 C 739.429 1222.78 730.751 1235.67 717.435 1238.38 C 708.642 1240.17 699.567 1237.08 693.689 1230.3 C 687.812 1223.52 686.044 1214.09 689.064 1205.64 C 692.083 1197.19 699.421 1191.02 708.265 1189.5 z" fill="#cdc4ba" transform="translate(0,0)"></path>
<path d="M 709.675 597.189 C 748.107 593.08 739.443 622.178 742.805 647.515 C 744.096 657.237 746.641 662.871 751.887 671.058 C 746.125 683.318 736.025 699.997 727.878 710.349 C 710.366 689.19 717.331 658.826 687.266 644.164 C 661.652 634.945 629.022 659.047 602.856 668.544 C 608.707 649.197 615.825 634.881 624.457 616.68 C 649.404 617.527 682.351 603.063 709.675 597.189 z" fill="#000000" transform="translate(0,0)"></path>
<path d="M 671.806 654.314 C 689.738 654.421 695.343 668.677 700.379 683.654 C 705.751 699.632 710.919 711.413 720.181 725.416 C 714.647 736.775 707.605 752.237 701.47 762.893 C 685.107 741.859 692.396 722.35 661.102 707.553 C 625.764 699.222 610.884 726.477 583.703 731.916 C 586.476 720.355 591.472 697.278 596.804 687.408 C 602.482 684.216 615.477 679.098 622.266 675.976 C 637.308 669.06 655.94 656.921 671.806 654.314 z" fill="#000000" transform="translate(0,0)"></path>
<path d="M 642.503 719.171 C 645.16 718.788 647.846 718.645 650.528 718.742 C 671.527 719.535 676.481 748.021 683.828 762.395 C 686.831 768.271 690.516 771.989 694.946 776.731 C 691.998 788.898 687.796 800.03 683.539 811.759 C 669.226 797.624 661.391 780.282 641.801 773.369 C 612.177 766.366 597.171 784.925 574.629 798.356 C 574.685 786.743 578.057 760.453 581.104 748.856 C 602.875 744.885 621.062 728.417 642.503 719.171 z" fill="#000000" transform="translate(0,0)"></path>
<path d="M 625.891 785.155 C 647.694 784.15 663.757 811.22 678.782 826.319 C 676.108 840.149 673.169 853.926 669.965 867.643 C 654.736 851.19 646.36 837.926 621.644 839.877 C 601.323 844.954 589.942 858.242 574.476 871.975 C 572.699 854.385 571.812 836.716 571.818 819.037 C 586.2 807.411 608.581 789.3 625.891 785.155 z" fill="#000000" transform="translate(0,0)"></path>
<path d="M 622.523 854.135 C 643.098 853.079 654.218 868.863 668.057 882.2 C 665.985 896.712 665.327 914.142 664.82 928.779 C 645.018 913.589 631.029 901.745 608.596 919.684 C 598.357 929.644 591.968 939.992 585.24 952.437 C 579.264 932.152 576.004 908.184 574.805 887.261 C 594.442 876.897 601.785 860.669 622.523 854.135 z" fill="#000000" transform="translate(0,0)"></path>
<path d="M 1265.64 836.257 L 1268.87 835.998 C 1271.44 837.344 1310.36 874.705 1316.41 880.003 C 1291.94 884.777 1266.85 890.915 1242.5 896.542 C 1228.06 900.14 1214.15 903.525 1199.93 907.926 C 1209.07 886.179 1219.54 865.011 1231.27 844.542 C 1241.48 840.916 1254.88 838.397 1265.64 836.257 z" fill="#000000" transform="translate(0,0)"></path>
<path d="M 1142.97 872.022 C 1147.55 874.957 1181.09 907.077 1185.68 912.243 C 1161.54 919.277 1139.32 927.389 1115.75 935.981 C 1108.42 938.537 1099.83 942.464 1092.58 945.554 C 1089.79 940.69 1088.28 938.909 1084.78 934.635 C 1085.43 918.396 1085.2 913.47 1082.43 897.418 C 1102.64 889.699 1122.09 879.853 1142.97 872.022 z" fill="#000000" transform="translate(0,0)"></path>
<path d="M 1031.84 880.533 C 1047.63 883.392 1068.4 896.164 1068.98 913.895 C 1069.68 935.03 1057.59 956.177 1038.87 965.825 C 1029.19 967.259 1020.07 966.031 1012.04 960.066 C 1005.93 955.53 1001.89 948.726 1000.85 941.185 C 997.879 920.781 1019.47 897.979 1031.84 880.533 z" fill="#000000" transform="translate(0,0)"></path>
<path d="M 1027.12 907.079 C 1048.17 905.394 1058.21 926.443 1039.62 938.74 C 1018.55 941.144 1010.04 919.689 1027.12 907.079 z" fill="#cdc4ba" transform="translate(0,0)"></path>
<path d="M 1032.18 918.285 C 1034.48 917.508 1036.98 918.669 1037.88 920.924 C 1038.77 923.179 1037.74 925.739 1035.53 926.746 C 1034 927.444 1032.21 927.242 1030.87 926.219 C 1029.53 925.196 1028.87 923.519 1029.14 921.858 C 1029.42 920.198 1030.59 918.823 1032.18 918.285 z" fill="#000000" transform="translate(0,0)"></path>
<path d="M 624.795 924.079 C 642.069 922.475 652.228 935.132 663.854 946.108 L 666.186 991.306 C 647.898 978.847 634.142 972.954 618.22 991.603 C 612.346 999.716 608.182 1009.06 603.879 1018.09 C 597.494 1003.79 593.017 986.608 589.27 971.384 C 601.463 955.56 609.937 932.023 624.795 924.079 z" fill="#000000" transform="translate(0,0)"></path>
<path d="M 1385.23 393.49 C 1412.5 405.056 1440.48 422.634 1465.11 438.845 C 1451.81 444.331 1443 450.16 1431.65 458.765 C 1419 469.033 1410.14 476.821 1398.89 488.727 C 1401.58 452.537 1383.34 449.349 1380.64 417.429 C 1380.12 411.24 1383.45 399.789 1385.23 393.49 z" fill="#000000" transform="translate(0,0)"></path>
<path d="M 1367.85 820.3 C 1380.59 819.209 1396.09 819.62 1408.84 819.908 C 1418.35 838.949 1421.57 849.328 1433.47 869.056 C 1420.48 868.632 1407.47 868.901 1394.51 869.86 C 1374.66 870.393 1353.89 873.677 1333.95 875.321 C 1338.46 864.477 1360.46 829.674 1367.85 820.3 z" fill="#000000" transform="translate(0,0)"></path>
<path d="M 797.617 1071.62 C 803.462 1073.15 845.884 1100.87 855.814 1106.37 C 845.692 1111.82 826.62 1125.85 816.342 1132.9 C 805.668 1140.57 794.651 1147.07 784.294 1155.31 C 780.639 1139.3 780.593 1102.57 776.829 1092.54 C 783.82 1085.63 790.749 1078.65 797.617 1071.62 z" fill="#000000" transform="translate(0,0)"></path>
<path d="M 986.799 935.016 C 991.805 940.485 981.863 954.805 1010.72 975.421 C 992.097 984.356 976.758 992.693 958.762 1002.78 C 953.128 1001.3 948.228 999.462 942.76 997.485 C 931.96 993.572 920.749 989.054 909.997 984.89 C 936.255 966.081 958.784 950.69 986.799 935.016 z" fill="#000000" transform="translate(0,0)"></path>
<path d="M 1371.74 799.44 C 1380.24 799.172 1400.93 796.253 1403.17 805.988 C 1401.88 808.064 1394.3 807.092 1391.35 807.075 C 1377.9 807.027 1364.46 807.753 1351.1 809.251 C 1263.47 818.691 1177.87 841.862 1097.44 877.914 C 1090.71 881.171 1083.46 885.985 1076.46 884.9 C 1073.32 882.113 1074.21 882.121 1072.98 877.101 C 1081.32 872.655 1097.27 866.375 1106.36 862.512 C 1190.9 827.506 1280.48 806.214 1371.74 799.44 z" fill="#000000" transform="translate(0,0)"></path>
<path d="M 991.389 908.861 L 992.689 909.522 C 991.289 913.349 990.316 916.345 989.212 920.267 C 977.403 925.194 968.028 931.929 957.182 938.227 C 923.587 957.329 895.185 981.774 866.541 1007.32 C 843.452 1027.91 847.343 1056.64 846.859 1085.5 C 839.363 1080.97 831.127 1076.48 823.471 1072.13 C 817.104 1068.12 811.128 1064.01 804.927 1059.75 C 819.973 1043.57 831.48 1033.28 846.896 1018.28 C 862.19 1003.39 874.002 988.729 891.292 974.063 C 920.44 949.338 957.773 927.021 991.389 908.861 z" fill="#000000" transform="translate(0,0)"></path>
<path d="M 638.862 992.222 C 647.47 993.232 658.646 1000.8 667.761 1005.04 C 668.227 1017.37 669.074 1026.79 671.548 1038.83 L 670.597 1038.77 L 669.011 1038.68 C 664.519 1038.4 661.257 1037.74 657.1 1039.52 C 645.332 1044.56 640.307 1062.16 635.908 1073.77 L 632.973 1082.73 C 626.367 1067.98 617.551 1051.31 610.25 1036.68 C 617.496 1024.01 625.146 995.794 638.862 992.222 z" fill="#000000" transform="translate(0,0)"></path>
<path d="M 897.522 996.781 C 900.47 1007.11 898.821 1036.19 897.893 1048.04 C 896.798 1062.01 894.78 1078.98 882.802 1087.87 C 874.888 1093.74 870.074 1094.7 860.746 1093.69 C 856.89 1088.76 860.407 1053.89 860.213 1045.79 C 859.702 1024.47 881.522 1010.35 897.522 996.781 z" fill="#000000" transform="translate(0,0)"></path>
<path d="M 918.697 1002.24 C 930.345 1005.82 938.823 1009.3 949.682 1014.83 C 943.772 1017.93 934.933 1022.22 930.249 1026.96 C 911.187 1045.45 929.359 1078.81 906.195 1097.24 C 869.34 1126.56 824.332 1139.31 789.534 1172.73 C 784.212 1178.31 780.367 1183.12 773.444 1186.57 L 774.362 1186 C 775.665 1175.76 828.295 1138.93 838.734 1130.83 C 845.343 1125.71 862.153 1115.35 867.017 1108.69 C 917.119 1092.61 916.566 1047.05 918.697 1002.24 z" fill="#000000" transform="translate(0,0)"></path>
<path d="M 1388.23 882.584 C 1397.26 881.693 1437.02 880.647 1442.56 883.983 C 1436.04 885.243 1419.05 885.524 1411.23 886.072 C 1389.92 887.388 1368.68 889.632 1347.57 892.798 C 1275.96 903.82 1205.5 925.782 1137.02 948.93 C 1129.1 951.58 1099.89 964.229 1094.75 958.242 L 1095.35 956.631 C 1131.81 941.235 1170.66 930.099 1208.73 919.449 C 1266.38 903.326 1328.43 886.463 1388.23 882.584 z" fill="#000000" transform="translate(0,0)"></path>
<path d="M 763.561 1105.63 C 770.64 1111.05 764.449 1148.06 775.273 1166.23 L 765.035 1176.53 C 758.788 1170.07 754.994 1165.95 747.814 1160.64 C 738.484 1154.39 730.391 1152.98 719.598 1151.45 C 729.495 1140.19 740.462 1129.72 750.994 1119.08 C 755.617 1114.41 758.647 1110.25 763.561 1105.63 z" fill="#000000" transform="translate(0,0)"></path>
<path d="M 661.643 1050.82 C 665.285 1051.46 669.14 1052.55 672.75 1053.47 C 674.171 1065.96 675.939 1074.59 678.522 1086.85 C 672.973 1094.43 667.283 1102.38 664.612 1111.51 C 662.922 1117.28 663.205 1124.3 660.444 1129.17 L 658.587 1129.38 C 652.854 1121.48 644.939 1106.78 640.005 1097.99 C 641.565 1094.23 644.399 1088.86 646.26 1084.68 C 651.093 1073.82 654.03 1059.66 661.643 1050.82 z" fill="#000000" transform="translate(0,0)"></path>
<path d="M 1344.05 822.359 C 1346.79 821.838 1346.7 821.706 1349.39 822.272 L 1349.73 823.527 C 1346.53 831.003 1328.18 858.942 1322.33 868.887 L 1308.28 855.183 C 1300.08 848.107 1292.29 840.582 1284.93 832.641 C 1304.58 828.927 1324.29 825.499 1344.05 822.359 z" fill="#000000" transform="translate(0,0)"></path>
<path d="M 1214.09 848.278 L 1214.71 849.394 C 1205.41 864.55 1197.57 881.399 1189.76 897.45 C 1185.11 892.962 1179.36 888.132 1174.44 883.809 C 1168.38 878.624 1162.29 873.063 1156.32 867.752 C 1176.98 859.779 1192.8 854.226 1214.09 848.278 z" fill="#000000" transform="translate(0,0)"></path>
<path d="M 681.469 1104.82 C 684.644 1108.37 698.843 1145.96 700.944 1152.15 C 696.812 1152.98 692.961 1154.37 688.951 1155.67 L 680.871 1158.99 C 667.649 1138.77 670.856 1125.63 681.469 1104.82 z" fill="#000000" transform="translate(0,0)"></path>
<path d="M 1380.65 508.182 L 1381.53 508.932 C 1374.6 518.134 1368.47 526.39 1362.05 535.973 C 1355.02 531.758 1348.63 529.407 1340.95 526.75 C 1336.56 525.55 1334.41 525.216 1330.54 522.956 L 1330.61 521.397 C 1340.37 515.306 1365.47 513.484 1380.65 508.182 z" fill="#000000" transform="translate(0,0)"></path>
<path d="M 771.897 1080.21 C 770.572 1084.23 734.1 1118.71 728.57 1124.05 C 727.741 1119.22 765.699 1084.51 771.897 1080.21 z" fill="#7a756e" transform="translate(0,0)"></path>
<path d="M 1360.53 991.297 C 1364.73 990.92 1368.61 989.732 1370.81 993.745 C 1368.21 999.28 1354.82 1002.18 1347.16 1014.55 C 1332.36 1038.44 1333.13 1056.78 1337.92 1082.86 C 1312.4 1067.37 1299.63 1061.77 1269.78 1055.82 C 1262.04 1054.65 1230.6 1053.94 1227.31 1050.15 C 1227.28 1048.77 1227.04 1046.71 1228.25 1045.7 C 1248.85 1028.56 1299.3 1008.3 1322.85 1000.62 C 1335.15 996.558 1347.75 993.441 1360.53 991.297 z" fill="#cdc4ba" transform="translate(0,0)"></path>
<metadata><recraft-signature>{"signed_by": "recraft", "signature_b64": "EWC8amfQHCctfDimDRQZll7EIgOzJom5+3QCmXnC+NKZPSgY/gF11gt5jSg+6y/RJXpQ+qCsrCSPSfYTtvCNDA==", "signing_algo": "Ed25519", "generation_timestamp": 1784270407, "identifier": "172cacfc-73cc-4bf8-b421-a565d440a340"}</recraft-signature></metadata></svg>