<svg xmlns="http://www.w3.org/2000/svg" height="1365" preserveAspectRatio="none" style="display: block;" version="1.1" viewBox="0 0 1536 2048" width="1024">
<path d="M 0 0 L 1536 0 L 1536 326.3 L 1536 345.864 L 1536 2048 L 0 2048 L 0 0 z" fill="#000000" transform="translate(0,0)"></path>
<path d="M 617.989 337.217 C 590.685 323.42 585.941 305.544 562.242 291.577 C 552.896 286.069 530.24 282.025 518.346 277.864 C 499.755 271.36 485.747 262.384 468.241 253.68 C 457.283 247.902 443.999 245.009 433.851 238.043 C 427.686 233.811 428.993 225.476 433.376 220.486 C 440.683 217.288 452.939 225.628 461.415 229.285 C 483.212 238.687 503.062 251.318 525.433 259.636 C 536.332 265.315 569.282 265.549 577.626 272.623 C 600.275 291.824 608.137 313.966 640.871 323.858 C 652.665 327.422 667.068 335.499 680.561 339.182 L 682.036 339.574 C 707.869 331.384 754.103 337.851 781.337 340.964 C 787.492 341.668 798.499 338.37 804.078 338.621 C 820.718 339.37 837.516 341.281 854.242 341.816 C 860.953 342.031 873.401 345.929 880.384 346.355 C 903.808 347.783 927.033 349.647 950.402 351.733 C 968.849 353.38 985.6 357.551 1003.39 359.604 C 1025.52 348.796 1023.13 341.7 1050.39 347.427 C 1049.29 342.163 1048.99 335.859 1048.58 330.418 C 1038.28 336.514 1022.05 347.2 1010.03 345.856 C 1003.8 345.158 996.035 342.911 991.961 337.815 C 990.178 327.156 1012.4 324.076 1020.39 322.099 C 1007.97 319.513 987.875 311.525 988.656 295.916 C 996.566 280.577 1032.52 305.451 1042.59 310.563 L 1040.61 296.804 C 1030.44 295.813 1023.61 293.767 1015.93 286.884 C 1009.47 281.094 1000.66 269.396 1008.07 261.463 C 1019.32 255.731 1032.2 269.612 1038.76 277.125 C 1034.13 267.796 1024.68 247.741 1031.63 238.007 C 1044.8 232.909 1056.3 267.972 1052.74 278.115 C 1050.89 283.393 1047.36 294.632 1048.98 299.119 C 1049.5 299.241 1050.02 299.364 1050.54 299.487 C 1055.88 291.851 1059.92 283.887 1068.49 279.338 C 1073.42 276.721 1078.49 275.843 1083.59 277.255 C 1090.41 283.336 1081.04 294.399 1076.51 299.772 C 1073.72 301.839 1071.33 303.324 1068.44 305.161 C 1063.05 308.597 1049.37 307.736 1052.87 316.915 C 1058.11 317.822 1071.88 305.825 1077.22 302.27 C 1082.5 298.335 1090.65 290.679 1097.5 294.732 C 1102.78 304.867 1087.43 319.589 1078.87 323.745 C 1071.5 327.317 1064.9 328.027 1056.97 329.358 C 1058.31 334.826 1059.91 342.265 1061.6 347.476 C 1068.77 339.265 1094.69 318.952 1105.6 324.774 C 1111.69 337.03 1088.93 353.843 1079.46 358.477 C 1077.07 359.643 1066.94 360.23 1063.74 360.484 C 1062.67 362.942 1063.38 364.89 1063.86 367.608 C 1070.19 372.115 1129.6 391.33 1137.74 391.278 C 1160.94 391.129 1187.7 391.828 1211.46 392.881 C 1226.91 393.569 1238.92 388.849 1253.33 396.311 C 1292.14 389.734 1329.23 383.823 1368.56 381.654 C 1369.85 381.583 1393.73 373.137 1398.28 371.944 C 1410.87 368.6 1423.52 365.502 1436.22 362.652 C 1458.02 357.932 1464.21 357.07 1484.56 347.104 C 1496.86 341.078 1523.09 329.521 1536 326.3 L 1536 345.864 C 1511.38 363.537 1494.98 364.699 1467.48 371.633 C 1462.81 372.812 1452.65 380.393 1447.35 382.49 C 1424.1 391.68 1393.35 397.091 1368.6 395.04 C 1340.67 414.059 1284.26 410.8 1252.11 408.859 C 1230.13 426.137 1163.59 415.472 1137.13 411.938 C 1108.96 445.796 1093.54 444.956 1060.28 464.88 C 1063.13 475.364 1068.69 506.916 1052.67 510.604 C 1036.62 514.301 1046.04 478.083 1039.13 470.602 C 1035.69 470.554 1037.34 470.207 1034.1 472.075 C 1031.82 477.855 1049.39 515.533 1030.07 524.181 C 1028.53 524.871 1026.88 525.089 1025.21 525.261 C 1018.47 520.471 1019.16 488.217 1018.99 479.407 C 1014.43 480.851 1007.66 482.507 1004.31 485.59 C 1003.52 487.276 1002.35 489.733 1003.46 491.433 C 1012.62 505.476 1019.2 518.761 1012.93 535.781 C 1010.92 541.256 1006.78 548.493 1001.02 551.543 C 997.316 551.533 998.945 552.102 996.025 549.61 C 994.268 545.715 994.904 542.354 995.134 537.996 L 993.978 538.135 C 993.739 538.964 993.485 539.789 993.219 540.609 C 989.844 551.122 978.495 556.588 973.992 544.255 C 971.368 537.071 974.738 520.098 979.216 513.66 C 984.104 506.632 993.432 500.434 997.74 492.189 L 996.517 489.396 C 992.514 488.786 990.9 489.908 987.132 491.493 C 976.182 518.616 963.264 528.747 934.309 521.358 C 948.398 497.258 954.892 494.617 981.007 487.665 L 973.662 480.186 C 969.554 483.926 965.629 487.586 960.188 488.893 C 952.836 490.66 943.025 495.302 936.364 490.445 C 934.801 484.629 939.246 479.032 942.422 473.411 C 934.443 476.312 927.38 479.467 918.784 478.903 C 912.334 474.486 925.79 461.569 929.457 457.11 C 921.637 462.418 903.952 469.118 896.055 461.636 C 887.874 440.636 932.083 436.774 933.936 428.926 L 932.696 427.572 C 927.767 427.262 922.039 434.204 912.33 434.66 C 897.18 435.371 887.943 432.61 876.499 423.259 L 877.571 422.669 C 896.788 412.261 907.376 410.675 927.892 416.953 C 917.583 411.244 885.944 391.021 896.663 376.735 C 899.964 375.421 902.034 375.421 905.498 376.785 C 925.236 384.553 932.304 401.497 940.209 419.105 C 949.477 422.87 952.729 423.661 962.723 424.986 C 952.363 416.054 929.622 397.057 931.532 381.602 C 941.781 364.556 968.453 401.921 968.525 412.271 C 968.558 417.034 965.615 420.745 967.203 425.683 C 970.474 427.461 978.047 427.171 981.806 426.989 L 983.162 425.106 C 985.667 411.785 963.178 401.573 967.761 391.233 C 973.674 388.114 977.949 392.564 983.132 393.442 C 987.271 394.143 989.181 387.537 996.583 389.75 C 999.982 392.518 1000.89 395.607 1002.71 399.662 C 1001.96 410.144 1001.38 415.026 997.648 424.792 C 1003.28 426.097 1009.64 426.598 1015.41 428.029 C 1030.01 431.646 1042.8 438.266 1055.33 446.267 C 1075.67 432.145 1095.02 426.148 1112.56 408.735 C 1104.61 405.37 1095.91 403.181 1087.81 400.106 C 1072.89 394.436 1059.32 388.863 1043.42 386.369 C 1008.42 380.879 973.686 373.378 938.238 371.143 C 929.133 370.569 920.565 369.471 911.699 367.341 C 906.202 366.081 899.268 364.61 893.777 364.171 C 880.817 363.135 867.495 365.045 854.517 363.785 C 830.444 362.985 809.137 359.056 785.446 356.177 C 767.675 354.017 736.313 361.132 716.982 358.998 C 712.181 358.468 708.87 359.272 703.953 357.509 C 688.794 352.073 674.907 355.477 659.445 357.006 C 645.655 358.243 631.837 359.147 618.004 359.716 C 557.396 362.008 486.773 362.407 426.869 368.387 C 436.31 378.598 443.017 377.273 448.741 393.749 C 453.66 407.909 449.204 418.711 433.933 409.644 C 418.77 400.641 419.41 386.057 415.742 371.005 C 407.06 378.507 405.537 381.629 399.797 391.465 C 402.683 394.26 406.24 396.698 409.286 399.354 C 416.214 405.394 432.49 428.891 424.618 437.019 C 408.921 439.726 396.844 415.725 392.18 403.949 C 387.743 408.467 384.012 413.066 379.986 417.919 C 396.095 432.731 399.336 433.899 402.291 458.138 C 402.669 461.235 402.448 464.05 400.386 466.401 C 395.664 467.307 387.593 462.977 383.161 460.914 C 376.325 450.764 376.01 436.117 374.74 423.913 C 371.572 428.394 367.343 433.286 363.799 437.59 C 367.231 440.394 372.051 444.147 374.224 447.978 C 379.143 456.649 393.76 486.369 381.909 493.272 C 374.014 492.809 367.419 482.719 363.979 476.43 C 365.569 486.14 369.212 507.389 356.768 511.582 C 347.151 508.958 342.018 479.811 343.51 471.138 C 343.904 468.847 343.89 468.064 343.481 465.731 L 342.114 465.418 C 332.567 472.177 338.373 489.916 335.221 500.403 C 332.956 507.941 325.734 515.615 318.674 519.132 C 316.117 520.405 313.104 521.349 310.335 520.202 C 308.482 519.435 307.021 517.721 306.286 515.849 C 304.566 511.467 305.164 506.132 305.888 501.583 C 310.264 474.057 326.964 479.437 331.482 469.739 C 328.136 468.267 313.733 476.106 307.688 478.226 C 301.401 477.132 296.654 477.644 293.471 471.805 C 294.458 461.917 314.43 454.276 322.842 450.91 C 315.433 448.71 304.655 446.939 302.382 438.794 C 304.466 431.632 319.227 428.701 325.772 427.642 C 335.981 425.989 345.149 429.121 354.659 432.333 L 366.989 420.436 C 358.261 423.993 353.639 425.324 344.607 427.709 C 335.181 423.054 320.15 419.704 316.118 408.869 C 317.207 396.839 343.591 400.266 352.539 401.262 C 346.22 398.573 335.779 397.546 334.23 390.238 C 336.426 385.18 345.799 381.976 351.104 379.619 C 350.845 379.588 300.182 389.373 295.552 390.182 C 298.445 402.575 297.29 411.525 292.702 423.46 C 289.818 430.962 285.22 445.212 274.719 440.762 C 264.435 430.301 275.965 403.098 282.229 392.662 C 274.261 393.093 266.365 394.387 258.677 396.522 C 267.364 410.033 266.49 421.855 261.809 436.988 C 260.394 441.562 259.188 444.617 254.947 447.201 C 250.974 447.687 252.403 448.033 248.987 446.446 C 245.958 442.719 245.264 438.951 244.458 434.385 C 241.784 419.231 243.027 408.279 255.025 397.872 C 248.073 399.714 236.389 399.992 233.096 402.958 C 232.415 406.254 233.842 406.925 236.149 410.538 C 236.61 422.382 234.836 442.712 223.282 451.302 C 221.781 452.418 219.249 451.601 217.631 451.055 C 212.813 442.937 212.777 423.402 217.07 414.58 C 219.107 410.395 224.109 409.284 225.481 402.929 C 221.676 403.767 218.49 403.991 214.637 404.361 C 212.379 407.148 210.08 410.428 207.932 413.345 C 208.042 427.466 196.467 449.428 181.829 455.375 C 179.706 456.238 176.395 454.345 174.607 452.903 C 168.076 442.018 183.897 422.709 192.236 416.281 L 196.881 412.661 C 183.718 417.624 168.955 424.363 155.818 414.159 C 152.982 411.956 151.45 410.616 150.967 407.011 C 155.532 394.081 193.578 398.122 205.97 398.334 C 191.661 392.659 172.148 383.294 166.879 367.441 L 167.814 365.589 C 178.613 360.324 212.814 373.448 213.408 388.51 C 213.456 389.723 210.643 391.076 211.339 394.549 C 214.531 394.947 226.092 391.936 230.326 391.128 C 222.577 381.01 193.769 364.25 198.312 353.71 C 210.916 344.988 229.764 356.515 239.306 365.324 C 242.912 375.626 239.3 382.211 244.682 388.322 C 248.724 389.419 249.177 389.742 253.182 389.102 C 260.513 382.717 248.893 372.268 257.906 353.702 L 258.476 352.541 C 235.853 344.457 213.177 336.521 190.45 328.734 C 185.324 336.767 160.216 376.447 147.802 362.371 C 145.713 352.491 155.392 342.124 162.264 336.069 C 169.123 330.027 176.324 328.331 184.878 326.054 C 179.825 324.068 172.653 320.751 167.425 320.722 C 166.46 320.23 160.632 322.229 160.421 322.857 C 155.039 338.824 144.864 359.056 125.042 359.792 C 121.396 358.323 122.635 359.554 121.074 356.103 C 121.108 353.521 121.462 351.559 122.548 349.239 C 131.97 329.094 142.795 325.013 161.062 317.44 C 158.609 316.824 149.706 314.115 147.767 314.467 C 140.451 315.799 135.302 329.431 129.145 335.146 C 124.457 340.019 118.653 344.386 112.16 346.662 C 106.429 348.672 97.6039 352.455 95.1235 344.607 C 97.958 324.841 125.902 315.643 142.483 312.866 C 136.196 310.412 131.557 309.128 125.009 307.35 C 117.822 315.078 94.1864 339.076 82.6645 331.104 C 76.4658 317.459 99.5048 304.302 109.421 299.54 C 108.09 298.851 106.784 298.115 105.505 297.334 C 83.0552 283.878 75.2457 248.388 106.592 271.443 C 109.764 273.776 112.367 277.779 116.051 280.395 C 114.529 273.773 112.45 268.557 116.792 262.79 C 118.851 262.189 120.159 261.621 122.281 262.731 C 139.688 271.831 134.596 285.152 139.731 299.486 C 140.963 302.923 147.639 304.124 151.207 305.079 C 150.422 303.627 149.699 302.143 149.038 300.63 C 144.812 290.926 134.853 262.744 149.352 257.589 C 167.817 258.282 166.264 297.29 165.283 309.707 L 183.485 316.19 C 177.749 306.307 163.606 269.115 179.176 263.129 C 185.547 265.101 191.33 282.405 195.841 289.79 L 196.486 290.834 C 211.261 293.619 215.624 296.28 228.959 302.847 C 226.948 301.067 224.969 299.25 223.022 297.399 C 208.746 283.747 195.211 262.302 212.077 245.213 C 228.36 259.743 234.993 272.498 231.007 294.961 C 236.685 300.814 245.98 316.773 249.802 319.073 C 253.903 316.274 254.668 301.423 255.96 295.605 C 257.99 286.463 267.739 267.37 279.381 270.417 C 293.745 285.938 261.636 312.895 256.675 324.613 L 256.162 325.85 C 257.862 329.649 259.922 332.452 262.239 335.867 C 268.201 326.697 269.977 316.143 278.194 307.34 C 284.368 300.724 299.436 286.559 307.448 298.614 C 309.92 315.813 267.843 334.056 266.179 342.036 C 269.934 346.824 281.769 348.661 288.341 350.594 C 304.425 343.232 309.294 344.778 325.815 349.358 C 321.904 345.347 317.02 341.141 312.804 337.34 C 310.955 331.793 309.785 329.203 311.868 323.493 C 322.217 313.867 364.889 322.208 362.589 342.582 C 361.445 352.714 357.74 349.463 352.194 356.029 C 355.428 358.778 385.653 358.839 391.783 358.887 C 379.92 352.436 362 337.885 366.151 322.434 C 370.277 317.337 374.425 317.551 380.149 320.741 C 394.138 328.537 398.102 342.134 402.429 356.486 L 417.332 354.374 C 407.376 345.243 393.44 323.446 398.66 308.518 C 404.307 292.369 420.858 310.744 423.538 321.482 C 427.011 335.395 428.148 340.719 421.881 354.705 C 465.292 345.291 512.244 347.489 556.201 343.913 C 579.434 342.023 593.228 334.67 617.989 337.217 z" fill="#cdc4ba" transform="translate(0,0)"></path>
<path d="M 993.978 538.135 C 995.479 530.245 996.891 507.301 997.592 505.189 L 998.441 504.882 C 999.227 512.743 998.03 530.911 995.134 537.996 L 993.978 538.135 z" fill="#cdc4ba" transform="translate(0,0)"></path>
<path d="M 271.453 355.212 C 283.314 359.281 295.432 362.63 306.784 368.451 C 314.162 372.233 329.106 366.915 334.089 370.491 C 332.121 372.456 328.788 372.495 325.551 373.151 C 307.587 378.038 289.808 378.306 270.946 383.65 C 273.746 372.564 273.434 366.255 271.453 355.212 z" fill="#000000" transform="translate(0,0)"></path>
<path d="M 398.954 369.62 C 401.056 370.712 400.363 369.902 401.158 372.073 C 398.821 378.116 396.162 385.555 392.315 390.628 C 384.851 390.565 383.302 384.015 376.404 379.93 L 364.698 375.871 C 372.697 374.449 392.274 372.861 398.954 369.62 z" fill="#000000" transform="translate(0,0)"></path>
<path d="M 1007.26 445.187 C 1014.01 446.24 1036.09 453.599 1037.09 460.925 L 1034.41 463.19 C 1030.29 464.911 1023.31 467.012 1018.88 468.492 C 1015.15 454.434 1012.42 455.978 1007.26 445.187 z" fill="#000000" transform="translate(0,0)"></path>
<path d="M 197.384 297.758 C 208.748 317.601 204.48 315.154 225.185 328.327 L 224.581 328.658 C 213.942 326.602 203.095 322.605 192.749 319.145 L 193.288 317.831 C 196.147 311.016 196.481 305.058 197.384 297.758 z" fill="#000000" transform="translate(0,0)"></path>
<path d="M 972.744 451.715 C 980.249 457.484 986.124 463.49 995.435 466.73 C 999.617 468.186 1009.27 468.773 1010.66 472.659 L 1008.87 474.002 C 1005.5 475.437 1001.41 476.821 997.918 478.103 C 990.981 472.574 986.371 468.9 978.774 464.186 C 976.49 459.869 974.746 456.174 972.744 451.715 z" fill="#000000" transform="translate(0,0)"></path>
<path d="M 942.611 428.369 C 948.549 431.393 953.273 432.364 959.648 434.077 C 952.229 439.419 946.209 441.84 939.558 448.71 C 936.4 451.934 931.583 455.828 928.056 458.841 C 933.796 449.408 938.463 438.592 942.611 428.369 z" fill="#000000" transform="translate(0,0)"></path>
<path d="M 375.475 401.291 L 380.185 400.986 L 381.04 402.027 C 379.899 407.684 376.732 410.625 371.519 413.16 C 369.728 414.031 367.61 412.159 365.944 411.198 C 361.765 408.393 357.086 404.706 352.997 401.641 C 362.985 403.419 365.294 403.091 375.475 401.291 z" fill="#000000" transform="translate(0,0)"></path>
<path d="M 358.576 444.718 C 359.132 448.729 362.845 471.411 362.035 473.716 L 360.011 470.202 C 357.442 464.489 354.31 461.401 350.055 456.94 L 358.576 444.718 z" fill="#000000" transform="translate(0,0)"></path>
<path d="M 243.722 324.995 C 247.149 329.252 250.159 333.262 252.898 338.004 L 252.271 338.833 L 248.763 337.553 L 233.065 331.795 C 236.744 329.836 240.252 327.331 243.722 324.995 z" fill="#000000" transform="translate(0,0)"></path>
<path d="M 1048.65 360.574 L 1050.32 360.667 C 1051.8 363.988 1051.6 362.313 1051 365.866 C 1046.09 369.432 1043.67 367.812 1038.14 366.336 L 1036.43 366.365 L 1036.47 364.934 C 1040.91 362.048 1043.45 361.611 1048.65 360.574 z" fill="#000000" transform="translate(0,0)"></path>
<path d="M 343.659 445.948 L 345.064 446.103 L 345.02 447.304 C 342.484 450.653 339.156 455.19 334.719 456.363 C 333.288 456.742 331.853 455.149 330.214 453.985 C 328.594 453.065 328.048 452.999 326.931 451.683 C 330.985 449.694 334.814 451.115 342.356 446.716 L 343.659 445.948 z" fill="#000000" transform="translate(0,0)"></path>
<path d="M 684.966 634.238 C 690.017 617.63 698.369 607.498 713.614 598.728 C 725.049 592.151 743.284 589.346 755.879 594.165 C 778.631 603.167 801.911 615.012 813.651 637.652 C 823.775 657.177 821.354 666.738 818.399 687.192 C 815.122 709.876 813.363 717.385 795.922 733.39 C 794.301 742.789 793.007 746.149 789.306 754.906 L 790.627 764.323 C 816.962 791.395 836.705 755.178 865.97 790.255 C 880.783 794.739 884.222 797.271 895.793 807.487 C 899.164 817.944 901.08 828.478 903.793 839.116 C 912.89 874.783 925.49 909.547 937.035 944.477 C 942.501 961.013 950.12 977.016 953.862 994.077 C 956.066 1003.62 957.532 1021.74 957.621 1031.89 C 957.819 1054.45 954.124 1079.38 951.374 1101.91 C 949.756 1115.16 948.186 1123.33 948.201 1137.12 C 948.225 1160.4 966.144 1182.9 954.581 1204.45 C 949.243 1214.39 936.25 1226.75 925.708 1231.59 C 922.894 1232.88 917.7 1231.68 915.132 1229.88 C 912.2 1227.83 909.575 1225.48 908.248 1221.9 L 906.829 1221.88 C 909.537 1302.33 907.701 1382.86 901.33 1463.1 C 893.495 1569.82 882.195 1676.38 884.735 1783.58 C 884.921 1791.42 886.628 1811.24 883.944 1817.54 C 878.294 1822.53 869.866 1823.72 862.591 1824.39 C 845.729 1825.96 828.869 1822.91 812.005 1823.2 C 797.928 1823.45 783.391 1823.2 769.383 1824.02 C 756.72 1824.76 743.605 1827.14 730.951 1826.34 C 722.039 1825.77 713.348 1822.28 704.47 1821.98 C 695.793 1821.68 686.749 1823.17 678.023 1823.5 C 668.613 1823.85 607.666 1825.02 603.742 1820.76 C 598.045 1814.57 600.481 1796.9 601.049 1789.03 C 604.52 1740.92 609.027 1692.48 609.831 1644.23 C 610.116 1627.1 606.35 1609.99 606.834 1591.41 C 607.784 1554.87 612.022 1520.89 611.262 1483.57 C 610.56 1449.05 605.591 1415.03 603.435 1380.64 C 601.288 1346.41 602.726 1312.55 605.851 1278.43 C 608.558 1248.89 613.701 1219.34 618.015 1189.98 C 620.283 1174.55 623.365 1158.74 623.448 1143.12 C 612.794 1126.3 604.986 1109.46 598.869 1090.48 C 597.939 1088.03 590.544 1063.82 589.417 1063.35 C 577.226 1058.26 557.93 1066.29 548.859 1052.46 C 533.581 1029.18 549.145 1001.19 557.551 978.665 C 569.81 945.375 582.417 912.213 595.369 879.186 C 601.453 863.485 606.228 847.198 612.704 831.805 C 615.425 825.339 617.957 819.963 623.748 816.114 C 636.373 807.723 651.596 804.103 665.575 797.991 C 681.343 791.097 695.02 784.01 709.974 775.629 L 710.17 760.473 C 704.265 750.458 701.759 742.815 698.038 731.999 C 697.811 731.338 694.402 730.313 693.753 730.626 C 688.89 730.273 683.508 723.61 680.471 719.958 C 668.328 705.358 665.269 681.158 667.113 662.914 C 668.511 649.08 672.329 640.256 684.966 634.238 z" fill="#cdc4ba" transform="translate(0,0)"></path>
<path d="M 906.829 1221.88 C 905.967 1218.52 904.82 1210.98 906.761 1207.95 C 908.209 1212.25 908.062 1217.28 908.248 1221.9 L 906.829 1221.88 z" fill="#7a756e" transform="translate(0,0)"></path>
<path d="M 862.268 812.836 C 873.942 825.963 875.302 895.216 875.917 914.539 C 877.817 1000.94 875.522 1087.39 869.041 1173.57 C 864.981 1235.23 860.607 1298.49 851.006 1359.88 C 843.159 1410.06 827.053 1493.89 792.313 1533.68 C 756.84 1574.31 685.223 1612.22 634.507 1630.8 C 630.057 1632.51 627.897 1633.5 623.465 1631.97 C 616.85 1624.91 622 1603.68 622.034 1593.57 C 622.136 1564.03 628.435 1528.26 625.376 1499.22 C 631.249 1488.58 646.324 1467.72 653.656 1456.85 C 670.211 1432.77 685.224 1407.67 698.604 1381.69 C 769.715 1241.32 813.241 1085.61 843.642 931.805 C 848.802 905.637 853.304 879.344 857.145 852.95 C 858.925 841.175 861.945 824.162 862.268 812.836 z" fill="#000000" transform="translate(0,0)"></path>
<path d="M 841.539 785.595 C 848.222 788.148 851.178 790.974 856.237 795.779 C 845.715 855.364 838.612 910.628 826.49 971.056 C 807.261 1063.85 780.793 1154.99 747.33 1243.65 C 733.321 1281.16 717.502 1321.62 699.484 1357.41 C 684.453 1386.76 668.174 1415.46 650.693 1443.43 C 641.859 1457.32 630.849 1471.47 622.935 1485.49 L 622.2 1474.25 C 619.798 1430.84 617.289 1376.25 618.475 1332.86 C 622.785 1325.37 627.352 1318.15 631.978 1310.83 C 677.467 1238.84 714.43 1161.34 749.539 1083.89 C 761.252 1058.05 773.529 1031.33 782.584 1004.59 C 795.227 993.96 801.195 984.446 807.087 969.018 C 815.899 945.942 809.236 945.38 789.845 948.797 C 792.572 935.855 808.509 899.237 814.186 882.716 C 825.366 850.174 831.813 817.158 841.539 785.595 z" fill="#000000" transform="translate(0,0)"></path>
<path d="M 637.646 821.4 C 669.938 843.11 648.268 947.668 633.846 977.641 C 623.753 980.284 594.902 980.516 590.351 989.815 C 590.975 991.355 592.118 993.125 593.788 993.192 C 603.729 993.592 618.644 990.371 628.494 989.299 C 653.743 986.553 679.125 996.339 703.406 987.665 C 709.709 985.413 718.784 973.101 724.446 968.606 C 728.072 965.727 731.656 963.57 735.558 961.159 C 739.214 957.893 743.542 953.473 747.934 951.728 L 747.747 952.985 L 746.99 952.203 C 746.851 955.969 739.835 960.631 736.772 962.996 C 735.264 966.518 735.2 965.279 735.943 968.495 C 742.089 973.029 764.284 965.001 771.733 962.521 C 765.589 965.933 756.994 970.206 752.558 975.394 L 752.091 977.831 C 754.461 979.993 754.781 980.164 758.577 979.981 L 759.835 979.91 L 760.788 980.881 C 758.053 982.76 757.043 983.047 756.002 985.983 C 756.357 988.785 756.211 988.735 758.132 991.007 C 759.592 991.229 761.794 991.411 763.027 991.997 C 761.451 994.992 760.096 996.988 762.11 999.96 C 765.444 1000.64 768.281 999.28 771.648 998.217 C 747.996 1015 739.297 1016.84 710.692 1014.07 C 707.359 1015.63 704.584 1017.36 701.528 1019.35 C 665.441 1042.83 599.117 1057.84 557.205 1047.43 C 556.646 1045.9 556.136 1044.35 555.675 1042.79 C 548.535 1018.81 562.526 995.173 571.153 972.96 L 606.359 881.729 C 611.348 868.797 621.816 835.679 627.191 825.767 C 630.524 824.524 634.32 822.803 637.646 821.4 z" fill="#000000" transform="translate(0,0)"></path>
<path d="M 767.074 1013.24 L 767.564 1013.9 C 766.172 1019.9 755.054 1044.88 752.066 1052.04 C 725.271 1115.13 695.559 1176.95 663.026 1237.29 C 648.817 1263.33 634.309 1290.56 616.844 1314.51 C 616.585 1299.27 618.356 1284.39 619.898 1269.24 C 623.818 1226.13 631.641 1184.53 635.351 1141.13 C 632.361 1134.43 625.807 1124.45 622.232 1117.72 C 616.978 1107.84 600.975 1070.72 603.271 1061.46 L 604.884 1060.73 C 610.855 1062.99 614.115 1068.96 619.038 1072.34 C 658.083 1099.07 701.392 1054.35 723.177 1027.24 C 741.98 1024.04 750.297 1023.24 767.074 1013.24 z" fill="#000000" transform="translate(0,0)"></path>
<path d="M 886.399 907.973 C 886.696 910.133 887.58 921.756 887.677 922.075 C 890.186 936.441 890.249 953.541 891.352 968.218 C 895.355 1018.63 892.9 1069.38 894.046 1119.79 C 895.76 1195.11 897.508 1269.71 895.772 1345.05 C 893.257 1454.17 880.424 1562.21 875.922 1671.18 C 875.327 1685.57 876.151 1700.31 874.658 1714.61 C 871.051 1693.29 868.502 1669.92 865.609 1648.33 L 852.315 1548.97 C 848.812 1520.72 844.036 1486.81 842.597 1458.75 C 842.177 1450.57 852.665 1412.51 854.883 1400.78 C 861.213 1365.57 866.164 1330.13 869.725 1294.53 C 877.276 1211.87 882.248 1129 884.635 1046.04 C 885.105 1029.28 885.775 1012.37 885.942 995.635 C 886.11 978.804 885.133 962.035 885.863 945.16 C 884.754 938.45 884.869 915.927 884.781 908.38 L 886.399 907.973 z" fill="#000000" transform="translate(0,0)"></path>
<path d="M 809.58 803.851 C 795.714 839.626 780.525 874.68 765.516 909.987 C 761.781 918.773 757.429 928.609 752.752 936.827 C 750.926 937.649 748.742 937.381 746.667 937.357 C 741.921 940.623 738.027 946.197 733.122 950.136 C 721.238 959.68 711.269 967.953 700.082 978.49 C 679.511 983.969 667.3 980.934 647.542 976.442 C 649.991 970.733 652.72 962.703 654.108 956.65 C 663.959 913.696 675.387 857.608 651.832 817.621 C 661.757 813.409 670.08 809.725 679.693 804.883 C 696.708 810.421 714.525 824.895 735.847 828.676 C 768.503 834.465 785.06 819.717 809.58 803.851 z" fill="#000000" transform="translate(0,0)"></path>
<path d="M 833.403 1480.66 C 834.562 1484.57 835.65 1501.35 836.141 1506.81 C 837.369 1520.23 838.858 1533.63 840.609 1546.99 L 871.379 1766.19 C 873.602 1781.19 871.786 1795.4 874.745 1811.27 C 862.351 1813.95 855.713 1814.23 843.371 1814.02 L 818.915 1811.69 C 818.723 1799.34 817.589 1786.67 817.004 1774.28 C 813.317 1696.24 804.725 1617.99 801.816 1539.96 C 818.162 1517.98 822.607 1503.91 833.403 1480.66 z" fill="#000000" transform="translate(0,0)"></path>
<path d="M 791.784 1548.76 C 793.108 1557.84 793.604 1574.25 794.208 1583.99 L 798.561 1656.89 C 801.752 1705.66 807.95 1761.69 808.326 1810.28 C 802.605 1816.36 771.926 1813.54 760.345 1814.57 C 756.211 1815.25 749.831 1814.91 745.459 1814.83 C 747.605 1739.28 744.793 1661.71 745.934 1585.59 C 765.001 1574.64 776.253 1563.97 791.784 1548.76 z" fill="#000000" transform="translate(0,0)"></path>
<path d="M 733.656 1593.96 C 736.103 1597.18 734.978 1793.62 735.24 1815.62 C 724.255 1815.56 711.562 1810.97 702.143 1810.98 C 690.956 1810.99 683.25 1813.13 670.75 1812.85 C 667.457 1812.8 666.514 1813.4 664.418 1811.85 C 667.229 1803.14 670.372 1778.23 671.9 1768.32 C 679.525 1718.91 683.974 1668.54 689.19 1618.79 C 704.366 1611.16 719.202 1602.88 733.656 1593.96 z" fill="#000000" transform="translate(0,0)"></path>
<path d="M 864.745 799.179 C 889.758 808.54 888.127 817.68 893.604 840.335 C 896.462 851.852 899.642 863.288 903.14 874.628 C 911.975 902.537 921.067 930.364 930.415 958.105 C 935.669 973.458 944.052 989.471 945.825 1005.57 C 948.852 1034.55 945.665 1065.37 941.961 1094.02 C 938.527 1120.58 935.137 1142.04 944.296 1167.98 C 946.692 1174.77 948.681 1185.32 950.204 1192.73 C 945.747 1201.27 931.16 1219.94 921.738 1221.07 C 919.141 1219.41 920.012 1220.55 919.213 1217.4 L 920.257 1215.75 L 921.765 1216.68 C 938.632 1210.59 927.775 1187.51 922.021 1177.15 C 922.264 1170.63 923.066 1166.33 919.331 1160.94 L 917.676 1161.5 C 912.187 1167.4 909.232 1180.73 907.02 1188.67 C 903.6 1169.22 905.188 1153.1 916.326 1136.8 C 915.065 1113.54 908.613 1085.41 906.894 1059.56 L 898.358 928.707 C 896.728 903.868 895.522 878.469 892.424 853.764 C 889.643 839.962 880.903 827.2 872.994 815.856 C 869.122 810.302 864.348 805.814 864.745 799.179 z" fill="#000000" transform="translate(0,0)"></path>
<path d="M 741.894 635.61 C 752.642 639.377 747.77 644.655 757.267 649.992 C 765.748 654.684 779.873 650.365 786.885 657.798 C 796.036 667.5 786.342 682.318 785.408 692.979 C 783.442 715.43 790.714 740.708 770.64 757.268 C 762.962 763.601 755.199 766.534 745.26 765.963 C 717.958 759.824 713.075 745.125 707.504 720.737 C 709.198 716.334 711.013 700.43 709.92 696.264 C 705.312 678.708 686.157 668.501 705.028 652.48 C 725.703 651.398 724.558 646.811 741.894 635.61 z" fill="#000000" transform="translate(0,0)"></path>
<path d="M 675.693 1624.97 L 676.712 1625.73 C 677.425 1630.94 674.012 1655.98 673.37 1662.89 C 668.672 1713.4 661.847 1762.53 653.65 1812.56 C 639.551 1812.85 626.259 1812.54 611.882 1813.06 C 610.547 1807.6 615.322 1757.9 615.886 1748.41 C 617.972 1713.31 621.368 1677.65 622.019 1642.41 C 639.124 1643.5 660.154 1632.39 675.693 1624.97 z" fill="#000000" transform="translate(0,0)"></path>
<path d="M 778.548 761.754 C 781.399 764.374 782.629 772.643 784.548 775.589 C 788.429 781.552 803.435 785.129 810.237 787.117 C 782.661 813.33 760.533 826.547 722.313 812.184 C 712.193 807.942 703.291 802.95 693.748 797.592 C 700.51 794.338 709.023 790.619 715.11 786.317 C 722.094 781.38 721.677 776.19 722.428 768.03 C 729.715 768.398 736 775.352 745.513 775.815 C 760.093 776.524 768.135 770.547 778.548 761.754 z" fill="#000000" transform="translate(0,0)"></path>
<path d="M 828.798 790.846 C 829.011 796.292 824.266 808.685 822.804 814.827 C 811.664 861.615 797.661 902.112 779.077 946.384 C 771.486 951.849 766.243 954.394 757.44 957.446 C 757.072 952.629 762.491 941.949 764.747 937.072 C 785.36 892.504 802.851 846.649 822.109 801.523 C 823.852 797.439 825.98 794.249 828.798 790.846 z" fill="#000000" transform="translate(0,0)"></path>
<path d="M 704.055 1031.05 L 704.741 1032.36 C 686.627 1051.81 659.47 1079.33 630.494 1065.96 C 627.114 1064.43 624.398 1062.69 621.236 1060.79 C 643.511 1056.18 656.923 1053.09 678.046 1043.23 C 685.383 1039.81 697.285 1033.71 704.055 1031.05 z" fill="#000000" transform="translate(0,0)"></path>
<path d="M 693.285 689.458 C 700.797 694.772 699.886 709.252 696.271 716.312 C 689.37 708.096 686.967 698.636 693.285 689.458 z" fill="#000000" transform="translate(0,0)"></path>
<path d="M 797.753 688.43 C 809.833 690.382 802.507 705.571 799.437 712.714 C 797.994 713.305 798.718 713.079 796.763 712.621 C 793.245 706.805 796.08 694.71 797.753 688.43 z" fill="#000000" transform="translate(0,0)"></path>
<path d="M 759.835 979.91 C 768.614 974.861 778.222 966.844 786.5 963.166 L 787.815 963.535 C 781.721 968.191 767.535 979.415 760.788 980.881 L 759.835 979.91 z" fill="#7a756e" transform="translate(0,0)"></path>
<path d="M 758.132 991.007 C 766.05 990.563 770.586 984.708 777.846 982.43 C 773.643 986.38 768.656 990.421 763.027 991.997 C 761.794 991.411 759.592 991.229 758.132 991.007 z" fill="#7a756e" transform="translate(0,0)"></path>
<path d="M 884.781 908.38 C 883.864 901.39 883.983 897.778 884.186 890.653 L 884.642 890.596 C 885.726 897.622 885.66 902.147 886.399 907.973 L 884.781 908.38 z" fill="#7a756e" transform="translate(0,0)"></path>
<path d="M 1159.9 604.37 C 1184.69 601.66 1211.73 617.946 1224.92 638.27 C 1225.17 649.135 1224.6 649.583 1219.8 659.453 C 1228.06 681.726 1237.7 707.418 1232.14 732.166 C 1230.54 739.296 1223.91 741.795 1217.33 745.476 L 1217.39 748.44 C 1220.41 753.051 1221.09 755.405 1222.93 760.577 C 1239.77 762.197 1257.49 764.57 1274.58 766.31 C 1282.96 773.614 1286.79 781.418 1293.4 789.716 C 1327.36 832.399 1342.16 887.457 1353.8 940.043 C 1364.2 987.049 1372.37 1036.3 1367.67 1084.77 C 1365.82 1103.86 1365.56 1122.37 1354.63 1139.46 C 1357.27 1160.07 1353.59 1219.27 1343.9 1235.47 C 1346.31 1247.24 1355.16 1295.28 1353.8 1305.22 C 1351.58 1321.42 1336.47 1360.46 1331.09 1377.49 C 1325.56 1394.93 1319.85 1400.61 1318.27 1421.79 C 1314.4 1473.76 1311.22 1525.16 1306.83 1577.1 C 1303.8 1612.96 1298.03 1652.02 1297.08 1687.35 C 1296.04 1725.7 1308.47 1773.22 1307.95 1811.18 C 1301.92 1811.08 1280.47 1810.54 1277.28 1812.11 C 1255.3 1822.88 1253.4 1816.35 1233.03 1810.13 C 1228.06 1808.61 1222.49 1815.44 1215.5 1815.75 C 1199.25 1816.46 1183.44 1813.4 1167.38 1811.37 C 1157.84 1810.23 1149.96 1810.71 1140.24 1808.68 C 1129.91 1806.43 1119.69 1799.07 1111.88 1798.26 C 1096.68 1796.68 1044.87 1801.06 1033.72 1791.54 C 1031.61 1786.82 1035.89 1776.54 1037.21 1771.31 C 1049.39 1723.29 1049.7 1674.82 1050.87 1625.63 C 1051.8 1586.23 1052.58 1546.12 1054.78 1506.73 C 1054.45 1503.39 1055.69 1494.69 1055 1491.87 C 1049.22 1468.36 1050.68 1449.32 1051.57 1425.68 C 1050.08 1415.22 1047.77 1403.93 1045.8 1393.58 C 1040.84 1367.47 1041.59 1337.53 1036.7 1311.9 C 1029.43 1273.84 1033.44 1239.82 1038.9 1201.94 C 1042.46 1177.22 1033.76 1152.85 1037.42 1127.85 C 1039.82 1095.81 1054.5 1069.07 1060.11 1039.27 C 1059.25 1037.89 1059.32 1037.19 1057.47 1037.21 C 1036.26 1037.45 1014.6 1038.8 993.777 1033.68 C 983.576 1031.17 978.239 1026.64 973.071 1017.53 C 972.272 993.094 980.822 968.601 989.737 946.165 C 1000.81 918.303 1051.35 816.745 1071.13 800.477 C 1087.04 787.393 1104.39 784.215 1122.54 776.411 C 1128.28 763.455 1111.4 763.583 1105.9 755.162 C 1091.49 733.137 1090.43 704.302 1087.44 678.862 C 1086.14 667.797 1082.56 656.885 1083.79 645.605 C 1084.41 639.796 1088.39 637.379 1092.58 634.083 C 1094.33 606.947 1115.83 599.965 1138.93 608.106 C 1145.91 606.817 1152.9 605.572 1159.9 604.37 z" fill="#cdc4ba" transform="translate(0,0)"></path>
<path d="M 1261.51 1030.51 C 1263.66 1030.58 1267.38 1030.83 1268.03 1033.55 C 1281.04 1088.21 1284.08 1143.22 1287.57 1199.03 L 1293.85 1295.03 C 1295.15 1315.75 1296.25 1336.49 1297.14 1357.23 C 1297.43 1363.45 1298.77 1382.31 1298 1387.35 C 1294.58 1409.54 1286.64 1433.26 1281.37 1455.3 C 1275 1481.91 1273.03 1505 1270.59 1531.48 C 1267.11 1569.32 1273.4 1644.83 1261.36 1678.62 C 1252.78 1674.69 1244.18 1623.82 1242.61 1613.4 C 1226.57 1504.65 1223.88 1394.36 1234.61 1284.96 C 1238.66 1240.73 1246.62 1196.99 1250.07 1152.84 C 1251.85 1123.24 1253.49 1093.55 1254.73 1063.92 C 1255.15 1054.09 1253.2 1043.12 1253.47 1032.7 C 1255.92 1030.61 1257.85 1030.99 1261.51 1030.51 z" fill="#000000" transform="translate(0,0)"></path>
<path d="M 1212.57 1334.79 C 1213.8 1336.08 1211.9 1390.01 1211.99 1395.98 C 1213.26 1479.29 1217.55 1565.83 1237 1647.04 C 1240.06 1659.83 1242.96 1674.71 1249.81 1686.05 C 1251.73 1689.23 1254.62 1692.96 1258.55 1693.61 C 1260.61 1693.96 1262.79 1693 1264.46 1691.87 C 1284.79 1678.04 1281.18 1558.96 1282.37 1528.76 C 1282.97 1514.3 1284.52 1499.89 1287.01 1485.62 C 1290.82 1464.15 1297.12 1442.14 1301.7 1420.72 C 1302.22 1418.3 1303.33 1417.25 1305.21 1415.94 L 1307.45 1416.92 C 1308.01 1424.05 1305.28 1452.83 1304.66 1462.05 C 1302.42 1496.67 1300 1531.27 1297.41 1565.87 C 1293.27 1616.4 1282.68 1664.68 1288.28 1715.49 C 1291.39 1743.65 1294.15 1771.89 1297.28 1800.07 C 1287.97 1799.89 1279.64 1800.61 1270.36 1801.3 C 1254.87 1813.34 1251.86 1803.58 1234.4 1799.4 C 1231.61 1798.73 1224.85 1799.06 1221.76 1799.18 C 1218.47 1781.59 1216.56 1762.98 1214.23 1745.18 L 1202.34 1654.6 L 1171.18 1413.44 C 1187.25 1385.84 1198.35 1362.94 1212.57 1334.79 z" fill="#000000" transform="translate(0,0)"></path>
<path d="M 1174.77 1094.22 C 1184.87 1099.64 1214.33 1105.68 1226.18 1105.29 C 1219.18 1126.6 1211.04 1146.71 1203.72 1167.69 C 1173.97 1252.97 1140.22 1328.4 1080.36 1397.41 C 1074.53 1404.11 1067.88 1410.56 1061.59 1416.87 C 1054.49 1394.19 1048.47 1327.35 1047.94 1301.52 C 1056.61 1292.75 1067 1278.35 1074.91 1268.36 C 1117.03 1215.12 1144.44 1154.49 1174.77 1094.22 z" fill="#000000" transform="translate(0,0)"></path>
<path d="M 1268.42 779.816 L 1269.07 780.49 C 1270.33 786.231 1266.43 813.081 1265.22 820.216 C 1253.78 887.898 1239.05 965.964 1214.64 1029.89 C 1205.25 1029.93 1193.64 1029.26 1187.6 1038.01 C 1186.47 1046.03 1193.08 1047.72 1199.41 1050.03 C 1187.86 1065.49 1180.34 1064.35 1169.29 1076.16 C 1167.35 1088.07 1155.82 1110.44 1149.98 1121.92 C 1121.88 1177.14 1089.76 1236.61 1049.87 1284.32 C 1046.97 1287.14 1047.56 1287.49 1044.29 1288.09 C 1041.73 1283.75 1043.79 1261.28 1044.3 1255.03 C 1051.09 1172.73 1091.71 1090.89 1131.91 1020.02 C 1141.3 1019.58 1155.37 1019.48 1164.01 1016.5 C 1178.98 1011.15 1184.66 991.746 1192.28 980.664 C 1204.65 962.668 1209.53 949.494 1217.25 929.574 C 1226.31 906.563 1234.56 883.239 1241.97 859.645 C 1248.78 837.594 1258.48 799.86 1268.42 779.816 z" fill="#000000" transform="translate(0,0)"></path>
<path d="M 1235.46 1111.71 C 1240.67 1136.61 1223.01 1212.27 1222.69 1241.41 C 1222.23 1283.96 1213.48 1314.33 1192.47 1351.94 C 1166.82 1397.87 1136.72 1459.47 1087.14 1484.64 C 1081.03 1487.75 1073.54 1485.02 1068.01 1482.12 C 1058.6 1467.62 1062.2 1445.6 1062.95 1428.34 C 1133.3 1363.17 1171.72 1285.95 1204.13 1196.76 L 1224.29 1141.05 C 1227.5 1132.14 1231.11 1119.74 1235.46 1111.71 z" fill="#000000" transform="translate(0,0)"></path>
<path d="M 1128 1468 C 1128.82 1469.06 1130.63 1488.66 1130.98 1491.68 C 1142.75 1594.45 1151.82 1697.51 1158.18 1800.75 C 1149.23 1799.87 1143.15 1798.38 1134.75 1795.39 C 1121.66 1789.18 1117.41 1786.59 1103.21 1786.77 C 1103.09 1755.27 1101.83 1724.47 1101.33 1693.07 C 1100.27 1627.28 1101.06 1557.28 1095.91 1491.79 C 1108.78 1485.07 1117.57 1477.69 1128 1468 z" fill="#000000" transform="translate(0,0)"></path>
<path d="M 1087.91 800.899 L 1088.93 802.071 C 1074.15 832.537 1070.54 872.731 1063.87 905.716 C 1059.66 926.531 1060.05 946.144 1042.96 960.769 C 1035.38 960.095 1020.12 958.504 1013.57 962.868 C 1012.39 966.13 1012.52 964.455 1013.55 968.08 C 1019.58 973.551 1034.08 968.909 1040.17 971.228 C 1067 981.448 1087.95 991.918 1117.69 993.145 C 1124.33 983.264 1144.61 951.649 1153.53 946.279 L 1154.63 946.962 C 1152.51 962.057 1174.06 962.551 1186.65 968.234 C 1182.35 976.676 1178.05 984.366 1173.38 992.603 C 1157.62 1018.75 1147.21 1004.28 1127.87 1009.4 C 1090.26 1019.35 1054.34 1032.15 1014.47 1026.85 C 993.739 1024.1 978.965 1023.41 984.82 997.302 C 988.754 979.761 993.456 962.926 1000.81 946.281 C 1018.99 910.397 1056.23 822.879 1087.91 800.899 z" fill="#000000" transform="translate(0,0)"></path>
<path d="M 1101.16 795.562 C 1103.62 797.249 1105.19 802.3 1106.22 805.106 C 1117.58 836.252 1141.37 869.763 1175.99 875.902 C 1184.77 877.458 1193.13 875.314 1201.73 872.983 C 1189.44 891.326 1177.23 913.308 1162.99 930.263 C 1158.82 935.227 1152.88 932.69 1146.85 937.38 C 1142.51 940.758 1138.56 946.443 1135.16 950.835 C 1126.95 961.06 1121.87 970.891 1114.17 980.903 C 1094.29 981.62 1078.1 975.458 1059.71 969.095 C 1069.67 946.299 1074.29 905.59 1078.53 880.489 C 1084 848.153 1089.48 825.734 1101.16 795.562 z" fill="#000000" transform="translate(0,0)"></path>
<path d="M 1161.75 1425.83 C 1162.54 1426.81 1170.84 1496.86 1171.92 1505.38 C 1179.98 1570.51 1188.58 1635.57 1197.73 1700.55 C 1202.27 1734.03 1206.26 1772.79 1212.63 1805.66 C 1204.8 1805.75 1200.47 1805.55 1192.69 1804.67 C 1184.88 1803.72 1176.54 1801.83 1168.77 1800.26 C 1164.26 1718.19 1157.19 1643.13 1149.19 1561.28 L 1143.15 1501.33 C 1141.94 1489.03 1140.45 1469.48 1137.72 1458.05 C 1145.72 1447.02 1154.19 1437.66 1161.75 1425.83 z" fill="#000000" transform="translate(0,0)"></path>
<path d="M 1295.28 814.735 C 1302.66 821.351 1320.04 862.714 1323.81 873.569 C 1341.1 923.934 1351.61 980.257 1357.56 1033.1 C 1359.56 1050.83 1356.88 1105.82 1349.54 1121.98 L 1348.22 1122.14 L 1347.01 1118.79 C 1342.91 1097.72 1335.32 1079.49 1324.55 1061.03 C 1311.81 1039.19 1304.25 1030.42 1281.52 1019.93 C 1293.63 954.82 1296.04 880.933 1295.28 814.735 z" fill="#000000" transform="translate(0,0)"></path>
<path d="M 1066.61 1493.13 C 1071.64 1495.15 1078.19 1498.28 1083.13 1496.18 C 1084.25 1495.71 1083.98 1495.95 1085.54 1496.48 C 1086.7 1502.46 1086.66 1519.43 1086.84 1526.72 L 1088.39 1586.78 L 1091.25 1701.24 C 1091.95 1727.28 1093.34 1761.64 1092.22 1787.08 L 1073.34 1786.97 C 1063.11 1786.32 1055.38 1785.71 1045.26 1784.19 C 1049.68 1765.02 1054.2 1745.07 1056.46 1725.47 C 1064.21 1658.04 1061.78 1589.5 1065.48 1521.72 C 1065.99 1512.29 1065.32 1502.43 1066.61 1493.13 z" fill="#000000" transform="translate(0,0)"></path>
<path d="M 1285.04 1064.84 C 1290.27 1073.63 1293.97 1087.7 1298.74 1100.1 C 1322.1 1160.85 1335.37 1237.77 1342.41 1301.61 C 1343.35 1310.18 1321.29 1370.77 1318.07 1380.29 C 1314.78 1388.63 1311.64 1396.97 1307.77 1405.05 C 1310.18 1378.94 1306.58 1335.95 1305.02 1308.01 C 1301.46 1244.51 1297.28 1180.19 1292.31 1116.75 C 1290.99 1100.02 1286.74 1081.85 1285.04 1064.84 z" fill="#000000" transform="translate(0,0)"></path>
<path d="M 1128.32 648.326 C 1145.94 651.278 1156.98 655.072 1170.76 667.405 C 1168.18 672.203 1164.93 677.949 1164.34 683.374 C 1162.59 699.53 1176.78 699.114 1181.97 706.057 C 1182.1 710.249 1170.87 730.297 1168.31 735.116 C 1156.46 755.232 1148.11 759.41 1125.06 754.069 C 1102.32 748.798 1101.66 708.972 1099.33 690.429 C 1097.43 675.304 1096.66 664 1099.46 649.122 C 1114.82 648.09 1115.3 653.711 1128.32 648.326 z" fill="#000000" transform="translate(0,0)"></path>
<path d="M 1187.52 721.777 C 1192.93 728.972 1185.79 733.796 1201.69 743.213 C 1209.06 763.139 1211.66 773.147 1234.54 775.175 C 1214.71 795.382 1198.26 809.344 1169.24 814.763 C 1151.49 816.776 1133.76 805.673 1122.22 793.126 C 1126.52 790.736 1129.92 788.417 1133.98 785.668 C 1134.75 779.766 1135.57 773.871 1136.45 767.984 C 1160.89 775.995 1177.33 738.664 1187.52 721.777 z" fill="#000000" transform="translate(0,0)"></path>
<path d="M 1242.12 787.708 L 1242.98 787.93 L 1243.45 789.209 C 1238.67 801.321 1218.67 848.462 1209.85 855.855 C 1201.55 862.816 1190.98 865.869 1180.22 864.884 C 1159.64 862.998 1143.66 846.622 1131.26 831.524 C 1125.82 824.469 1119.11 810.794 1114.75 802.426 C 1137.82 822.441 1156.86 832.247 1187.59 822.458 C 1210.36 815.207 1224.57 802.825 1242.12 787.708 z" fill="#000000" transform="translate(0,0)"></path>
<path d="M 1282.78 1032.52 C 1315.51 1040 1346.56 1133.39 1344.77 1165.25 C 1344.05 1178.21 1342.23 1192.78 1340.25 1205.78 L 1339.53 1209.13 C 1337.59 1207.85 1335.96 1197.5 1335.52 1194.72 C 1328.96 1152.93 1316.62 1112.85 1300.58 1073.74 C 1294.97 1060.06 1288.29 1046.43 1282.78 1032.52 z" fill="#000000" transform="translate(0,0)"></path>
<path d="M 1276.37 790.812 C 1276.61 791.075 1277.26 791.702 1277.29 792.008 C 1283.18 849.997 1261.37 971.668 1246.81 1021.92 C 1241.09 1024.04 1235.08 1026.75 1229.44 1029.16 L 1227.22 1028.7 C 1227.06 1027.7 1245.2 964.921 1247.49 955.643 C 1261.16 900.082 1273.61 848.316 1276.37 790.812 z" fill="#000000" transform="translate(0,0)"></path>
<path d="M 1257.2 777.619 L 1258.32 779.056 C 1258.04 783.639 1248.68 808.796 1246.61 814.604 C 1230.18 860.76 1214.78 914.146 1194.25 958.378 C 1187.21 955.083 1182.52 953.499 1175.21 951.059 L 1166.08 947.333 C 1167.78 943.557 1170.87 938.491 1173.18 934.988 C 1196.1 900.271 1220.45 866.006 1237.31 827.751 C 1244.48 811.497 1250.41 794.18 1257.2 777.619 z" fill="#000000" transform="translate(0,0)"></path>
<path d="M 1113.73 1030.8 L 1113.88 1032.98 C 1093.39 1072.7 1071.24 1110.17 1057.1 1152.72 C 1055.88 1156.39 1052.74 1168.29 1050.24 1169.97 C 1042.22 1144.51 1051.14 1097.1 1062.66 1073.26 C 1082.94 1062.96 1096.87 1043.5 1113.73 1030.8 z" fill="#000000" transform="translate(0,0)"></path>
<path d="M 1282.38 888.865 L 1284.21 887.908 C 1283.5 894.857 1282.86 900.16 1283.14 907.217 C 1281.81 914.104 1280.73 934.512 1279.92 943.098 C 1277.43 969.693 1274.53 993.761 1270.25 1020.07 C 1266.42 1019.76 1262.42 1019.72 1258.56 1019.61 C 1267.18 981.079 1274.43 942.257 1280.3 903.214 L 1282.38 888.865 z" fill="#000000" transform="translate(0,0)"></path>
<path d="M 1238.94 1035.05 L 1242.19 1037.53 C 1244.87 1043.89 1242.13 1066.32 1240.98 1073.72 C 1239.72 1081.73 1229.29 1095.88 1220.6 1094.91 C 1219.93 1090.79 1224.25 1086.48 1227.19 1082.34 C 1230.34 1077.06 1237.91 1065.06 1231.45 1060.15 C 1226.43 1060.64 1224.76 1064.44 1219.26 1066.23 L 1218.54 1064.63 C 1220.05 1057.4 1224.88 1048.06 1228.12 1041.11 C 1231.82 1039.19 1235.34 1037.14 1238.94 1035.05 z" fill="#000000" transform="translate(0,0)"></path>
<path d="M 1097.55 1031.86 C 1097.82 1032.3 1098.09 1032.75 1098.36 1033.19 C 1088.19 1042.31 1076.72 1051.39 1067.05 1060.53 L 1066.3 1059.57 C 1068.83 1053.28 1090.91 1037.26 1097.55 1031.86 z" fill="#000000" transform="translate(0,0)"></path>
<path d="M 1282.38 888.865 C 1282.9 876.849 1285.26 865.401 1285.15 853.246 L 1285.12 851.724 C 1286.35 858.035 1285.47 881.475 1284.21 887.908 L 1282.38 888.865 z" fill="#7a756e" transform="translate(0,0)"></path>
<path d="M 1074.99 1033.3 C 1078.23 1032.95 1078.76 1032.74 1081.85 1033.5 C 1081.1 1035.87 1078.21 1037.35 1075.84 1039.15 C 1072.83 1040.72 1074.29 1040.59 1071.44 1040.24 L 1070.92 1038.13 C 1072.71 1034.17 1071.56 1035.25 1074.99 1033.3 z" fill="#000000" transform="translate(0,0)"></path>
<path d="M 1284.81 837.361 L 1286.39 838.56 C 1287.47 841.49 1286.69 846.04 1286.41 849.331 C 1283.96 847.2 1284.77 840.611 1284.81 837.361 z" fill="#cdc4ba" transform="translate(0,0)"></path>
<path d="M 1285.49 816.824 L 1286.2 817.494 C 1287.34 820.551 1286.9 824.855 1286.83 828.267 L 1285.58 826.941 C 1284.26 823.52 1285.05 820.567 1285.49 816.824 z" fill="#7a756e" transform="translate(0,0)"></path>
<path d="M 305.565 621.409 C 324.468 619.099 368.422 625.999 385.473 635.063 C 394.567 659.135 395.324 672.52 397.241 697.656 C 397.772 704.614 404.563 707.798 402.83 718.447 C 400.983 721.827 397.826 722.928 394.28 724.821 C 393.401 748.267 388.676 768.605 364.852 777.157 C 376.332 780.013 389.843 782.505 399.965 788.069 C 413.877 795.718 417.17 808.52 423.854 821.47 C 425.463 824.587 433.016 833.551 435.583 836.84 C 441.555 844.518 446.743 852.774 451.069 861.485 C 461.859 883.584 464.819 904.525 477.671 925.126 C 487.563 940.981 514.03 957.076 519.259 974.537 C 524.416 991.756 501.366 1012.4 492.262 1027.45 L 491.719 1028.36 C 493.563 1055.02 493.331 1078.6 496.214 1106.07 C 506.112 1200.39 516.717 1294.92 520.927 1389.68 C 521.18 1395.37 521.441 1412.8 519.886 1417.35 C 507.236 1454.33 479.075 1486.38 453.675 1513.43 C 456.198 1551.35 458.451 1589.29 460.434 1627.25 C 462.717 1679.58 465.492 1746.26 475.586 1797.33 C 467.757 1814.83 428.928 1799.09 419.446 1800.36 C 398.53 1803.16 399.182 1813.57 374.875 1807.72 C 346.433 1797.96 328.753 1810.03 298.247 1806.94 C 284.537 1807.79 267.518 1795.02 255.397 1794.46 C 238.728 1793.7 222.601 1794.62 205.684 1793.11 C 191.655 1791.86 179.156 1788.16 166.13 1786.87 C 170.601 1755.91 177.421 1725.38 182.055 1694.61 C 190.57 1637.66 196.339 1580.34 199.342 1522.83 C 202.074 1473.79 203.459 1423.6 203.236 1374.43 C 203.184 1362.9 198.978 1354 199.094 1345.39 C 199.675 1302.19 201.076 1258.95 202.222 1215.78 L 193.18 1210.37 C 185.062 1195.93 187.343 1163.25 189.216 1146.32 C 169.241 1124.84 170.882 1090.31 181.845 1064.92 C 150.841 1050.63 159.389 1030.38 164.611 1003.08 C 169.247 977.936 174.383 952.883 180.015 927.94 C 190.463 879.491 194.066 831.715 240.897 802.477 C 248.526 797.714 263.294 787.83 269.394 781.493 L 270.261 780.576 C 270.733 776.985 273.013 769.815 274.096 766.069 L 272.243 765.275 C 236.093 749.617 270.203 726.541 241.739 715.305 C 229.819 694.269 228.985 664.755 244.942 643.892 C 249.697 637.675 261.295 644.525 266.435 645.204 C 270.102 645.688 277.345 635.469 279.789 632.708 C 286.917 624.465 295.188 622.256 305.565 621.409 z" fill="#cdc4ba" transform="translate(0,0)"></path>
<path d="M 448.143 882.507 C 456.279 902.894 465.098 934.904 466.662 956.926 C 469.227 993.04 471.041 1036.74 466.901 1072.84 C 458.845 1143.1 471.362 1240.91 443.761 1305.67 C 409.028 1387.15 343.428 1477.84 260.425 1513.9 C 258.696 1514.63 256.825 1515.23 255.117 1515.99 C 255.09 1527.29 252.674 1538.73 251.176 1549.94 C 245.263 1594.18 238.44 1638.15 231.288 1682.2 C 225.832 1715.8 221.79 1749.48 215.33 1783 C 200.164 1783 192.943 1779.87 178.924 1777.29 C 194.095 1701.44 204.233 1624.68 209.271 1547.5 C 211.203 1515.85 212.68 1484.17 213.702 1452.47 L 215.616 1386.46 C 215.75 1382.24 215.464 1364.63 216.781 1362.09 C 222.037 1351.95 238.093 1337.71 245.841 1328.28 C 263.596 1306.4 279.47 1283.06 293.294 1258.5 C 322.853 1207.1 343.777 1155.16 363.641 1099.49 C 370.683 1079.75 376.954 1054.31 384.026 1035.99 C 393.295 1035.29 424.76 1029.62 431.619 1023.47 C 431.896 1020.67 430.995 1019.23 429.919 1016.63 C 436.497 1011.59 443.889 1014.71 447.307 1007.15 C 447.074 1003.48 447.648 1005.12 445.432 1002.1 C 442.22 1000.81 441.206 1001.29 437.616 1001.84 C 438.881 998.09 454.564 995.177 452.375 986.492 L 451.729 986.031 C 450.16 984.891 449.174 984.486 448.604 982.694 C 450.095 980.003 449.957 980.017 452.342 978.17 C 454.645 996.043 450.686 1021.2 447.625 1038.93 C 430.281 1139.39 373.061 1263.59 311.149 1343.66 C 298.243 1360.67 284.066 1376.67 268.74 1391.52 C 262.722 1397.29 242.531 1411.79 243.184 1419.07 C 245.383 1421.95 244.024 1420.88 247.525 1422.26 C 263.615 1416.94 307.262 1364.88 319.086 1349.87 C 361.876 1295.58 394.568 1232.69 419.863 1168.51 C 457.366 1077.78 477.435 981.841 447.239 885.725 C 447.053 885.247 446.867 884.77 446.682 884.292 L 448.143 882.507 z" fill="#000000" transform="translate(0,0)"></path>
<path d="M 269.324 796.839 C 297.278 821.336 329.77 838.515 362.11 856.236 C 361.337 860.708 360.192 865.109 358.688 869.391 C 344.77 909.869 305.222 967.711 266.504 986.654 C 259.65 985.672 252.413 985.009 245.504 984.266 C 247.758 974.524 276.323 878.838 254.847 882.467 C 250.859 886.419 251.32 893.454 251.385 898.873 C 251.74 928.813 242.89 955.229 234.16 983.762 C 224.571 984.678 206.873 987.616 200.31 995.043 C 199.487 998.459 199.302 996.831 201.131 1000.06 C 206.869 1002.9 224.438 993.749 233.481 993.896 C 249.716 994.161 264.698 998.187 280.656 1000.36 C 303.01 1003.18 325.536 1004.42 348.065 1004.07 C 361.379 983.75 377.239 969.207 404.647 966.285 C 405.845 966.157 406.552 968.003 407.223 969.049 C 405.943 976.407 395.138 971.874 388.862 976.718 L 388.791 978.714 C 394.507 988.196 401.274 984.92 409.836 988.456 L 408.553 989.963 C 406.605 991.702 407.18 990.656 406.707 993.169 C 408.707 994.598 408.851 994.594 410.443 996.605 C 409.691 1000.71 406.674 999.496 406.324 1001.41 C 404.647 1010.61 408.053 1018.3 396.103 1023.18 C 380.86 1029.4 361.173 1025.41 344.881 1028.61 C 296.345 1038.16 247.456 1057.42 197.638 1057.79 C 191.89 1057.82 183.551 1054.47 178.299 1052.4 C 173.632 1045.77 170.151 1040.2 171.441 1031.73 C 176.884 995.995 185.558 961.12 193.704 925.955 C 197.745 908.508 199.266 887.069 204.455 870.324 C 208.011 858.922 213.32 848.142 220.189 838.371 C 236.899 814.921 249.863 812.314 268.372 797.602 L 269.324 796.839 z" fill="#000000" transform="translate(0,0)"></path>
<path d="M 449.511 1316.75 C 450.255 1330.14 448.411 1355.79 447.838 1370.14 C 446.546 1402.59 445.48 1435.05 444.639 1467.52 C 442.228 1561.91 452.306 1660.25 458.934 1754.63 C 459.825 1767.31 460.875 1782.04 463.364 1794.34 C 429.026 1798.26 427.141 1780.06 396.864 1796.69 C 391.196 1799 376.005 1800.24 374.291 1796.08 C 370.896 1787.85 373.791 1753.32 374.188 1744.43 L 376.98 1678.8 C 379.244 1623.62 382.019 1568.47 385.304 1513.35 C 387.094 1485.88 392.248 1442.65 392.232 1416.26 C 396.573 1407.56 409.422 1390.93 415.93 1380.61 C 429.265 1359.45 437.94 1337.61 449.511 1316.75 z" fill="#000000" transform="translate(0,0)"></path>
<path d="M 379.477 1431.82 C 380.548 1437.78 376.715 1471.83 376.091 1480.12 C 374.455 1504.09 373.013 1528.08 371.765 1552.08 L 364.047 1714.16 C 363.073 1738.08 363.292 1770.75 361.11 1793.78 C 334.342 1790.06 326.565 1800.27 298.142 1795.93 L 295.69 1795.05 C 294.291 1792.12 302.09 1720.61 302.892 1711.75 L 324.315 1487.41 C 332.008 1479.3 343.191 1470.58 351.392 1462.41 C 361.416 1452.42 369.964 1442.21 379.477 1431.82 z" fill="#000000" transform="translate(0,0)"></path>
<path d="M 364.815 1037.35 C 368.849 1037.82 368.883 1037.08 370.704 1039.34 C 369.774 1045.38 366.968 1052.95 365.163 1058.93 C 333.179 1164.98 290.075 1265.67 214.592 1348.32 L 211.919 1350.01 C 209.205 1345.65 212.723 1224.3 213.226 1213.3 C 270.24 1189.12 321.686 1093.72 344.621 1039.69 C 351.388 1039.3 358.326 1039.22 364.815 1037.35 z" fill="#000000" transform="translate(0,0)"></path>
<path d="M 311.189 1495.78 L 312.276 1496.31 C 312.794 1501.27 310.577 1516.9 309.932 1523.04 L 304.548 1576.32 L 290.549 1727.89 C 288.516 1749.33 285.514 1771.51 283.702 1792.62 C 266.775 1783.79 256.481 1781.94 237.926 1783.97 L 226.126 1784.13 C 227.916 1776.67 229.396 1769.11 230.702 1761.55 C 242.684 1692.22 252.542 1622.63 262.199 1552.96 C 263.642 1542.54 265.363 1532.26 266.304 1521.78 C 283.887 1515.99 296.857 1506.87 311.189 1495.78 z" fill="#000000" transform="translate(0,0)"></path>
<path d="M 379.851 654.209 C 387.781 666.078 382.892 681.363 384.999 694.599 C 385.809 699.687 391.585 709.517 390.609 714.143 C 388.925 714.827 387.045 715.459 385.565 716.528 C 381.813 719.238 382.4 736.388 381.423 741.63 C 375.889 771.323 363.19 760.41 355.658 766.532 C 348.326 772.491 365.357 788.646 367.259 794.954 C 371.638 809.469 365.977 831.647 364.603 846.743 C 350.972 837.126 325.829 824.27 309.574 813.838 C 298.946 806.929 287.901 798.473 277.618 790.904 C 296.985 772.9 294.237 763.074 301.596 742.516 L 301.959 741.517 C 310.266 736.88 311.382 735.665 316.198 727.664 C 315.325 726.67 314.473 725.658 313.642 724.629 C 308.126 717.871 295.578 703.727 306.596 696.438 C 316.034 695.948 309.868 704.183 318.622 708.987 C 324.098 707.851 329.545 688.755 333.76 683.036 C 348.806 662.624 359.928 662.281 379.851 654.209 z" fill="#000000" transform="translate(0,0)"></path>
<path d="M 328.681 1043.26 L 330.674 1043.35 C 330.663 1043.61 330.683 1044.84 330.6 1045.04 C 307.642 1098.2 275.001 1152.52 230.766 1190.54 C 222.964 1197.25 209.974 1205.45 202.843 1204.69 C 195.287 1195.29 199.183 1161.38 199.712 1147.93 C 237.684 1139.35 269.697 1102.04 293.995 1073.36 C 307.162 1057.81 306.591 1047.3 328.681 1043.26 z" fill="#000000" transform="translate(0,0)"></path>
<path d="M 292.878 1052.22 L 295.402 1052.07 C 294.353 1056.33 265.582 1089.67 259.615 1095.42 C 246.521 1108.05 217.474 1135.03 198.44 1136.94 C 195.703 1137.21 193.553 1134.88 191.796 1133.02 C 180.124 1114.61 185.596 1087.61 192.064 1068.07 C 220.274 1070.62 265.074 1059.34 292.878 1052.22 z" fill="#000000" transform="translate(0,0)"></path>
<path d="M 384.303 822.763 C 384.488 822.988 384.691 823.198 384.858 823.436 C 392.109 833.805 379.971 908.178 377.056 923.753 C 374.505 937.384 370.433 951.063 368.638 964.78 L 368.527 965.685 C 356.996 974.613 350.649 981.032 342.715 993.131 C 328.583 994.622 305.756 992.582 291.772 990.687 C 289.31 990.725 290.03 990.708 287.565 989.955 L 287.394 988.414 C 289.228 985.727 306.966 972.726 311.827 968.075 C 352.214 929.43 382.734 879.812 384.303 822.763 z" fill="#000000" transform="translate(0,0)"></path>
<path d="M 393.149 798.807 C 396.575 800.237 400.657 804.006 402.604 807.098 C 426.032 844.315 414.235 915.059 407.894 955.823 C 401.617 956.262 398.092 956.747 391.896 957.928 C 388.101 959.068 383.142 961.085 379.315 962.526 C 383.53 952.128 385.774 938.009 387.786 926.726 C 394.706 887.915 403.058 837.233 393.149 798.807 z" fill="#000000" transform="translate(0,0)"></path>
<path d="M 425.241 850.719 C 434.118 857.992 454.695 959.628 451.555 973.355 C 448.865 971.331 446.856 971.255 443.56 971.216 L 444.646 966.218 C 435.523 960.248 425.329 966.211 416.636 970.155 C 423.447 928.676 429.199 892.989 425.241 850.719 z" fill="#000000" transform="translate(0,0)"></path>
<path d="M 409.836 988.456 C 412.928 987.485 419.396 985 422.199 985.498 C 418.346 988.369 413.242 989.197 408.553 989.963 L 409.836 988.456 z" fill="#7a756e" transform="translate(0,0)"></path>
<path d="M 446.682 884.292 C 444.256 877.483 442.821 872.946 441.114 865.935 C 444.122 872.014 445.775 876.123 448.143 882.507 L 446.682 884.292 z" fill="#7a756e" transform="translate(0,0)"></path>
<path d="M 250.276 258.817 L 255.007 258.722 C 259.585 261.586 260.136 265.825 259.721 270.986 C 258.704 282.356 253.332 292.893 244.728 300.396 C 237.785 298.979 236.812 287.407 235.536 281.274 C 238.866 270.959 241.155 264.805 250.276 258.817 z" fill="#cdc4ba" transform="translate(0,0)"></path>
<metadata><recraft-signature>{"signed_by": "recraft", "signature_b64": "8nE0kfxBDxJQAC2uBfppaTEGV05ZEOVyHfsr2r4yBcZlJ5H/h250XZ36BXQuPufEjqXMZqGzH8khPqyutdU4DQ==", "signing_algo": "Ed25519", "generation_timestamp": 1784271255, "identifier": "fe7acb97-a0e9-4fbd-819b-35be7bc28b22"}</recraft-signature></metadata></svg>