<svg xmlns="http://www.w3.org/2000/svg" height="1365" preserveAspectRatio="none" style="display: block;" version="1.1" viewBox="0 0 1536 2048" width="1024">
<path d="M 0 0 L 1536 0 L 1536 2048 L 0 2048 L 0 0 z" fill="#000000" transform="translate(0,0)"></path>
<path d="M 442.621 53.0929 L 443.666 52.9806 C 460.936 51.2495 459.091 62.2871 459.257 75.3843 C 478.619 72.398 484.149 83.6028 475.814 99.9009 C 482.206 107.942 490.847 126.467 483.412 135.898 C 469.676 153.322 484.045 165.219 459.484 177.362 C 462.978 197.07 468.66 214.429 474.128 233.59 C 493.71 302.206 516.956 369.791 538.714 437.746 C 541.457 446.313 544.452 455.42 547.66 463.808 C 583.023 481.808 616.26 494.027 652.109 509.93 C 657.77 505.574 669.163 497.827 673.642 492.922 C 711.303 451.683 657.062 448.134 659.374 410.972 C 660.466 393.421 664.49 390.542 671.848 376.324 C 676.446 367.44 672.323 365.357 682.319 355.996 C 675.233 329.979 671.344 308.569 680.536 281.971 C 688.537 258.819 705.182 237.93 727.487 227.224 C 737.164 222.689 747.466 219.631 758.05 218.153 C 765.88 217.075 773.915 219.435 780.686 219.207 C 797.821 218.63 808.877 215.54 825.918 221.518 C 850.213 229.897 870.009 247.875 880.682 271.254 C 894.06 299.914 891.637 325.801 881.21 354.544 C 889.3 363.74 889.797 367.044 892.495 379.118 C 919.159 404.576 897.767 431.753 882.034 453.718 C 870.341 470.043 907.418 502.375 911.561 518.654 C 915.708 534.954 915.438 541.54 907.872 557.49 C 922.008 560.329 937.238 562.633 948.675 572.127 C 984.631 601.971 1021.72 729.471 1034.97 775.348 C 1042.13 800.153 1047.88 827.256 1057.85 851.016 C 1068.38 876.096 1099.3 916.456 1115.73 938.992 C 1117.33 824.219 1119.57 709.455 1122.42 594.705 L 1124.9 453.987 C 1125.61 412.86 1124.34 374.422 1134 334.275 C 1136.09 325.585 1136.71 304.453 1145.41 300.997 L 1147.63 301.972 C 1152.21 307.425 1161.77 364.733 1162.6 375.382 C 1164.24 396.441 1164 417.951 1164.51 439.087 L 1167.41 548.093 L 1176.64 869.097 L 1178.61 942.292 C 1178.9 956.09 1178.88 970.435 1179.93 984.264 C 1180.59 992.885 1187.08 992.33 1187.95 997.783 C 1189.1 1005 1187.92 1009.1 1183.98 1014.82 C 1189.24 1021.46 1192.69 1026.16 1195.78 1034.06 C 1206.36 1061.05 1192.94 1091.73 1166.08 1101.98 C 1165.75 1111.86 1163.41 1148.26 1166.81 1155.52 C 1171.19 1164.88 1255.73 1136.74 1265.55 1142.26 C 1269.4 1144.43 1272.52 1149.99 1273.49 1154.2 C 1274.18 1157.16 1273.97 1160.49 1272.21 1163.07 C 1270.32 1165.85 1266.95 1167.42 1263.84 1168.4 C 1255.48 1171.04 1245.58 1171.54 1236.87 1173.15 C 1215.89 1177.03 1195.01 1181.33 1173.96 1184.9 C 1174.32 1194.21 1175.12 1200.93 1168.72 1208.74 C 1159.75 1219.71 1141.74 1219.86 1131.48 1210.71 C 1123.21 1203.32 1121.13 1194.32 1120.41 1183.7 C 1109.17 1182.18 1029.42 1169.72 1025.47 1165.76 C 1023.92 1164.22 1023.16 1162.18 1023.15 1160.01 C 1023.13 1155.9 1026.41 1147.64 1029.65 1145.24 C 1034.97 1141.31 1112.1 1156.5 1124.01 1158.53 C 1123.95 1141.01 1125.86 1116.32 1122.26 1098.96 C 1121.66 1096.92 1113.15 1089.22 1113.06 1088.06 C 1112.25 1077.1 1101.13 1049.02 1103.55 1040.58 C 1084.68 1017.18 1063.25 993.825 1043.51 971.02 C 1028.81 954.036 1010.4 937.577 998.335 918.228 C 977.463 884.742 962.928 844.922 946.661 808.925 C 944.776 839.809 936.656 851.995 905.818 856.418 C 909.946 900.93 921.108 924.069 934.385 966.168 C 941.414 988.459 947.829 1013.48 953.856 1036.25 C 966.802 1090.57 979.02 1148.08 986.335 1203.43 C 992.653 1251.25 992.918 1301.35 996.567 1349.41 C 1001.05 1403.77 1006.28 1458.07 1012.27 1512.29 C 1016.31 1552.52 1019.56 1594.79 1024.53 1634.67 C 1046.23 1613.23 1077.38 1580.79 1110.02 1596.72 C 1174.59 1628.23 1225.4 1676.99 1223.63 1753.67 C 1222.39 1807.2 1210.38 1836.72 1175.54 1875.67 C 1196.04 1883.18 1218.87 1902.06 1217.6 1924.21 C 1215.62 1958.66 1125 1964.87 1102.76 1967.26 C 1028.67 1975.22 954.404 1975.79 880.475 1977.05 C 868.345 1995.33 859.148 1990.55 840.152 1985.29 C 832.618 1983.2 822.126 1977.61 814.596 1977.24 C 800.33 1976.55 784.96 1976.8 770.715 1976.79 C 740.798 1976.92 710.881 1976.83 680.966 1976.53 C 615.041 1975.37 406.065 1976.36 365.318 1931.71 C 362.721 1928.87 360.764 1925.41 361 1921.46 C 361.345 1915.67 365.241 1913.13 369.343 1909.72 C 372.777 1892.64 380.358 1876.67 391.421 1863.21 C 417.914 1830.4 463.199 1812.36 503.227 1804.58 C 515.686 1802.16 526.875 1798.97 539.699 1797.55 C 546.403 1749.18 551.333 1700.29 557.388 1651.74 C 571.13 1541.56 587.026 1430.4 593.405 1319.51 C 600.171 1201.87 611.613 1083.38 638.466 968.478 C 647.371 930.375 666.206 892.245 668.382 853.679 C 653.818 852.569 645.084 846.48 637.451 835.586 C 616.036 805.025 633.547 784.036 641.858 754.663 C 644.023 747.012 642.502 724.348 644.548 712.468 C 622.278 678.062 625.213 658.547 640.405 621.811 C 627.747 598.92 609.917 599.137 586.327 586.527 C 590.373 602.312 597.263 622.546 602.725 637.988 C 608.311 640.49 618.36 643.476 619.047 650.272 C 619.894 658.657 614.335 667.233 610.228 674.499 C 600.695 691.364 580.763 692.789 563.884 697.242 C 489.065 710.067 402.728 708.799 328.033 695.208 C 313.269 692.141 297.076 688.822 284.179 680.856 C 276.154 675.9 259.458 655.378 267.437 646.564 C 276.375 636.689 301.046 634.162 313.906 632.259 C 321.607 605.315 327.241 579.157 333.828 552.092 L 370.326 403.582 L 391.708 321.117 C 394.951 308.876 402.103 284.894 403.369 273.038 C 404.05 259.675 403.195 245.351 402.917 232.055 C 402.32 203.607 401.778 175.687 397.555 147.578 C 395.149 131.568 404.986 105.938 415.215 93.9935 C 421.131 87.0862 428.015 85.2949 437.008 84.825 C 437.642 73.5468 434.06 61.4605 442.621 53.0929 z" fill="#cdc4ba" transform="translate(0,0)"></path>
<path d="M 673.126 895.586 C 725.925 913.531 846.888 911.562 902.198 900.712 C 909.948 931.069 922.19 960.964 930.443 991.257 C 946.573 1050.47 960.197 1112.69 970.729 1173.15 C 981.452 1234.7 980.663 1298.5 985.81 1360.43 C 990.165 1412.82 996.049 1466.14 1001.76 1518.42 C 1006.4 1560.88 1009.15 1603.98 1013.97 1646.14 C 1001.62 1660.91 978.478 1687.62 996.056 1708.73 C 1002.68 1716.69 1013.91 1718.17 1023.84 1718.62 C 1024.9 1725.15 1025.1 1731.94 1025.91 1738.51 C 1029.97 1771.34 1031.63 1805.94 1037.35 1838.41 C 1022.24 1845.84 996.505 1852.89 980.443 1857.27 C 968.874 1768.64 955.6 1680.69 948.777 1591.47 C 948.53 1588.23 947.092 1587.19 945.017 1585.22 C 941.745 1584.45 943.184 1584.17 940.515 1585.82 C 935.756 1593.8 940.046 1619.9 941.006 1629.56 C 942.759 1649.16 944.834 1668.74 947.227 1688.28 C 954.002 1745.74 961.403 1803.12 969.429 1860.42 C 958.03 1862.84 947.898 1865.04 936.366 1866.57 C 933.799 1855.9 932.178 1832.05 931.099 1820.18 L 923.345 1729.76 C 915.184 1633.62 904.43 1533.63 902.068 1437.29 C 906.494 1460.51 909.071 1484.12 913.586 1507.31 C 914.422 1511.61 915.245 1513.25 918.609 1515.36 C 921.377 1515.31 921.864 1514.59 924.04 1512.87 C 925.177 1510.34 924.635 1506.83 924.157 1504.03 C 914.053 1444.66 906.19 1385.04 897.018 1325.54 C 896.58 1322.7 895.827 1321.46 893.635 1319.74 C 889.52 1318.97 891.234 1318.92 886.927 1320.39 C 882.132 1334.51 880.223 1376.49 878.359 1392.58 C 866.302 1496.6 852 1600.28 837.659 1704.02 C 830.253 1757.58 823.36 1812.02 814.395 1865.34 C 800.383 1850.97 790.07 1841.23 774.63 1828.45 C 776.906 1816.46 780.507 1803.51 783.283 1791.48 L 801.221 1712.17 C 815.881 1646.57 829.503 1580.74 842.082 1514.72 C 847.249 1488.78 852.243 1462.65 857.644 1436.74 C 858.898 1430.73 862.089 1418.34 857.474 1413.63 C 854.457 1413 854.555 1413.16 851.585 1414.34 C 847.466 1419.04 841.662 1457.3 840.128 1465.78 C 824.816 1547.64 807.958 1629.2 789.563 1710.42 C 782.63 1741.9 773.069 1792.46 764.086 1821.91 C 743.585 1806.94 732.27 1802.41 708.901 1792.5 C 715.333 1753.33 725.521 1710.04 732.907 1670.44 C 752.725 1566.84 770.379 1462.83 785.858 1358.49 C 789.593 1333.24 793.178 1307.96 796.614 1282.67 C 797.89 1272.75 799.502 1262.32 799.758 1252.36 C 799.824 1249.82 796.653 1246.88 793.611 1247.26 C 786.653 1253.15 785.278 1280.89 784.117 1290.42 C 782.137 1306.76 779.84 1323.06 777.227 1339.31 C 754.854 1486.08 728.916 1645.37 697.61 1790.63 C 669.683 1784.28 650.782 1783.85 622.004 1784.96 C 630.806 1746.42 638.039 1702.86 645.134 1663.69 C 661.542 1573.58 675.608 1483.06 687.318 1392.23 C 690.423 1367.12 693.391 1342 696.223 1316.87 C 697.356 1307.16 703.397 1278.54 696.872 1272.17 L 694.032 1272.28 C 687.358 1276.35 688.624 1285.2 687.459 1294.79 C 682.575 1337.49 677.38 1380.15 671.873 1422.77 C 661.248 1501.76 648.76 1580.49 634.418 1658.89 C 629.313 1687.89 623.926 1716.84 618.257 1745.74 C 615.782 1758.21 612.952 1774.66 609.574 1786.7 C 590.494 1788.72 571.497 1791.46 552.626 1794.93 C 553.566 1765.17 560.992 1718.2 564.409 1687.41 C 572.415 1615.28 583.279 1542.82 591.431 1470.65 C 596.254 1427.22 600.276 1383.7 603.495 1340.12 C 605.899 1304.25 607.124 1267.48 610.118 1231.78 C 613.403 1192.61 619.317 1152.22 623.967 1113.15 C 633.202 1035.56 646.108 968.964 673.126 895.586 z" fill="#000000" transform="translate(0,0)"></path>
<path d="M 870.671 559.876 L 881.803 563.538 C 899.964 604.67 908.125 652.445 928.481 693.254 C 929.961 696.221 935.311 710.744 935.208 713.658 C 934.244 740.93 921.025 768.082 909.932 792.594 C 890.992 828.163 891.405 828.243 896.311 867.195 C 848.755 876.201 774.533 876.111 726.087 871.304 C 710.044 869.77 695.725 866.943 679.883 864.642 C 680.064 855.206 681.4 829.906 678.891 822.339 C 665.591 782.223 644.613 758.278 656.629 711.993 C 663.707 707.629 679.438 701.418 687.445 698.137 C 703.652 691.657 719.756 684.923 735.752 677.938 C 808.926 645.674 820.822 613.955 870.671 559.876 z" fill="#000000" transform="translate(0,0)"></path>
<path d="M 846.449 623.287 C 849.338 623.952 849.431 624.197 851.667 626.307 C 854.565 633.483 840.157 663.156 836.69 671.479 C 812.462 729.642 768.027 817.537 710.018 847.145 C 706.603 847.036 705.143 845.686 703.819 842.848 C 704.047 840.483 705.221 838.034 707.176 836.713 C 724.407 825.067 737.65 814.317 751.25 798.227 C 780.744 763.332 801.877 722.643 820.874 681.342 C 828.732 664.26 836.264 638.507 846.449 623.287 z" fill="#cdc4ba" transform="translate(0,0)"></path>
<path d="M 825.311 631.398 C 828.036 631.856 828.072 632.16 830.169 633.876 C 831.094 635.983 831.859 638.137 830.722 640.345 C 803.258 693.71 752.628 763.709 696.604 788.785 C 693.537 786.927 693.045 786.866 691.449 783.832 C 691.681 781.995 691.696 780.084 693.44 779.093 C 741.04 752.062 775.303 710.805 804.184 665.118 C 809.246 657.11 819.253 636.762 825.311 631.398 z" fill="#cdc4ba" transform="translate(0,0)"></path>
<path d="M 865.761 623.278 C 869.859 624.663 870.22 624.583 871.95 627.702 C 872.54 647.7 843.028 779.288 834.037 790.113 C 829.692 788.653 829.178 789.002 827.104 785.836 C 827.563 773.408 841.197 730.24 845.173 715.792 C 849.158 701.314 860.535 629.508 865.761 623.278 z" fill="#cdc4ba" transform="translate(0,0)"></path>
<path d="M 884.852 600.351 C 886.745 601.098 887.816 601.807 889.566 602.811 C 891.073 605.202 891.346 607.378 891.689 610.134 C 894.23 630.522 898.408 745.918 887.492 760.137 C 884.217 759.105 884.016 758.872 881.189 756.813 C 878.126 751.638 884.208 699.285 883.834 687.127 C 883.116 663.744 883.327 639.322 880.79 615.656 C 880.163 609.812 880.785 604.712 884.852 600.351 z" fill="#cdc4ba" transform="translate(0,0)"></path>
<path d="M 823.922 804.652 C 828.305 804.828 829.964 805.129 832.599 808.572 C 833.092 816.259 816.359 856.863 811.513 864.017 C 808.098 863.858 805.99 862.962 803.855 860.372 C 802.584 856.368 820.906 812.624 823.922 804.652 z" fill="#cdc4ba" transform="translate(0,0)"></path>
<path d="M 552.222 479.242 C 559.1 481.403 572.025 487.78 579.541 490.926 C 622.533 508.778 665.81 534.448 712.844 539.503 C 744.04 542.855 741.711 505.429 742.019 485.462 C 768.696 501.515 788.14 503.313 816.115 489.768 C 816.114 507.501 815.374 519.253 828.233 533.074 C 837.824 543.383 847.634 548.855 860.171 554.824 C 847.793 568.522 835.078 584.799 822.571 599.101 C 770.745 661.739 726.52 666.452 658.218 698.614 C 661.151 675.366 658.392 647.172 652.334 624.392 C 643.546 591.351 611.528 587.571 581.537 571.819 C 578.543 560.357 573.202 546.521 569.433 534.961 C 563.568 516.428 557.831 497.854 552.222 479.242 z" fill="#000000" transform="translate(0,0)"></path>
<path d="M 896.298 566.262 C 946.348 574.069 953.354 587.116 973.524 632.37 C 990.498 671.347 1004.93 711.382 1016.73 752.224 L 1034.9 813.91 C 1038.29 825.254 1044.24 847.294 1049.06 857.216 C 1065.31 890.659 1092.72 925.83 1115.39 955.21 C 1115.66 974.971 1115.6 992.783 1112.12 1012.3 C 1110.46 1021.62 1114.57 1017.98 1107.1 1026.54 C 1103.81 1025.1 1093.37 1012.23 1090.7 1008.82 C 1068.08 979.989 1039.71 953.917 1017.06 925.536 C 994.111 896.778 980.924 858.266 965.887 825.005 C 955.867 802.844 945.958 779.687 937.584 756.761 C 953.573 704.297 945.506 709.468 926.704 660.153 C 920.286 643.319 898.198 582.101 896.298 566.262 z" fill="#000000" transform="translate(0,0)"></path>
<path d="M 404.31 317.664 C 406.283 324.249 406.497 347.18 407.008 355.627 C 408.957 387.879 408.73 421.255 414.894 453.06 C 418.693 472.663 424.43 481.013 440.756 491.79 L 441.351 623.218 C 414.247 623.118 387.149 624.114 360.125 626.202 C 348.889 627.4 337.363 629.032 326.13 630.491 C 342.796 565.001 358.993 499.393 374.718 433.672 C 383.02 399.311 394.018 350.633 404.31 317.664 z" fill="#000000" transform="translate(0,0)"></path>
<path d="M 1144.53 342.805 C 1152.53 349.898 1152.6 431.118 1153 445.956 L 1157.6 619.921 L 1166.07 902.482 C 1166.93 935.255 1168.77 969.877 1169.05 1002.32 C 1159.4 999.539 1155.01 997.992 1145.36 1000.57 C 1140.06 1002.77 1130.95 1008.28 1125.66 1011.29 C 1124.71 963.119 1127.35 908.485 1128.35 860.013 L 1134.09 590.701 L 1137.12 466.04 C 1137.62 437.931 1137.58 409.475 1138.62 381.404 C 1139.06 369.42 1142.3 354.797 1144.53 342.805 z" fill="#000000" transform="translate(0,0)"></path>
<path d="M 451.1 215.696 C 453.895 221.591 458.162 236.659 460.408 243.469 C 474.16 285.173 484.049 327.949 491.141 371.282 C 495.354 397.03 500.426 426.106 500.094 452.225 C 510.458 459.377 526.716 467.704 538.205 472.612 C 544.387 499.684 560.44 536.871 568.33 565.281 C 532.593 550.178 482.039 511.317 451.426 485.237 C 450.798 430.469 451.739 374.948 451.281 319.99 C 451.016 288.203 449.791 246.869 451.1 215.696 z" fill="#000000" transform="translate(0,0)"></path>
<path d="M 688.99 364.542 C 697.455 369.655 690.188 391.237 713.921 391.692 C 726.038 391.924 741.092 391.797 753.404 391.652 C 770.127 391.557 786.85 391.586 803.573 391.741 C 818.898 391.768 835.86 392.06 851.171 392.26 C 864.944 392.441 868.273 374.298 875.049 365.356 L 876.619 365.152 C 885.81 375.997 876.809 409.084 865.015 411.364 C 864.177 411.069 862.985 410.795 862.221 410.421 C 853.498 406.15 850.15 426.42 848.349 432.663 C 820.084 503.326 748.919 508.332 717.62 435.691 C 714.188 427.726 712.413 418.159 707.955 410.74 C 704.892 405.644 700.566 413.157 695.325 412.361 C 683.125 401.065 678.124 378.166 688.99 364.542 z" fill="#000000" transform="translate(0,0)"></path>
<path d="M 771.17 436.864 C 777.409 437.844 790.548 435.511 792.505 441.745 C 791.542 445.178 790.113 445.829 787.215 448.254 L 780.477 453.243 C 773.637 448.804 766.049 445.343 771.17 436.864 z" fill="#cdc4ba" transform="translate(0,0)"></path>
<path d="M 451.997 500.387 C 456.915 502.894 469.691 514.026 474.601 518.079 C 505.592 543.658 536.505 562.718 572.417 580.663 C 577.551 598.669 583.425 616.404 588.893 634.316 C 543.567 626.695 498.441 624.35 452.597 623.638 C 450.957 585.402 451.848 539.097 451.997 500.387 z" fill="#000000" transform="translate(0,0)"></path>
<path d="M 1084.74 1705.41 C 1117.78 1705.73 1127.38 1745.77 1118.82 1771.67 C 1109.84 1798.83 1090.1 1811.9 1066.56 1824.97 L 1047.93 1834.84 C 1043.73 1794.66 1038.75 1757 1035.16 1716.44 C 1051.54 1712.08 1067.88 1707.19 1084.74 1705.41 z" fill="#000000" transform="translate(0,0)"></path>
<path d="M 1079.85 1686.36 C 1096.99 1684.74 1110.12 1686.28 1124.68 1696.37 C 1135.11 1703.59 1154.53 1725.19 1155.36 1738.44 C 1162.15 1846.87 1021.31 1875.7 939.387 1887.81 C 922.141 1890.35 877.423 1898.56 864.953 1889.86 L 865.701 1888.56 C 875.093 1884.59 907.219 1881.93 918.782 1880.65 C 979.951 1872.28 1051.16 1854.77 1101.13 1816.29 C 1133.29 1787.57 1146.26 1746.22 1118.63 1710.24 C 1086.96 1669 1025.87 1726 1003.13 1699.98 L 1003.48 1698.95 C 1038.77 1699.2 1048.12 1690.61 1079.85 1686.36 z" fill="#000000" transform="translate(0,0)"></path>
<path d="M 628.393 1847.5 C 729.129 1837.18 757.83 1936.19 841.451 1965.86 C 849.52 1968.72 858.423 1970.71 866.248 1973.97 C 866.873 1976.66 866.909 1975.28 865.534 1978.18 C 858.483 1981.78 845.51 1976.47 838.15 1974.21 C 799.667 1962.38 770.102 1939.45 740.686 1912.9 C 710.246 1884.99 678.397 1861.22 635.102 1862.7 C 584.426 1864.43 536.704 1888.33 487.77 1898.77 C 480.738 1896.02 476.211 1894.05 469.514 1890.59 L 470.152 1890.29 C 470.507 1890.13 470.867 1889.98 471.221 1889.82 C 492.874 1879.8 604.588 1849.32 628.393 1847.5 z" fill="#000000" transform="translate(0,0)"></path>
<path d="M 438.605 191.69 C 440.541 200.022 439.983 226.34 439.975 236.408 L 439.928 310.113 L 440.635 420 C 440.706 438.615 441.219 460.066 440.242 478.468 C 435.753 473.995 433.954 472.399 430.798 466.949 C 427.463 458.823 424.259 444.362 423.337 435.343 C 419.415 396.982 417.564 356.979 416.459 318.438 C 416.203 309.515 415.17 281.848 416.676 274.467 C 422.222 247.274 431.795 218.699 438.605 191.69 z" fill="#000000" transform="translate(0,0)"></path>
<path d="M 780.423 268.602 C 783.629 271.598 792.003 288.171 797.627 294.362 C 813.418 311.745 837.62 315.482 851.261 333.178 C 826.996 332.669 802.724 332.586 778.456 332.927 C 754.903 332.78 731.348 332.985 707.801 333.544 C 728.283 305.913 756.595 318.807 780.423 268.602 z" fill="#000000" transform="translate(0,0)"></path>
<path d="M 452.135 634.852 C 495.652 635.572 570.899 637.555 609.347 653.417 C 606.434 654.516 602.78 655.43 599.732 656.283 C 554.66 665.743 498.982 665.15 452.743 665.135 C 452.878 655.358 452.405 644.704 452.135 634.852 z" fill="#000000" transform="translate(0,0)"></path>
<path d="M 393.854 635.433 C 409.059 634.649 425.78 634.798 441.105 634.64 L 441.19 665.088 C 417.713 665.097 394.239 664.646 370.78 663.736 C 353.751 662.526 336.522 661.847 319.269 660.591 L 323.718 641.511 C 344.29 637.673 372.588 636.739 393.854 635.433 z" fill="#000000" transform="translate(0,0)"></path>
<path d="M 1152.42 1010.16 C 1185.88 1008.92 1202.86 1066.35 1174.01 1085.73 C 1167.17 1090.32 1138.05 1102.84 1132.79 1094.81 C 1134.25 1092.58 1173.77 1085.83 1167.21 1071.92 C 1158.78 1069.3 1140.07 1085.41 1123.18 1084.09 C 1119.98 1082.18 1120.97 1083.53 1120.05 1079.96 C 1124.52 1073.3 1159.51 1071.43 1168.81 1058.3 C 1169.34 1054.43 1169.34 1055.83 1167.02 1051.73 C 1157.31 1054.22 1127.56 1069.22 1119.56 1066.82 C 1117.56 1063.74 1117.32 1064.5 1117.74 1061.76 C 1122.68 1058.51 1136.42 1057.94 1142.54 1054.84 C 1151.24 1050.41 1161.53 1049.93 1168.71 1042.62 C 1170.03 1039.01 1170.01 1040.75 1169 1037.23 C 1159.63 1030.98 1131.31 1051.88 1116.81 1050.47 C 1114.28 1048.76 1114.84 1049.86 1114.18 1047.55 C 1122.37 1041.91 1146.91 1038.67 1148.72 1029.73 L 1147.65 1028.26 C 1139.27 1024.37 1123.2 1033.6 1110.18 1036.32 C 1118.98 1027.31 1140.6 1014.37 1152.42 1010.16 z" fill="#000000" transform="translate(0,0)"></path>
<path d="M 436.588 95.2414 C 452.004 96.8453 462.067 102.823 472.578 113.709 C 464.45 113.134 440.473 106.813 435.628 110.289 L 435.496 112.397 C 442.415 124.473 461.715 122.227 475.709 126.435 L 476.196 127.835 C 469.595 137.099 440.417 127.59 434.568 128.744 C 432.223 131.889 432.849 130.171 432.617 134.083 C 438.54 144.162 460.21 138.113 467.503 144.401 L 467.112 146.146 C 459.901 150.615 454.829 149.322 446.361 148.895 C 441.943 148.197 436.269 146.957 432.115 147.991 C 429.333 150.68 430.229 149.134 429.16 152.704 C 434.097 160.932 456.789 155.793 463.624 162.239 L 462.91 164.529 C 455.711 170.368 444.322 163.496 436.459 166.829 L 435.966 168.802 C 439.434 176.099 445.138 172.528 448.979 177.443 C 448.161 180.325 448.941 179.098 446.205 180.99 C 430.408 180.711 409.505 170.991 407.519 153.299 C 405.466 135.002 415.14 98.513 436.588 95.2414 z" fill="#000000" transform="translate(0,0)"></path>
<path d="M 677.474 874.981 C 738.426 890.161 836.341 887.425 898.361 878.456 C 898.961 882.435 900.315 887.291 898.764 890.347 C 884.943 892.815 869.444 894.57 855.494 895.805 C 802.951 900.291 750.061 898.515 697.938 890.512 C 692.911 889.756 679.388 888.254 676.083 885.491 C 675.439 881.947 676.622 878.582 677.474 874.981 z" fill="#000000" transform="translate(0,0)"></path>
<path d="M 1196.75 1781.59 C 1204.47 1782.88 1204.64 1784.83 1208.67 1791.19 C 1204.55 1810.08 1197.67 1828.85 1186.27 1844.72 C 1175.28 1860.01 1154.87 1882.31 1137.07 1888.94 C 1131.5 1891.01 1116.48 1893.52 1110.25 1894.66 L 1098.53 1896.65 C 1133.17 1870.22 1166.7 1853.03 1183.75 1811.26 C 1186.82 1803.76 1191.47 1786.07 1196.75 1781.59 z" fill="#000000" transform="translate(0,0)"></path>
<path d="M 657.141 1795.23 C 687.639 1795.31 703.861 1801.05 730.226 1813.14 C 788.554 1839.89 821.881 1892.4 860.263 1940.96 C 863.296 1944.8 871.055 1956.61 870.246 1961.47 C 856.328 1950.54 838.173 1928.23 827.488 1914.13 C 801.324 1879.59 776.281 1846.72 737.428 1825.64 C 720.599 1816.51 706.49 1810.89 687.481 1806.86 C 678.769 1805.02 665.017 1804.59 657.547 1800.87 C 655.883 1798.2 656.324 1799.27 657.141 1795.23 z" fill="#000000" transform="translate(0,0)"></path>
<path d="M 1076.19 1622.24 C 1084.75 1621.74 1090.02 1622.03 1097.1 1627.67 C 1102.47 1631.94 1105.83 1638.24 1106.4 1645.08 C 1108.74 1672.44 1076.45 1674.9 1058.09 1679.15 C 1036.42 1684.16 1022.19 1689.23 999.436 1690.14 C 1005.27 1671.41 1022.62 1653.66 1035.74 1638.86 C 1033.98 1643.97 1033.35 1646.46 1032.29 1651.77 C 1034.08 1672.45 1048.92 1684.42 1066.03 1667.6 C 1086.5 1670.57 1104.31 1661.91 1094.45 1636.85 C 1088.16 1626.06 1075.66 1624.73 1066.34 1631.38 C 1054.96 1639.51 1064.35 1655.01 1054.19 1661.69 C 1042.79 1663.08 1041.5 1652.49 1045.92 1644.59 C 1051.93 1633.86 1064.72 1626.05 1076.19 1622.24 z" fill="#000000" transform="translate(0,0)"></path>
<path d="M 1166.16 1885.89 C 1179.65 1888.66 1187.08 1893.17 1196.84 1902.66 C 1177.27 1909.52 1157.67 1913.16 1137.13 1915.33 C 1133.35 1915.84 1129.35 1916.52 1125.58 1916.92 C 1114.36 1918.14 1112.87 1916.67 1109.25 1907.4 C 1137.1 1899.86 1141.01 1903.71 1166.16 1885.89 z" fill="#000000" transform="translate(0,0)"></path>
<path d="M 1138.97 1628.62 C 1150.73 1632.87 1170.49 1651.83 1178.78 1661.39 C 1186.24 1669.99 1205.59 1698.07 1204.73 1708.4 C 1200.73 1709.81 1197.26 1710.66 1193.2 1709.4 C 1185.94 1703.75 1176.54 1681.2 1169.48 1671.87 C 1158.54 1657.43 1143.8 1646.06 1138.97 1628.62 z" fill="#000000" transform="translate(0,0)"></path>
<path d="M 1256.59 1153.32 L 1259.02 1153.1 C 1261.37 1154.09 1261.17 1154.13 1262.55 1156.34 L 1261.26 1157.74 C 1248.8 1161 1227.32 1164.36 1214.43 1166.43 C 1192.72 1169.92 1155.33 1178.31 1133.55 1175.6 C 1105.16 1172.06 1072.06 1164.81 1043.19 1159.68 C 1040.99 1159.25 1039.44 1158.86 1037.28 1158.27 L 1036.4 1156.36 C 1036.85 1155.79 1037.3 1155.23 1037.74 1154.67 C 1060.74 1157.4 1089.56 1164.54 1111.96 1167.5 C 1125.47 1169.29 1131.71 1168.86 1142.33 1168.58 C 1152.43 1168.31 1168.36 1168.95 1176.22 1167.67 C 1203.2 1163.26 1229.75 1157.78 1256.59 1153.32 z" fill="#000000" transform="translate(0,0)"></path>
<path d="M 501.214 362.813 C 506.433 370.158 529.306 443.338 533.499 457.301 C 526.082 454.12 519.356 450.71 512.156 447.098 C 510.567 439.998 509.248 424.594 508.351 416.872 C 506.298 398.811 503.919 380.788 501.214 362.813 z" fill="#000000" transform="translate(0,0)"></path>
<path d="M 566.671 1803.39 C 570.476 1802.87 571.595 1803.3 573.698 1806.57 C 571.152 1819.72 529.691 1824.75 517.994 1825.83 C 513.766 1825 507.379 1823.51 508.963 1818.17 C 516.082 1810.49 555.146 1804.82 566.671 1803.39 z" fill="#000000" transform="translate(0,0)"></path>
<path d="M 470.621 1914.17 C 482.754 1914.05 496.83 1916.6 509.096 1917.25 C 514.062 1917.52 528.317 1919.06 527.265 1925.94 C 525.239 1928.22 524.412 1928.35 521.539 1929.64 C 520.803 1929.77 520.066 1929.89 519.327 1930 C 508.934 1931.57 465.699 1934.64 465.268 1920.16 C 466.92 1916.59 467.29 1916.53 470.621 1914.17 z" fill="#000000" transform="translate(0,0)"></path>
<path d="M 1202.76 1716.77 C 1207.2 1719.44 1207.88 1719.72 1209.45 1724.74 C 1212.08 1733.12 1213.7 1770.38 1210.12 1776.36 L 1208.21 1776.08 C 1190.69 1765.82 1197.01 1754.19 1195.92 1736.72 C 1195.61 1731.75 1195.07 1726.69 1194.43 1721.75 L 1202.76 1716.77 z" fill="#000000" transform="translate(0,0)"></path>
<path d="M 541.883 1919.36 C 551.615 1919.06 615.509 1917.59 619.624 1924.93 C 617.46 1927.87 617.448 1927.1 613.23 1928.56 C 600.973 1929.47 542.242 1935.22 537.672 1923.83 C 538.515 1921.26 539.619 1920.88 541.883 1919.36 z" fill="#000000" transform="translate(0,0)"></path>
<path d="M 585.761 1882.23 C 587.025 1887.74 579.385 1902.23 576.903 1907.02 C 563.342 1906.65 549.786 1906.09 536.24 1905.35 C 535.36 1904.77 535.107 1904.26 534.4 1903.4 C 534.519 1898.04 536.779 1896.39 541.713 1894.67 C 555.855 1889.73 571.317 1886.05 585.761 1882.23 z" fill="#000000" transform="translate(0,0)"></path>
<path d="M 414.338 1893.83 C 421.532 1893.93 422.137 1896.75 428.066 1899.76 C 436.121 1904.14 445.9 1907.19 453.505 1912.28 C 458.698 1915.76 453.64 1922.19 451.118 1924.93 C 438.918 1925.55 397.94 1912.14 414.338 1893.83 z" fill="#000000" transform="translate(0,0)"></path>
<path d="M 427.922 1845.64 C 437.188 1846.91 432.828 1857.82 429.226 1862.23 C 422.051 1871.02 419.411 1886.33 408.884 1890.4 C 383.724 1881.32 417.485 1852.47 427.922 1845.64 z" fill="#000000" transform="translate(0,0)"></path>
<path d="M 495.881 1818.31 C 497.806 1818.99 497.2 1818.84 498.813 1820.46 C 498.954 1822.94 499.36 1824.23 497.259 1826.42 C 490.074 1833.94 455.329 1846.93 446.779 1847.73 C 443.454 1844.88 443.869 1846.01 442.504 1842.35 C 444.392 1830.82 484.93 1820.07 495.881 1818.31 z" fill="#000000" transform="translate(0,0)"></path>
<path d="M 720.471 1914.46 C 726.796 1913.3 731.44 1918.99 735.433 1923.19 C 703.547 1922.43 679.785 1924.16 648.249 1926.76 C 640.922 1927.5 637.007 1928.66 630.748 1924.76 L 631.379 1922.38 L 629.979 1923.82 C 635.876 1918.97 708.334 1914.86 720.471 1914.46 z" fill="#000000" transform="translate(0,0)"></path>
<path d="M 1071.45 1910.58 C 1079.26 1909.97 1096.43 1906.99 1101.35 1913.83 L 1100.5 1916.22 C 1093.21 1922.75 1079.65 1923.04 1070.04 1923.97 C 1062.2 1924.17 1043.43 1925.49 1037.81 1919.55 L 1038.34 1917.61 C 1045.7 1911.36 1061.88 1911.24 1071.45 1910.58 z" fill="#000000" transform="translate(0,0)"></path>
<path d="M 667.597 1877.39 C 676.127 1880.09 704.24 1894.67 709.16 1901.36 C 707.321 1902.32 702.584 1902.21 700.259 1902.29 C 686.945 1903.2 674.76 1904.17 661.56 1906.05 C 663.86 1896.76 665.697 1886.82 667.597 1877.39 z" fill="#000000" transform="translate(0,0)"></path>
<path d="M 651.361 1886.98 L 652.877 1888 C 653.268 1893.99 650.281 1903.13 648.436 1908.86 C 635.815 1911.16 607.099 1909.59 593.751 1909.09 L 592.102 1908.89 L 591.917 1907.83 C 597.901 1904.87 611.948 1901.28 619.239 1898.95 C 630.898 1895.24 640.017 1891.68 651.361 1886.98 z" fill="#000000" transform="translate(0,0)"></path>
<path d="M 990.558 1911.41 C 999.268 1910.69 1022.23 1909.95 1026.84 1918.99 L 1025.65 1921.06 C 1019.8 1924.63 1013.7 1924.89 1007.01 1925.39 C 997.881 1926.1 975.147 1927.06 969.792 1918.19 L 970.509 1916.21 C 976.643 1911.87 983.117 1912.06 990.558 1911.41 z" fill="#000000" transform="translate(0,0)"></path>
<path d="M 919.234 1912.33 C 928.445 1911.34 956.248 1910.07 961.7 1917.67 L 960.806 1920.06 C 957.615 1923.05 954.29 1923.91 950.207 1925.37 C 941.177 1926.43 912.044 1929.11 906.662 1919.98 C 906.652 1916.64 906.285 1918.23 908.185 1915.13 C 911.749 1912.86 914.981 1912.87 919.234 1912.33 z" fill="#000000" transform="translate(0,0)"></path>
<path d="M 633.283 1872.41 C 642.824 1871.53 647.627 1872.08 657.022 1873.81 C 650.279 1877.16 621.562 1886.08 612.244 1889.38 L 594.878 1895.07 C 596.16 1889.33 597.962 1883.21 599.526 1877.49 C 612.046 1874.13 620.611 1873.31 633.283 1872.41 z" fill="#000000" transform="translate(0,0)"></path>
<path d="M 999.711 1947.35 C 1006.55 1946.48 1030.57 1944.85 1032.79 1953.94 C 1029.09 1959.03 1019.32 1958.81 1013.24 1959.42 C 1005.3 1961.14 984.268 1962.3 979.188 1955.08 L 980.013 1953.09 C 985.943 1948.7 992.462 1948.39 999.711 1947.35 z" fill="#000000" transform="translate(0,0)"></path>
<path d="M 930.108 1947.43 C 936.006 1947.15 952.291 1948.88 955.993 1954.02 L 955.563 1956.04 C 949.537 1960.44 939.824 1960.23 932.242 1960.78 C 925.076 1960.95 906.827 1961.37 903.472 1953.95 L 904.627 1951.92 C 911.811 1947.21 921.485 1947.79 930.108 1947.43 z" fill="#000000" transform="translate(0,0)"></path>
<path d="M 654.811 1946.38 C 663.101 1945.7 687.213 1946.4 692.485 1953.89 L 691.758 1955.83 C 687.862 1957.95 682.052 1957.62 677.354 1957.79 C 668.39 1958.05 643.218 1958.78 636.742 1953.77 L 636.785 1951.93 C 642.003 1947.09 647.756 1947.23 654.811 1946.38 z" fill="#000000" transform="translate(0,0)"></path>
<path d="M 1147.89 1186.57 L 1163.41 1185.79 C 1164.3 1200.57 1162.32 1206 1146.55 1206.05 C 1135.2 1203.2 1133.24 1196.76 1130.74 1186.63 C 1136.77 1186.87 1141.85 1186.76 1147.89 1186.57 z" fill="#000000" transform="translate(0,0)"></path>
<path d="M 412.701 178.245 C 418.159 181.181 423.217 183.643 428.821 186.297 C 425.117 198.739 421.697 211.753 418.22 224.297 L 414.491 235.458 C 412.418 221.568 411.452 192.384 412.701 178.245 z" fill="#000000" transform="translate(0,0)"></path>
<path d="M 848.967 1908.83 C 853.308 1908.77 857.649 1908.76 861.99 1908.82 C 869.95 1908.95 889.141 1908.63 894.483 1914.14 C 894.852 1917.26 894.872 1916.13 892.895 1919.39 C 880.673 1924.39 873.147 1923.45 860.154 1922.34 L 848.967 1908.83 z" fill="#000000" transform="translate(0,0)"></path>
<path d="M 1074.51 1945.35 C 1081.75 1944.62 1098.12 1944.11 1103.04 1950.09 L 1102.41 1952.02 C 1096.75 1955.79 1088.63 1955.72 1081.76 1956.25 C 1074.63 1957.07 1058.07 1958.46 1052.98 1952.74 L 1053.97 1950.88 C 1060.72 1946.94 1066.82 1946.34 1074.51 1945.35 z" fill="#000000" transform="translate(0,0)"></path>
<path d="M 632.537 1795.42 C 635.735 1795.02 641.711 1794.47 644.394 1796.13 L 644.433 1797.67 C 640.468 1803.23 630.502 1803.78 624.121 1804.13 C 613.212 1804.74 603.944 1805.67 593.229 1808.27 C 588.613 1809.29 582.952 1810.1 580.655 1804.89 C 584.961 1797.86 623.137 1796.36 632.537 1795.42 z" fill="#000000" transform="translate(0,0)"></path>
<path d="M 746.054 1948.39 C 762.261 1947.81 767 1949.04 780.208 1957.43 C 771.268 1958.33 760.336 1958.09 751.186 1958.13 C 743.632 1958.3 724.617 1959.52 718.27 1956.75 L 718.011 1955.4 C 724.716 1949.67 737.434 1949.18 746.054 1948.39 z" fill="#000000" transform="translate(0,0)"></path>
<path d="M 580.501 1950.33 C 587.092 1949.97 606.873 1949.24 609.988 1956.31 C 606.622 1960.44 595.005 1959.69 589.751 1959.79 C 576.913 1960.09 567.171 1959.27 554.584 1957.58 C 564.474 1953.22 569.792 1951.58 580.501 1950.33 z" fill="#000000" transform="translate(0,0)"></path>
<path d="M 444.2 1945.11 C 448.319 1945.03 456.037 1946.6 460.434 1947.17 C 483.857 1950.25 507.546 1950.22 530.976 1952.97 C 534.116 1953.34 534.671 1955.37 536.148 1957.75 C 521.861 1959.6 457.39 1950.76 444.2 1945.11 z" fill="#000000" transform="translate(0,0)"></path>
<path d="M 1142.65 1941.41 C 1146.97 1941.04 1161.23 1941.1 1163.93 1944.32 C 1159.27 1948.18 1144.75 1949.7 1138.24 1950.67 C 1131.77 1951.42 1124.33 1952.97 1118.33 1950.55 L 1117.74 1949.06 C 1122.55 1942.98 1135.56 1942.11 1142.65 1941.41 z" fill="#000000" transform="translate(0,0)"></path>
<path d="M 307.482 644.25 C 309.621 644.206 308.656 643.935 310.467 645.118 C 310.879 649.346 308.994 654.642 307.838 658.924 C 300.075 657.917 294.749 657.002 287.089 655.329 C 284.134 654.451 280.641 652.904 277.733 651.716 C 287.451 648.497 297.395 646.001 307.482 644.25 z" fill="#000000" transform="translate(0,0)"></path>
<path d="M 668.683 1825.17 C 675.863 1824.81 691.013 1825.59 694.108 1833.47 C 692.743 1837.06 693.556 1835.81 689.747 1838.15 C 683.562 1837.05 663.899 1835.23 662.905 1828.84 C 664.421 1826.39 665.943 1826.2 668.683 1825.17 z" fill="#000000" transform="translate(0,0)"></path>
<path d="M 618.583 1823.23 C 622.731 1823.41 624.515 1823.46 627.277 1826.52 C 628.196 1833.9 613.601 1834.28 607.36 1835.76 C 604.453 1835.87 600.458 1836.59 599.4 1833.37 C 601.909 1827.55 612.869 1824.5 618.583 1823.23 z" fill="#000000" transform="translate(0,0)"></path>
<path d="M 1075.79 1638.85 C 1079.08 1638.94 1081.7 1638.91 1084.16 1641.34 C 1085.66 1642.86 1086.44 1644.96 1086.28 1647.1 C 1085.96 1651.36 1083.33 1653.88 1080.32 1656.45 C 1067.14 1656.72 1067.17 1646.47 1075.79 1638.85 z" fill="#000000" transform="translate(0,0)"></path>
<path d="M 513.807 1851.11 C 517.539 1850.61 518.977 1850.9 521.804 1852.69 L 521.76 1855.18 C 517.631 1861.02 514.725 1861.35 507.97 1863.4 C 504.298 1863.23 502.314 1863.17 499.811 1860.74 L 499.857 1858.6 C 503.9 1853.52 507.738 1852.84 513.807 1851.11 z" fill="#000000" transform="translate(0,0)"></path>
<path d="M 773.385 1890.51 C 784.984 1890.19 788.5 1898.47 787.991 1908.69 C 778.466 1907.23 773.195 1899.96 773.385 1890.51 z" fill="#000000" transform="translate(0,0)"></path>
<path d="M 554.092 1840.16 C 559.159 1839.7 560.643 1839.37 564.252 1842.9 L 564.168 1845.32 C 562.104 1848.57 560.405 1848.88 556.844 1850.43 C 552.35 1851.31 550.496 1851.87 547.363 1848.25 L 547.583 1845.31 C 549.301 1842.13 550.668 1841.89 554.092 1840.16 z" fill="#000000" transform="translate(0,0)"></path>
<path d="M 1139.05 1675.51 C 1142.13 1673.45 1146.3 1674.28 1148.37 1677.36 C 1150.43 1680.44 1149.61 1684.61 1146.54 1686.68 C 1143.46 1688.76 1139.27 1687.94 1137.2 1684.85 C 1135.13 1681.76 1135.96 1677.58 1139.05 1675.51 z" fill="#000000" transform="translate(0,0)"></path>
<path d="M 1171.58 1722.4 C 1173.85 1721.5 1176.44 1721.94 1178.29 1723.55 C 1180.14 1725.15 1180.95 1727.65 1180.38 1730.03 C 1179.82 1732.41 1177.97 1734.28 1175.6 1734.88 C 1172.24 1735.73 1168.8 1733.82 1167.74 1730.52 C 1166.68 1727.23 1168.36 1723.67 1171.58 1722.4 z" fill="#000000" transform="translate(0,0)"></path>
<path d="M 730.174 1845.31 C 739.106 1846.22 743.468 1851.04 742.153 1859.82 C 733.331 1860.04 728.66 1853.85 730.174 1845.31 z" fill="#000000" transform="translate(0,0)"></path>
<path d="M 1116.68 1850.38 C 1118.72 1849.54 1121.05 1849.89 1122.76 1851.28 C 1124.47 1852.68 1125.27 1854.89 1124.86 1857.06 C 1124.45 1859.22 1122.89 1860.99 1120.79 1861.66 C 1117.72 1862.65 1114.42 1861.03 1113.31 1858 C 1112.21 1854.96 1113.69 1851.6 1116.68 1850.38 z" fill="#000000" transform="translate(0,0)"></path>
<path d="M 1078.87 1610.43 C 1090.36 1610.85 1094.24 1612.04 1105.23 1615.85 C 1099.3 1616.29 1093.15 1615.17 1087.24 1614.34 C 1079.68 1613.41 1072.88 1615.01 1067.55 1613.93 L 1068.15 1612.8 C 1072.03 1610.57 1074.48 1610.72 1078.87 1610.43 z" fill="#000000" transform="translate(0,0)"></path>
<path d="M 464.013 82.4851 C 466.217 83.144 466.096 83.3196 467.706 85.0393 C 468.951 88.8485 468.506 90.042 467.971 94.0475 C 464.106 93.0284 463.549 92.6766 461.856 89.1855 C 461.977 85.7377 462.097 85.3532 464.013 82.4851 z" fill="#000000" transform="translate(0,0)"></path>
<metadata><recraft-signature>{"signed_by": "recraft", "signature_b64": "Bply27KEkUkqysCNSKRgk8uGcAHOm8d90l0NzIwqtfWkhMt0d7qRlHgTVrSqZnTV1xTCOhncemlqfV2rEVFNAQ==", "signing_algo": "Ed25519", "generation_timestamp": 1784271255, "identifier": "fb028768-b5e6-40d5-a14c-5a7821441203"}</recraft-signature></metadata></svg>