<svg xmlns="http://www.w3.org/2000/svg" height="1365" preserveAspectRatio="none" style="display: block;" version="1.1" viewBox="0 0 1536 2048" width="1024">
<path d="M 0 0 L 1536 0 L 1536 2048 L 0 2048 L 0 0 z" fill="#000000" transform="translate(0,0)"></path>
<path d="M 804.825 194.297 C 812.524 193.675 819.971 194.622 826.91 196.943 C 866.629 210.234 875.308 248.862 883.561 284.789 C 884.714 289.812 890.073 299.52 892.716 304.54 L 893.115 303.514 C 902.864 278.56 917.374 251.218 943.214 239.622 C 947.755 237.585 958.879 233.536 963.571 235.412 C 956.901 245.892 952.53 252.267 948.728 264.237 C 937.42 299.841 945.644 334.21 972.632 360.028 C 981.199 324.907 993.343 298.014 1029.22 284.871 C 1008.14 336.815 1021.85 357.509 1036.92 407.26 C 1041.18 421.493 1044.41 436.016 1046.57 450.715 C 1049.85 444.844 1057.6 428.693 1063.71 427.442 C 1071.55 434.094 1077.57 475.441 1078.35 486.689 C 1086.66 478.185 1094.36 473.119 1105.14 468.301 C 1105.45 476.351 1104.96 484.55 1104.59 492.593 C 1103.02 527.286 1102.46 563.907 1078.04 591.505 C 1068.22 602.599 1056.25 610.637 1045.68 620.902 C 1042.14 640.111 1046.79 661.302 1052.01 680.097 C 1053.17 684.262 1061.55 699.252 1063.91 704.122 L 1087.96 754.82 C 1132.2 753.218 1128.28 804.588 1102.55 827.067 C 1082.24 844.803 1051.58 869.421 1025.04 846.187 C 1013.86 836.392 1012.11 817.889 1011.93 804.474 C 997.466 807.584 992.245 807.774 977.948 804.36 C 971.927 811.442 968.914 821.169 962.434 828.113 C 946.398 845.299 924.946 830.727 916.907 813.798 C 912.806 805.162 912.192 798.181 911.784 788.784 C 889.242 803.091 864.457 816.895 837.46 807.171 C 799.338 793.441 787.748 760.492 799.335 724.633 C 800.796 750.522 810.147 781.103 838.555 789.123 C 860.792 795.4 883.382 778.839 901.931 767.886 C 900.042 761.079 897.422 754.321 894.332 747.98 C 875.184 708.682 832.144 708.419 842.253 656.957 C 834.334 654.914 828.887 653.623 820.741 652.298 C 763.073 736.475 767.683 839.772 781.692 936.285 C 806.296 919.664 838.529 903.554 866.458 893.52 C 979.601 852.87 1097.52 853.947 1207.03 905.024 C 1317.41 956.552 1402.75 1049.88 1444.22 1164.41 C 1488.86 1287.33 1482.36 1423.02 1426.16 1541.1 C 1316.64 1773.98 1049.09 1866.89 817.446 1757.66 C 728.907 1711.11 679.57 1664.13 624.655 1580.98 C 619.325 1580.75 613.619 1580.11 608.27 1579.62 C 610.13 1588.41 610.042 1591.46 610.13 1600.58 C 597.599 1594.65 561.225 1583.9 544.913 1577.93 L 544.96 1602.84 C 517.675 1590.8 493.724 1580.49 469.702 1562.72 C 467.56 1571.67 466.459 1577.14 465.249 1586.31 C 453.849 1577.99 425.831 1550.6 414.679 1539.94 C 409.718 1549.64 407.393 1555.31 405.152 1565.91 C 379.585 1537.37 376.254 1529.21 362.178 1494.76 C 356.321 1501.17 353.223 1504.83 348.056 1511.92 C 335.216 1491.69 320.754 1452 314.705 1429.07 C 310.487 1436.27 307.259 1440.64 301.957 1447.01 C 291.736 1418.57 288.463 1392.31 287.95 1362.41 C 283.733 1366.69 279.732 1370.81 275.259 1374.85 C 274.237 1374.35 273.499 1374.27 273.377 1373.09 C 270.376 1343.8 281.911 1304.65 291.472 1278.3 C 281.973 1280.48 274.107 1282.14 264.489 1283.67 C 273.184 1258.48 295.41 1227.53 316.299 1211 L 294.133 1211.07 C 305.313 1192.31 341.691 1165.86 360.775 1155.18 C 353.227 1153.82 348.182 1152.76 340.783 1150.67 C 355.048 1137.25 380.113 1130.77 399.156 1128.32 C 402.279 1131.6 403.37 1132.53 405.339 1136.78 L 404.792 1137.94 C 388.351 1140.25 376.256 1141.69 360.492 1146.33 C 370.054 1147.66 396.669 1154.69 407.926 1157.02 C 407.747 1162.79 408.106 1169.24 408.305 1175.07 C 412.6 1162.3 426.595 1111.15 409.746 1104.46 C 402.402 1106.93 404.023 1120.2 399.042 1125.09 C 396.95 1124.28 395.908 1123.19 395.154 1120.92 C 387.989 1099.33 379.179 1080.47 369.09 1060.13 C 365.09 1068.11 361.602 1074.99 357.07 1082.7 C 350.268 1057.03 332.725 1024.91 314.999 1005.07 C 311.077 1014.75 308.972 1021.83 306.2 1031.8 C 296.089 1013.16 265.648 968.991 251.758 953.574 C 247.627 964.034 246.279 970.518 244.422 981.31 C 218.505 945.789 216.151 948.703 200.121 903.033 C 195.89 912.536 191.805 922.99 187.664 932.684 C 169.134 898.23 169.466 880.951 160.468 844.283 C 153.423 851.181 146.603 859.534 140.678 867.401 C 127.767 839.072 123.15 803.076 126.371 772.3 C 117.841 780.181 108.336 791.067 100.753 799.8 C 89.4207 756.856 97.1727 718.696 111.955 678.286 C 98.4602 685.894 92.6382 689.674 81.1051 699.926 C 81.9178 650.52 93.034 618.744 114.451 576.06 C 101.196 580.149 94.0487 582.607 81.8889 589.573 C 98.0377 521.202 121.503 497.684 169.944 451.304 C 148.299 449.735 133.826 449.033 112.342 451.266 C 112.914 450.352 113.507 449.452 114.121 448.566 C 132.84 421.379 168.416 393.022 199.455 381.774 C 215.727 375.877 232.715 372.568 249.712 369.616 C 239.02 360.803 222.672 351.603 210.452 343.892 C 230.641 331.454 267.82 318.142 291.078 314.427 C 306.585 311.949 328.156 310.991 344.276 309.869 C 334.341 299.371 321.672 289.083 310.51 279.707 C 356.983 260.858 405.885 266.303 453.381 276.679 C 444.264 262.105 436.85 252.304 425.566 239.48 C 473.167 229.957 524.511 246.202 568.086 264.037 C 561.327 249.918 554.818 235.682 548.562 221.333 C 609.826 235.614 649.364 249.185 698.184 290.585 C 698.991 272.34 701.892 263.366 700.792 243.975 C 719.119 255.903 736.363 269.419 752.325 284.366 C 773.021 303.55 787.884 321.248 813.049 335.01 C 818.638 295.889 855.814 241.45 807.445 214.054 C 798.279 208.862 787.157 207.982 776.887 206.936 C 787.16 198.479 791.666 196.456 804.825 194.297 z" fill="rgb(1,1,1)" transform="translate(0,0)"></path>
<path d="M 998.294 876.423 C 999.234 876.311 1000.05 876.219 1001 876.164 C 1246.79 861.954 1449.02 1061.21 1462.74 1302.09 C 1469.93 1429.78 1426.09 1555.09 1340.87 1650.45 C 1263.51 1737.13 1151.8 1786.6 1036.5 1793.08 C 789.711 1805.3 585.73 1611.59 570.584 1367.23 C 562.377 1244.64 603.834 1123.89 685.619 1032.2 C 767.812 939.17 873.655 884.118 998.294 876.423 z" fill="#000000" transform="translate(0,0)"></path>
<path d="M 1009.71 910.443 C 1015.02 909.889 1024.48 910.161 1029.98 910.136 C 1140.3 909.63 1238.56 958.014 1314.64 1036.99 C 1394.26 1119.65 1431.7 1226.35 1430.01 1340.87 C 1427.17 1455.9 1379.49 1565.27 1297.16 1645.65 C 1222.57 1717.66 1112.46 1760.16 1008.97 1759.05 C 1004.16 1758.99 999.347 1758.92 994.54 1758.84 C 966.389 1756.88 946.697 1754.77 919.301 1747.86 C 811.169 1720.83 718.163 1652.03 660.665 1556.55 C 596.941 1449.43 583.492 1302.53 629.275 1185.87 C 659.4 1109.11 731.326 1014.06 803.081 971.554 C 808.25 979.931 812.907 985.382 819.269 992.928 C 816.426 983.696 814.135 975.588 809.144 967.296 C 867.043 929.403 941.449 913.638 1009.71 910.443 z" fill="rgb(1,1,1)" transform="translate(0,0)"></path>
<path d="M 1092.39 925.207 C 1096.72 925.134 1100.34 925.995 1104.52 926.921 C 1181.51 944.011 1247.07 984.617 1302.18 1040.46 C 1323.36 1061.92 1340.93 1081.54 1357.19 1107.53 C 1415.53 1202.36 1434.12 1316.37 1408.92 1424.82 C 1382.84 1537.04 1321.06 1627.73 1222.92 1688.54 C 1134.03 1744.36 1026.5 1762.28 924.312 1738.32 C 819.133 1713.08 728.369 1646.93 672.145 1554.53 C 615.107 1459.77 598.003 1346.24 624.587 1238.88 C 624.771 1261.82 626.947 1286.39 632.257 1308.73 C 640.965 1307.3 656.622 1306.54 665.902 1305.81 C 654.127 1310.83 645.722 1313.08 633.528 1316.17 C 637.579 1328.71 640.881 1342.13 644.238 1354.92 L 664.898 1350.25 C 657.032 1354.63 653.489 1355.91 645.127 1358.95 C 649.647 1373.22 654.14 1383.91 660.131 1397.63 C 672.491 1424.5 684.426 1447.66 701.52 1472.05 C 721.91 1442.53 745.718 1409.87 773.294 1386.44 C 789.789 1372.42 802.203 1368.07 823.57 1368.09 C 840.727 1406.81 840.601 1452.71 800.956 1477.45 C 793.124 1482.33 791.425 1487.63 797.352 1495.14 C 811.23 1512.72 838.794 1511.58 858.338 1506.71 C 896.593 1498.09 918.859 1468.93 947.589 1445.51 C 952.659 1441.37 963.548 1432.76 970.267 1433.57 C 973.802 1438.05 972.609 1445 972.324 1450.59 C 968.218 1531.07 1057.22 1581.83 1122.66 1604.6 C 1144.77 1612.3 1170.23 1616.99 1193.11 1624.11 C 1189.13 1613.55 1185.33 1601.99 1181.58 1591.27 C 1189.9 1596.69 1205.54 1603.57 1215.03 1608.03 C 1196.51 1568.21 1148.2 1404.23 1157.01 1362.4 C 1160.23 1347.08 1169.07 1349.48 1179.15 1342.09 C 1180.98 1340.75 1181.93 1338.91 1182.11 1336.66 C 1182.33 1333.97 1181.72 1330.74 1179.91 1328.68 C 1176.39 1324.66 1172.54 1327.36 1168.38 1326.14 C 1163.93 1324.82 1163.12 1313.1 1162.33 1309.02 C 1155.55 1273.75 1143.66 1244.19 1124.46 1213.93 C 1142.85 1201 1155.17 1192.94 1174.6 1181.87 L 1161.21 1168.82 C 1197.29 1134.72 1272.16 1106.74 1321.09 1102.69 C 1317.35 1093.46 1283.02 1042.54 1276.11 1042.83 C 1272.37 1048.4 1241.25 1063.39 1233.53 1066.99 C 1244.3 1057.29 1259.79 1042.78 1271.41 1034.78 C 1261.45 1022.06 1227.63 995.496 1214.13 985.864 C 1207.35 993.523 1194.29 1004.88 1186.37 1012.16 C 1190.2 1004.76 1197.45 992.198 1202.93 985.667 C 1204.57 983.719 1207.05 986.526 1209.9 983.817 C 1208.15 975.973 1154.93 948.981 1144.59 944.565 C 1128.22 937.571 1109.05 932.122 1092.39 925.207 z" fill="#000000" transform="translate(0,0)"></path>
<path d="M 974.137 1160.4 C 1007.29 1156.88 1047.34 1168.48 1073.8 1188.12 C 1123.15 1224.74 1141.01 1271.91 1150.54 1329.87 C 1128.7 1331.27 1107.03 1332.81 1085.13 1332.52 C 1067.73 1332.28 1050.46 1330.03 1033.07 1330.97 C 1020.22 1331.3 1007.06 1340.86 1003.88 1353.66 C 998.251 1376.34 1027.94 1392.7 1044.21 1401.03 C 1069.37 1413.91 1096.08 1421.74 1123.31 1428.61 C 1132.03 1467.09 1141.79 1505.32 1152.58 1543.27 C 1157.1 1559.51 1164.78 1588.39 1171.33 1603.37 C 1144.84 1596.18 1118.92 1587.02 1093.79 1575.97 C 1050.16 1556.39 995.48 1517.76 988.456 1466.77 C 985.884 1458.64 992.301 1433.28 988.051 1427.3 C 965.25 1395.2 916.519 1452.87 900.198 1466.03 C 873.625 1487.46 844.622 1500.9 813.115 1489.03 C 846.575 1463.35 856.944 1428.94 847.347 1387.55 C 842.552 1369.77 836.865 1353.65 834.9 1335.19 C 825.28 1244.8 882.277 1169.74 974.137 1160.4 z" fill="#000000" transform="translate(0,0)"></path>
<path d="M 977.746 1105.45 L 978.823 1105.42 C 1050.5 1103.22 1095.99 1131.99 1145.96 1179.35 C 1134.22 1186.93 1124.87 1193.9 1113.78 1202.29 C 1108.83 1196.59 1103.57 1191.18 1098.01 1186.08 C 1064.84 1156.43 1021.2 1141.27 976.787 1143.98 C 927.497 1146.5 890.458 1165.72 857.807 1201.85 C 822.825 1244.86 810.471 1296.41 820.351 1350.97 C 808.619 1350.45 802.11 1350.09 790.489 1352.88 C 789.126 1340.12 787.62 1327.87 786.771 1315.04 C 778.989 1197.34 861.31 1111.27 977.746 1105.45 z" fill="#000000" transform="translate(0,0)"></path>
<path d="M 1032.06 1347.18 C 1043.41 1346.22 1060.55 1349.36 1072.49 1349.45 C 1100.31 1349.66 1129.01 1349.4 1156.66 1346.61 C 1142.16 1375.44 1157.11 1411.02 1153.7 1417.32 C 1129.55 1413.69 1105.77 1407.86 1082.68 1399.9 C 1065.28 1393.82 1031.18 1380.64 1021.31 1363.84 C 1016.14 1355.03 1024.53 1349.93 1032.06 1347.18 z" fill="#000000" transform="translate(0,0)"></path>
<path d="M 1136.85 1357.46 L 1140.01 1357.31 C 1140.01 1357.31 1142.86 1398.82 1143.48 1403.63 C 1124.88 1401.57 1095.4 1393.35 1077.99 1386.41 C 1063.61 1379.31 1057.67 1374.7 1053.86 1358.74 C 1083.68 1359.76 1106.65 1360 1136.85 1357.46 z" fill="rgb(1,1,1)" transform="translate(0,0)"></path>
<path d="M 1123.01 939.664 C 1126.35 940.179 1127.32 939.999 1129.59 942.22 C 1130.61 948.182 1122.03 958.505 1118.29 964.607 C 1117.3 966.362 1117.77 965.844 1116.16 966.948 C 1116.34 961.928 1121.36 945.49 1123.01 939.664 z" fill="#000000" transform="translate(0,0)"></path>
<path d="M 703.518 1066.54 C 705.498 1068.28 717.093 1083.14 722.39 1088.41 L 720.548 1088.32 C 712.511 1083.83 705.421 1079.41 697.64 1074.51 C 699.392 1071.59 701.413 1069.2 703.518 1066.54 z" fill="#000000" transform="translate(0,0)"></path>
<path d="M 1036.65 919.708 L 1041.15 920.196 L 1042.22 921.775 C 1041.96 926.827 1037.89 935.802 1035.99 941.262 L 1034.97 943.193 C 1034.21 939.303 1036.15 924.51 1036.65 919.708 z" fill="#000000" transform="translate(0,0)"></path>
<path d="M 657.007 1144.53 C 660.676 1145.34 679.247 1151.86 681.003 1154.84 C 674.715 1153.69 660.21 1152.44 656.479 1147.99 L 657.007 1144.53 z" fill="#000000" transform="translate(0,0)"></path>
<path d="M 747.698 1021.49 C 751.275 1023.09 758.368 1035.28 758.734 1039.03 C 753.942 1034.23 745.401 1028.17 747.698 1021.49 z" fill="#000000" transform="translate(0,0)"></path>
<path d="M 881.183 937.559 C 882.093 937.912 883.456 938.703 884.307 939.158 C 887.917 946.037 888.735 952.055 890.195 959.693 C 887.096 953.936 881.879 943.92 881.183 937.559 z" fill="#000000" transform="translate(0,0)"></path>
<path d="M 629.532 1226.18 C 635.673 1226.56 645.65 1227.21 651.194 1229.65 C 645.899 1229.99 634.076 1231.31 629.904 1228.91 L 629.532 1226.18 z" fill="#000000" transform="translate(0,0)"></path>
<path d="M 693.248 1418.96 L 693.796 1419.14 L 694.051 1419.94 C 689.313 1424.35 685.016 1427.17 679.741 1430.81 C 678.734 1430.58 678.852 1430.37 677.871 1429.46 C 679.156 1425.19 689.091 1421.04 693.248 1418.96 z" fill="#000000" transform="translate(0,0)"></path>
<path d="M 964.129 923.708 L 965.442 924.924 C 966.554 929.673 964.71 937.504 963.59 942.304 C 962.226 936.393 960.138 928.462 964.129 923.708 z" fill="#000000" transform="translate(0,0)"></path>
<path d="M 548.617 439.423 C 563.019 437.196 598.87 440.641 613.411 442.493 C 656.362 447.965 723.327 470.934 750.329 506.584 C 712.054 515.268 679.487 527.241 651.785 556.796 C 668.784 557.283 685.568 560.737 701.377 567.003 C 653.388 601.608 612.318 636.96 595.04 696.655 C 616.38 694.977 621.716 692.799 640.476 683.55 C 605.221 726.909 586.414 768.575 584.98 825.51 C 601.79 810.858 616.515 798.233 633.955 784.533 C 628.156 796.926 622.986 811.622 617.323 824.431 C 601.609 859.972 584.045 893.494 584.152 933.362 C 598.203 926.132 612.273 918.3 626.32 910.926 C 614.249 948.795 596.822 978.767 584.136 1013.8 C 595.277 1012.25 599.333 1010.48 609.493 1006.04 L 610.16 1006.42 C 610.031 1010.51 594.169 1026.23 590.046 1028.96 C 572.778 1027.07 546.108 1031.92 531.745 1041.54 C 539.736 1049.1 542.046 1050.4 552.443 1054.2 C 533.249 1057.19 513.902 1059.64 494.769 1062.99 C 490.822 1063.68 487.624 1064.81 486.004 1068.58 C 488.445 1075.3 502.077 1078.79 508.269 1080.68 C 495.463 1086.57 484.989 1093.46 472.72 1100.21 C 465.489 996.218 404.476 944.21 338.47 874.196 C 300.213 833.616 268.737 768.054 265.141 711.497 C 254.181 539.122 391.521 450.148 548.617 439.423 z" fill="#000000" transform="translate(0,0)"></path>
<path d="M 828.024 213.969 C 837.433 220.89 846.405 228.971 847.58 241.286 C 849.894 265.533 836.754 289.114 837.537 313.638 C 838.555 345.529 862.196 371.155 888.387 386.299 C 890.684 393.969 894.446 407.361 897.779 414.312 C 908.889 437.479 929.097 461.73 944.93 482.222 C 938.642 467.751 929.117 455.48 921.787 441.524 C 897.01 394.352 888.45 346.869 908.456 295.85 C 914.033 281.627 921.84 268.996 932.887 258.465 C 903.203 322.571 917.07 406.585 959.757 461.747 C 936.169 405.94 912.168 329.685 933.944 270.022 C 929.602 314.604 935.235 343.021 969.292 373.674 C 967.465 387.849 965.833 404.272 967.348 418.717 C 972.42 467.045 999.647 514.218 1027.9 552.687 C 1031.19 557.175 1038.87 567.62 1043.72 568.725 C 1057.81 567.705 1066.47 545.639 1068 533.479 L 1067.37 533.056 C 1062.74 545.855 1059.74 554.984 1047.92 563.182 L 1034.52 543.593 C 1047 521.533 1046.38 494.977 1051.26 470.717 C 1053.18 461.196 1056.14 454.483 1060.05 445.774 C 1069.71 473.232 1075.14 526.828 1063.19 555.204 C 1059.81 563.252 1051.53 572.268 1047.99 579.795 C 1093.38 546.327 1073 505.383 1084.6 493.712 L 1087.39 493.295 C 1089.78 490.514 1091.45 488.46 1094.21 485.991 C 1093.21 523.642 1093.82 562.928 1064.38 590.345 C 1049.4 604.305 1032.21 607.805 1032.07 629.799 C 1031.95 648.835 1036.17 669.706 1041.85 687.783 C 1027.11 688.822 1021.17 691.131 1008.55 699.427 C 1031.17 694.691 1045.31 689.036 1056.5 714.126 C 1041.17 712.439 1035.71 713.475 1022.6 722.185 C 1036.45 720.125 1046.84 717.752 1059.79 724.786 C 1063.43 730.104 1065.43 733.291 1068.41 738.973 C 1059.65 736.814 1046.48 734.614 1039.35 741.94 C 1052.33 747.268 1066.53 736.39 1079.21 760.739 C 1062.95 761.818 1056.16 761.824 1044.8 774.284 C 1061.02 768.864 1069.46 769.229 1086.5 768.789 C 1094.62 768.58 1104.67 763.552 1109.8 777.922 C 1112.46 785.371 1109.71 797.676 1105.67 804.289 C 1093.52 822.187 1076.04 837.819 1054.8 843.665 C 1037.76 848.357 1028.82 836.829 1025.7 821.671 C 1023.46 808.492 1027.09 796.231 1023.8 783.045 C 1020.91 771.515 1006.65 761.608 1002.82 752.729 C 986.405 714.73 978.311 680.59 941.527 655.153 C 921.146 641.059 889.675 632.41 870.802 655.204 C 867.51 659.28 866.989 667.226 868.334 672.167 C 875.661 694.364 903.46 708.827 917.209 726.892 C 925.255 737.465 928.94 745.217 933.083 757.108 C 926.076 759.099 917.098 761.383 910.449 763.961 C 907.129 754.073 902.331 738.834 895.984 730.901 C 868.923 697.075 838.718 697.798 855.318 646.664 C 841.982 645.302 836.913 645.189 824.449 639.89 C 816.705 624.292 802.54 602.199 826.204 591.611 C 838.338 586.182 852.953 586.823 866.01 587.151 C 850.639 571.993 839 566.52 821.844 554.371 C 816.642 550.687 808.215 541.821 803.524 536.951 C 824.686 536.728 829.88 537.832 850.655 543.677 C 833.059 530.971 822.093 526.109 800.327 533.097 L 791.874 527.343 C 809.638 521.276 830.687 519.987 848.125 528.066 C 861.381 534.207 872.267 548.53 882.738 558.616 C 867.204 522.762 838.917 498.289 812.112 470.899 C 804.349 462.966 792.68 452.516 786.648 443.561 C 838.542 450.136 866.23 473.736 898.539 512.027 C 885.407 476.451 852.342 451.74 817.315 439.869 C 826.568 427.815 831.515 420.88 846.345 415.915 C 866.201 427.353 883.808 444.19 898.293 461.912 C 901.641 466.009 914.475 486.077 915.939 486.82 C 915.584 483.342 911.846 477.568 910.153 474.214 C 896.371 446.913 875.86 430.723 853.541 411.444 C 824.039 384.88 794.358 367.994 759.531 350.248 C 681.498 310.486 582.001 292.02 495.14 303.913 C 377.169 320.065 241.508 384.062 183.02 492.596 C 146.382 560.584 132.788 627.357 140.671 704.868 C 152.026 810.676 199.236 884.352 282.273 949.715 C 324.055 982.603 391.526 1034.08 409.496 1084.97 C 405.482 1092.66 401.12 1098.35 397.044 1105.51 C 389.535 1080.72 381.321 1058.51 367.914 1036.15 C 366.015 1047.91 365.226 1052.48 360.183 1063.46 C 353.031 1042.6 329.774 999.782 313.125 986.01 L 311.724 986.077 C 308.927 995.542 306.7 1002.52 303.111 1011.7 C 290.596 991.802 278.743 971.044 264.828 952.172 C 257.149 941.756 255.051 944.92 247.454 934.731 C 245.585 944.261 243.468 953.742 241.108 963.162 C 232.019 951.144 221.019 933.603 216.835 919.075 C 211.063 899.035 207.624 891.103 196.8 873.499 C 195.404 887.525 192.205 901.052 188.006 914.497 C 175.553 878.31 174.698 850.852 163.059 815.729 C 160.386 826.527 151.497 842.003 145.597 851.679 C 137.377 824.425 134.349 809.141 135.851 780.31 C 136.406 769.659 137.309 754.428 135.815 744.162 L 134.79 744.408 C 129.514 749.675 109.102 774.659 106.225 779.867 C 103.028 740.568 106.951 705.736 128.827 671.876 C 128.787 661.908 128.294 646.311 126.856 636.727 C 125.595 644.07 124.799 651.595 123.497 659.156 C 116.885 665.35 102.003 672.094 93.5317 676.282 C 97.4744 647.657 105.159 607.812 123.26 584.805 C 140.39 563.032 139.799 574.437 148.851 543.511 C 144.088 549.858 140 555.574 134.414 561.273 C 120.805 564.649 109.506 567.496 96.281 572.14 C 114.436 514.594 153.612 477.865 199.866 442.076 C 176.849 440.769 157.389 439.914 134.378 440.171 C 164.793 402.654 212.683 383.838 259.496 377.92 L 275.024 364.415 C 256.498 357.789 247.083 354.24 230.667 344.064 C 267.476 329.606 291.458 321.524 331.975 322.346 C 350.042 322.713 366.771 324.142 384.938 323.58 C 359.104 313.803 350.943 304.336 331.39 283.488 C 395.821 266.127 435.181 289.215 492.864 301.36 C 488.135 298.088 481.937 294.945 477.635 291.175 C 469.109 283.705 463.589 272.995 456.787 263.907 C 452.5 258.179 448.506 253.524 443.795 248.15 C 503.594 246.298 562.128 273.787 614.013 301.672 C 605.898 293.533 599.69 290.263 589.864 284.577 C 582.949 269.302 574.024 252.414 566.652 236.964 C 600.842 247.098 633.71 257.91 662.994 279.088 C 685.649 295.472 690.481 302.389 715.961 315.458 C 707.125 296.406 707.567 286.124 710.789 265.685 C 727.156 274.709 803.228 344.254 800.166 358.905 C 797.377 361.446 798.476 360.666 794.176 361.296 L 792.706 362.234 C 802.209 366.552 814.427 371.74 823.261 376.979 C 839.254 386.463 851.652 395.529 868.841 403.017 C 851.401 386.639 825.375 363.785 825.86 338.515 C 826.756 291.845 864.341 258.868 828.024 213.969 z" fill="#000000" transform="translate(0,0)"></path>
<path d="M 715.05 292.3 C 743.08 305.985 769.708 340.456 794.176 361.296 L 792.706 362.234 C 784.645 357.142 762.319 334.021 753.655 326.118 C 741.905 315.399 725.844 303.009 715.05 292.3 z" fill="rgb(16,16,16)" transform="translate(0,0)"></path>
<path d="M 1084.6 493.712 L 1087.39 493.295 C 1088.55 520.887 1088.75 552.441 1069.45 575.069 C 1067.4 577.462 1063.58 580.934 1060.56 581.898 L 1060.49 580.95 C 1078.07 566.178 1082.09 547.967 1084.58 525.587 C 1085.27 519.358 1085.76 498.937 1084.6 493.712 z" fill="rgb(16,16,16)" transform="translate(0,0)"></path>
<path d="M 134.79 744.408 C 132.421 727.952 130.141 717.301 131.895 700.549 C 133.508 710.654 136.147 734.014 135.815 744.162 L 134.79 744.408 z" fill="rgb(38,38,38)" transform="translate(0,0)"></path>
<path d="M 962.13 547.536 C 966.011 550.433 992.361 588.88 999.033 595.155 C 1010.91 606.325 1014.65 643.609 1017.14 661.244 C 1012.29 656.229 1006.58 646.798 1000.6 640.655 C 993.206 633.051 984.932 624.59 978.172 616.53 C 967.183 603.425 968.27 589.244 966.065 573.204 C 964.908 564.786 963.518 556.063 962.13 547.536 z" fill="rgb(1,1,1)" transform="translate(0,0)"></path>
<path d="M 1079.61 774.787 C 1086.34 777.014 1091.36 786.672 1090.93 793.226 C 1090.14 805.451 1075.18 805.01 1066.5 814.055 L 1065.63 814.965 C 1064.21 816.701 1064.57 816.186 1062.51 817.402 C 1055.9 814.683 1059.05 799.399 1061.21 793.995 C 1065.06 784.395 1070.14 778.95 1079.61 774.787 z" fill="rgb(1,1,1)" transform="translate(0,0)"></path>
<path d="M 1075.47 781.43 C 1081.04 782.863 1083.98 789.21 1084.24 794.436 C 1084.58 801.022 1075.49 801.626 1070.38 806.089 C 1068.56 808.069 1067.76 809.444 1065.15 809.853 L 1064.09 807.936 C 1064.18 799.161 1070.17 788.297 1075.47 781.43 z" fill="#000000" transform="translate(0,0)"></path>
<path d="M 588.144 256.032 C 611.195 256.833 661.586 295.261 679.312 311.166 C 674.486 310.465 637.063 282.545 628.94 277.833 C 621.593 273.571 592.101 259.12 588.144 256.032 z" fill="rgb(1,1,1)" transform="translate(0,0)"></path>
<path d="M 792.247 446.879 C 815.257 451.141 840.509 469.692 856.485 486.18 C 853.046 485.173 796.88 450.422 792.247 446.879 z" fill="rgb(1,1,1)" transform="translate(0,0)"></path>
<path d="M 177.024 479.876 L 177.829 481.375 C 161.127 502.822 142.39 522.07 125.095 543.294 L 124.37 542.869 C 130.094 527.907 164 490.931 177.024 479.876 z" fill="rgb(1,1,1)" transform="translate(0,0)"></path>
<path d="M 469.054 262.273 C 488.321 264.879 534.914 279.292 551.376 289.088 C 544.498 288.333 473.358 266.489 469.054 262.273 z" fill="rgb(1,1,1)" transform="translate(0,0)"></path>
<path d="M 355.869 298.223 C 374.373 296.714 417.768 298.957 432.407 308.819 C 420.688 308.328 405.988 304.557 394.085 303.124 C 381.487 301.607 368.225 300.568 355.869 298.223 z" fill="rgb(1,1,1)" transform="translate(0,0)"></path>
<path d="M 141.697 582.839 C 141.817 583.068 141.973 583.283 142.059 583.527 C 143.088 586.456 116.978 627.093 113.136 635.246 L 112.283 634.845 C 113.423 622.322 132.382 591.815 141.697 582.839 z" fill="rgb(1,1,1)" transform="translate(0,0)"></path>
<path d="M 1057 454.609 C 1061.28 458.135 1061.62 474.239 1061.79 479.823 C 1062.32 497.462 1059.76 515.722 1053.04 532.1 L 1051.98 532.543 C 1053.09 528.199 1054.56 523.98 1055.66 519.638 C 1061.12 497.94 1057.61 476.624 1057 454.609 z" fill="rgb(16,16,16)" transform="translate(0,0)"></path>
<path d="M 239.278 394.377 L 241.149 394.712 C 217.694 404.528 200.134 415.02 178.393 424.799 L 177.154 424.817 L 176.887 424.159 C 193.898 414.043 220.409 396.707 239.278 394.377 z" fill="rgb(1,1,1)" transform="translate(0,0)"></path>
<path d="M 129.288 689.633 L 130.291 690.611 C 132.128 696.469 120.425 725.286 117.99 735.912 L 117.547 735.955 C 115.725 725.806 122.776 697.766 129.288 689.633 z" fill="rgb(1,1,1)" transform="translate(0,0)"></path>
<path d="M 302.893 343.425 C 307.857 343.202 313.781 344.134 318.801 344.752 C 302.899 347.049 286.886 348.505 270.83 349.115 C 265.938 349.383 262.46 349.501 257.56 349.335 C 275.2 345.623 284.731 344.395 302.893 343.425 z" fill="rgb(1,1,1)" transform="translate(0,0)"></path>
<path d="M 146.53 772.458 C 147.859 780.345 150.308 815.288 149.589 823.156 C 142.998 813.909 144.822 784.402 146.53 772.458 z" fill="rgb(1,1,1)" transform="translate(0,0)"></path>
<path d="M 216.667 902.592 C 222.188 904.688 237.592 922.119 242.362 927.426 C 236.399 925.376 221.103 908.048 216.667 902.592 z" fill="rgb(159,159,159)" transform="translate(0,0)"></path>
<path d="M 586.934 1174.21 C 587.813 1175.91 583.02 1188.18 582.061 1191.04 C 552.926 1278.13 552.984 1366.53 573.272 1455.29 C 527.345 1458.39 489.076 1446.29 450.987 1421.21 C 425.303 1403.62 413.204 1386.09 402.21 1356.93 C 388.54 1320.67 423.799 1272.71 441.252 1237.78 C 491.683 1214.37 533.756 1194.24 586.934 1174.21 z" fill="#000000" transform="translate(0,0)"></path>
<path d="M 792.945 466.529 C 796.535 467.998 822.06 496.964 825.891 501.566 L 816.388 513.844 C 807.318 513.866 783.354 516.648 776.534 522.596 C 776.482 524.192 776.544 525.739 776.696 527.328 C 771.765 528.924 756.584 530.816 750.597 531.809 C 735.494 534.167 720.721 538.293 706.581 544.103 C 719.602 544.507 733.324 540.876 746.396 538.701 C 761.468 536.192 769.888 535.774 785.028 536.069 C 765.546 550.322 753.903 563.205 735.97 578.438 C 729.975 583.53 713.158 593.203 705.611 598.094 C 685.492 611.086 667.396 626.97 651.906 645.236 C 662.117 638.707 673.614 628.488 683.691 621 C 698.488 610.006 712.511 601.013 728.067 591.321 C 715.401 609.38 703.442 626.548 693.623 646.397 C 689.102 655.537 685.507 669.315 680.846 676.855 C 665.488 701.7 640.702 731.465 629.53 757.929 C 646.028 739.666 665.513 711.17 679.664 690.38 C 673.921 712.829 669.219 734.548 665.249 757.418 C 663.826 765.614 664.347 777.679 662.307 784.623 C 653.462 814.717 640.625 844.173 629.945 873.576 C 648.861 850.041 652.736 824.792 663.48 799.132 C 661.808 813.154 660.675 827.236 660.081 841.345 C 659.523 854.985 659.438 872.48 657.501 885.685 C 652.858 917.337 640.611 945.587 630.768 975.149 C 647.537 955.107 653.986 925.141 659.95 900.265 C 660.631 921.67 655.927 956.649 649.089 977.052 C 629.321 1036.03 580.472 1062.36 528.829 1088.94 C 508.703 1099.18 491.41 1108.14 473.433 1121.73 L 473.125 1109.46 C 481.054 1104 490.332 1097.44 498.673 1092.78 C 509.347 1086.82 517.591 1084.56 527.712 1077.22 C 519.558 1074.7 510.248 1073.1 501.394 1070.46 C 516.846 1068.91 530.646 1070.32 543.897 1068.8 C 553.725 1053.02 575.739 1057.1 589.107 1047.05 L 589.07 1045.72 C 583.056 1044.63 559.968 1044.34 550.266 1043.34 C 577.524 1038.12 590.955 1045.59 610.358 1021.84 C 622.081 1007.5 629.083 1001.86 635.31 982.939 C 624.121 989.349 612.273 994.53 599.97 998.391 C 607.567 978.606 649.429 900.543 645.585 885.614 L 644.201 884.821 C 635.27 889.234 604.236 911.41 593.674 918.46 C 599.408 879.419 621.451 840.153 636.073 803.447 C 643.783 784.091 649.396 774.989 653.087 753.63 C 634.742 767.568 617.451 785.88 596.279 801.751 C 607.765 739.67 629.649 702.749 676.972 659.549 C 651.816 664.728 634.471 677.588 609.834 684.224 C 621.117 640.986 675.91 597.146 711.438 573.196 C 721.305 566.545 734.649 558.921 743.445 551.784 L 744.551 550.875 C 735.253 554.456 726.869 557.762 717.783 561.835 C 702.672 554.172 695.953 552.084 679.67 548.107 C 700.216 530.542 751.316 513.403 778.01 514.053 C 770.857 493.716 780.768 482.192 792.945 466.529 z" fill="#000000" transform="translate(0,0)"></path>
<path d="M 270.008 412.055 C 272.671 412.13 276.444 412.862 278.502 414.535 C 289.178 422.708 301.71 438.24 311.162 446.494 C 358.443 487.682 361.657 488.859 312.608 531.323 C 303.469 539.236 297.569 541.881 285.406 540.481 C 275.724 537.469 266.288 533.714 257.184 529.251 C 242.351 521.984 192.013 496.843 206.822 475.649 C 222.161 453.696 243.729 420.829 270.008 412.055 z" fill="#000000" transform="translate(0,0)"></path>
<path d="M 363.859 353.176 C 378.539 351.628 387.754 355.363 394.184 369.073 C 403.233 388.366 426.701 422.505 432.899 440.612 C 437.955 455.384 377.493 476.123 364.184 476.578 C 344.995 470.665 324.539 449.274 310.779 435.077 C 283.95 407.396 290.306 386.664 324.106 371.074 C 338.012 364.66 347.379 357.631 363.859 353.176 z" fill="#000000" transform="translate(0,0)"></path>
<path d="M 478.575 317.418 C 489.298 316.756 503.516 323.136 505.613 334.636 C 510.497 361.694 513.182 388.309 519.689 415.206 C 524.306 434.295 493.82 435.718 481.786 438.415 C 469.261 441.222 460.183 443.514 448.237 437.393 C 429.931 422.281 406.567 378.872 401.282 355.634 C 394.725 326.802 459.501 319.282 478.575 317.418 z" fill="#000000" transform="translate(0,0)"></path>
<path d="M 382.406 1257.7 C 383.262 1260.87 380.728 1284.61 380.473 1290.71 C 380.173 1298.72 380.409 1306.74 381.179 1314.72 C 385.479 1356.12 402.955 1399.2 436.096 1425.75 C 475.664 1457 525.985 1471.33 576.08 1465.62 C 580.523 1484.23 584.881 1494.54 592.466 1512.19 L 582.84 1512.67 C 471.412 1515.09 368.819 1450.8 366.689 1331.71 C 366.26 1307.75 371.68 1279.25 382.406 1257.7 z" fill="#000000" transform="translate(0,0)"></path>
<path d="M 554.636 310.432 C 567.938 310.034 614.874 309.241 614.981 328.739 C 615.137 357.18 610.112 387.388 609.344 416.14 C 608.966 430.271 590.366 431.146 580.166 431.647 C 539.608 429.766 529.944 431.115 522.306 386.228 C 516.002 349.177 503.075 312.862 554.636 310.432 z" fill="#000000" transform="translate(0,0)"></path>
<path d="M 643.864 322.244 C 662.75 320.815 718.453 336.776 727.086 356.859 C 729.335 361.17 724.328 370.753 721.528 374.853 C 709.004 393.188 704.155 421.986 693.613 439.732 C 679.454 456.132 665.191 446.012 648.196 441.197 C 630.472 436.175 618.232 426.488 618.756 406.673 C 619.329 385.02 619.574 361.748 626.484 341.015 C 629.588 331.744 635.1 326.076 643.864 322.244 z" fill="#000000" transform="translate(0,0)"></path>
<path d="M 193.836 506.075 C 196.05 505.945 200.019 505.708 202.032 506.683 C 224.04 517.337 243.979 531.658 266.477 541.633 C 270.421 543.514 284.541 551.482 284.924 556.292 C 286.245 572.905 274.342 594.874 267.831 609.932 C 264.87 616.779 259.802 618.687 253.859 620.219 C 232.254 620.341 212.282 615.687 191.252 611.791 C 163.57 606.662 154.298 594.816 162.943 567.031 C 168.341 549.681 177.607 515.425 193.836 506.075 z" fill="#000000" transform="translate(0,0)"></path>
<path d="M 751.299 364.173 L 752.354 364.04 C 776.96 361.157 812.076 394.326 831.809 409.949 C 822.72 416.456 812.056 427.745 806.132 437.083 C 796.86 435.083 781.819 434.997 772.296 434.896 C 776.119 444.67 780.131 450.615 785.893 459.114 C 782.861 463.613 779.822 468.526 776.868 473.115 C 773.563 478.721 768.223 488.38 763.417 492.349 C 750.913 496.578 709.921 465.166 704.383 453.701 C 700.432 445.52 709.299 421.206 713.704 413.122 C 723.73 394.726 729.998 372.034 751.299 364.173 z" fill="#000000" transform="translate(0,0)"></path>
<path d="M 161.97 617.068 C 183.537 615.272 224.732 625.539 246.589 629.894 C 266.077 633.776 255.507 681.129 252.259 694.153 C 251.18 698.48 244.277 700.795 240.484 702.297 C 228.292 705.289 160.77 712.859 153.351 699.435 C 146.729 687.455 148.981 645.143 151.272 630.831 C 152.349 624.101 156.229 620.442 161.97 617.068 z" fill="#000000" transform="translate(0,0)"></path>
<path d="M 694.673 719.735 C 704.244 721.256 736.571 741.015 746.784 746.821 C 752.332 750.369 762.664 757.845 762.812 765.166 C 763.146 781.821 767.089 824.687 745.748 828.707 C 729.823 826.01 710.536 818.386 694.992 813.481 C 667.778 804.894 674.564 770.671 677.876 749.287 C 679.699 737.513 682.659 724.697 694.673 719.735 z" fill="#000000" transform="translate(0,0)"></path>
<path d="M 722.995 627.091 C 730.815 626.692 734.204 627.819 741.189 632.691 C 756.366 643.278 781.077 663.291 784.957 681.991 C 786.913 691.418 775.387 725.788 769.947 735.201 C 767.892 738.756 759.989 739.167 755.88 739.647 C 742.906 734.217 710.643 716.313 701.375 705.841 C 683.333 685.457 704.737 641.601 722.995 627.091 z" fill="#000000" transform="translate(0,0)"></path>
<path d="M 681.118 823.078 C 693.525 822.337 749.02 838.618 756.99 849.458 C 763.026 857.667 766.116 890.504 764.106 901.465 C 762.871 908.2 759.487 910.517 754.224 914.005 C 741.485 917.316 710.286 910.253 696.296 908.551 C 671.807 905.572 669.998 875.606 670.643 856.487 C 671.048 844.504 669.16 830.06 681.118 823.078 z" fill="#000000" transform="translate(0,0)"></path>
<path d="M 217.882 712.568 L 225.71 712.144 C 258.478 710.522 253.676 720.765 260.366 747.863 C 266.231 771.618 255.784 775.64 234.922 782.656 C 223.919 786.357 211.612 787.705 199.832 787.774 C 186.841 786.937 180.417 787.102 169.37 780.536 C 163.062 769.542 150.323 729.039 159.733 718.615 C 168.14 709.302 203.771 713.371 217.882 712.568 z" fill="#000000" transform="translate(0,0)"></path>
<path d="M 256.884 781.073 C 277.281 778.421 274.99 792.179 282.445 804.544 C 307.68 846.401 240.359 854.2 213.241 857.722 C 201.746 855.811 188.842 831.748 184.299 821.728 C 170.678 791.692 211.46 794.639 228.44 790.153 C 237.7 787.706 247.553 784.273 256.884 781.073 z" fill="#000000" transform="translate(0,0)"></path>
<path d="M 790.65 545.714 C 803.398 554.735 814.463 568.311 830.639 579.669 C 790.469 593.171 803.269 616.771 813.201 645.332 C 807.198 655.368 804.232 661.564 791.348 659.796 C 779.113 652.564 758.235 633.142 747.811 623.087 C 721.858 598.052 773.776 559.939 790.65 545.714 z" fill="#000000" transform="translate(0,0)"></path>
<path d="M 534.82 1105.26 C 543.274 1104.64 549.644 1106.04 557.339 1109.16 C 570.119 1114.35 604.457 1140.58 589.348 1156.22 C 582.429 1163.38 553.897 1173.21 543.238 1177.39 C 537.779 1178.82 530.879 1180.28 525.432 1178.24 C 517.654 1175.32 489.045 1145.19 487.262 1139.2 C 483.308 1125.93 523.856 1107.9 534.82 1105.26 z" fill="#000000" transform="translate(0,0)"></path>
<path d="M 295.425 840.221 C 307.486 842.384 310.751 855.402 317.93 863.957 C 324.566 871.865 328.34 881.903 320.518 890.635 C 309.976 902.404 280.424 929.535 264.038 920.262 C 251.786 911.058 234.892 895.836 230.459 881.251 C 225.193 861.19 249.026 858.705 262.054 853.947 C 273.088 849.917 284.29 842.472 295.425 840.221 z" fill="#000000" transform="translate(0,0)"></path>
<path d="M 682.466 918.024 C 692.576 917.541 729.969 924.621 742.46 925.658 C 754.059 926.621 764.289 931.713 771.384 941.463 C 762.665 949.4 745.444 961.548 735.394 969.262 C 728.044 975.569 721.528 981.666 714.496 988.328 C 680.551 982.966 654.234 982.398 667.748 938.112 C 670.893 927.808 672.714 923.266 682.466 918.024 z" fill="#000000" transform="translate(0,0)"></path>
<path d="M 447.828 1114.17 C 451.722 1113.93 457 1113.4 459.937 1115.98 C 461.223 1122.45 459.047 1134.92 458.323 1141.94 C 452.182 1201.48 422.044 1244.88 397.011 1297.53 C 395.511 1300.88 393.737 1304.19 392.049 1307.46 C 387.107 1252.57 409.327 1218.65 423.627 1167.59 C 427.548 1153.59 427.312 1134.57 434.117 1121.7 C 436.777 1116.67 442.717 1115.42 447.828 1114.17 z" fill="#000000" transform="translate(0,0)"></path>
<path d="M 318.753 1403.48 C 321.626 1405.42 323.541 1411.36 325.404 1415.01 C 330.544 1425.28 336.472 1435.13 343.135 1444.48 C 359.231 1467.26 373.652 1480.49 394.908 1498.24 C 418.492 1517.61 445.615 1532.23 474.77 1541.26 C 502.216 1550.04 524.12 1551.42 531.894 1584.08 C 505.303 1573.3 487.432 1562.43 463.438 1546.58 C 458.066 1542.37 452.758 1537.99 446.904 1534.5 C 454.135 1546.66 455.777 1550.87 457.126 1564.92 C 433.819 1544.74 418.696 1529.07 398.207 1506.76 C 400.517 1512.96 403.043 1519.24 405.443 1525.42 C 403.812 1531.63 402.23 1535.03 399.6 1540.96 C 391.852 1529.21 384.723 1517.07 378.241 1504.57 C 367.158 1483.55 367.79 1480.57 353.048 1460.67 C 353.477 1466.96 355.813 1485.39 349.918 1488.66 C 348.841 1487.96 347.67 1487.12 347.094 1485.89 C 335.429 1461.1 330.103 1434.02 318.545 1409.1 C 317.947 1407.81 318.453 1404.92 318.753 1403.48 z" fill="#000000" transform="translate(0,0)"></path>
<path d="M 334.661 889.829 C 348.211 890.172 362.337 911.611 364.81 923.745 C 369.537 946.935 342.206 962.613 323.303 966.262 C 309.135 963.385 290.812 943.748 291.212 931.27 C 291.477 922.987 328.165 894.993 334.661 889.829 z" fill="#000000" transform="translate(0,0)"></path>
<path d="M 1006.73 356.762 C 1004.5 353.352 1006.13 341.677 1007.13 337.534 L 1007.9 338.006 L 1007.76 341.995 C 1008.95 350.256 1009.75 355.518 1011.96 363.697 C 1015 372.499 1018.58 382.232 1021.28 391.058 C 1039 449.508 1044.68 479.597 1031.06 538.402 C 1021.66 526.197 1005.91 499.958 1000.07 485.614 C 1018.78 445.003 1008.97 398.319 1006.73 356.762 z" fill="#000000" transform="translate(0,0)"></path>
<path d="M 1011.96 363.697 C 1015 372.499 1018.58 382.232 1021.28 391.058 L 1019.69 393.284 C 1027.44 418.792 1031.39 475.374 1021.63 498.722 C 1021.13 497.371 1024.74 466.266 1025.08 460.745 C 1027.01 429.878 1018.01 403.729 1012.64 374.045 C 1010.17 369.999 1010.44 368.115 1011.96 363.697 z" fill="rgb(16,16,16)" transform="translate(0,0)"></path>
<path d="M 1011.96 363.697 C 1015 372.499 1018.58 382.232 1021.28 391.058 L 1019.69 393.284 C 1017.77 387.331 1015.52 379.404 1012.64 374.045 C 1010.17 369.999 1010.44 368.115 1011.96 363.697 z" fill="rgb(240,240,240)" transform="translate(0,0)"></path>
<path d="M 1006.73 356.762 C 1004.5 353.352 1006.13 341.677 1007.13 337.534 L 1007.9 338.006 L 1007.76 341.995 C 1006.76 348.209 1006.67 350.443 1006.73 356.762 z" fill="rgb(90,90,93)" transform="translate(0,0)"></path>
<path d="M 377.466 937.112 C 392.565 935.325 400.342 950.798 407.442 961.898 C 425.943 990.822 399.444 999.806 379.019 1010.13 C 368.055 1011.24 336.007 987.233 344.215 971.724 C 350.901 959.094 366.167 945.605 377.466 937.112 z" fill="#000000" transform="translate(0,0)"></path>
<path d="M 835.818 217.631 C 839.664 218.631 844.3 221.944 847.061 224.812 C 874.804 253.622 860.172 288.018 889.582 317.174 C 887.688 328.346 886.527 336.69 886.113 348.022 C 885.876 354.513 886.684 369.102 885.481 374.556 C 880.573 371.314 877.266 368.198 873.285 364.795 C 832.916 330.279 848.807 294.63 851.568 249.888 C 852.334 237.473 845.523 226.589 835.818 217.631 z" fill="#000000" transform="translate(0,0)"></path>
<path d="M 609.192 1062.16 C 621.14 1061.17 631.125 1065.95 641.986 1070.34 C 633.279 1084.16 624.807 1098.14 616.576 1112.25 C 613.206 1118.16 606.512 1131.64 603.002 1136.05 C 595.705 1126.86 586.242 1115.82 577.554 1107.79 C 554.011 1086.01 589.157 1066.39 609.192 1062.16 z" fill="#000000" transform="translate(0,0)"></path>
<path d="M 1006.66 308.849 C 1006.83 309.506 998.65 339.857 998.889 346.641 C 1000.62 395.687 1008.15 430.277 996.418 479.113 L 992.992 471.48 C 983.438 450.662 979.16 432.962 978.6 409.948 C 977.801 377.097 983.049 333.342 1006.66 308.849 z" fill="#000000" transform="translate(0,0)"></path>
<path d="M 419.238 994.065 C 423.035 993.804 424.107 993.488 427.639 994.579 C 439.283 1004.61 451.932 1031.92 442.738 1046.65 C 437.782 1054.6 426.034 1056.21 417.52 1058.31 C 414.805 1058.66 414.21 1058.53 411.59 1058.23 C 405.143 1054.76 399.156 1046.69 395.717 1040.3 C 382.384 1015.54 398.738 1004.33 419.238 994.065 z" fill="#000000" transform="translate(0,0)"></path>
<path d="M 665.065 987.746 C 672.148 988.551 696.865 994.708 705.434 996.524 C 686.036 1017.18 675.077 1028.21 657.115 1050.43 C 655.069 1052.69 651.068 1058.36 649.067 1061.02 C 644.899 1058.58 625.619 1047.81 628.739 1041.64 C 635.863 1027.55 653.342 996.787 665.065 987.746 z" fill="#000000" transform="translate(0,0)"></path>
<path d="M 471.128 1146.32 C 482.156 1151.81 513.087 1175.53 508.402 1189.44 C 504.322 1194.44 485.117 1201.78 477.95 1204.87 L 450.105 1216.58 C 456.058 1202.72 460.878 1190.54 464.384 1175.84 C 466.622 1166.45 467.882 1155.08 471.128 1146.32 z" fill="#000000" transform="translate(0,0)"></path>
<path d="M 316.499 1255.86 C 317.219 1256.55 317.597 1257.35 317.23 1258.43 C 300.407 1307.78 301.416 1351.45 319.429 1401.01 C 315.256 1407.74 309.493 1415.79 304.985 1422.49 C 302.927 1414.69 301.856 1410.2 300.697 1402.11 C 299.089 1389.65 300.684 1344.08 303.225 1331.8 C 296.265 1340.28 291.45 1343.92 282.956 1350.64 C 286.426 1330.16 301.464 1268.74 316.499 1255.86 z" fill="#000000" transform="translate(0,0)"></path>
<path d="M 339.515 1235.33 C 350.675 1240.79 361.966 1245.99 373.377 1250.91 C 365.082 1267.29 362.334 1276.47 358.285 1293.91 C 345.227 1291.32 335.43 1288.65 323.033 1284.12 C 326.727 1267.3 332.254 1250.94 339.515 1235.33 z" fill="#000000" transform="translate(0,0)"></path>
<path d="M 321.541 1296.26 C 333.071 1299.5 344.668 1302.48 356.326 1305.21 C 354.639 1320.02 354.666 1334.2 355.608 1349.06 C 355.648 1349.68 355.053 1350.47 354.722 1350.97 C 342.222 1352.1 333.436 1351.9 321.065 1351.23 C 318.989 1337.97 318.431 1309.03 321.541 1296.26 z" fill="#000000" transform="translate(0,0)"></path>
<path d="M 441.365 1057.14 C 444.514 1056.88 449.868 1056.12 452.036 1058.61 C 460.436 1068.25 460.661 1089.56 461.173 1101.77 C 454.506 1103.91 446.659 1105.62 439.782 1107.29 C 437.051 1107.65 430.713 1108.87 428.698 1107.12 C 415.538 1095.67 417.532 1074.59 425.62 1061.9 C 431.197 1059.69 435.542 1058.64 441.365 1057.14 z" fill="#000000" transform="translate(0,0)"></path>
<path d="M 333.794 1363.54 L 357.45 1362.76 C 360.461 1379.11 364.629 1390.2 370.17 1405.93 C 364.947 1407.82 359.345 1410.23 354.159 1412.35 L 342.894 1418.3 C 334.071 1404.16 326.94 1379.85 322.809 1363.62 L 333.794 1363.54 z" fill="#000000" transform="translate(0,0)"></path>
<path d="M 401.868 1181.08 C 403.586 1180.78 403.462 1180.8 405.097 1181.43 C 406.307 1194.63 385.745 1229.28 378.758 1241.47 L 362.796 1233.05 L 347.625 1225.48 C 361.771 1206.2 378.379 1188.13 401.868 1181.08 z" fill="#000000" transform="translate(0,0)"></path>
<path d="M 931.601 781.24 C 950.349 779.743 953.337 788.357 968.41 798.415 C 964.6 803.343 958.66 813.48 954.975 819.143 C 939.007 834.04 914.389 801.025 923.23 785.319 C 924.747 782.625 928.854 782.072 931.601 781.24 z" fill="#000000" transform="translate(0,0)"></path>
<path d="M 374.219 1415.92 C 377.057 1416.9 378.463 1421.51 380.452 1424.99 C 386.022 1434.96 392.667 1444.29 400.268 1452.81 C 396.298 1457.73 391.254 1465.32 386.468 1468.65 C 383.279 1468.81 384.193 1468.63 380.892 1465.76 C 368.737 1453.96 357.716 1441.04 347.975 1427.18 C 356.929 1423.93 365.692 1420.17 374.219 1415.92 z" fill="#000000" transform="translate(0,0)"></path>
<path d="M 376.749 1158.88 C 382.615 1157.83 389.275 1160.77 394.704 1162.87 C 389.094 1168.17 379.194 1174.96 372.836 1180.04 C 365.192 1186.14 360.477 1190.86 353.586 1197.93 C 344.046 1197.53 337.226 1198.18 327.91 1199.31 L 312.361 1201.46 C 324.527 1190.82 362.881 1166.21 376.749 1158.88 z" fill="#000000" transform="translate(0,0)"></path>
<path d="M 407.351 1461.61 C 422.986 1475.79 434.413 1485.22 452.878 1495.12 C 450.655 1499.76 447.612 1508.94 442.624 1509.82 C 424.117 1501.25 409.962 1490.6 394.183 1478 C 397.949 1472.57 403.061 1466.75 407.351 1461.61 z" fill="#000000" transform="translate(0,0)"></path>
<path d="M 348.305 1200.92 L 349.262 1201.2 C 348.494 1204.57 339.334 1215.19 337.111 1219.09 C 322.675 1244.42 309.003 1258.97 281.48 1270.49 L 280.995 1270.56 L 280.301 1269.66 C 293.605 1245.42 323.572 1213.88 348.305 1200.92 z" fill="#000000" transform="translate(0,0)"></path>
<path d="M 465.105 1501.41 C 480.708 1508.38 496.794 1514.22 513.237 1518.87 C 512.484 1522.93 511.532 1529.94 509.69 1533.3 C 491.485 1530.13 475.877 1522.81 459.037 1515.64 L 465.105 1501.41 z" fill="#000000" transform="translate(0,0)"></path>
<path d="M 526.499 1522.21 C 543.037 1524.32 557.23 1525.66 573.879 1526.15 C 573.996 1531.75 573.945 1535.56 573.543 1541.13 C 559.127 1541.15 538.494 1539.58 524.475 1536.51 C 524.899 1532.01 525.818 1526.74 526.499 1522.21 z" fill="#000000" transform="translate(0,0)"></path>
<path d="M 509.927 1551.86 C 515.565 1551.81 522.751 1553.25 528.454 1554.02 C 549.018 1556.81 587.186 1558.79 595.256 1581.39 C 565.064 1572.15 539.512 1565.25 509.927 1551.86 z" fill="#000000" transform="translate(0,0)"></path>
<path d="M 941.563 705.643 C 964.429 706.878 968.247 725.374 977.578 742.303 C 981.254 748.972 985.02 755.159 989.13 761.572 C 960.844 760.468 965.722 735.793 954.732 718.599 C 950.818 712.476 947.341 709.829 941.563 705.643 z" fill="#000000" transform="translate(0,0)"></path>
<path d="M 564.38 1557.41 C 573.92 1556.18 601.306 1557.83 613.182 1557.84 L 618.201 1569.1 C 606.488 1566.95 574.038 1561.55 564.38 1557.41 z" fill="#000000" transform="translate(0,0)"></path>
<path d="M 1002.97 785.161 C 1007.29 784.66 1009.59 785.92 1010.77 790.026 C 1006.56 798.224 994.228 796.067 986.73 794.354 C 982.686 792.801 977.036 789.919 972.978 787.99 L 973.786 788.054 C 987.127 789.018 989.805 788.841 1002.97 785.161 z" fill="#000000" transform="translate(0,0)"></path>
<path d="M 586.119 1525.31 L 597.838 1524.7 C 599.371 1528.52 603.064 1536.25 602.576 1539.81 C 597.053 1540.09 591.299 1540.64 585.765 1541.09 L 586.119 1525.31 z" fill="#000000" transform="translate(0,0)"></path>
<metadata><recraft-signature>{"signed_by": "recraft", "signature_b64": "vVAiLQc/cTTC0WSSs8doP9rp5z/ojyuGWm2JjQp0whnDJik9Kce8qLl0mHESJ9sRrE16cTAOhnCfHSsn5XqYAA==", "signing_algo": "Ed25519", "generation_timestamp": 1784271255, "identifier": "6c832446-7e0b-4b8d-8d0f-a0648becedc2"}</recraft-signature></metadata></svg>