<svg xmlns="http://www.w3.org/2000/svg" height="1024" preserveAspectRatio="none" style="display: block;" version="1.1" viewBox="0 0 2048 2048" width="1024">
<path d="M 0 0 L 2048 0 L 2048 2048 L 0 2048 L 0 0 z" fill="rgb(1,1,1)" transform="translate(0,0)"></path>
<path d="M 1573.85 597.944 C 1575.48 598.193 1574.67 597.839 1576.05 599.409 C 1576.86 620.537 1565.07 639.437 1552.06 655.003 C 1525.01 687.343 1482.41 695.112 1447.48 715.672 C 1431.54 725.055 1411.65 738.469 1415.47 760.023 C 1420.6 787.431 1440.17 792.743 1464.74 787.583 C 1427.89 811.062 1378.87 803.052 1391.9 747.447 C 1395.01 734.196 1408.21 720.549 1417.19 710.249 C 1357.81 748.723 1380.13 785.732 1364.3 843.5 C 1354.8 878.2 1312.82 880.433 1285.74 894.862 C 1259.35 908.919 1225.41 935.255 1243.74 969.481 C 1248.77 978.837 1257.37 985.764 1267.58 988.692 C 1277.63 991.656 1288.36 990.976 1297.45 985.536 C 1305.09 981.044 1310.48 973.541 1312.29 964.87 C 1313.7 958.239 1313.98 941.019 1305.21 939.28 C 1302.03 942.311 1302.16 954.591 1299.21 959.236 C 1283.23 984.451 1262.33 972.986 1256.78 948.818 C 1263.12 924.667 1278.03 908.533 1304.19 908.917 C 1342.67 909.481 1381.88 902.922 1403.34 867.146 C 1415.48 846.895 1412.83 829.886 1407.27 808.282 C 1409.44 809.059 1411.63 809.765 1413.85 810.4 C 1447.32 819.715 1474.84 802.594 1483.14 769.663 C 1462.44 780.44 1443.48 791.286 1427.26 767.643 C 1450.82 743.682 1473.61 741.568 1505.53 733.799 C 1521.88 729.907 1538.08 725.442 1554.12 720.414 C 1600.27 705.582 1637.74 686.017 1672.9 651.979 C 1685.66 639.627 1692.28 633.318 1700.42 617.512 C 1726.88 651.478 1741.39 679.104 1755.91 719.302 C 1772.09 764.109 1754.9 785.587 1744.17 828.304 C 1752.42 844.166 1762.53 860.409 1771.39 876.104 C 1782.17 895.559 1792.57 915.22 1802.6 935.075 C 1821.25 971.736 1836.1 1010.44 1852.55 1048.18 C 1861.15 1067.91 1858.61 1074.82 1844.07 1090.76 C 1825.69 1110.89 1800.46 1100.24 1778.76 1110.63 C 1737.38 1130.45 1780.5 1160.44 1770.18 1187.83 C 1766.68 1197.08 1755.03 1201.59 1746.56 1204.81 C 1728.39 1200.99 1724.89 1201.05 1706.69 1203.79 C 1718.82 1195.65 1735.84 1184.08 1749.74 1187.96 C 1753.03 1188.88 1760.51 1189.65 1763.74 1188.86 C 1765.83 1186.89 1766.9 1186.39 1767.45 1183.66 C 1763.91 1179.29 1757.13 1180.65 1751.87 1180.19 C 1725.02 1177.84 1707.35 1197.43 1684.99 1208.16 C 1677.05 1211.68 1674.9 1213.48 1666.63 1209.72 C 1661.68 1207.47 1652.19 1219.7 1657.41 1225.27 C 1670.01 1226.71 1694.48 1210.09 1711.3 1209.98 C 1730.48 1209.87 1754.88 1213.05 1756.95 1237.39 C 1758.64 1257.33 1733.15 1259.58 1723.57 1272.29 C 1708.93 1290.6 1708.24 1302.59 1720.86 1321.64 C 1729.16 1334.83 1736.03 1354 1736.97 1369.56 C 1737.87 1387.16 1731.68 1404.4 1719.79 1417.41 C 1666.89 1476.42 1549.46 1394.19 1494.4 1463.88 C 1449.4 1520.86 1436.93 1597.2 1419.59 1665.86 C 1404.45 1725.84 1396.32 1786.23 1390.87 1847.72 C 1388.94 1870.36 1384.04 1901.64 1385.35 1923.71 C 1390.4 1907.75 1393.01 1889.23 1397.46 1872.89 C 1403.82 1849.56 1406.38 1825.83 1408.92 1801.88 C 1419.13 1830.32 1428.03 1845.24 1445.86 1868.68 C 1463.07 1890.79 1481.5 1912.49 1500.69 1932.91 C 1512.33 1945.28 1526.05 1957 1538.38 1968.9 C 1518.64 1966.58 1497.61 1965.28 1477.6 1963.14 C 1450.03 1959.93 1422.52 1956.15 1395.1 1951.8 C 1387.29 1950.55 1348.1 1943.67 1343.27 1939.91 C 1313.94 1915.8 1288.07 1885.47 1261.91 1857.78 C 1225.16 1818.88 1186.98 1785.03 1144.94 1751.88 C 1088.53 1708.25 1027.95 1670.27 964.102 1638.5 C 950.88 1631.91 937.5 1625.64 923.972 1619.7 C 914.189 1615.51 901.195 1610.68 892.13 1605.9 L 891.123 1605.35 C 924.232 1587.69 955.517 1537.69 975.722 1506.3 C 1027.86 1426.34 1057.29 1333.73 1060.89 1238.34 C 1062.2 1200.17 1059.56 1167.68 1057.65 1130 C 1073.98 1146.48 1090.36 1163.01 1108.11 1177.77 C 1127.46 1193.87 1151.28 1203.95 1175.1 1189.88 C 1188.43 1182 1192.3 1172.61 1196.15 1158.57 C 1191.96 1162.93 1188.33 1166.55 1183.22 1169.93 C 1165.25 1181.82 1137.83 1178.52 1121.82 1164.22 C 1088.48 1134.45 1056.24 1099.54 1030.69 1062.74 C 1014.77 1039.83 1021.5 1010.65 1027.45 985.7 C 1047.42 970.145 1068.46 950.146 1091.11 939.229 C 1134.71 918.221 1151.51 971.818 1129.26 1001.3 C 1122.57 1010.16 1111.8 1012.16 1107.46 1024.99 C 1098.18 1052.48 1125.84 1068.68 1147.6 1076.08 C 1123.97 1081.94 1099.59 1085.87 1079.8 1067.68 C 1055.21 1045.08 1067.91 978.948 1108.99 989.045 C 1113.04 990.042 1117.91 995.411 1123.09 995.616 C 1126.38 981.206 1091.59 967.996 1077.31 982.292 C 1033.81 1025.82 1065.16 1091.13 1124.58 1093.31 C 1138.86 1093.83 1149.25 1089.22 1159.8 1080.01 L 1173.93 1087.12 C 1170.03 1080.52 1162.95 1069.59 1157.05 1064.77 C 1147.72 1057.16 1128.84 1051.04 1122.77 1039.68 C 1115.6 1026.25 1135.56 1019.65 1142.23 1009.23 C 1148.46 999.479 1149.12 995.614 1152.56 984.838 C 1170.69 1011.18 1182.98 1028.17 1212.97 1042.26 C 1236.73 1053.38 1257.72 1054.34 1282.79 1045.96 C 1323.55 1032.33 1357.3 977.969 1322.18 941.251 C 1317.06 935.905 1311.05 933.363 1304.26 930.405 C 1318.94 944.981 1326.08 963.94 1319.9 983.401 C 1308.55 1019.13 1252.29 1018.13 1237.15 985.128 C 1218.04 943.441 1240.41 900.085 1275.7 876.05 C 1296.49 861.899 1319.91 853.062 1333.81 830.547 C 1353.21 800.661 1350.11 764.018 1359.13 731.261 C 1362.14 720.329 1397.68 699.485 1408.07 692.747 C 1447.82 667.209 1488.41 643.008 1529.78 620.183 C 1544.23 612.301 1558.93 604.884 1573.85 597.944 z" fill="rgb(254,254,254)" transform="translate(0,0)"></path>
<path d="M 1684.48 784.89 L 1685.9 784.732 C 1688.11 790.242 1676.21 821.117 1673.84 827.776 C 1684.33 828.656 1691.54 828.323 1702.06 827.766 C 1685.32 839.2 1671.81 843.274 1651.99 845.15 C 1651.62 857.952 1650.71 876.226 1642.92 886.919 C 1644.81 892.138 1649.08 902.365 1648.83 907.31 C 1646.74 908.443 1645.6 908.902 1643.77 910.428 L 1645.5 912.324 C 1651.31 913.757 1656.65 916.04 1662.21 918.232 C 1639.38 917.855 1619.34 916.811 1597.15 910.53 C 1585.77 907.311 1571.79 901.15 1560.67 899.108 C 1533.77 894.169 1511.94 898.092 1487.34 883.802 C 1509.27 884.281 1518 883.659 1539.92 878.407 C 1524.94 877.677 1513.24 876.857 1498.27 875.357 C 1511.77 872.766 1522.43 869.434 1535.23 864.924 C 1540.98 863.004 1547.23 860.708 1552.95 858.502 C 1583.97 846.535 1617.21 838.289 1646.41 822.204 C 1659.19 815.166 1669.7 806.627 1680.72 797.461 C 1650.04 812.005 1625.87 821.164 1593.54 832.186 C 1575.39 838.373 1550.52 846.741 1534.04 855.314 C 1558.16 835.154 1652.06 797.622 1684.48 784.89 z" fill="rgb(1,1,1)" transform="translate(0,0)"></path>
<path d="M 1621.37 850.992 L 1622.49 851.482 C 1625.82 859.365 1625.76 871.181 1625.17 879.674 C 1624.75 885.767 1622.65 888.212 1618.87 892.812 C 1623.52 894.571 1628.48 895.924 1632.02 899.213 L 1631.64 900.518 C 1619.94 903.443 1596.98 896.793 1585.92 893.061 C 1575.94 889.45 1566.61 885.141 1557.07 880.547 C 1579.62 867.659 1597.4 860.232 1621.37 850.992 z" fill="rgb(254,254,254)" transform="translate(0,0)"></path>
<path d="M 1208.8 1204.65 C 1213.85 1212.01 1217.24 1222.62 1220.86 1230.83 C 1231.16 1254.17 1241.85 1277.77 1258.26 1297.56 C 1303.56 1352.15 1434.53 1393.6 1502.69 1409.46 C 1518.97 1413.24 1535.26 1417.42 1551.94 1418.95 C 1542.02 1420.29 1536.31 1420.93 1526.71 1423.69 C 1510.56 1428.95 1502.04 1434.81 1490.98 1447.38 C 1419.59 1427.96 1337.88 1380.55 1278.58 1335.88 C 1269.09 1328.73 1256.18 1315.45 1248.85 1306.16 C 1232.5 1285.45 1211.41 1231.38 1208.8 1204.65 z" fill="rgb(1,1,1)" transform="translate(0,0)"></path>
<path d="M 1677.25 737.413 C 1691.92 736.58 1713.66 739.526 1722.11 750.662 C 1739.25 774.231 1726.27 784.601 1700.72 778.543 C 1622.48 759.991 1530.78 792.959 1467.79 837.796 C 1454.52 847.572 1441.75 857.163 1429.61 868.34 C 1479.22 794.766 1590.72 744.147 1677.25 737.413 z" fill="rgb(1,1,1)" transform="translate(0,0)"></path>
<path d="M 1126.38 1328.15 C 1128.57 1349.42 1142.82 1400.01 1148.52 1420.68 C 1188.17 1564.29 1253.99 1700.46 1326.6 1830.33 C 1315.59 1822.14 1264.71 1733.24 1255.88 1716.16 C 1201.5 1610.97 1150.63 1498.5 1133.09 1380.53 C 1130.88 1365.66 1126.05 1342.43 1126.38 1328.15 z" fill="rgb(1,1,1)" transform="translate(0,0)"></path>
<path d="M 1747.91 1031.33 L 1750.18 1031.25 C 1749.17 1032.27 1744.65 1034.19 1742.52 1034.67 C 1713.05 1041.25 1683.24 1084.38 1714.11 1106.76 C 1723.62 1113.65 1731 1102.96 1737.65 1096.87 C 1753.8 1082.08 1785 1085.45 1802.82 1094.93 L 1803.76 1095.44 C 1785.83 1098.66 1767.24 1096.25 1749.46 1101.28 C 1742.8 1102.3 1731.27 1113.98 1725.27 1114.25 C 1693.27 1115.66 1688.46 1076.62 1703.35 1056.7 C 1717.15 1038.25 1728.48 1035.38 1747.91 1031.33 z" fill="rgb(1,1,1)" transform="translate(0,0)"></path>
<path d="M 1117.66 209.414 C 1120.04 209.023 1128.1 208.867 1130.93 208.741 C 1152.26 223.396 1169.61 257.467 1173.41 282.626 C 1180.51 329.691 1173.05 382.096 1150.98 424.441 C 1146.79 420.255 1142.22 414.775 1138.48 410.239 C 1093.57 355.766 1040.76 306.419 973.49 281.564 C 963.272 277.789 951.452 275.15 940.712 272.486 C 967.849 287.576 995.115 309.386 1012.56 335.224 C 1049.77 390.317 1086.71 447.546 1121.03 504.491 C 1121.21 512.719 1120.46 522.999 1120.06 531.368 C 1033.53 458.521 924.028 422.528 811.705 423.976 C 795.845 424.181 767.656 422.195 752.888 425.88 C 761.658 429.081 778.048 427.37 788.251 429.844 C 903.584 457.805 993.921 558.912 1105.01 593.222 C 1101.32 601.877 1098.3 607.317 1093.62 615.567 C 1061.97 602.724 1034.41 589.546 1000.39 582.509 C 909.405 563.691 797.468 569.126 709.195 596.965 C 768.771 596.686 834.707 608.155 891.287 626.791 C 948.295 645.568 987.807 660.265 1048.26 665.576 C 1042.66 675.82 1037.79 689.327 1033.44 700.349 C 953.743 725.571 871.424 738.547 792.13 764.153 C 767.054 772.251 743.583 784.39 720.038 796.116 C 745.98 770.472 779.875 749.83 811.027 731.234 C 858.979 702.609 911.833 681.199 963.398 659.75 C 946.809 661.448 922.048 671.348 906.001 677.558 C 843.41 701.78 779.459 738.283 727.243 780.538 C 714.278 791.03 694.177 811.856 682.778 824.225 C 764.115 772.845 845.627 757.382 936.66 736.014 C 969.076 728.252 1001.33 719.829 1033.4 710.751 C 1033.54 715.852 1033.21 720.497 1032.93 725.576 C 1026.03 730.139 1013.21 735.85 1005.36 739.779 C 995.747 744.708 986.321 749.994 977.102 755.625 C 920.496 789.93 869.707 836.89 828.384 888.454 C 798.21 928.362 775.784 964.112 767.283 1014.12 C 768.372 1011.04 769.501 1007.98 770.669 1004.93 C 796.768 937.181 895.139 876.491 956.504 841.664 C 972.27 832.716 1000.79 816.553 1017.1 809.339 C 1012.58 825.075 1006.63 836.449 999.312 850.901 C 1001.81 849.438 1006.4 841.636 1008.05 839.022 C 1024.7 812.564 1033.15 788.414 1043 759.153 C 1051.21 776.292 1058.23 786.295 1069.31 801.209 C 1040.33 826.585 1011.26 851.533 981.597 876.089 C 971.019 884.845 959.905 894.516 949.675 903.597 C 927.369 923.705 905.652 944.458 884.552 965.829 C 843.042 1007.14 800.779 1052.13 766.509 1099.6 C 763.194 1096.8 759.012 1092.75 756.055 1089.63 C 675.58 1004.82 615.324 870.925 618.119 753.345 C 608.464 770.4 599.72 785.869 592.174 804.211 C 583.231 825.951 576.324 849.434 565.391 870.216 C 546.804 905.548 501.077 944.202 496.257 985.976 C 493.835 1022.32 522.369 1051.03 511.566 1088.47 C 498.818 1132.66 455.221 1155.04 411.191 1143.35 C 359.825 1129.72 335.851 1072.11 349.237 1023.31 C 364.791 966.613 416.69 930.638 475.12 946.516 C 460.604 947.539 451.846 949.023 437.875 953.075 C 383.104 968.959 349.442 1022.94 367.385 1078.68 C 373.547 1097.83 385.698 1112.46 404.355 1121.52 C 420.282 1129.29 438.637 1130.45 455.415 1124.74 C 488.753 1113.19 504.433 1081.25 495.98 1047.52 C 492.34 1033 484.002 1020.94 479.061 1007.18 C 475.2 996.529 473.744 985.154 474.798 973.873 C 477.822 938.861 498.89 924.22 520.774 900.218 C 530.286 889.82 538.773 878.529 546.119 866.503 C 561.452 840.921 569.698 810.944 583.855 784.304 C 598.7 756.368 618.851 733.84 632.245 705.459 C 626.082 710.741 620.013 716.131 614.041 721.628 C 611.585 632.499 625.699 562.772 671.632 484.7 C 689.427 454.454 700.124 438.132 723.22 410.768 C 822.712 293.894 964.642 221.44 1117.66 209.414 z" fill="rgb(254,254,254)" transform="translate(0,0)"></path>
<path d="M 353.406 65.2159 C 353.538 66.6642 344.544 75.9049 342.894 78.1429 C 314.49 116.649 338.597 167.563 382.749 179.223 C 420.566 189.21 457.448 187.027 495.072 177.453 C 511.744 173.21 528.424 165.95 545.807 165.058 C 584.083 165.695 612.06 179.484 651.165 166.536 C 675.191 158.581 679.31 142.658 698.401 133.219 C 709.218 133.61 716.392 135.124 726.976 139.47 C 748.435 148.28 778.149 158.234 774.063 187.563 C 771.826 203.616 765.141 221.971 757.013 235.872 C 756.869 225.155 755.947 209.575 745.487 204.178 C 731.452 196.937 701.453 201.533 687.126 205.739 C 646.48 217.672 611.378 243.142 584.258 275.22 C 577.108 283.702 555.086 309.074 558.637 320.945 C 565.382 322.278 598.259 315.249 610.637 314.468 C 636.008 312.866 656.291 320.903 680.346 317.492 C 692.526 315.765 708.946 297.228 714.598 297.765 C 719.467 309.373 695.142 350.575 687.991 360.56 C 670.943 342.873 640.548 338.494 617.072 341.357 C 569.272 347.186 532.381 380.514 503.902 417.152 C 504.685 398.179 507.233 390.603 515.405 373.726 C 504.989 380.715 477.443 408.219 468.567 417.974 C 470.323 399.022 472.591 384.71 479.258 366.883 C 459.394 384.322 447.62 394.308 425.948 410.019 C 434.916 389.127 444.194 366.335 454.241 346.091 C 435.847 354.871 418.234 359.196 400.163 367.308 C 404.198 359.044 407.815 355.511 412.908 348.367 C 434.882 317.539 512.887 285.98 465.229 241.959 C 468.48 249.568 471.753 257.74 471.834 266.076 C 472.106 294.056 431.326 317.42 410.676 339.115 C 345.578 407.508 354.118 484.416 395.525 563.114 C 416.141 602.297 438.669 625.172 440.123 672.738 C 443.162 768.5 348.969 820.098 291.42 882.107 C 221.99 956.918 203.227 1059.47 226.306 1157.35 C 259.244 1296.83 373.77 1433.33 527.753 1428.78 C 601.501 1426.6 676.926 1385.48 672.539 1302.92 C 691.784 1348.94 674.985 1387.05 638.564 1417.69 C 604.361 1444.94 556.816 1458.17 513.91 1458.16 C 429.91 1458.13 356.75 1419.76 299.044 1360.73 C 225.988 1285.99 179.179 1183.6 178.866 1078.94 C 178.526 965.124 229.144 888.7 308.903 814.484 C 325.342 799.187 342.502 783.962 358.658 768.153 C 378.643 748.596 387.394 732.65 393.9 705.833 C 408.497 645.665 363.447 604.774 340.631 552.258 C 324.592 515.34 317.128 488.203 316.605 446.506 C 316.182 412.693 331.079 354.158 355.225 329.964 C 313.257 337.296 273.756 351.867 233.146 364.315 C 227.026 366.191 220.663 367.629 214.798 370.168 C 260.225 367.847 291.62 353.769 335.499 342.842 C 322.438 366.943 316.628 389.564 311.731 416.123 C 290.096 436.434 257.649 453.069 231.412 467.151 C 258.951 460.8 287.527 445.826 310.129 429.08 C 308.865 457.793 310.967 488.383 319.668 515.895 C 312.752 523.047 306.336 531.307 299.482 538.487 C 290.194 548.216 280.672 557.834 271.295 567.498 C 296.036 550.038 300.561 548.017 320.993 525.224 C 332.668 553.813 339.374 566.703 355.023 593.74 C 351.538 617.109 338.021 636.177 326.021 656.34 C 332.423 625.673 329.896 596.633 297.638 580.227 C 276.799 569.627 254.42 576.696 233.557 583.906 C 244.024 573.332 256.399 564.018 264.177 550.886 C 277.916 527.689 278.158 492.682 251.405 478.496 C 233.935 469.231 215.475 472.757 197.412 478.371 C 215.966 458.567 261.478 422.227 250.491 389.05 C 242.698 365.519 199.132 376.984 180.141 374.922 C 164.844 373.261 156.239 372.203 141.39 365.443 C 186.973 362.696 227.231 337.107 265.525 314.023 C 271.139 310.639 277.199 305.896 282.531 302.043 C 311.459 281.142 338.856 257.606 371.255 242.071 C 383.489 236.205 397.338 233.183 410.349 238.276 C 416.799 240.716 430.061 250.461 425.034 258.578 C 416.47 272.402 395.114 272.801 380.874 277.604 C 393.687 278.65 409.173 279.598 421.047 274.106 C 426.475 271.595 433.705 264.105 434.891 258.831 C 441.156 230.979 381.801 220.597 363.684 208.702 C 347.155 198.934 332.441 185.626 323.05 168.506 C 304.5 134.69 319.342 83.3175 353.406 65.2159 z" fill="rgb(254,254,254)" transform="translate(0,0)"></path>
<path d="M 567.665 191.356 C 576.395 191.698 592.203 193.998 601.536 195.087 L 587.775 207.268 C 579.786 245.207 554.868 233.115 526.043 235.056 L 524.294 235.182 C 514.131 237.767 510.021 242.677 502.279 249.721 C 512.285 221.183 536.356 194.698 567.665 191.356 z" fill="rgb(1,1,1)" transform="translate(0,0)"></path>
<path d="M 568.783 199.321 C 573.601 198.87 580.503 198.966 584.194 202.281 C 583.553 206.613 583.309 207.9 579.397 209.522 C 574.43 208.809 572.003 205.847 566.884 203.227 C 563.041 205.402 562.556 210.286 564.671 214.004 C 568.769 217.135 571.062 214.56 575.558 217.066 C 575.14 220.067 573.632 221.132 571.529 223.375 C 561.028 229.841 552.004 228.633 539.922 228.279 C 540.188 207.167 548.362 202.139 568.783 199.321 z" fill="rgb(254,254,254)" transform="translate(0,0)"></path>
<path d="M 534.684 215.756 C 535.125 219.549 535.942 222.839 534.522 226.301 C 530.979 228.898 531.66 228.063 526.5 228.462 C 526.714 223.578 531.333 219.403 534.684 215.756 z" fill="rgb(254,254,254)" transform="translate(0,0)"></path>
<path d="M 703.104 153.051 C 711.896 152.571 726.316 155.492 728.355 165.391 L 726.78 167.76 C 722.743 170.159 718.589 169.844 713.756 170.132 C 707.331 170.705 696.003 173.195 691.288 169.074 C 688.479 160.313 696.402 156.1 703.104 153.051 z" fill="rgb(1,1,1)" transform="translate(0,0)"></path>
<path d="M 916.204 1074.53 C 934.018 1058.78 952.252 1043.52 970.888 1028.75 C 980.327 1021.21 991.899 1012.86 1000.73 1005.29 C 1000.81 1027.76 1003.46 1040.15 1007.22 1061.89 C 1018.46 1126.76 994.169 1198.87 949.056 1246.17 C 933.483 1262.43 907.746 1279.22 888.158 1290.19 C 920.838 1279.73 945.681 1261.16 969.594 1236.93 C 1008.83 1197.17 1026.12 1150.89 1027.05 1095.52 L 1036.99 1107.13 C 1036.59 1124.47 1040.17 1137.76 1040.74 1154.25 C 1041.49 1175.77 1040.52 1199.42 1039.99 1221.03 L 1039.19 1222.31 C 1029.22 1238.4 1021.7 1262.82 1014.67 1280.43 C 994.621 1330.68 971.764 1382.7 927.705 1416.66 C 910.967 1429.56 894.579 1441.35 873.636 1446.25 C 853.732 1450.9 843.261 1448.35 828.6 1434.5 C 833.825 1442.16 838.834 1448.69 848 1451.93 C 879.583 1463.09 918.302 1446.94 943.384 1428.17 C 981.292 1399.81 1008.53 1360.2 1023.53 1315.53 C 1029.06 1299.35 1032.88 1283.86 1038.03 1268.22 C 1033.68 1312.28 1023.84 1351.75 1009.33 1393.76 C 1000.07 1420.58 992.914 1438.97 969.304 1457.38 C 941.406 1479.14 904.536 1497.21 868.184 1494.74 C 849.212 1493.03 826.976 1481.13 822.387 1462.54 C 822.095 1461.35 821.866 1461.25 821.505 1460.37 C 820.396 1464.3 822.457 1471.29 824.582 1474.64 C 854.323 1521.55 917.266 1504.57 954.845 1482.72 C 962.095 1478.54 969.083 1473.93 975.771 1468.9 C 965.167 1490.54 959.445 1499.95 943.634 1518.53 C 879.187 1594.29 766.859 1584.8 732.992 1485.73 C 714.724 1432.29 732.899 1396.22 751.21 1347.09 C 754.009 1351.16 756.846 1355.2 759.721 1359.21 C 739.59 1390.17 735.984 1414.59 742.303 1450.5 C 756.645 1531.99 843.645 1563.58 910.129 1516.33 C 869.251 1536.63 812.041 1536.42 789.517 1489.87 C 781.083 1472.36 780.019 1452.2 786.563 1433.9 C 792.685 1416.76 804.068 1401.16 819.221 1390.95 C 884.305 1390.32 927.512 1369.67 974.407 1323.39 C 1010.59 1287.69 1024.17 1247.39 1032.5 1198.31 L 1030.52 1194.25 C 1017.68 1240.25 1000.23 1293.5 955.872 1318.45 C 934.861 1330.27 909.925 1336.62 886.154 1330.12 C 866.243 1324.68 859.842 1310.87 857.183 1291.95 C 854.783 1346.37 911.485 1345.03 948.723 1332.8 C 912.767 1357.96 801.206 1360.3 818.004 1289.24 C 820.677 1277.93 827.234 1266.65 837.008 1260.09 C 848.315 1259.55 865.006 1259.16 875.785 1257.37 C 904.653 1252.58 930.726 1234.05 950.459 1212.85 C 984.608 1176.15 999.779 1128.33 999.32 1078.72 C 999.142 1059.49 993.144 1042.68 985.182 1025.53 C 994.573 1085.99 985.842 1140.09 949.315 1190.44 C 915.373 1237.22 839 1271.48 797.565 1214.28 C 829.359 1216.36 849.324 1213.06 874.122 1191.12 C 905.23 1163.6 920.557 1115.07 916.204 1074.53 z" fill="rgb(254,254,254)" transform="translate(0,0)"></path>
<path d="M 1030.52 1194.25 L 1032.8 1183.09 L 1034.37 1182.92 L 1034.44 1180.21 C 1034.62 1183.84 1033.08 1194.4 1032.5 1198.31 L 1030.52 1194.25 z" fill="rgb(39,39,39)" transform="translate(0,0)"></path>
<path d="M 1329.97 208.868 C 1337.35 215.89 1344.7 220.159 1352.35 226.303 C 1379.33 247.971 1408.73 259.677 1439.09 275.126 C 1493 302.556 1546.52 333.648 1596.1 368.352 C 1606.43 375.581 1619.93 385.007 1628.63 394.005 C 1619.59 400.443 1604.31 408.969 1594.57 414.795 C 1522.48 356.4 1451.38 305.523 1362.65 274.32 C 1361.56 270.591 1360.42 266.878 1359.23 263.18 L 1358.67 263.362 C 1363.94 335.239 1345.14 415.691 1306.5 476.878 C 1281.32 516.753 1247.78 554.615 1214.71 588.064 L 1216.28 588.297 C 1239.65 567.611 1261.61 545.386 1282.01 521.772 C 1332.86 463.841 1358.52 400.722 1363.99 323.536 C 1365.13 307.516 1363.85 291.252 1362.8 275.228 C 1428.04 308.816 1487.3 344.949 1543.02 393.225 C 1555.9 404.378 1567.84 414.005 1579.79 426.26 C 1471.12 497.989 1365.76 574.609 1264.04 655.884 C 1228.15 616.448 1207.15 609.052 1155.56 601.689 C 1242.79 554.225 1293.06 496.371 1327.23 401.684 C 1347.81 344.638 1357.88 264.982 1329.97 208.868 z" fill="rgb(254,254,254)" transform="translate(0,0)"></path>
<path d="M 1216.28 588.297 C 1213.19 591.764 1206.39 598.386 1202.49 600.685 C 1206.48 594.506 1208.73 592.351 1214.71 588.064 L 1216.28 588.297 z" fill="rgb(194,192,196)" transform="translate(0,0)"></path>
<path d="M 1156.65 621.419 C 1211.73 619.266 1270.9 665.88 1272.34 721.757 C 1272.78 738.517 1271.68 760.008 1259.99 773.156 C 1232.15 804.448 1196.31 830.884 1163.17 856.281 L 1094.4 909.493 C 1029.17 958.738 966.088 1010.76 905.328 1065.43 C 869.532 1097.86 835.163 1130.28 803.678 1167.06 L 790.069 1183.9 C 782.88 1165.8 774.967 1157.49 762.662 1142.51 C 769.103 1132.58 777.594 1120.48 785.421 1111.42 C 872.32 1010.76 973.101 921.972 1076.87 839.127 C 1093.19 826.099 1108.9 811.498 1127.38 802.532 C 1115.97 798.197 1105.53 794.444 1096.1 786.551 C 1057.22 754.024 1054.75 693.412 1087.38 655.583 C 1106.15 633.823 1128.52 623.927 1156.65 621.419 z" fill="rgb(254,254,254)" transform="translate(0,0)"></path>
<path d="M 1158.64 638.353 C 1217.05 631.583 1262.09 682.61 1258.57 739.428 C 1257.6 755.037 1249.03 779.123 1236.97 789.495 C 1204.73 818.634 1164.59 840.762 1131.08 867.937 C 1076.52 912.193 1019.77 954.277 965.981 999.337 C 922.435 1036.16 880.673 1075.04 840.838 1115.85 C 823.983 1132.8 801.535 1159.89 784.257 1174.02 C 793.297 1159.09 828.706 1120.91 841.598 1107.99 C 873.697 1075.82 909.235 1041.99 943.273 1011.75 C 978.94 980.07 1018.23 950.738 1055.85 921.486 C 1086.76 897.451 1116.45 873.606 1147.99 850.226 C 1174.18 829.862 1212.21 807.932 1233.32 784.465 C 1263.85 750.521 1252.36 691.696 1218.88 664.271 C 1170.37 624.531 1091.88 652.221 1099.14 719.941 C 1100.8 736.015 1108.85 750.747 1121.49 760.821 C 1133.4 770.475 1148.76 774.785 1163.95 772.733 C 1228.58 764.002 1218.44 667.062 1156.5 679.31 C 1146.45 681.257 1137.59 687.155 1131.91 695.684 C 1127.38 702.641 1125 711.822 1126.9 720.044 C 1128.79 727.952 1133.74 734.784 1140.67 739.033 C 1156.04 748.32 1178.15 737.173 1172.91 717.799 C 1170.92 710.462 1163.06 710.06 1157.34 707.856 C 1159.48 706.141 1164.06 705.258 1166.97 704.431 C 1172.2 707.363 1178.32 711.057 1179.95 717.112 C 1183.78 731.279 1174.96 745.768 1161.4 749.27 C 1152.91 751.397 1143.91 750.044 1136.42 745.513 C 1127.93 740.389 1121.81 732.112 1119.41 722.491 C 1109.18 682.242 1162.94 656.365 1194.59 679.009 C 1219.26 696.665 1222.25 733.807 1205.41 756.987 C 1185.58 783.055 1146.21 790.067 1119.89 769.969 C 1064.57 727.727 1090.25 647.307 1158.64 638.353 z" fill="rgb(1,1,1)" transform="translate(0,0)"></path>
<path d="M 842.15 1612.4 C 847.935 1612.25 857.487 1613.5 863.049 1615.45 C 1005.14 1665.31 1132.2 1752.51 1239.98 1856.78 C 1266.82 1882.74 1291.6 1910.96 1318.65 1937.1 C 1282.47 1928.3 1241.52 1917.15 1206.7 1904.02 C 1193.59 1898.45 1167.38 1868.72 1153.66 1858.34 C 1142.2 1849.68 1130.25 1840.89 1118.47 1832.43 C 1025.95 1766.99 920.793 1721.57 809.725 1699.07 C 773.369 1691.55 736.385 1685.96 699.175 1686.32 C 699.678 1685.66 700.193 1685.01 700.72 1684.38 C 726.239 1653.65 801.287 1615.75 842.15 1612.4 z" fill="rgb(254,254,254)" transform="translate(0,0)"></path>
<path d="M 742.132 1671.15 C 771.603 1667.08 803.753 1664.26 833.579 1667.45 C 935.14 1678.3 1045.25 1720.76 1126.44 1782.76 C 1166.47 1813.32 1202.55 1852.25 1237.39 1888.3 L 1236.69 1889.02 C 1228.58 1884.53 1201.78 1859 1193.52 1850.72 C 1091.56 1748.6 955.964 1682.83 811.746 1671.18 C 790.005 1669.43 765.238 1671.56 742.929 1673.13 L 742.132 1671.15 z" fill="rgb(1,1,1)" transform="translate(0,0)"></path>
<path d="M 723.068 1676.11 C 728.328 1673.27 736.259 1671.99 742.132 1671.15 L 742.929 1673.13 L 723.068 1676.11 z" fill="rgb(39,39,39)" transform="translate(0,0)"></path>
<path d="M 1656.67 393.83 L 1658.76 394.68 C 1671.01 421.679 1733.88 463.704 1760.57 481.318 C 1705.31 495.462 1674.8 512.685 1625.07 537.286 C 1502.08 598.135 1384.7 669.733 1274.3 751.245 C 1279.49 722.656 1278.14 715.928 1270.26 688.363 C 1288.4 677.891 1301.8 666.488 1318.32 653.801 L 1385.57 602.434 C 1444.26 558.467 1506.93 514.999 1566.92 472.821 C 1587.69 458.306 1652.31 419.215 1665.41 402.644 C 1599.16 441.501 1536.7 485.532 1474.54 530.522 C 1446.73 550.646 1417.9 570.864 1390.56 591.531 L 1322.02 643.624 C 1303.7 657.74 1287.7 670.785 1268.71 684.133 L 1263.09 671.799 C 1277 666.034 1292.37 652.196 1304.62 642.835 C 1419.36 555.201 1532.57 468.264 1656.67 393.83 z" fill="rgb(254,254,254)" transform="translate(0,0)"></path>
<path d="M 1144.26 164.827 C 1163.75 169.574 1191.67 181.818 1210.22 189.255 C 1250.69 205.473 1292.84 223.743 1331.15 244.715 C 1333.93 259.948 1334.9 284.679 1333.92 300.079 C 1328.28 388.142 1289.5 474.794 1223.45 533.783 C 1203.07 551.249 1180.69 566.759 1159.13 582.821 C 1157.54 556.334 1158.63 517.409 1165.77 492.677 C 1185.72 423.499 1231.19 377.023 1220.22 297.922 C 1212.26 240.519 1189.33 200.045 1144.26 164.827 z" fill="rgb(254,254,254)" transform="translate(0,0)"></path>
<path d="M 359.271 603.52 C 362.71 606.512 377.28 633.751 379.978 639.556 C 390.749 662.729 392.823 677.105 388.769 701.651 C 381.114 748.005 346.425 771.409 313.213 801.899 C 293.418 820.275 274.444 839.517 256.347 859.568 C 225.797 893.272 202.373 932.803 187.483 975.786 C 125.616 1151.93 245.193 1388 420.356 1449.69 C 399.861 1469.41 429.484 1489.7 440.327 1504.8 L 441.192 1506.02 C 403.131 1491.44 371.57 1449.52 339.575 1424.66 C 331.976 1418.75 324.636 1411.14 315.561 1407.54 C 312 1407.82 313.615 1407.23 310.673 1409.67 C 308.12 1422.4 329.639 1450.51 336.259 1463.5 L 336.867 1464.71 C 303.001 1441.65 281.09 1397.02 262.1 1362.13 C 255.234 1349.02 240.932 1320.54 228.101 1314.62 C 212.397 1314.78 226.481 1361.78 228.237 1370.05 C 193.191 1322.91 192.321 1248.82 175.809 1194.67 C 174.139 1189.2 172.678 1185.21 167.686 1182.75 C 154.323 1184.44 152.123 1224.89 150.832 1236.4 C 146.544 1212.94 144.413 1195.91 145.242 1172.04 C 146.179 1145.04 165.226 1077.92 153.648 1055.49 C 141.02 1046.22 121.109 1081.72 115.359 1090.54 C 118.393 1075.02 122.773 1065 129.314 1050.73 C 136.033 1036.07 186.921 963.277 169.746 952.52 C 158.417 951.74 137.264 968.011 125.443 974.347 C 141.595 942.63 213.965 890.45 216.723 872.513 C 215.957 869.09 215.923 869.346 213.405 866.832 C 203.649 862.859 183.945 871.1 172.078 873.757 C 190.17 851.59 280.498 814.882 284.934 802.343 C 284.67 799.021 284.546 799.246 282.454 796.571 C 276.992 794.206 252.435 796.979 244.198 797.173 C 264.172 782.265 298.123 776.326 319.999 763.563 C 343.944 749.051 370.315 727.073 378.269 699.152 C 382.774 683.339 377.503 663.686 359.552 660.396 C 344.49 657.636 331.536 667.7 319.701 675.58 C 331.455 647.688 347.193 636.016 359.271 603.52 z" fill="rgb(254,254,254)" transform="translate(0,0)"></path>
<path d="M 682.042 1698.41 C 716.403 1694.24 768.399 1703.12 802.033 1709.85 C 918.363 1732.68 1028.25 1780.8 1123.93 1850.8 C 1140.77 1863.38 1159.5 1880.45 1175.75 1894.44 C 1164.22 1889.65 1152.44 1886.41 1140.65 1882.27 L 1076.6 1859.24 C 1066.8 1855.7 1048.03 1849.45 1039.57 1844.88 C 1023.56 1836.23 1006.95 1819.64 991.606 1808.84 C 966.406 1791.11 942.156 1779.15 914.288 1766.75 C 897.684 1759.84 889.118 1756.89 872.037 1751.35 L 871.776 1751.65 C 933.957 1778.59 960.982 1791.01 1013.38 1836.71 C 887.795 1780.54 731.325 1733.65 592.9 1760.74 C 577.062 1763.84 559.111 1772.88 544.563 1780.02 C 570.046 1756.23 590.365 1737.96 620.847 1719.95 C 646.754 1704.65 651.131 1700.67 682.042 1698.41 z" fill="rgb(254,254,254)" transform="translate(0,0)"></path>
<path d="M 1349.81 731.059 L 1350.31 731.601 C 1350.41 735.394 1346.9 751.291 1346.32 756.489 C 1343.53 781.904 1335.28 822.757 1314.02 839.667 C 1277.68 868.566 1239.22 876.468 1219.07 923.715 C 1210.47 943.613 1210.29 966.142 1218.56 986.177 C 1234.43 1025 1273.7 1023.69 1306.55 1010.23 C 1297.84 1018.19 1288.26 1027.01 1277.18 1031.55 C 1241.9 1046.03 1206.98 1018.95 1194.06 987.351 C 1180.17 953.395 1181.84 928.829 1195.24 895.715 C 1204.78 873.443 1221.4 854.603 1237.84 837.227 C 1178.41 879.062 1151.54 937.602 1188.96 1004.52 C 1155.62 969.067 1146.64 910.756 1177.32 871.982 C 1197.92 845.955 1238.78 819.381 1264.92 798.23 C 1292.41 775.975 1321.14 751.215 1349.81 731.059 z" fill="rgb(254,254,254)" transform="translate(0,0)"></path>
<path d="M 816.378 429.259 C 839.694 429.046 872.863 434.433 895.827 438.249 C 962.226 449.283 1023.09 472.317 1078.98 510.101 C 1093.77 520.101 1107.12 527.89 1120.96 540.002 C 1118.65 551.567 1114.81 563.203 1111.36 574.515 L 1107.78 585.933 C 1096.92 579.841 1084.59 575.754 1073.21 570.526 C 1013.31 543.005 960.94 503.494 903.63 470.972 C 884.815 460.119 865.482 450.189 845.699 441.22 C 836.215 437.019 826.591 433.899 817.426 429.742 L 816.378 429.259 z" fill="rgb(254,254,254)" transform="translate(0,0)"></path>
<path d="M 1708.91 537.171 C 1717.78 547.535 1700.76 583.202 1694.81 593.041 C 1658.2 653.783 1586.03 691.568 1520.56 713.223 C 1480.87 726.35 1454.25 720.139 1426.02 757.226 L 1423.75 756.966 C 1420.28 751.923 1427.66 739.244 1431.55 736.016 C 1463.17 709.781 1504.24 702.987 1539.86 681.061 C 1556.57 669.31 1570.79 653.949 1578.08 634.482 C 1581.31 625.879 1583.65 608.79 1579.41 600.362 C 1578.13 597.834 1578.17 599.043 1577.74 596.173 C 1581.8 593.516 1585.93 591.468 1590.32 589.447 C 1619.2 576.164 1647.66 561.149 1677.02 549.012 C 1664.92 587.961 1625.26 636.683 1592.5 661.604 C 1633.71 642.835 1672.15 591.365 1681.26 547.154 C 1690.42 543.673 1699.64 540.345 1708.91 537.171 z" fill="rgb(254,254,254)" transform="translate(0,0)"></path>
<path d="M 853.068 579.429 C 915.375 576.57 988.452 583.409 1048.42 601.771 C 1060.32 605.417 1079.89 614.902 1091.99 620.454 C 1072.7 633.136 1069.06 638.431 1054.54 656.214 C 1034.74 654.512 1021 652.942 1001.53 649.257 C 962.875 640.483 930.827 629.418 893.189 617.748 C 849.002 604.048 798.394 593.879 752.235 590.315 C 791.365 583.734 812.388 581.67 853.068 579.429 z" fill="rgb(254,254,254)" transform="translate(0,0)"></path>
<path d="M 1031.74 728.949 C 1040.46 739.148 1024.24 784.988 1020.27 797.888 C 995.715 812.302 970.007 823.929 945.304 837.99 C 892.849 867.845 842.532 901.631 801.58 946.312 L 800.587 947.42 L 800.29 946.22 C 804.908 934.521 818.728 915.135 826.466 904.493 C 880.982 829.518 953.134 776.052 1031.74 728.949 z" fill="rgb(254,254,254)" transform="translate(0,0)"></path>
<path d="M 1063.11 130.898 C 1068.89 131.78 1127.2 157.256 1132.78 160.937 C 1142.04 167.134 1150.46 174.496 1157.85 182.843 C 1211.59 242.729 1227.21 322.325 1196.54 396.606 C 1183.86 427.316 1167.58 453.412 1158.69 485.976 C 1149.37 520.122 1151.02 552.375 1149.19 586.931 C 1147.17 589.548 1144.97 591.161 1141.72 590.477 C 1137.94 584.87 1140 567.318 1139.98 560.379 C 1140.02 524.344 1145.99 483.5 1161.69 450.406 C 1186.32 398.486 1202.47 352.228 1194.37 293.574 C 1182.82 209.999 1124.47 176.704 1063.11 130.898 z" fill="rgb(254,254,254)" transform="translate(0,0)"></path>
<path d="M 990.34 297.821 C 999.83 300.553 1013.52 309.186 1022.1 314.47 C 1072.8 345.692 1109.85 386.32 1145.07 433.755 C 1138.03 447.034 1133.72 456.928 1128.6 470.757 C 1126.41 477.309 1125.69 479.769 1124.56 486.596 C 1102.19 451.634 1077.27 417.411 1055.18 382.102 C 1036.11 351.625 1017.12 322.261 990.34 297.821 z" fill="rgb(254,254,254)" transform="translate(0,0)"></path>
<path d="M 1767.51 487.21 C 1773.28 486.613 1782.23 494.961 1783.37 499.708 L 1782.28 501.379 C 1779.83 502.097 1779.32 501.469 1777.07 501.297 C 1765.86 500.443 1751.33 506.18 1740.01 509.095 C 1699.13 519.631 1661.86 538.229 1624.07 556.486 C 1534.32 599.846 1448.74 651.56 1365.76 706.655 C 1336.24 726.212 1307.35 747.144 1277.8 766.249 L 1265.28 773.711 C 1267.06 769.531 1268.9 764.888 1272.26 761.799 C 1291.61 744 1315.89 728.631 1337.6 714.02 C 1430.87 649.971 1528.58 592.649 1629.99 542.488 C 1674.29 520.459 1718.58 497.311 1767.51 487.21 z" fill="rgb(254,254,254)" transform="translate(0,0)"></path>
<path d="M 1726.01 531.133 C 1730 531.929 1736.94 540.238 1740.12 543.222 C 1783.55 583.911 1792.62 627.904 1759.98 680.256 C 1757.82 665.568 1754.97 652.337 1751.9 637.792 C 1749.8 626.024 1747.57 614.28 1745.21 602.561 C 1744.21 618.841 1744.37 638.662 1747.11 654.576 C 1734.71 632.136 1723.77 617.552 1708.26 597.346 C 1717.28 571.594 1718.2 562.237 1712.12 535.485 C 1716.32 533.869 1721.63 532.442 1726.01 531.133 z" fill="rgb(254,254,254)" transform="translate(0,0)"></path>
<path d="M 1097.37 802.715 C 1101.97 802.41 1107.18 802.259 1108.85 806.979 C 1107.74 809.788 1106.2 811.896 1103.74 813.779 C 1022.5 875.977 943.095 941.314 870.301 1013.27 C 830.16 1052.95 794.885 1088.38 761.857 1134.34 C 760.357 1136.42 761.309 1135.64 759.02 1136.7 C 755.956 1135.57 753.501 1131.94 751.271 1129.27 C 771.847 1099.7 805.199 1064.07 830.165 1038.24 C 871.608 995.468 914.803 954.428 959.64 915.226 C 1005.08 876.016 1051.11 840.648 1097.37 802.715 z" fill="rgb(254,254,254)" transform="translate(0,0)"></path>
<path d="M 732.385 1519.75 C 733.116 1520.54 733.147 1520.44 733.55 1521.36 C 750.761 1560.8 783.769 1584.2 827.186 1585.71 C 856.707 1586.73 880.964 1577.76 908.023 1566.45 C 901.045 1573.51 895.475 1578.8 887.982 1585.3 C 880.638 1591.15 874.332 1596.31 866.396 1601.41 C 827.362 1596.07 817.407 1600.59 782.485 1617.81 C 737.041 1598.97 721.487 1567.23 732.385 1519.75 z" fill="rgb(254,254,254)" transform="translate(0,0)"></path>
<path d="M 786.98 1216.75 C 788.403 1217.77 797.024 1233.46 801.295 1238 C 794.354 1242.43 790.197 1244.87 785.311 1251.67 C 764.658 1280.42 771.042 1321.17 800.601 1341.15 C 805.271 1344.21 813.936 1349.88 819.319 1350.56 C 832.979 1352.3 845.467 1357.12 858.423 1360.36 C 876.961 1365 898.9 1359.73 917.42 1356.67 L 904.286 1362.07 C 862.128 1376.44 811.548 1383.93 777.657 1348.89 C 760.943 1331.61 754.57 1312.41 754.719 1288.62 C 754.911 1258.06 765.474 1237.75 786.98 1216.75 z" fill="rgb(254,254,254)" transform="translate(0,0)"></path>
<path d="M 766.872 1365.74 C 770.965 1367.22 779.556 1372.9 783.526 1375.49 C 795.988 1383.62 802.117 1385.98 816.281 1389.9 C 798.625 1401.02 780.463 1420.23 774.326 1440.57 C 767.222 1464.11 774.155 1483.93 784.998 1504.75 C 787.788 1509.19 791.408 1514.27 794.388 1518.68 C 757.729 1493.78 738.311 1455.77 742.606 1410.49 C 744.104 1394.69 754.02 1375.27 766.872 1365.74 z" fill="rgb(254,254,254)" transform="translate(0,0)"></path>
<path d="M 591.493 1093.07 C 652.567 1087.35 642.949 1175.82 616.131 1183.38 C 608.243 1165.24 599.298 1148.8 580.986 1139.36 C 568.378 1132.85 562.585 1127.52 570.083 1113.26 C 575.901 1102.19 579.696 1097.04 591.493 1093.07 z" fill="rgb(254,254,254)" transform="translate(0,0)"></path>
<path d="M 602.869 1032.28 C 637.225 1031.32 645.731 1053.95 643.117 1084.02 C 642.498 1091.14 643.455 1104.08 639.062 1109.78 C 634.931 1107.05 630.073 1101.55 626.493 1097.85 C 616.098 1089.2 605.458 1085.27 592.027 1086.99 C 587.575 1087.56 584.115 1088.13 579.877 1086.75 C 577.43 1084.93 575.84 1082.74 575.478 1079.62 C 572.676 1055.49 575.274 1036.98 602.869 1032.28 z" fill="rgb(254,254,254)" transform="translate(0,0)"></path>
<path d="M 569.806 1142.07 C 597.925 1146.52 618.632 1186.98 602.532 1211.22 C 597.949 1218.12 589.082 1225.76 580.988 1227.7 L 579.564 1226.65 C 576.388 1215.29 568.147 1188.36 554.409 1186.48 C 515.431 1181.15 550.756 1146.56 569.806 1142.07 z" fill="rgb(254,254,254)" transform="translate(0,0)"></path>
<path d="M 525.506 1188.26 C 582.05 1184.28 580.179 1248.73 546.827 1259.02 C 542.324 1257.06 534.972 1253.95 531.396 1251.01 C 518.339 1240.27 506.805 1219.68 499.107 1204.92 C 507.743 1194.99 513.201 1191.82 525.506 1188.26 z" fill="rgb(254,254,254)" transform="translate(0,0)"></path>
<path d="M 549.682 650.358 C 557.686 649.553 567.747 649.067 570.989 657.926 C 578.248 677.763 564.326 693.269 548.213 700.463 C 539.25 699.152 530.281 697.695 521.246 697.079 C 510.582 696.243 501.164 696.045 490.499 695.857 C 490.663 685.871 490.457 676.521 496.83 668.084 C 505.473 656.639 535.567 652.415 549.682 650.358 z" fill="rgb(254,254,254)" transform="translate(0,0)"></path>
<path d="M 583.253 981.215 C 616.605 979.476 631.8 999.024 631.918 1031.15 C 618.167 1025.66 608.423 1024.58 593.978 1027.82 C 583.087 1031.48 579.325 1036.18 572.391 1044.55 C 551.131 1029.13 548.348 1008.4 568.949 988.889 C 572.94 985.11 578.116 983.096 583.253 981.215 z" fill="rgb(254,254,254)" transform="translate(0,0)"></path>
<path d="M 491.995 702.182 C 504.126 701.429 529.012 701.689 540.409 705.2 C 567.809 713.64 545.368 742.527 528.15 749.419 C 521.621 750.492 516.062 748.903 509.794 747.167 C 495.051 743.086 482.172 742.078 466.907 742.115 C 469.585 724.747 474.153 709.27 491.995 702.182 z" fill="rgb(254,254,254)" transform="translate(0,0)"></path>
<path d="M 430.393 786.961 C 445.273 786.392 457.586 790.131 471.708 792.935 C 510.999 800.735 497.509 821.992 470.924 836.637 C 467.641 837.836 462.404 838.997 458.882 839.892 C 447.941 833.16 438.284 828.25 426.02 824.149 C 419.732 822.046 411.726 822.158 408.344 818.12 C 405.278 806.724 421.878 792.833 430.393 786.961 z" fill="rgb(254,254,254)" transform="translate(0,0)"></path>
<path d="M 516.937 543.486 C 542.514 544.46 561.385 576.917 538.426 594.46 C 527.276 602.98 515.005 609.151 502.845 616.081 L 493.534 621.555 C 488.335 609.403 481.969 599.966 476.633 588.293 C 496.368 570.613 503.228 568.985 516.937 543.486 z" fill="rgb(254,254,254)" transform="translate(0,0)"></path>
<path d="M 570.953 931.158 C 592.844 931.6 604.418 957.081 603.541 976.63 C 580.414 973.263 570.966 975.603 555.275 993.341 C 551.395 999.45 550.86 1001.57 548.767 1008.27 C 541.124 1002.86 534.689 997.208 532.868 987.526 C 528.143 962.41 546.806 936.376 570.953 931.158 z" fill="rgb(254,254,254)" transform="translate(0,0)"></path>
<path d="M 552.424 588.532 C 567.796 594.547 572.869 619.007 565.845 632.79 C 558.984 646.257 543.297 646.275 530.338 648.962 C 522.472 650.593 515.723 652.194 507.99 654.608 C 504.534 655.739 499.363 658.118 495.867 659.591 C 495.626 647.42 495.203 638.127 497.499 626.187 C 520.05 610.35 528.777 610.96 552.424 588.532 z" fill="rgb(254,254,254)" transform="translate(0,0)"></path>
<path d="M 483.569 505.696 C 499.344 505.681 504.043 514.156 510.651 527.561 C 518.558 543.604 484.209 580.096 471.4 583.292 C 457.099 572.948 451.686 568.762 441.792 554.46 C 464.203 535.611 471.617 534.722 483.569 505.696 z" fill="rgb(254,254,254)" transform="translate(0,0)"></path>
<path d="M 473.928 746.429 C 555.815 748.255 516.28 795.823 492.778 792.919 C 474.779 789.122 458.763 784.533 440.412 781.724 C 444.646 762.175 452.116 747.688 473.928 746.429 z" fill="rgb(254,254,254)" transform="translate(0,0)"></path>
<path d="M 299.306 926.221 C 303.141 925.902 306.996 925.907 310.83 926.236 C 320.885 927.109 343.544 933.287 350.413 941.29 C 354.452 945.995 352.415 953.762 351.492 959.584 C 343.717 964.672 335.413 972.087 327.561 976.177 C 305.892 963.957 300.292 966.176 275.992 967.3 L 274.674 965.92 C 270.604 948.872 282.837 931.581 299.306 926.221 z" fill="rgb(254,254,254)" transform="translate(0,0)"></path>
<path d="M 479.354 1207.27 C 483.368 1207 489.12 1207.39 493.273 1207.54 C 504.682 1223.04 514.479 1243.7 526.445 1260.53 C 520.121 1262.56 512.214 1267.28 506.236 1270.58 C 488.434 1275.92 471.175 1270.59 468.733 1251 C 465.687 1226.56 448.391 1212.46 479.354 1207.27 z" fill="rgb(254,254,254)" transform="translate(0,0)"></path>
<path d="M 379.305 1199.05 C 405.597 1198.29 414.262 1217.72 416.512 1240.58 C 417.936 1255.04 421.558 1262.51 405.366 1266.95 C 386.631 1267.43 369.677 1260.25 366.923 1239.31 C 365.153 1225.84 368.25 1208.03 379.305 1199.05 z" fill="rgb(254,254,254)" transform="translate(0,0)"></path>
<path d="M 802.025 1238.96 C 813.627 1246.63 821.168 1251.57 833.881 1257.13 C 804.862 1277.58 794.044 1313.71 820.317 1342.29 L 822.331 1344.47 L 820.649 1344.91 C 770.725 1331.15 766.696 1271.84 802.025 1238.96 z" fill="rgb(254,254,254)" transform="translate(0,0)"></path>
<path d="M 1742.68 527.312 C 1751.36 526.001 1758.66 532.198 1764.85 537.769 C 1815.84 583.705 1818.11 631.126 1772.7 680.967 L 1770.46 682.422 C 1769.82 680.281 1777.12 665.673 1778.4 662.622 C 1803 603.943 1776.81 564.493 1728.91 529.711 L 1742.68 527.312 z" fill="rgb(254,254,254)" transform="translate(0,0)"></path>
<path d="M 287.292 1015.29 C 324.265 1009.82 317.866 1032.41 307.994 1057.52 C 291.665 1055.66 285.835 1055.24 270.207 1060.46 C 263.962 1062.9 257.057 1068.41 251.521 1066.85 C 242.698 1058.44 249.853 1036.83 255.505 1028.2 C 261.23 1019.45 277.641 1017.02 287.292 1015.29 z" fill="rgb(254,254,254)" transform="translate(0,0)"></path>
<path d="M 367.857 852.993 C 373.274 853.078 380.434 856.244 385.694 858.39 C 402.622 865.296 437.807 885.111 404.377 899.819 C 398.738 902.301 394.34 904.144 388.033 904.824 C 384.106 904.366 383.351 903.854 379.948 901.612 C 365.593 892.153 352.109 887.466 336.054 881.723 C 342.739 867.919 353.263 857.913 367.857 852.993 z" fill="rgb(254,254,254)" transform="translate(0,0)"></path>
<path d="M 344.598 1175.05 C 360.182 1174.33 364.374 1181.86 371.25 1194.34 C 361.68 1212.68 361.056 1227.22 360.213 1247.25 L 348.14 1245.29 C 331.605 1239.49 323.916 1234.14 318.366 1217.24 C 322.594 1203.19 327.361 1191.42 335.055 1178.99 C 338.176 1177.33 341.293 1176.29 344.598 1175.05 z" fill="rgb(254,254,254)" transform="translate(0,0)"></path>
<path d="M 397.472 823.044 C 410.998 822.151 446.409 832.831 453.243 846.173 C 459.165 857.735 439.85 866.528 431.744 870.347 L 420.738 872.861 C 405.157 862.456 388.23 856.506 374.983 847.716 C 379.852 834.242 385.587 829.885 397.472 823.044 z" fill="rgb(254,254,254)" transform="translate(0,0)"></path>
<path d="M 319.806 1141.04 C 334.091 1142.26 338.909 1156.98 342.671 1168.78 C 317.677 1178.49 321.879 1199.18 312.257 1212.6 L 309.616 1212.84 L 308.362 1212.23 C 266.804 1191.43 284.195 1151.87 319.806 1141.04 z" fill="rgb(254,254,254)" transform="translate(0,0)"></path>
<path d="M 297.845 1104.12 C 318.224 1102.85 322.816 1117.49 324.119 1134.63 C 304.062 1139.55 294.29 1145.88 283.145 1163.94 C 281.082 1167.75 281.925 1167.67 278.78 1169.17 C 269.441 1167.44 264.084 1159.25 261.591 1150.58 C 259.156 1142.26 260.316 1133.3 264.79 1125.87 C 271.693 1114.27 285.116 1107.37 297.845 1104.12 z" fill="rgb(254,254,254)" transform="translate(0,0)"></path>
<path d="M 326.998 889.072 C 340.986 888.359 349.595 890.65 362.188 896.261 C 390.46 908.859 386.22 928.1 358.517 936.2 C 353.243 936.275 347.35 932.776 342.352 930.553 C 328.855 924.549 316.412 922.203 301.808 920.128 L 302.406 918.229 C 306.59 905.347 314.878 895.264 326.998 889.072 z" fill="rgb(254,254,254)" transform="translate(0,0)"></path>
<path d="M 456.272 473.897 C 478.187 491.647 484.516 506.688 463.339 529.437 C 455.337 538.032 449.272 542.979 439.485 549.592 L 437.407 549.559 C 428.83 540.715 422.404 522.562 420.279 510.5 C 434.488 498.348 444.854 488.796 456.272 473.897 z" fill="rgb(254,254,254)" transform="translate(0,0)"></path>
<path d="M 291.79 1061.34 C 312.561 1059.81 310.248 1085.45 309.443 1098.97 C 287.645 1099.07 278.078 1104.26 262.603 1118.85 L 259.962 1120.57 C 247.297 1118.93 242.112 1089.54 251.447 1079.71 C 262.375 1068.21 276.631 1063.29 291.79 1061.34 z" fill="rgb(254,254,254)" transform="translate(0,0)"></path>
<path d="M 286.736 971.402 C 295.109 970.478 310.524 971.989 317.446 976.684 C 331.706 986.356 321.897 999.908 314.595 1010.33 C 303.609 1009.25 299.803 1008.75 288.456 1009 C 277.082 1010.86 269.024 1014 258.068 1016.85 C 254.294 1004.81 253.483 991.529 262.305 981.037 C 269.249 972.779 276.745 972.355 286.736 971.402 z" fill="rgb(254,254,254)" transform="translate(0,0)"></path>
<path d="M 426.377 1211.22 C 459.597 1209.02 458.744 1224.34 462.032 1252.58 C 462.655 1257.94 465.301 1262.09 464.675 1267.84 C 462.324 1271.09 461.085 1271.24 457.232 1272.94 C 428.006 1274.67 423.575 1257.66 420.806 1232.93 C 420.194 1227.46 417.269 1220.5 417.982 1215.15 C 420.293 1212.6 422.995 1212.25 426.377 1211.22 z" fill="rgb(254,254,254)" transform="translate(0,0)"></path>
<path d="M 903.704 1109.8 C 904.249 1115.31 898.823 1124.47 896.438 1129.68 C 879.544 1166.59 841.557 1209.58 795.707 1197.43 L 794.501 1195.46 C 795.784 1192.22 809.508 1178.62 812.83 1175.16 C 853.152 1176.92 883.276 1140.19 903.704 1109.8 z" fill="rgb(254,254,254)" transform="translate(0,0)"></path>
<path d="M 1386.12 805.775 C 1388.91 808.648 1392.09 815.518 1393.6 819.323 C 1407.18 853.488 1381.52 879.861 1351.26 890.338 C 1337.2 895.203 1325.92 895.282 1311.53 895.787 C 1308.19 895.947 1305.05 896.47 1302.03 895.27 C 1307.13 885.66 1396.01 877.638 1386.12 805.775 z" fill="rgb(254,254,254)" transform="translate(0,0)"></path>
<path d="M 389.079 67.7433 L 389.818 67.8698 L 390.374 68.8388 C 364.941 99.0895 371.34 143.18 404.762 164.24 C 410.48 167.843 417.555 169.449 423.331 173.539 C 421.689 175.257 419.931 174.751 416.781 175.026 C 400.015 175.055 382.01 172.763 372.528 157.185 C 354.235 127.129 360.077 87.7828 389.079 67.7433 z" fill="rgb(254,254,254)" transform="translate(0,0)"></path>
<path d="M 709.734 209.333 C 712.095 208.923 721.699 208.8 724.616 208.698 C 672.822 226.321 634.699 244.66 602.318 290.401 L 594.055 302.782 C 595.88 287.875 597.864 277.78 606.981 265.34 C 629.9 234.068 672.306 214.848 709.734 209.333 z" fill="rgb(254,254,254)" transform="translate(0,0)"></path>
<path d="M 450.846 446.192 C 454.539 449.372 455.123 459.166 455.701 464.115 C 445.862 479.754 433.987 490.463 420.6 502.89 L 419.245 503.041 C 415.6 498.534 417.214 486.302 417.07 480.483 C 416.401 453.396 429.528 452.159 450.846 446.192 z" fill="rgb(254,254,254)" transform="translate(0,0)"></path>
<path d="M 909.632 1081.78 C 910.712 1086.99 906.708 1095.25 904.2 1100 C 886.689 1133.1 856.755 1157.9 820.972 1168.95 C 821.111 1166.81 832.741 1157.53 835.447 1155.06 C 861.054 1131.62 885.299 1106.52 909.632 1081.78 z" fill="rgb(254,254,254)" transform="translate(0,0)"></path>
<path d="M 544.682 915.149 C 556.046 916.777 560.254 919.008 569.352 925.171 C 545.151 932.417 530.491 946.821 525.311 972.043 C 525.032 975.922 525.754 978.72 521.881 979.994 C 517.739 978.798 512.372 972.806 508.965 969.544 C 514.686 954.449 532.582 925.824 544.682 915.149 z" fill="rgb(254,254,254)" transform="translate(0,0)"></path>
<path d="M 1142.96 895.011 C 1143.48 895.526 1144 896.71 1143.9 897.389 C 1141.79 911.622 1139.63 924.169 1140.79 938.57 C 1127.8 929.778 1120.94 928.169 1105.88 928.576 C 1102.62 929.046 1096.27 931.059 1092.87 932.032 C 1106.17 921.142 1128.64 904.184 1142.96 895.011 z" fill="rgb(254,254,254)" transform="translate(0,0)"></path>
<metadata><recraft-signature>{"signed_by": "recraft", "signature_b64": "M0iSnq6qUzlfJo+p/Mj7xjl4UxBxSfAFfg53u0m3wUhez4FlpleicNdVz56QX+Ffc/fjKmCijH2RBORMWe2KAA==", "signing_algo": "Ed25519", "generation_timestamp": 1784270408, "identifier": "b6748886-af9c-40f1-8b07-4b165e7725a1"}</recraft-signature></metadata></svg>