<svg xmlns="http://www.w3.org/2000/svg" height="1024" preserveAspectRatio="none" style="display: block;" version="1.1" viewBox="0 0 2048 2048" width="1024">
<path d="M 0 0 L 2048 0 L 2048 2048 L 0 2048 L 0 0 z" fill="rgb(251,238,222)" transform="translate(0,0)"></path>
<path d="M 522.069 334.076 C 524.618 334.568 524.512 334.414 526.407 336.147 C 527.37 346.892 526.91 359.692 526.91 370.659 L 526.943 426.921 L 1431.32 427.336 C 1431.74 400.73 1431.15 373.047 1431.22 346.272 C 1457.44 346.705 1484.29 345.671 1510.44 346.63 C 1511.46 355.737 1511.13 370.769 1511.14 380.325 L 1511.21 437.774 L 1511.24 625.946 L 1512.06 1207.99 C 1539.33 1207.94 1568.34 1207.43 1595.46 1208.2 C 1596.97 1230.08 1595.94 1265.29 1595.95 1288.17 C 1573.8 1289.83 1535.48 1288.73 1512.11 1288.85 L 1512.14 1316.83 C 1551.33 1322.48 1576.01 1331.35 1604.03 1361.51 C 1648.23 1409.07 1655.33 1507.14 1604.63 1552.4 C 1604.16 1562.02 1604.77 1574.81 1604.8 1584.79 L 1604.82 1651.55 C 1574.52 1652.87 1537.24 1651.97 1506.39 1652.07 C 1505.85 1669.89 1506.17 1688.15 1506 1706 C 1505.87 1719.1 1507.26 1729.85 1504.5 1742.91 L 1503.84 1742.97 C 1502.63 1732.69 1502.94 1717.62 1502.9 1706.97 L 1502.74 1652.11 L 1436.29 1652.19 C 1433.06 1655.4 1436.66 1730.68 1433.87 1742.08 C 1431 1733.06 1431.95 1667.29 1431.91 1652.59 C 1400.69 1651.27 1358.45 1652.47 1326.51 1652.4 L 1104.68 1652.22 L 526.739 1652.4 C 526.498 1666.49 527.868 1738.31 524.886 1746.73 C 520.736 1742.47 522.283 1664.45 522.275 1652.55 C 494.491 1652.02 459.006 1652.83 430.674 1651.65 C 429.416 1651.6 429.53 1651.12 428.889 1649.74 C 434.133 1646.71 511.392 1648.04 522.23 1648.05 L 522.089 1289.52 C 494.893 1289.49 465.538 1290.52 438.639 1289.56 C 437.753 1274.92 437.671 1223.28 439.222 1210.01 C 466.576 1209.58 494.492 1209.78 521.914 1209.65 L 521.856 431.057 L 457.692 431.15 C 451.19 431.186 429.381 433.127 425.886 428.392 C 429.755 426.174 510.629 426.977 521.7 426.98 C 522.392 396.608 521.972 364.602 522.069 334.076 z" fill="rgb(30,30,29)" transform="translate(0,0)"></path>
<path d="M 526.457 431.031 L 1101.5 431.113 C 1209.44 431.184 1323.8 429.246 1431.29 431.64 L 1430.93 1208.97 L 1133.66 1209.33 C 1127.92 1179.43 1119.55 1141.76 1127.4 1111.72 C 1129.52 1103.57 1133.82 1096.6 1138.14 1089.43 C 1172.37 1091.21 1249.37 1088.15 1238.59 1035.07 C 1236.29 1023.76 1224.5 1010.92 1238.2 999.785 C 1249.83 990.322 1248.41 983.284 1245.24 970.093 C 1265.2 955.613 1252.03 947.455 1259.18 930.719 C 1265.92 914.933 1292.51 931.854 1301.85 914.491 C 1310.88 897.695 1297.73 883.098 1292.89 867.006 C 1284.14 842.281 1273.35 817.918 1267.98 792.194 C 1266.58 785.403 1272.79 771.201 1273.28 764.458 C 1275.24 737.955 1266.92 712.378 1259.74 687.783 L 1267.78 684.912 C 1276.26 682.375 1281.15 680.915 1289.12 677.273 C 1287.48 665.843 1283.01 653.156 1275.71 643.953 C 1271.7 638.909 1268.73 638.977 1262.49 638.581 C 1252.64 626.085 1279.96 580.899 1230.68 576.069 C 1176.54 515.711 1109.62 480.737 1028.87 472.393 C 944.127 463.85 859.449 489.211 793.355 542.931 C 728.233 595.688 686.989 672.357 678.86 755.772 C 670.617 840.465 695.292 918.915 749.409 984.614 C 733.63 1009.35 744.638 1006.83 755.228 1023.72 C 753.114 1026.1 753.598 1024.76 752.952 1027.56 C 763.774 1042.82 776.326 1053.94 794.171 1059.89 C 803.192 1076.16 806.967 1086.44 807.294 1105.45 C 807.91 1141.26 799.403 1175 791.466 1209.56 C 703.775 1208.47 614.109 1209.47 526.283 1209.59 C 524.505 1065 526.016 917.2 526.03 772.259 L 525.954 562.433 C 525.755 518.632 525.923 474.829 526.457 431.031 z" fill="rgb(107,175,190)" transform="translate(0,0)"></path>
<path d="M 526.661 1289.06 L 1430.97 1288.94 C 1431.03 1302.45 1430.4 1324.56 1431.67 1337.13 C 1394.88 1360.92 1386.06 1388.25 1381.99 1429.31 C 1377.28 1434.71 1374.35 1438.05 1370.41 1443.98 C 1370.64 1447.46 1371.47 1456.41 1370.07 1460.25 C 1363.84 1476.87 1333.53 1516.41 1354.74 1531.72 C 1377.1 1547.84 1399.47 1524.33 1412.51 1508.05 C 1418.99 1499.97 1425.77 1494.66 1431.16 1485.7 L 1431.12 1537.14 C 1431.16 1547.34 1431.72 1561.05 1430.66 1570.81 C 1428.77 1572.62 1427.6 1572.01 1424.15 1572.21 C 1422.95 1572.26 1414.26 1572.52 1413.83 1572.27 C 1372.49 1547.47 1372.44 1594.58 1373.09 1626.21 L 1431.3 1626 L 1431.36 1648.02 L 698.428 1648.19 C 641.211 1648.51 583.992 1648.54 526.775 1648.28 C 525.874 1609.73 526.447 1568.52 526.375 1529.81 L 526.661 1289.06 z" fill="rgb(107,175,190)" transform="translate(0,0)"></path>
<path d="M 989.61 475.441 C 996.855 475.126 1004.11 475.137 1011.35 475.473 C 1097.95 479.126 1168.52 515.498 1226.73 578.689 C 1217.49 583.457 1194.43 603.223 1185 610.935 L 1105.63 676.171 C 1085.84 692.557 1053.42 713.314 1042.64 735.499 C 1019.14 746.09 999.014 752.614 976.599 766.073 C 927.548 795.525 913.343 824.533 889.005 872.927 C 876.582 897.628 858.43 926.898 841.776 948.87 C 822.455 973.529 800.951 996.87 773.975 1013.33 C 763.839 1019.51 753.49 1020.7 748.256 1007.99 C 745.194 1000.56 751.407 990.332 754.42 983.281 C 708.617 929.757 685.206 867.76 682.353 797.595 C 678.947 716.008 708.456 636.472 764.252 576.849 C 824.804 511.219 901.05 479.057 989.61 475.441 z" fill="rgb(247,205,62)" transform="translate(0,0)"></path>
<path d="M 1253.89 689.166 C 1262.72 699.852 1269.86 749.382 1268.51 764.191 C 1267.79 772.444 1261.6 785.053 1263.31 793.043 C 1269.09 820.158 1280.34 847.239 1290.41 873.03 C 1293.95 882.091 1302.02 895.61 1300.1 905.068 C 1294.55 932.365 1266.49 907.79 1250.4 918.569 C 1249.44 921.524 1249.28 920.134 1250.38 922.853 C 1254.5 923.976 1256.25 920.707 1262.06 921.165 C 1240.67 936.577 1265.49 950.569 1242.33 965.544 C 1232.49 963.266 1221.8 961.874 1212.05 965.158 C 1209.03 966.174 1208.72 966.334 1205.61 966.731 C 1203.71 963.409 1208.2 963.727 1206.74 957.488 L 1207.53 959.206 L 1207.6 958.846 L 1205.31 957.626 L 1202.95 958.587 C 1199.47 963.266 1196.54 966.013 1197.18 971.608 C 1198.55 972.726 1199.91 973.957 1201.92 973.446 C 1216.14 969.836 1225.22 967.606 1239.94 969.227 C 1251.2 999.825 1229.17 988.978 1226.75 1011.22 C 1225.6 1021.78 1238.78 1036.76 1234.61 1050.35 C 1231.34 1060.99 1223.97 1069.05 1214.46 1074.07 C 1177.89 1093.37 1101.6 1085.01 1065.79 1069.22 C 1060 1066.7 1054.42 1063.7 1049.11 1060.26 C 1044.66 1057.36 1036.29 1049.57 1033.47 1048.74 L 1031.86 1049.96 C 1032.84 1056.19 1041.43 1061.01 1046.47 1064.41 C 1072.03 1081.65 1103.37 1085.36 1133.24 1088.96 C 1132.4 1090.2 1131.58 1091.44 1130.78 1092.7 C 1111.14 1123.6 1121.35 1174.94 1128.91 1209.36 L 1067.5 1209.6 L 795.557 1209.62 C 805.341 1173.07 816.968 1122.85 809.483 1085.33 C 807.566 1075.72 803.902 1068.6 799.314 1060.02 C 831.669 1053.38 839.331 1039.41 849.154 1010.73 C 864.347 1014.69 877.254 1018.23 892.449 1010.46 C 916.788 998.015 921.331 976.076 926.189 951.845 C 928.077 942.431 931.45 931.696 934.428 922.526 C 938.459 923.897 942.244 924.939 946.297 926.108 C 989.937 938.631 1032.15 903.036 1049.74 865.766 C 1056.91 850.588 1058.81 838.994 1060.11 822.492 C 1069.38 811.482 1083.35 811.7 1096 806.911 C 1112.1 800.818 1132.84 782.578 1135.76 764.727 C 1137.15 756.201 1134.7 746.768 1138.78 738.731 C 1146.26 723.985 1234.67 695.937 1253.89 689.166 z" fill="rgb(247,205,62)" transform="translate(0,0)"></path>
<path d="M 1231.51 751.339 C 1237.02 750.735 1255.34 750.37 1253.28 759.544 C 1247.93 764.669 1242.13 763.474 1234.47 763.486 C 1237.05 769.571 1246.22 782.455 1246.74 785.075 L 1245.4 786.837 C 1239.05 789.25 1232.55 788.75 1225.54 789.039 C 1221.14 800.674 1217.72 803.221 1208.11 810.518 C 1209.54 816.794 1211.64 823.948 1213.32 830.246 C 1193.3 827.524 1178.44 824.133 1163.95 808.945 C 1174.94 801.43 1186.58 794.925 1198.75 789.51 C 1206.51 786.236 1216.09 782.797 1224.15 780.072 C 1227.34 778.995 1234.17 779.987 1236.09 777.913 C 1225.16 743.242 1161.74 797.55 1146.92 790.96 L 1146.8 789.646 C 1151.82 785.338 1157.74 784.302 1163.24 780.827 C 1185.64 766.675 1204.48 754.827 1231.51 751.339 z" fill="rgb(30,30,29)" transform="translate(0,0)"></path>
<path d="M 1200.43 793.953 L 1201.16 794.167 C 1201.96 795.285 1205.22 819.404 1206.78 824.787 C 1197.56 822.684 1192.96 821.475 1184.21 818.045 C 1178.05 814.975 1176.34 813.801 1170.91 809.803 C 1179.99 804.445 1190.99 798.948 1200.43 793.953 z" fill="rgb(251,238,222)" transform="translate(0,0)"></path>
<path d="M 1234.39 757.731 C 1218.19 757.561 1203.58 766.192 1188.3 771.61 L 1188.83 770.511 C 1207.86 760.432 1219.2 755.57 1240.41 754.924 C 1244.54 755.654 1243.4 754.612 1245.32 756.986 C 1241.55 759.242 1238.64 758.4 1234.39 757.731 z" fill="rgb(138,119,86)" transform="translate(0,0)"></path>
<path d="M 1240.41 754.924 C 1244.54 755.654 1243.4 754.612 1245.32 756.986 C 1241.55 759.242 1238.64 758.4 1234.39 757.731 L 1235.14 756.34 L 1240.41 754.924 z" fill="rgb(247,205,62)" transform="translate(0,0)"></path>
<path d="M 1218.53 789.013 L 1218.93 790.433 C 1217.68 797.22 1212.71 801.509 1208.01 806.481 C 1207.22 802.247 1207.06 798.207 1206.77 793.915 C 1210.53 792.523 1214.79 790.595 1218.53 789.013 z" fill="rgb(251,238,222)" transform="translate(0,0)"></path>
<path d="M 1230.17 893.862 C 1233.88 893.744 1233.87 893.104 1236.4 894.781 C 1235.19 900.29 1208.81 905.603 1233.3 922.055 C 1222.43 929.395 1207.52 906.439 1230.17 893.862 z" fill="rgb(30,30,29)" transform="translate(0,0)"></path>
<path d="M 1213.49 1213.5 L 1430.75 1213.12 C 1430.55 1236.84 1430.51 1260.56 1430.64 1284.28 L 742.5 1284.32 L 526.653 1284.74 C 525.982 1262.3 526.188 1236.33 526.539 1213.87 L 1213.49 1213.5 z" fill="rgb(237,172,144)" transform="translate(0,0)"></path>
<path d="M 1435.49 432.151 L 1506.95 432.499 L 1507.62 1207.84 C 1483.51 1207.59 1459.4 1207.74 1435.29 1208.28 L 1435.49 432.151 z" fill="rgb(237,172,144)" transform="translate(0,0)"></path>
<path d="M 1262.85 643.942 C 1275.65 643.963 1281.74 664.112 1284.05 674.518 C 1242.14 689.143 1185.44 706.071 1145 726.211 C 1120.83 738.253 1143.13 765.293 1113.32 790.504 C 1107.25 795.628 1100.4 799.756 1093.03 802.735 C 1065.55 813.606 1057.83 803.994 1053.27 838.865 C 1047.98 879.299 1005.96 924.245 963.539 923.91 C 948.757 923.794 922.22 913.222 912.111 902.674 C 906.103 903.966 899.964 905.24 898.639 912.413 L 899.875 913.982 C 903.367 914.606 905.537 913.066 908.862 911.534 C 915.844 914.768 922.934 917.763 930.119 920.514 C 927.141 928.983 925.058 935.769 922.904 944.501 C 918.17 963.386 917.497 984.107 902.163 998.095 C 885.382 1013.4 871.071 1009.86 851.281 1007.15 C 846.257 1006.47 843.269 1012.04 841.917 1016.04 C 840.373 1020.6 838.64 1026.24 836.632 1030.71 C 829.684 1044.04 812.021 1055.61 796.886 1054.76 C 780.916 1053.86 767.58 1037.24 758.062 1026.24 C 786.839 1013.37 800.049 1001.48 822.109 979.564 C 857.007 941.879 883.982 894.168 907.125 848.443 C 929.529 804.176 957.367 778.865 1002.25 758.359 C 1023.71 802.463 1009.84 865.838 958.936 881.544 C 953.936 883.087 935.677 885.906 933.035 888.584 L 934.01 890.045 C 939.483 892.693 955.835 887.873 961.768 885.808 C 982.029 878.619 998.517 863.536 1007.48 843.994 C 1022.02 813.014 1017.84 786.941 1006.62 756.094 C 1034.63 745.162 1065.73 729.977 1093.47 717.579 C 1149.54 692.153 1206.01 667.605 1262.85 643.942 z" fill="rgb(247,205,62)" transform="translate(0,0)"></path>
<path d="M 871.401 961.238 C 874.389 962.355 873.249 961.437 875.002 964.005 C 874.195 966.769 874.265 965.727 874.53 968.597 C 878.159 969.236 881.224 969.279 882.732 973.003 C 879.124 975.425 877.149 974.581 872.586 975.501 C 873.69 978.187 874.471 980.481 875.386 983.212 C 873.066 984.949 873.272 984.922 870.391 985.061 C 868.548 982.34 869.614 979.931 869.35 975.507 C 866.686 975.842 865.661 975.84 862.961 975.804 L 861.753 973.94 L 862.516 972.056 C 865.012 971.505 866.751 971.381 868.749 969.803 C 869.216 965.307 869.255 965.152 871.401 961.238 z" fill="rgb(30,30,29)" transform="translate(0,0)"></path>
<path d="M 1495.59 1401.29 C 1498.52 1400.91 1498.41 1400.89 1501.3 1401.41 C 1504.65 1406.2 1502.63 1621.57 1502.63 1647.5 C 1480.97 1647.55 1458.61 1648.1 1437.02 1647.64 C 1435.13 1645.88 1435.78 1645.81 1435.62 1642.25 L 1435.75 1483.35 C 1446.31 1474.65 1473.37 1468.39 1463.58 1449.9 C 1459.9 1442.94 1454.35 1439.45 1448 1435.19 C 1457.2 1413.78 1473.55 1404.72 1495.59 1401.29 z" fill="rgb(251,238,222)" transform="translate(0,0)"></path>
<path d="M 1231.32 582.221 C 1263.1 576.907 1257 621.126 1256.64 640.928 C 1194.84 665.962 1130.59 695.658 1069.67 723.036 C 1063.12 726.043 1056.52 728.945 1049.87 731.741 C 1062.44 713.738 1089.28 696.066 1106.76 681.555 C 1133.39 659.131 1160.25 636.973 1187.33 615.087 C 1197.85 606.546 1220.27 587.071 1231.32 582.221 z" fill="rgb(247,205,62)" transform="translate(0,0)"></path>
<path d="M 1488.46 1373.34 C 1491.73 1373.09 1495 1372.93 1498.27 1372.86 C 1586.53 1371.86 1617.2 1486.19 1537.61 1526.72 C 1528.01 1531.6 1517.83 1531.59 1507.44 1531.44 L 1507.21 1515.7 C 1527.56 1513.91 1536.9 1507.95 1549.95 1493.03 C 1596.26 1432.72 1513.29 1364.01 1458.4 1411.39 C 1450.87 1417.89 1446.77 1425.01 1442.32 1433.74 C 1432.19 1430.17 1428.67 1428.79 1419.72 1422.94 C 1422.64 1418.31 1425.79 1413.83 1429.17 1409.51 C 1444.6 1389.55 1463.28 1376.65 1488.46 1373.34 z" fill="rgb(193,126,69)" transform="translate(0,0)"></path>
<path d="M 1512.09 1212.09 L 1591.27 1212.07 L 1591.3 1284.43 L 1512.12 1284.29 C 1511.71 1260.62 1512.07 1235.85 1512.09 1212.09 z" fill="rgb(107,175,190)" transform="translate(0,0)"></path>
<path d="M 442.904 1214.03 L 521.951 1213.94 L 522.036 1284.97 L 442.694 1285.04 L 442.904 1214.03 z" fill="rgb(107,175,190)" transform="translate(0,0)"></path>
<path d="M 1494.25 350.497 L 1506.98 350.616 C 1507.23 376.354 1507.24 402.094 1507.01 427.832 L 1448.33 427.801 L 1435.48 427.83 C 1435.96 402.496 1435.54 376.033 1435.46 350.613 L 1494.25 350.497 z" fill="rgb(107,175,190)" transform="translate(0,0)"></path>
<path d="M 1435.35 1212.39 C 1459.04 1211.7 1483.94 1212.06 1507.69 1212.14 C 1507.68 1236.2 1507.55 1260.26 1507.3 1284.32 L 1435.11 1284.29 C 1434.99 1260.32 1435.07 1236.35 1435.35 1212.39 z" fill="rgb(107,175,190)" transform="translate(0,0)"></path>
<path d="M 1406.28 1427.35 C 1422.67 1426.45 1435.48 1432.91 1449.03 1441.87 C 1453.21 1444.63 1458.98 1451.54 1458.93 1456.9 C 1458.82 1471.01 1443.88 1469.75 1434.1 1469.5 C 1426.2 1484.71 1421.9 1489.99 1409.31 1501.65 C 1399.53 1490.14 1389.72 1497.42 1381.92 1507.03 C 1373.8 1517.05 1379.14 1516.3 1379.3 1521.28 C 1376.18 1524.38 1375.87 1524.6 1372.01 1526.8 L 1371.23 1526.05 C 1372.63 1522.82 1373.79 1520.56 1375.46 1517.46 C 1370.89 1520.54 1362.76 1527.26 1357.78 1522.35 C 1356.69 1504.58 1385.17 1479.09 1399.24 1470.19 C 1407.54 1464.55 1419.97 1453.78 1408.11 1442.2 C 1399.94 1434.22 1383.46 1454.4 1395.12 1460.14 C 1397.91 1455.84 1395.92 1449.94 1400.16 1445.73 C 1411.45 1445.05 1408.78 1459.44 1397.83 1465.16 C 1384.34 1472.2 1354.91 1503.18 1354.59 1518.41 L 1353.66 1517.84 C 1350.15 1491.08 1379.13 1472.92 1375.24 1446.71 L 1375.03 1445.36 C 1376.23 1443.65 1377.46 1441.95 1378.72 1440.28 C 1386.97 1429.36 1393.6 1429.1 1406.28 1427.35 z" fill="rgb(247,205,62)" transform="translate(0,0)"></path>
<path d="M 1439.93 1448.02 C 1450.82 1447.2 1456.79 1454.23 1447.62 1462.09 C 1442.29 1461.23 1436.17 1461.34 1434.37 1455.79 C 1435.27 1452.05 1437.18 1450.76 1439.93 1448.02 z" fill="rgb(30,30,29)" transform="translate(0,0)"></path>
<path d="M 1601.51 1367.65 C 1605.27 1371.77 1615.55 1384.25 1615.47 1389.55 C 1606.16 1395.17 1597.57 1398.77 1588.83 1405.35 C 1596.13 1402.4 1609.62 1396.81 1615.68 1392.28 C 1616.21 1392.3 1617.77 1392.77 1618.37 1392.93 C 1625.87 1402.67 1629.49 1419.08 1632.03 1430.82 C 1617.39 1435.19 1602.9 1438.9 1588.11 1442.72 C 1586.56 1436.03 1584.53 1430.16 1582.37 1423.65 C 1590.18 1420.5 1601.11 1416.17 1607.7 1411.15 L 1607 1410.68 C 1601.42 1412.16 1587.02 1417.96 1580.98 1420.16 C 1575.75 1410.59 1571.23 1403.81 1564.6 1395.22 C 1576.91 1387.18 1588.83 1376.38 1601.51 1367.65 z" fill="rgb(247,205,62)" transform="translate(0,0)"></path>
<path d="M 1527.67 1535.48 L 1528.6 1536.18 C 1529.65 1542.59 1529.19 1565.83 1529.2 1573.29 L 1529.25 1647.67 L 1508.34 1647.62 L 1507.44 1646.73 C 1506.43 1638.98 1506.98 1618 1506.99 1609.43 L 1507.09 1535.64 C 1513.94 1535.85 1520.81 1535.62 1527.67 1535.48 z" fill="rgb(107,175,190)" transform="translate(0,0)"></path>
<path d="M 1435.33 1288.8 C 1459.49 1288.65 1483.64 1288.71 1507.79 1288.97 L 1507.92 1316.97 C 1501.86 1316.96 1496.28 1317.37 1490.25 1317.77 C 1467.88 1319.24 1455.36 1324.39 1435.71 1334.1 C 1435.35 1319 1435.23 1303.9 1435.33 1288.8 z" fill="rgb(251,238,222)" transform="translate(0,0)"></path>
<path d="M 1507.04 1411.58 C 1541.85 1416.41 1550.77 1458.44 1531.72 1485.21 C 1523.39 1493.5 1518.31 1494.33 1507.19 1496.6 L 1507.04 1411.58 z" fill="rgb(107,175,190)" transform="translate(0,0)"></path>
<path d="M 1425.36 1348.79 C 1441.32 1335.82 1461.45 1327.35 1481.52 1323.22 C 1481.75 1337.96 1481.27 1354.28 1481.19 1369.13 C 1475.5 1370.16 1470.78 1372.53 1465.59 1373.36 C 1461.33 1361.01 1456.24 1346.65 1450.3 1335.05 C 1452.36 1345.32 1459.4 1363.8 1463.15 1374.43 C 1462.61 1374.91 1447.22 1384.45 1444.26 1386.52 C 1438.2 1373.8 1432.36 1361.02 1425.36 1348.79 z" fill="rgb(247,205,62)" transform="translate(0,0)"></path>
<path d="M 1558.76 1334.18 C 1575.02 1341.16 1586.83 1351.18 1598.69 1364.2 C 1590.83 1370.89 1580.19 1378.47 1571.8 1384.79 C 1568.51 1387.22 1564.98 1389.63 1561.62 1392 C 1552.73 1383.84 1548.19 1381.26 1537.39 1375.65 C 1544.31 1361.72 1551.44 1347.9 1558.76 1334.18 z" fill="rgb(247,205,62)" transform="translate(0,0)"></path>
<path d="M 1534.18 1561.86 C 1555.82 1561.72 1577.61 1562.83 1599.38 1562.97 L 1599.65 1589.91 C 1577.82 1589.41 1555.99 1589.23 1534.16 1589.34 L 1534.18 1561.86 z" fill="rgb(247,205,62)" transform="translate(0,0)"></path>
<path d="M 1487.73 1322.52 C 1506.63 1321.39 1512.48 1321.41 1530.89 1325.47 C 1525.9 1336.87 1522.41 1346.97 1518.65 1358.72 L 1516.39 1369.28 C 1505.35 1367.42 1496.82 1367.8 1485.65 1368.27 C 1485.69 1357.23 1485.15 1333.59 1486.35 1323.59 L 1487.73 1322.52 z" fill="rgb(247,205,62)" transform="translate(0,0)"></path>
<path d="M 1534.17 1593.03 C 1556.05 1592.93 1577.93 1593.04 1599.81 1593.34 C 1599.8 1601.68 1599.73 1610.03 1599.6 1618.37 C 1577.79 1618.26 1555.99 1618.39 1534.19 1618.74 L 1534.17 1593.03 z" fill="rgb(247,205,62)" transform="translate(0,0)"></path>
<path d="M 1545.41 1528.86 C 1546.34 1528.8 1600.89 1541.55 1607.53 1542.73 L 1600.61 1550.44 C 1600.19 1554.11 1600.1 1556.63 1598.77 1560.13 C 1576.83 1559.69 1556.35 1558.75 1534.2 1558.82 L 1534.27 1534.46 L 1545.41 1528.86 z" fill="rgb(247,205,62)" transform="translate(0,0)"></path>
<path d="M 1534.29 1622.12 L 1599.71 1621.89 L 1599.78 1647.16 L 1534.57 1647.08 C 1534.13 1639.45 1534.33 1629.89 1534.29 1622.12 z" fill="rgb(247,205,62)" transform="translate(0,0)"></path>
<path d="M 1571.63 1504.56 C 1589.42 1507.59 1607.64 1511.02 1625.64 1512.15 C 1622.02 1520 1617.54 1530.85 1611.65 1537.35 C 1609.44 1539.78 1608.43 1539.2 1605.79 1539.01 C 1585.6 1534.37 1569.95 1532.73 1549.28 1526.3 C 1559.34 1518.95 1563.6 1514.19 1571.63 1504.56 z" fill="rgb(247,205,62)" transform="translate(0,0)"></path>
<path d="M 1506.21 1401.81 C 1529.34 1401.54 1549.88 1420.63 1555.49 1442.49 C 1559.12 1456.99 1556.73 1472.35 1548.86 1485.06 C 1541.36 1497.06 1530.09 1505.65 1516.25 1508.87 C 1513.01 1509.17 1512.34 1509.41 1509.11 1508.77 C 1506.58 1506.31 1507.24 1507.75 1506.86 1504.41 C 1510.39 1498.04 1518.95 1499.66 1525.02 1496.32 C 1546.61 1484.45 1552.99 1453.13 1541.82 1431.92 C 1535.69 1420.38 1525.17 1411.8 1512.64 1408.12 C 1506.69 1406.43 1507.56 1407.17 1506.21 1401.81 z" fill="rgb(247,205,62)" transform="translate(0,0)"></path>
<path d="M 1423.76 1599.47 C 1428.12 1599.5 1427.73 1598.76 1430.28 1600.92 C 1432.24 1606.82 1431.2 1614.32 1431.03 1620.96 L 1384.75 1621.64 C 1380.34 1621.7 1382.01 1622.45 1379.04 1620.47 C 1376.96 1614.23 1378.12 1606.88 1378.45 1600 C 1393.29 1600.34 1408.86 1599.79 1423.76 1599.47 z" fill="rgb(247,205,62)" transform="translate(0,0)"></path>
<path d="M 1422.82 1349.94 C 1424.94 1352.51 1438.02 1384.2 1440.41 1389.53 L 1432.67 1397.14 L 1418.61 1392.96 C 1411.14 1390.66 1403.72 1388.23 1396.33 1385.67 C 1404.14 1370.52 1410.22 1361.49 1422.82 1349.94 z" fill="rgb(247,205,62)" transform="translate(0,0)"></path>
<path d="M 1394.17 1570.13 C 1401.8 1570.85 1401.99 1571.04 1406.91 1576.95 L 1431 1577.74 L 1431.02 1596.8 L 1417.98 1596.64 C 1405.34 1596.99 1393.07 1597.73 1380.62 1595.38 C 1380.75 1583.5 1381.24 1573.6 1394.17 1570.13 z" fill="rgb(247,205,62)" transform="translate(0,0)"></path>
<path d="M 1583.82 1482.12 C 1601.37 1484.88 1614.57 1487.54 1631.69 1491.89 C 1630.26 1497.45 1629.16 1506.57 1624.14 1509.33 C 1610.11 1508.46 1588.72 1504.11 1574.23 1501.51 C 1578.41 1494.3 1580.49 1489.81 1583.82 1482.12 z" fill="rgb(247,205,62)" transform="translate(0,0)"></path>
<path d="M 1631.19 1435.12 L 1632.65 1435.65 C 1635.33 1442.27 1634.97 1453.51 1634.95 1460.69 C 1620.88 1461.37 1606.81 1462.17 1592.76 1463.12 L 1590.07 1462.82 C 1587.92 1459.79 1588.77 1450.67 1588.86 1446.37 C 1603.1 1443.13 1617.22 1439.38 1631.19 1435.12 z" fill="rgb(247,205,62)" transform="translate(0,0)"></path>
<path d="M 1536.71 1326.11 C 1542.94 1327.65 1547.88 1329.59 1553.87 1331.83 C 1550.79 1341.3 1539.74 1363.16 1534.96 1374.39 C 1529.36 1372.44 1523.6 1370.87 1517.91 1369.23 C 1521.53 1358.05 1530.29 1335.05 1536.71 1326.11 z" fill="rgb(247,205,62)" transform="translate(0,0)"></path>
<path d="M 1606.25 1465.54 C 1615.68 1465.11 1625.66 1465.09 1635.13 1464.9 C 1634.45 1474.16 1633.77 1480.89 1631.81 1489.88 C 1626.58 1488.43 1620.5 1486.35 1615.25 1484.69 C 1604.61 1481.94 1595.88 1480.39 1585.11 1478.51 L 1588.74 1466.13 L 1606.25 1465.54 z" fill="rgb(247,205,62)" transform="translate(0,0)"></path>
<path d="M 1394.92 1388.3 C 1407.49 1392.01 1418.29 1395.39 1431.11 1398.83 C 1427.55 1402.75 1424.06 1407.56 1420.8 1411.8 L 1419.62 1413.62 C 1415.22 1415.75 1395.39 1409.68 1389.22 1408.29 C 1391 1400.63 1392.41 1395.76 1394.92 1388.3 z" fill="rgb(247,205,62)" transform="translate(0,0)"></path>
<path d="M 1397.64 1499.63 C 1400.34 1499.84 1399.61 1499.81 1402.25 1500.83 C 1406.75 1509.05 1391.05 1524.26 1384.04 1527.86 C 1382.05 1528.37 1380.58 1528.62 1378.56 1529 C 1386.16 1516.15 1386.22 1507.59 1397.64 1499.63 z" fill="rgb(247,205,62)" transform="translate(0,0)"></path>
<path d="M 1388.98 1413.81 L 1390.48 1413.99 C 1394.7 1414.54 1411.77 1417.98 1414.13 1421.03 L 1412.08 1421.75 C 1402.81 1422.44 1396.7 1423.66 1387.76 1425.88 C 1388.08 1421.91 1388.57 1417.79 1388.98 1413.81 z" fill="rgb(247,205,62)" transform="translate(0,0)"></path>
<path d="M 1631.69 427.376 C 1643.32 427.099 1655.28 427.323 1666.93 427.398 L 1666.97 941.478 C 1685.15 950.143 1685.4 967.16 1667.04 975.716 L 1666.98 1492.97 C 1666.97 1536.84 1667.29 1599.33 1666.48 1644.16 C 1666.46 1645.38 1664.77 1645.72 1663.12 1646.53 C 1661.07 1640.17 1661.8 1601.21 1661.79 1591.73 L 1661.96 1477.55 L 1661.92 976.502 C 1652.19 973.007 1642.96 966.838 1645.31 954.624 C 1646.59 947.988 1655.24 943.224 1660.6 939.902 C 1662.37 928.39 1661.84 898.565 1661.88 886.25 L 1661.83 778.982 L 1662 432.54 C 1655.21 432.216 1635.39 433.492 1631.27 430.444 L 1631.69 427.376 z" fill="rgb(30,30,29)" transform="translate(0,0)"></path>
<path d="M 1659.15 946.6 C 1665.78 944.604 1672.77 948.335 1674.8 954.949 C 1676.83 961.564 1673.14 968.576 1666.53 970.641 C 1659.88 972.72 1652.81 968.992 1650.76 962.329 C 1648.72 955.667 1652.48 948.611 1659.15 946.6 z" fill="rgb(251,238,222)" transform="translate(0,0)"></path>
<path d="M 379.285 1228.69 L 379.284 1225.6 C 383.455 1221.88 397.943 1223.58 402.562 1226.93 L 402.304 1228.19 C 396.929 1229.61 394.875 1228 392.864 1230.4 C 393.672 1239.13 401.584 1234.21 402.586 1238.8 C 400.209 1240.53 398.01 1240.1 394.964 1240.09 C 392.696 1242.31 393.512 1240.93 393.16 1244.71 C 395.029 1247.08 395.307 1246.77 399.216 1247.21 C 400.289 1247.32 401.362 1247.43 402.436 1247.52 L 403.286 1248.98 L 402.462 1250.64 C 399.341 1251.41 398.834 1251.33 395.709 1251.42 C 395.26 1251.88 394.811 1252.34 394.361 1252.8 C 393.282 1291.81 394.091 1374.08 393.773 1408.54 C 416.573 1416.26 413.942 1436.43 393.625 1446.1 L 393.807 1608.83 C 398.133 1608.9 402.901 1608.09 405.596 1610.3 L 405.395 1612.31 C 399.244 1616.12 395.491 1609.18 392.288 1617.04 L 393.343 1618.9 C 396.043 1619.49 398.752 1620.04 401.468 1620.55 L 401.951 1621.99 C 397.824 1626.56 393.571 1620.03 392.859 1628.51 L 393.751 1630.47 C 398.148 1631.5 401.533 1630.6 403.453 1632.47 L 402.73 1634.59 C 397.533 1635.25 382.34 1636.37 377.851 1635.18 L 376.952 1633.96 C 380.954 1628.6 386.861 1634.21 389.593 1627.37 L 388.79 1625.49 C 385.252 1624.4 384.656 1624.37 381.11 1623.95 C 380.569 1622.69 380.309 1622.42 380.132 1621.1 C 385.75 1618.43 386.363 1622.83 390.165 1616.04 C 388.256 1611.29 378.712 1613.47 375.004 1615.51 C 375.49 1613.31 375.659 1612.84 376.509 1610.76 C 380.209 1608.51 384.477 1609.19 389.035 1609.24 C 389.8 1555.24 389.13 1499.58 389.116 1445.48 C 367.502 1437.95 366.963 1416.68 388.997 1408.43 C 389.322 1372.09 390.141 1292.91 389.238 1252.67 C 388.791 1252.18 388.343 1251.68 387.895 1251.18 C 384.85 1251.11 384.402 1251.1 381.445 1250.46 L 380.088 1247.95 C 380.949 1247.63 385.421 1246.77 386.74 1246.48 C 390.123 1243.42 389.443 1245.17 389.96 1241.57 C 386.095 1239.51 385.412 1239.74 380.863 1239.6 L 380.873 1237.16 C 381.672 1236.78 385.801 1235.59 387.108 1235.14 C 389.271 1232.07 389.136 1233.54 388.852 1230.68 C 384.73 1228.08 384.939 1228.96 379.285 1228.69 z" fill="rgb(30,30,29)" transform="translate(0,0)"></path>
<path d="M 387.049 1413.58 C 391.629 1412 396.704 1413.01 400.336 1416.21 C 403.968 1419.42 405.594 1424.33 404.595 1429.07 C 403.595 1433.81 400.123 1437.65 395.506 1439.12 C 388.487 1441.35 380.981 1437.52 378.666 1430.53 C 376.35 1423.53 380.087 1415.98 387.049 1413.58 z" fill="rgb(251,238,222)" transform="translate(0,0)"></path>
<path d="M 1542.65 427.248 C 1550.98 427.154 1586.17 425.883 1591.35 428.565 L 1592.22 432.107 C 1584.68 432.19 1547.54 433.117 1543.41 431.443 L 1542.65 427.248 z" fill="rgb(30,30,29)" transform="translate(0,0)"></path>
<metadata><recraft-signature>{"signed_by": "recraft", "signature_b64": "ya058Eo/CBVG7zOvRH+rGhoc6uQ0AIZS6YUbZTOrLr2Z+PEedmK19O1Rv+h+jlwqywT/RBpUKzFfnwy/NMPiBw==", "signing_algo": "Ed25519", "generation_timestamp": 1784270407, "identifier": "510e3764-2fd9-4ce2-9830-a3d5c3a5e4f9"}</recraft-signature></metadata></svg>