<svg xmlns="http://www.w3.org/2000/svg" viewBox="0 0 24 24"><path d="M 12 16 A 3 3 0 0 1 9 13 C 9 11.88 9.61 10.9 10.5 10.39 L 20.21 4.77 L 14.68 14.35 C 14.18 15.33 13.17 16 12 16 M 12 3 C 13.81 3 15.5 3.5 16.97 4.32 L 14.87 5.53 C 14 5.19 13 5 12 5 A 8 8 0 0 0 4 13 C 4 15.21 4.89 17.21 6.34 18.65 H 6.35 C 6.74 19.04 6.74 19.67 6.35 20.06 C 5.96 20.45 5.32 20.45 4.93 20.07 V 20.07 C 3.12 18.26 2 15.76 2 13 A 10 10 0 0 1 12 3 M 22 13 C 22 15.76 20.88 18.26 19.07 20.07 V 20.07 C 18.68 20.45 18.05 20.45 17.66 20.06 C 17.27 19.67 17.27 19.04 17.66 18.65 V 18.65 C 19.11 17.2 20 15.21 20 13 C 20 12 19.81 11 19.46 10.1 L 20.67 8 C 21.5 9.5 22 11.18 22 13 Z"/></svg>
